<?xml version="1.0" encoding="UTF-8" standalone="no"?>
<!-- Created with Inkscape (http://www.inkscape.org/) -->
<svg
   xmlns:dc="http://purl.org/dc/elements/1.1/"
   xmlns:cc="http://web.resource.org/cc/"
   xmlns:rdf="http://www.w3.org/1999/02/22-rdf-syntax-ns#"
   xmlns:svg="http://www.w3.org/2000/svg"
   xmlns="http://www.w3.org/2000/svg"
   xmlns:sodipodi="http://sodipodi.sourceforge.net/DTD/sodipodi-0.dtd"
   xmlns:inkscape="http://www.inkscape.org/namespaces/inkscape"
   width="229.32068"
   height="149.88539"
   id="svg2"
   sodipodi:version="0.32"
   inkscape:version="0.45pre1"
   sodipodi:docbase="E:\lenny\workspace\radiodoc\uv-5r\assets\images"
   sodipodi:docname="kenwood-2pin-wiring-test.svg"
   inkscape:output_extension="org.inkscape.output.svg.inkscape"
   version="1.0"
   inkscape:export-filename="E:\lenny\workspace\radiodoc\kenwood-2pin-wiring2.png"
   inkscape:export-xdpi="300"
   inkscape:export-ydpi="300"
   sodipodi:modified="true">
  <defs
     id="defs4" />
  <sodipodi:namedview
     id="base"
     pagecolor="#ffffff"
     bordercolor="#666666"
     borderopacity="1.0"
     gridtolerance="10000"
     guidetolerance="10"
     objecttolerance="10"
     inkscape:pageopacity="0.0"
     inkscape:pageshadow="2"
     inkscape:zoom="3.959798"
     inkscape:cx="109.97141"
     inkscape:cy="92.348159"
     inkscape:document-units="px"
     inkscape:current-layer="layer1"
     inkscape:window-width="1600"
     inkscape:window-height="1180"
     inkscape:window-x="-4"
     inkscape:window-y="-4"
     showguides="true"
     inkscape:guide-bbox="true" />
  <metadata
     id="metadata7">
    <rdf:RDF>
      <cc:Work
         rdf:about="">
        <dc:format>image/svg+xml</dc:format>
        <dc:type
           rdf:resource="http://purl.org/dc/dcmitype/StillImage" />
      </cc:Work>
    </rdf:RDF>
  </metadata>
  <g
     inkscape:label="Layer 1"
     inkscape:groupmode="layer"
     id="layer1"
     transform="translate(-101.22965,-437.05917)">
    <path
       style="fill:#000000"
       d="M 93.375,0 C 93.194213,0.11174 93.09376,4.75298 93.09375,12.96875 L 93.09375,25.71875 L 87.75,25.71875 L 82.40625,25.71875 L 82.40625,12.9375 C 82.40625,4.5947901 82.30834,0.15625 82.125,0.15625 C 81.941672,0.15625 81.84375,4.57338 81.84375,12.875 L 81.84375,25.625 L 80.625,26.03125 C 79.606411,26.383369 79.39496,26.56741 79.21875,27.40625 C 79.105033,27.94759 78.59849,36.9515 78.0625,47.40625 C 77.399077,60.34608 76.96498,66.69383 76.71875,67.25 C 76.519807,67.69935 75.34035,69.83465 74.09375,72 C 71.601214,76.3296 71.26907,77.05024 71,78.8125 L 70.8125,80 L 59.90625,80 L 48.96875,80 L 48.375,80.75 C 47.915168,81.334577 47.81251,81.89784 47.8125,83.40625 C 47.812501,85.282914 47.79034,85.3189 47.03125,85.40625 C 46.30156,85.490212 46.26607,85.57063 46.1875,87.0625 L 46.09375,88.65625 L 33.1875,88.78125 C 22.432328,88.882701 20.20947,88.96593 19.6875,89.3125 C 19.13729,89.677827 18.66961,89.66962 15.71875,89.3125 L 12.34375,88.90625 L 11.09375,90.15625 C 9.9080598,91.319923 9.84375,91.45186 9.84375,92.9375 C 9.8437502,94.437962 9.91008,94.55972 11.1875,95.8125 L 12.5,97.125 L 15.75,96.71875 C 18.78589,96.319369 19.02052,96.31293 19.8125,96.78125 C 20.578361,97.234142 21.8545,97.29987 33.40625,97.40625 L 46.125,97.5 L 46.125,99.03125 C 46.125,100.49391 46.15633,100.55627 46.96875,100.71875 L 47.8125,100.875 L 47.8125,111.6875 L 47.8125,122.46875 L 46.96875,122.46875 C 46.218841,122.46875 46.125,122.5626 46.125,123.3125 L 46.125,124.15625 L 32.0625,124.15625 C 22.876149,124.15625 18,124.25378 18,124.4375 C 18.000001,124.59467 17.22217,124.71875 16.25,124.71875 C 14.93737,124.71875 14.3756,124.84933 13.9375,125.25 C 13.37764,125.76203 13.17295,125.77713 8.5,125.375 L 3.65625,124.9375 L 1.84375,126.59375 L 0.03125,128.25 L 0,130.0625 L 0,131.90625 L 1.8125,133.6875 L 3.59375,135.46875 L 8.46875,135.03125 L 13.34375,134.59375 L 14.15625,135.34375 L 14.9375,136.125 L 30.53125,136.21875 L 46.125,136.3125 L 46.125,137.125 C 46.125,137.84782 46.22442,137.93749 46.96875,137.9375 L 47.8125,137.9375 L 47.8125,139.875 C 47.812501,141.36313 47.93099,141.9588 48.34375,142.46875 L 48.875,143.125 L 59.8125,143.21875 L 70.71875,143.3125 L 71.28125,144.78125 C 71.799504,146.13123 72.00316,146.28916 73.6875,147.125 C 75.961859,148.25366 78.44651,149.03532 80.125,149.375 C 83.541894,150.06646 92.75404,150.03848 95.40625,149.375 C 98.742063,148.5405 103.184,147.74232 104.5,144.21875 C 104.61032,143.77729 105.06199,143.09756 105.5,142.6875 L 106.3125,141.9375 L 106.3125,111.65625 L 106.3125,81.375 L 105.4375,80.5625 C 104.75764,79.927421 104.57498,79.49943 104.5625,78.59375 C 104.54993,77.683759 104.04554,76.59431 102.15625,73.3125 C 100.84635,71.037102 99.49333,68.59508 99.125,67.875 C 98.473143,66.600672 98.40299,66.04312 97.40625,47.0625 C 96.787349,35.27673 96.25617,27.29378 96.0625,26.875 C 95.849057,26.41347 95.3899,26.10332 94.6875,25.9375 L 93.65625,25.6875 L 93.65625,12.75 C 93.656251,4.2052504 93.56092,-0.1149 93.375,0 z M 87.71875,26.5625 C 91.277941,26.55648 94.8279,26.636 95.125,26.75 C 96.536812,27.291769 94.95756,27.40625 87.75,27.40625 C 80.642721,27.40625 78.93965,27.26482 80.28125,26.75 C 80.580978,26.634979 84.15956,26.56851 87.71875,26.5625 z M 79.71875,28.125 L 87.75,28.125 L 95.75,28.125 L 95.84375,29.03125 L 95.9375,29.9375 L 92.875,29.96875 C 89.714851,29.978049 89.23703,30.13215 88.625,31.28125 C 87.890243,32.660839 88.4628,35.54676 89.5625,35.96875 C 89.812858,36.064831 91.40505,36.125 93.09375,36.125 C 95.976618,36.124999 96.1875,36.15941 96.1875,36.6875 C 96.187496,37.215592 95.97661,37.25 93.09375,37.25 C 91.405048,37.25 89.81286,37.34142 89.5625,37.4375 C 88.386228,37.888882 87.89707,40.75482 88.71875,42.34375 C 89.241079,43.353841 89.60726,43.44389 93.5,43.53125 C 96.186923,43.59155 96.60553,43.66582 96.6875,44.09375 C 96.773019,44.540318 96.4663,44.5625 93.40625,44.5625 C 91.551548,44.562498 89.81286,44.65392 89.5625,44.75 C 88.462808,45.17198 87.89024,48.05791 88.625,49.4375 C 89.252393,50.615472 89.70447,50.74068 93.4375,50.75 C 96.832528,50.758462 97.03126,50.77995 97.03125,51.3125 C 97.031251,51.844739 96.83594,51.875 93.53125,51.875 C 91.610554,51.875001 89.81286,51.96643 89.5625,52.0625 C 87.915928,52.694349 87.91593,57.2744 89.5625,57.90625 C 89.812858,58.00233 91.65821,58.0625 93.65625,58.0625 C 97.101546,58.062502 97.3125,58.09159 97.3125,58.625 C 97.312501,59.158401 97.10154,59.1875 93.65625,59.1875 C 91.658216,59.187499 89.81286,59.27892 89.5625,59.375 C 88.384708,59.826961 87.89516,62.68859 88.71875,64.28125 L 89.15625,65.09375 L 87.75,65.09375 L 86.3125,65.09375 L 86.78125,64.21875 C 87.105547,63.591596 87.18422,62.87208 87.09375,61.78125 C 86.89501,59.384859 86.54056,59.1875 81.9375,59.1875 C 78.35974,59.187499 78.18749,59.15943 78.1875,58.625 C 78.187503,58.090571 78.35974,58.0625 81.9375,58.0625 C 86.67223,58.062502 86.95017,57.93312 87.125,55.1875 C 87.232452,53.499961 87.19087,53.25336 86.53125,52.59375 C 85.830061,51.892568 85.68864,51.875 82.125,51.875 C 78.6439,51.875001 78.46875,51.84619 78.46875,51.3125 C 78.468751,50.779169 78.65661,50.75 82.09375,50.75 C 86.790208,50.75 87.03124,50.58973 87.03125,47.65625 C 87.031247,44.736561 86.7486,44.5625 82.1875,44.5625 C 79.001419,44.562498 78.69581,44.54114 78.78125,44.09375 C 78.863138,43.664888 79.35454,43.56003 82.46875,43.4375 C 86.628726,43.273821 86.91437,43.12976 87.125,40.9375 C 87.290721,39.212781 86.77603,37.8857 85.84375,37.53125 C 85.471173,37.389602 83.86395,37.25 82.25,37.25 C 79.50303,37.25 79.31249,37.214 79.3125,36.6875 C 79.312501,36.157992 79.48467,36.125 82.5,36.125 C 86.718389,36.124999 87.03124,35.93452 87.03125,33.0625 C 87.031247,30.228451 86.67665,29.97715 82.59375,29.96875 L 79.5625,29.9375 L 79.625,29.03125 L 79.71875,28.125 z M 80.46875,31.34375 L 83.03125,31.40625 L 85.625,31.5 L 85.625,33.03125 L 85.625,34.59375 L 82.875,34.65625 L 80.15625,34.75 L 80.1875,33.8125 C 80.21067,33.304229 80.27877,32.556 80.34375,32.125 L 80.46875,31.34375 z M 92.5625,31.34375 L 95.0625,31.34375 L 95.0625,32.40625 C 95.064639,32.98626 95.12397,33.73991 95.21875,34.09375 C 95.390821,34.736051 95.39792,34.73703 92.625,34.65625 L 89.84375,34.59375 L 89.78125,33.1875 C 89.735639,32.408209 89.76495,31.67256 89.875,31.5625 C 89.985059,31.45244 91.19625,31.34375 92.5625,31.34375 z M 82.5625,38.65625 C 83.811591,38.630942 85.13066,38.71166 85.4375,38.90625 C 85.681528,39.061009 85.77665,39.61855 85.71875,40.53125 L 85.625,41.90625 L 82.75,41.96875 L 79.875,42.0625 L 79.90625,40.71875 C 79.91848,39.97867 79.9845,39.22459 80.0625,39.03125 C 80.144199,38.828789 81.31341,38.68155 82.5625,38.65625 z M 91.21875,38.6875 C 91.711188,38.670959 92.36492,38.68709 93.21875,38.71875 L 95.46875,38.8125 L 95.5625,40.4375 L 95.625,42.0625 L 92.75,41.96875 L 89.84375,41.90625 L 89.75,40.4375 C 89.673668,39.114852 89.74144,38.73711 91.21875,38.6875 z M 79.59375,45.96875 L 82.59375,46.03125 L 85.625,46.125 L 85.625,47.65625 L 85.625,49.21875 L 82.59375,49.28125 L 79.59375,49.375 L 79.59375,47.65625 L 79.59375,45.96875 z M 93,45.96875 L 95.90625,45.96875 L 95.90625,47.21875 C 95.906253,47.902111 95.96661,48.68761 96.0625,48.9375 C 96.217787,49.342161 95.91022,49.35235 93.0625,49.28125 L 89.84375,49.21875 L 89.78125,47.8125 C 89.735639,47.03322 89.76495,46.29756 89.875,46.1875 C 89.985059,46.077439 91.40174,45.96875 93,45.96875 z M 79.34375,53.28125 L 82.1875,53.3125 C 83.764749,53.31486 85.23473,53.40265 85.4375,53.53125 C 85.681528,53.68601 85.77665,54.24355 85.71875,55.15625 L 85.625,56.53125 L 82.3125,56.59375 C 80.495147,56.637318 79.03387,56.58966 79.0625,56.46875 C 79.091103,56.347838 79.16195,55.59325 79.21875,54.78125 L 79.34375,53.28125 z M 92.15625,53.28125 C 92.510363,53.277309 92.91375,53.28125 93.375,53.28125 C 96.079053,53.281249 96.18448,53.32407 96.1875,53.9375 C 96.189206,54.285501 96.27829,55.0399 96.375,55.625 L 96.53125,56.6875 L 93.1875,56.59375 L 89.84375,56.53125 L 89.75,55.09375 C 89.659698,53.540229 89.67747,53.30883 92.15625,53.28125 z M 91.4375,60.625 C 92.012174,60.610391 92.77026,60.62669 93.78125,60.65625 L 96.59375,60.75 L 96.6875,62.375 L 96.75,64 L 93.3125,63.90625 L 89.84375,63.84375 L 89.75,62.375 C 89.672448,61.031068 89.71348,60.66882 91.4375,60.625 z M 80.28125,60.65625 C 80.905637,60.645111 81.71679,60.63415 82.5625,60.65625 L 85.625,60.75 L 85.625,62.28125 L 85.625,63.84375 L 82.1875,63.90625 L 78.75,64 L 78.75,62.4375 C 78.750002,61.404799 78.84971,60.81239 79.09375,60.71875 C 79.195377,60.679751 79.65687,60.66739 80.28125,60.65625 z M 77.625,65.65625 L 87.75,65.65625 L 97.875,65.65625 L 97.875,66.46875 C 97.875,66.901818 98.0019,67.40814 98.1875,67.59375 C 98.449961,67.856213 96.13646,67.90625 87.78125,67.90625 C 81.872927,67.906246 77.0625,67.84945 77.0625,67.78125 C 77.062498,67.713038 77.18908,67.59559 77.34375,67.5 C 77.498416,67.404408 77.625,66.95488 77.625,66.5 L 77.625,65.65625 z M 76.84375,68.46875 L 87.75,68.46875 L 98.65625,68.46875 L 100.5,71.65625 C 101.51147,73.398088 102.42808,75.04365 102.53125,75.3125 C 102.70794,75.772988 101.8192,75.78125 87.75,75.78125 C 79.536016,75.781251 72.84027,75.70976 72.84375,75.59375 C 72.84724,75.477753 73.74496,73.83219 74.84375,71.9375 L 76.84375,68.46875 z M 72.375,76.34375 L 87.78125,76.34375 L 103.21875,76.34375 L 103.5,77.09375 C 103.65787,77.508949 103.76443,78.11802 103.71875,78.4375 C 103.63602,79.015959 103.5491,79.00723 87.65625,79.0625 L 71.71875,79.125 L 71.71875,78.375 C 71.729206,77.957797 71.89467,77.348 72.0625,77 L 72.375,76.34375 z M 81.4375,79.75 C 83.395516,79.746188 85.56014,79.74772 87.8125,79.75 C 100.60443,79.762908 104.07578,79.83216 103.65625,80.09375 C 101.74806,81.283462 100.17531,82.87118 99.40625,84.375 L 98.5625,86.03125 L 98.5625,111.625 L 98.5625,137.25 L 99.1875,138.59375 C 99.84562,140.0067 102.39684,142.71874 103.0625,142.71875 C 103.27507,142.71875 103.52942,142.84533 103.625,143 C 103.7401,143.18624 98.3811,143.28124 87.71875,143.28125 L 71.59375,143.28125 L 72.84375,142.5 C 74.274911,141.59238 75.42573,140.30445 76.21875,138.75 C 76.74828,137.71206 76.7738,136.86122 76.78125,111.625 L 76.78125,85.59375 L 76.03125,84.1875 C 75.115979,82.50585 74.22627,81.59465 72.625,80.65625 C 71.964197,80.26899 71.4375,79.90638 71.4375,79.84375 C 71.437496,79.796766 75.56346,79.76142 81.4375,79.75 z M 57.0625,80.6875 C 58.055271,80.683283 59.29998,80.6875 60.75,80.6875 C 64.672171,80.687503 67.00178,80.72479 67.21875,80.75 C 67.124009,80.759927 66.725,80.76982 66,80.78125 C 63.09997,80.826949 58.36878,80.82695 55.46875,80.78125 C 54.743739,80.769819 54.34474,80.75993 54.25,80.75 C 54.386761,80.734107 55.36992,80.69469 57.0625,80.6875 z M 49.46875,81.28125 L 49.5,84.3125 C 49.508449,87.062379 49.44462,87.36621 49,87.28125 C 48.588,87.202529 48.50528,86.80882 48.4375,84.90625 C 48.36855,82.970787 48.42615,82.51411 48.90625,81.9375 L 49.46875,81.28125 z M 104.625,81.28125 L 105.1875,81.9375 C 105.66759,82.514108 105.75646,82.97079 105.6875,84.90625 C 105.61972,86.808817 105.50576,87.20253 105.09375,87.28125 C 104.64912,87.366199 104.61653,87.06238 104.625,84.3125 L 104.625,81.28125 z M 50.03125,81.40625 L 61.40625,81.40625 L 72.78125,81.40625 L 73.65625,82.15625 C 74.779728,83.101611 76.21532,85.52241 76.21875,86.53125 L 76.21875,87.34375 L 63.1875,87.25 L 50.1875,87.1875 L 50.125,84.28125 L 50.03125,81.40625 z M 103.40625,81.40625 C 104.04686,81.40625 104.07913,81.43521 104,84.28125 L 103.90625,87.1875 L 101.59375,87.25 C 99.32446,87.329888 99.28126,87.33228 99.28125,86.6875 C 99.281253,84.832029 101.94433,81.40625 103.40625,81.40625 z M 47.53125,85.90625 C 47.711369,85.906247 47.81251,88.50057 47.8125,93.09375 C 47.812501,97.686922 47.71138,100.25 47.53125,100.25 C 47.351129,100.25 47.25001,97.68692 47.25,93.09375 C 47.249999,88.500572 47.35113,85.90625 47.53125,85.90625 z M 48.84375,87.875 C 48.874434,87.867871 48.902626,87.875 48.9375,87.875 C 49.495499,87.874999 49.50001,88.08107 49.5,111.65625 C 49.500001,135.23143 49.4955,135.40624 48.9375,135.40625 C 48.379509,135.40624 48.37501,135.23143 48.375,111.65625 C 48.375,89.55452 48.383493,87.981932 48.84375,87.875 z M 50.0625,87.875 L 63.125,87.875 L 76.21875,87.875 L 76.21875,111.65625 L 76.21875,135.40625 L 63.125,135.40625 L 50.0625,135.40625 L 50.0625,111.65625 L 50.0625,87.875 z M 99,87.875 L 101.53125,87.875 L 104.0625,87.875 L 103.96875,111.5625 L 103.90625,135.28125 L 101.53125,135.28125 L 99.125,135.28125 L 99.0625,111.5625 L 99,87.875 z M 105.0625,87.875 C 105.09329,87.867983 105.15249,87.875 105.1875,87.875 C 105.74816,87.874999 105.7277,88.01521 105.65625,111.5625 C 105.58853,133.8666 105.55711,135.25453 105.09375,135.34375 C 104.6282,135.43338 104.62501,134.15561 104.625,111.65625 C 104.625,89.514152 104.60071,87.980255 105.0625,87.875 z M 25.28125,89.28125 L 30.6875,89.28125 L 30.6875,96.78125 L 25.4375,96.75 L 25.375,93 L 25.28125,89.28125 z M 33.71875,89.28125 L 35.71875,89.28125 L 46.125,89.28125 L 46.125,93.09375 L 46.125,96.875 L 35.78125,96.8125 L 33.71875,96.8125 L 33.71875,89.28125 z M 12.9375,89.53125 L 13.71875,89.6875 C 14.14409,89.770881 15.22824,89.90376 16.15625,90 C 18.994771,90.294382 18.84375,90.10065 18.84375,93.0625 L 18.84375,95.6875 L 17.78125,95.84375 C 17.20124,95.934521 15.88776,96.11373 14.84375,96.21875 L 12.9375,96.40625 L 12.9375,92.96875 L 12.9375,89.53125 z M 20.8125,89.5625 L 21.65625,89.5625 L 22.5,89.5625 L 22.4375,93 L 22.34375,96.46875 L 21.59375,96.53125 L 20.8125,96.625 L 20.8125,93.09375 L 20.8125,89.5625 z M 19.71875,89.96875 C 19.87893,89.999492 19.96875,91.05054 19.96875,92.9375 C 19.968751,94.950262 19.86853,96.01813 19.6875,95.90625 C 19.31906,95.678543 19.31906,90.22771 19.6875,90 C 19.69882,89.993011 19.70807,89.9667 19.71875,89.96875 z M 12,90.25 C 12.01881,90.24471 12.02195,90.2407 12.03125,90.25 C 12.22375,90.4425 12.25371,95.75009 12.0625,95.75 C 11.97544,95.749953 11.57186,95.40255 11.15625,94.96875 C 10.15397,93.922589 10.15841,92.58991 11.15625,91.1875 C 11.51659,90.681053 11.86837,90.28705 12,90.25 z M 47.15625,123.03125 C 47.18644,123.02817 47.21577,123.03125 47.25,123.03125 C 47.797729,123.03125 47.81251,123.23524 47.8125,130.21875 C 47.812501,137.20224 47.79773,137.37499 47.25,137.375 C 46.702279,137.375 46.68751,137.20224 46.6875,130.21875 C 46.6875,123.6717 46.70332,123.07742 47.15625,123.03125 z M 18.84375,124.71875 L 22.28125,124.78125 L 25.71875,124.875 L 25.71875,130.21875 L 25.71875,135.5625 L 22.28125,135.625 L 18.84375,135.71875 L 18.84375,130.21875 L 18.84375,124.71875 z M 28.6875,124.71875 L 37.40625,124.71875 L 46.125,124.71875 L 46.125,130.21875 L 46.125,135.6875 L 37.40625,135.6875 L 28.6875,135.6875 L 28.6875,130.21875 L 28.6875,124.71875 z M 15.46875,125.28125 C 15.64551,125.28125 15.75,127.12538 15.75,130.21875 C 15.75,133.3121 15.64551,135.12499 15.46875,135.125 C 15.29198,135.125 15.1875,133.3121 15.1875,130.21875 C 15.1875,127.12537 15.29198,125.28125 15.46875,125.28125 z M 3.9375,125.5 L 5.28125,125.65625 C 6.0159201,125.74422 7.6064,125.91129 8.84375,126 C 10.08109,126.08872 11.57624,126.22907 12.15625,126.3125 L 13.21875,126.46875 L 13.21875,130.21875 L 13.21875,133.9375 L 11.875,134.09375 C 11.14032,134.18172 9.51859,134.34878 8.28125,134.4375 C 7.0438997,134.52621 5.58001,134.66657 5,134.75 L 3.9375,134.90625 L 3.9375,130.21875 L 3.9375,125.5 z M 14.21875,125.875 C 14.54168,125.87299 14.625,126.95393 14.625,130.21875 C 14.625,133.5994 14.55243,134.59012 14.28125,134.5 C 14.02653,134.41535 13.89992,133.2623 13.84375,130.3125 C 13.80112,128.0736 13.86168,126.13833 13.96875,126.03125 C 14.07179,125.92822 14.14423,125.87546 14.21875,125.875 z M 3.375,126 L 3.375,130.21875 L 3.375,134.40625 L 1.96875,133.03125 C 0.64808998,131.73043 0.5625,131.55927 0.5625,130.21875 C 0.56249998,128.87821 0.64808,128.70706 1.96875,127.40625 L 3.375,126 z M 48.75,135.96875 C 48.800648,135.95959 48.873008,135.96875 48.9375,135.96875 C 49.462439,135.96875 49.50001,136.15657 49.5,138.78125 C 49.500001,141.54293 49.25805,142.18697 48.65625,141.0625 C 48.496142,140.76333 48.37501,139.49751 48.375,138.25 C 48.375,136.42936 48.395462,136.0329 48.75,135.96875 z M 50.0625,135.96875 L 63.125,135.96875 L 76.21875,135.96875 L 76.21875,136.75 C 76.215319,137.75643 74.77844,140.18072 73.65625,141.125 L 72.78125,141.875 L 61.4375,141.875 L 50.0625,141.875 L 50.0625,138.9375 L 50.0625,135.96875 z M 101.65625,135.96875 L 104.0625,135.96875 L 104.0625,138.9375 L 104.0625,141.875 L 103.34375,141.875 C 102.41214,141.87499 100.51956,139.96198 99.8125,138.3125 C 98.844362,136.05393 98.91416,135.96874 101.65625,135.96875 z M 104.96875,136 C 105.01245,135.99553 105.03846,136.0207 105.09375,136.03125 C 105.49749,136.10829 105.62051,136.46307 105.6875,138.09375 C 105.76998,140.10093 105.436,141.59374 104.90625,141.59375 C 104.72857,141.59375 104.62501,140.49665 104.625,138.75 C 104.625,136.52208 104.66289,136.03131 104.96875,136 z M 87.75,144.125 C 105.14005,144.125 104.54374,144.06046 103.09375,145.625 L 102.375,146.375 L 87.90625,146.375 C 79.946133,146.375 73.21911,146.28358 72.96875,146.1875 C 72.718391,146.09143 72.3513,145.65633 72.125,145.21875 C 71.898742,144.78116 71.71874,144.36626 71.71875,144.28125 C 71.718747,144.19624 78.93391,144.12499 87.75,144.125 z M 87.75,146.9375 C 96.110581,146.9375 100.40062,147.04069 100.125,147.21875 C 99.646952,147.52758 97.20197,148.60432 95.40625,148.84375 C 90.450183,149.50456 85.09242,149.5312 80.125,148.875 C 78.327444,148.63755 75.85731,147.53034 75.375,147.21875 C 75.099382,147.04068 79.38943,146.93751 87.75,146.9375 z "
       transform="translate(181,437.0614)"
       id="path2387" />
    <path
       style="fill:none;fill-rule:evenodd;stroke:#000000;stroke-width:1px;stroke-linecap:butt;stroke-linejoin:miter;stroke-opacity:1"
       d="M 174.22729,567.27691 L 187.98908,567.27691"
       id="path2221"
       sodipodi:nodetypes="cc" />
    <path
       style="fill:none;fill-rule:evenodd;stroke:#000000;stroke-width:1px;stroke-linecap:butt;stroke-linejoin:miter;stroke-opacity:1"
       d="M 203.12312,566.60269 L 203.12312,557.38505 L 140.79235,557.38505"
       id="path2223"
       sodipodi:nodetypes="ccc" />
    <path
       sodipodi:type="arc"
       style="fill:#000000;fill-opacity:1;fill-rule:nonzero;stroke:none;stroke-width:2.70000005;stroke-miterlimit:4;stroke-dasharray:none;stroke-dashoffset:0;stroke-opacity:1"
       id="path2227"
       sodipodi:cx="13.571428"
       sodipodi:cy="109.15632"
       sodipodi:rx="2.3214285"
       sodipodi:ry="2.3214285"
       d="M 15.892857 109.15632 A 2.3214285 2.3214285 0 1 1  11.25,109.15632 A 2.3214285 2.3214285 0 1 1  15.892857 109.15632 z"
       transform="matrix(-1,0,0,1,232.99786,408.8511)" />
    <path
       style="fill:none;fill-rule:evenodd;stroke:#000000;stroke-width:1px;stroke-linecap:butt;stroke-linejoin:miter;stroke-opacity:1"
       d="M 322.67435,526.12842 L 314.01363,534.78913"
       id="path3201" />
    <path
       id="path3203"
       d="M 323.38864,563.09272 L 314.72793,571.75343"
       style="fill:none;fill-rule:evenodd;stroke:#000000;stroke-width:1px;stroke-linecap:butt;stroke-linejoin:miter;stroke-opacity:1" />
    <path
       style="fill:none;fill-rule:evenodd;stroke:#000000;stroke-width:1px;stroke-linecap:butt;stroke-linejoin:miter;stroke-opacity:1"
       d="M 303.38864,529.96772 L 318.83507,529.96772 L 318.83507,543.89629"
       id="path3210"
       sodipodi:nodetypes="ccc" />
    <text
       xml:space="preserve"
       style="font-size:28px;font-style:normal;font-weight:normal;text-align:center;text-anchor:middle;fill:#000000;fill-opacity:1;stroke:none;stroke-width:1px;stroke-linecap:butt;stroke-linejoin:miter;stroke-opacity:1;font-family:Arial Black"
       x="317.29837"
       y="551.21771"
       id="text3214"><tspan
         sodipodi:role="line"
         id="tspan3216"
         x="317.29837"
         y="551.21771"
         style="font-size:10px;font-family:Arial">12mm</tspan></text>
    <g
       id="g3222"
       transform="matrix(-1,0,0,1,473.57918,-84.187114)">
      <path
         sodipodi:nodetypes="cs"
         id="path3218"
         d="M 371.84953,609.45181 C 371.84953,609.45181 371.84953,643.81179 371.84953,655.26512"
         style="fill:none;fill-rule:evenodd;stroke:#000000;stroke-width:1px;stroke-linecap:butt;stroke-linejoin:miter;stroke-opacity:1" />
      <path
         sodipodi:nodetypes="cc"
         transform="translate(181,437.0614)"
         id="path3220"
         d="M 190.53571,217.72775 C 161.54286,209.87205 161.43231,179.99005 190.53572,172.90632"
         style="fill:none;fill-rule:evenodd;stroke:#000000;stroke-width:1px;stroke-linecap:butt;stroke-linejoin:miter;stroke-opacity:1" />
    </g>
    <g
       id="g3238"
       transform="matrix(-1,0,0,1,462.80779,-97.454341)">
      <path
         sodipodi:nodetypes="ccccc"
         id="path3226"
         d="M 341.89286,563.182 L 341.89286,585.77129 L 346.35715,585.77129 L 346.35715,563.182 L 341.89286,563.182 z "
         style="fill:none;fill-rule:evenodd;stroke:#000000;stroke-width:1px;stroke-linecap:butt;stroke-linejoin:miter;stroke-opacity:1" />
      <path
         sodipodi:nodetypes="ccccc"
         transform="translate(181,437.0614)"
         id="path3228"
         d="M 166.25001,148.97775 L 180,162.37061 L 180,112.01346 L 166.25,125.76346 L 166.25001,148.97775 z "
         style="fill:none;fill-rule:evenodd;stroke:#000000;stroke-width:1px;stroke-linecap:butt;stroke-linejoin:miter;stroke-opacity:1" />
    </g>
    <g
       id="g3234"
       transform="matrix(-1,0,0,1,448.07132,-78.881185)">
      <path
         transform="translate(181,437.0614)"
         id="path3230"
         d="M 131.06729,191.28686 L 131.06729,207.19676"
         style="fill:none;fill-rule:evenodd;stroke:#000000;stroke-width:1px;stroke-linecap:butt;stroke-linejoin:miter;stroke-opacity:1" />
      <path
         style="fill:none;fill-rule:evenodd;stroke:#000000;stroke-width:1px;stroke-linecap:butt;stroke-linejoin:miter;stroke-opacity:1"
         d="M 315.85536,628.34826 L 315.85536,644.25816"
         id="path3232" />
    </g>
    <path
       transform="matrix(-1,0,0,1,186.93458,429.37412)"
       d="M 15.892857 109.15632 A 2.3214285 2.3214285 0 1 1  11.25,109.15632 A 2.3214285 2.3214285 0 1 1  15.892857 109.15632 z"
       sodipodi:ry="2.3214285"
       sodipodi:rx="2.3214285"
       sodipodi:cy="109.15632"
       sodipodi:cx="13.571428"
       id="path3252"
       style="fill:none;fill-opacity:1;fill-rule:nonzero;stroke:#000000;stroke-width:1;stroke-miterlimit:4;stroke-dasharray:none;stroke-dashoffset:0;stroke-opacity:1"
       sodipodi:type="arc" />
    <path
       sodipodi:type="arc"
       style="fill:none;fill-opacity:1;fill-rule:nonzero;stroke:#000000;stroke-width:1;stroke-miterlimit:4;stroke-dasharray:none;stroke-dashoffset:0;stroke-opacity:1"
       id="path3256"
       sodipodi:cx="13.571428"
       sodipodi:cy="109.15632"
       sodipodi:rx="2.3214285"
       sodipodi:ry="2.3214285"
       d="M 15.892857 109.15632 A 2.3214285 2.3214285 0 1 1  11.25,109.15632 A 2.3214285 2.3214285 0 1 1  15.892857 109.15632 z"
       transform="matrix(-1,0,0,1,155.68458,429.37412)" />
    <path
       style="fill:none;fill-rule:evenodd;stroke:#000000;stroke-width:1px;stroke-linecap:butt;stroke-linejoin:miter;stroke-opacity:1"
       d="M 171.50249,537.15797 L 146.69368,522.83459"
       id="path3258" />
    <path
       transform="matrix(-1,0,0,1,147.65074,375.05563)"
       d="M 15.892857 109.15632 A 2.3214285 2.3214285 0 1 1  11.25,109.15632 A 2.3214285 2.3214285 0 1 1  15.892857 109.15632 z"
       sodipodi:ry="2.3214285"
       sodipodi:rx="2.3214285"
       sodipodi:cy="109.15632"
       sodipodi:cx="13.571428"
       id="path3264"
       style="fill:#000000;fill-opacity:1;fill-rule:nonzero;stroke:none;stroke-width:2.70000005;stroke-miterlimit:4;stroke-dasharray:none;stroke-dashoffset:0;stroke-opacity:1"
       sodipodi:type="arc" />
    <path
       style="fill:none;fill-rule:evenodd;stroke:#000000;stroke-width:1px;stroke-linecap:butt;stroke-linejoin:miter;stroke-opacity:1"
       d="M 132.39689,557.40524 L 121.14689,557.40524"
       id="path3266"
       sodipodi:nodetypes="cc" />
    <path
       sodipodi:type="arc"
       style="fill:#000000;fill-opacity:1;fill-rule:nonzero;stroke:none;stroke-width:2.70000005;stroke-miterlimit:4;stroke-dasharray:none;stroke-dashoffset:0;stroke-opacity:1"
       id="path3270"
       sodipodi:cx="13.571428"
       sodipodi:cy="109.15632"
       sodipodi:rx="2.3214285"
       sodipodi:ry="2.3214285"
       d="M 15.892857 109.15632 A 2.3214285 2.3214285 0 1 1  11.25,109.15632 A 2.3214285 2.3214285 0 1 1  15.892857 109.15632 z"
       transform="matrix(-1,0,0,1,147.63673,429.58731)" />
    <text
       id="text3284"
       y="570.74835"
       x="165.34944"
       style="font-size:28px;font-style:normal;font-weight:normal;text-align:center;text-anchor:middle;fill:#000000;fill-opacity:1;stroke:none;stroke-width:1px;stroke-linecap:butt;stroke-linejoin:miter;stroke-opacity:1;font-family:Arial Black"
       xml:space="preserve"><tspan
         style="font-size:10px;font-family:Arial"
         y="570.74835"
         x="165.34944"
         id="tspan3286"
         sodipodi:role="line">+5V</tspan></text>
    <text
       xml:space="preserve"
       style="font-size:28px;font-style:normal;font-weight:normal;text-align:center;text-anchor:middle;fill:#000000;fill-opacity:1;stroke:none;stroke-width:1px;stroke-linecap:butt;stroke-linejoin:miter;stroke-opacity:1;font-family:Arial Black"
       x="157.86974"
       y="548.46149"
       id="text3288"><tspan
         sodipodi:role="line"
         id="tspan3290"
         x="157.86974"
         y="548.46149"
         style="font-size:10px;font-family:Arial">PTT</tspan></text>
    <text
       id="text3292"
       y="574.5481"
       x="132.84329"
       style="font-size:28px;font-style:normal;font-weight:normal;text-align:center;text-anchor:middle;fill:#000000;fill-opacity:1;stroke:none;stroke-width:1px;stroke-linecap:butt;stroke-linejoin:miter;stroke-opacity:1;font-family:Arial Black"
       xml:space="preserve"><tspan
         style="font-size:10px;font-family:Arial"
         y="574.5481"
         x="132.84329"
         id="tspan3294"
         sodipodi:role="line">10µF</tspan></text>
    <text
       xml:space="preserve"
       style="font-size:28px;font-style:normal;font-weight:normal;text-align:center;text-anchor:middle;fill:#000000;fill-opacity:1;stroke:none;stroke-width:1px;stroke-linecap:butt;stroke-linejoin:miter;stroke-opacity:1;font-family:Arial Black"
       x="113.5892"
       y="525.56616"
       id="text3296"><tspan
         sodipodi:role="line"
         id="tspan3298"
         x="113.5892"
         y="525.56616"
         style="font-size:10px;font-family:Arial">Mic</tspan></text>
    <text
       id="text3300"
       y="454.3533"
       x="124.75551"
       style="font-size:28px;font-style:normal;font-weight:normal;text-align:center;text-anchor:middle;fill:#000000;fill-opacity:1;stroke:none;stroke-width:1px;stroke-linecap:butt;stroke-linejoin:miter;stroke-opacity:1;font-family:Arial Black"
       xml:space="preserve"><tspan
         style="font-size:10px;font-family:Arial"
         y="454.3533"
         x="124.75551"
         id="tspan3302"
         sodipodi:role="line">Speaker</tspan></text>
    <path
       style="fill:none;fill-rule:evenodd;stroke:#000000;stroke-width:1px;stroke-linecap:butt;stroke-linejoin:miter;stroke-opacity:1"
       d="M 157.55642,484.19574 L 157.55642,492.78204"
       id="path3304" />
    <path
       style="fill:none;fill-rule:evenodd;stroke:#000000;stroke-width:1px;stroke-linecap:butt;stroke-linejoin:miter;stroke-opacity:1"
       d="M 164.69062,492.78204 L 150.61162,492.78204"
       id="path3306"
       sodipodi:nodetypes="cc" />
    <path
       style="fill:none;fill-rule:evenodd;stroke:#000000;stroke-width:1px;stroke-linecap:butt;stroke-linejoin:miter;stroke-opacity:1"
       d="M 162.03897,495.68623 L 152.9476,495.68623"
       id="path3308"
       sodipodi:nodetypes="cc" />
    <path
       style="fill:none;fill-rule:evenodd;stroke:#000000;stroke-width:1px;stroke-linecap:butt;stroke-linejoin:miter;stroke-opacity:1"
       d="M 159.76612,498.46415 L 155.34671,498.46415"
       id="path3310"
       sodipodi:nodetypes="cc" />
    <path
       sodipodi:type="arc"
       style="fill:#000000;fill-opacity:1;fill-rule:nonzero;stroke:none;stroke-width:2.70000005;stroke-miterlimit:4;stroke-dasharray:none;stroke-dashoffset:0;stroke-opacity:1"
       id="path3312"
       sodipodi:cx="13.571428"
       sodipodi:cy="109.15632"
       sodipodi:rx="2.3214285"
       sodipodi:ry="2.3214285"
       d="M 15.892857 109.15632 A 2.3214285 2.3214285 0 1 1  11.25,109.15632 A 2.3214285 2.3214285 0 1 1  15.892857 109.15632 z"
       transform="matrix(-1,0,0,1,171.20758,375.01099)" />
    <path
       style="fill:none;fill-rule:evenodd;stroke:#000000;stroke-width:1;stroke-linecap:butt;stroke-linejoin:miter;stroke-miterlimit:4;stroke-dasharray:4, 4;stroke-dashoffset:0;stroke-opacity:1"
       d="M 71.468293,92.845974 L 148.74496,92.845974"
       id="path3384"
       transform="translate(152.06795,437.05917)" />
    <path
       id="path3386"
       d="M 223.53624,567.28079 L 300.81291,567.28079"
       style="fill:none;fill-rule:evenodd;stroke:#000000;stroke-width:1;stroke-linecap:butt;stroke-linejoin:miter;stroke-miterlimit:4;stroke-dasharray:4, 4;stroke-dashoffset:0;stroke-opacity:1" />
    <path
       sodipodi:nodetypes="ccc"
       id="path3392"
       d="M 303.38864,567.28915 L 318.83507,567.28915 L 318.83507,553.36058"
       style="fill:none;fill-rule:evenodd;stroke:#000000;stroke-width:1px;stroke-linecap:butt;stroke-linejoin:miter;stroke-opacity:1" />
    <path
       style="fill:none;fill-rule:evenodd;stroke:#000000;stroke-width:1px;stroke-linecap:butt;stroke-linejoin:miter;stroke-opacity:1"
       d="M 44.446712,92.088359 L 44.446712,31.984283 L -30.683384,31.984283"
       id="path3394"
       transform="translate(152.06795,437.05917)"
       sodipodi:nodetypes="ccc" />
    <path
       style="fill:none;fill-rule:evenodd;stroke:#000000;stroke-width:1px;stroke-linecap:butt;stroke-linejoin:miter;stroke-opacity:1"
       d="M 67.427683,93.35105 L 67.427683,47.136571 L -30.809653,47.136571"
       id="path3396"
       transform="translate(152.06795,437.05917)"
       sodipodi:nodetypes="ccc" />
    <path
       style="fill:none;fill-rule:evenodd;stroke:#000000;stroke-width:1px;stroke-linecap:butt;stroke-linejoin:miter;stroke-opacity:1"
       d="M 56.821081,92.088359 L 56.821081,80.976681 L 67.680221,80.976681"
       id="path3398"
       transform="translate(152.06795,437.05917)" />
    <path
       style="fill:none;fill-rule:evenodd;stroke:#000000;stroke-width:1px;stroke-linecap:butt;stroke-linejoin:miter;stroke-opacity:1"
       d="M -30.847352,101.68157 L -12.708572,101.68157"
       id="path3400"
       sodipodi:nodetypes="cc"
       transform="translate(152.06795,437.05917)" />
    <path
       style="fill:none;fill-rule:evenodd;stroke:#000000;stroke-width:1px;stroke-linecap:butt;stroke-linejoin:miter;stroke-opacity:1"
       d="M 134.13774,484.19574 L 134.13774,538.2389"
       id="path3402" />
    <text
       xml:space="preserve"
       style="font-size:28px;font-style:normal;font-weight:normal;text-align:center;text-anchor:middle;fill:#000000;fill-opacity:1;stroke:none;stroke-width:1px;stroke-linecap:butt;stroke-linejoin:miter;stroke-opacity:1;font-family:Arial Black"
       x="207.61923"
       y="581.60168"
       id="text3404"><tspan
         sodipodi:role="line"
         x="207.61923"
         y="581.60168"
         style="font-size:10px;font-family:Arial"
         id="tspan3416">ø3.5mm</tspan></text>
    <text
       id="text3408"
       y="541.89349"
       x="207.5641"
       style="font-size:28px;font-style:normal;font-weight:normal;text-align:center;text-anchor:middle;fill:#000000;fill-opacity:1;stroke:none;stroke-width:1px;stroke-linecap:butt;stroke-linejoin:miter;stroke-opacity:1;font-family:Arial Black"
       xml:space="preserve"><tspan
         style="font-size:10px;font-family:Arial"
         y="541.89349"
         x="207.5641"
         id="tspan3410"
         sodipodi:role="line">ø2.5mm</tspan></text>
    <path
       style="fill:none;fill-rule:evenodd;stroke:#000000;stroke-width:1px;stroke-linecap:butt;stroke-linejoin:miter;stroke-opacity:1"
       d="M 124.10714,130.32913 L 124.10714,114.70413 L 91.703412,114.70413 L 91.703412,101.48985 L 82.774841,101.48985"
       id="path3420"
       transform="translate(93.02216,437.05917)"
       sodipodi:nodetypes="ccccc" />
  </g>
</svg>
