<?xml version="1.0" encoding="UTF-8" standalone="no"?>
<!-- Created with Inkscape (http://www.inkscape.org/) -->
<svg
   xmlns:dc="http://purl.org/dc/elements/1.1/"
   xmlns:cc="http://web.resource.org/cc/"
   xmlns:rdf="http://www.w3.org/1999/02/22-rdf-syntax-ns#"
   xmlns:svg="http://www.w3.org/2000/svg"
   xmlns="http://www.w3.org/2000/svg"
   xmlns:sodipodi="http://sodipodi.sourceforge.net/DTD/sodipodi-0.dtd"
   xmlns:inkscape="http://www.inkscape.org/namespaces/inkscape"
   version="1.0"
   width="38.454723"
   height="20.73819"
   id="svg2"
   sodipodi:version="0.32"
   inkscape:version="0.45pre1"
   sodipodi:docname="key-mode.svg"
   inkscape:output_extension="org.inkscape.output.svg.inkscape"
   sodipodi:docbase="E:\lenny\workspace\radiodoc\uv-5r\assets\images"
   sodipodi:modified="true">
  <metadata
     id="metadata8">
    <rdf:RDF>
      <cc:Work
         rdf:about="">
        <dc:format>image/svg+xml</dc:format>
        <dc:type
           rdf:resource="http://purl.org/dc/dcmitype/StillImage" />
      </cc:Work>
    </rdf:RDF>
  </metadata>
  <sodipodi:namedview
     inkscape:window-height="583"
     inkscape:window-width="734"
     inkscape:pageshadow="2"
     inkscape:pageopacity="0.0"
     guidetolerance="10.0"
     gridtolerance="10.0"
     objecttolerance="10.0"
     borderopacity="1.0"
     bordercolor="#666666"
     pagecolor="#ffffff"
     id="base"
     inkscape:zoom="16.929"
     inkscape:cx="19.227362"
     inkscape:cy="10.369095"
     inkscape:window-x="253"
     inkscape:window-y="253"
     inkscape:current-layer="svg2" />
  <defs
     id="defs4" />
  <path
     d="M 5.4044477,0.63308889 C 2.7264376,0.90558889 0.62501,3.1965889 0.625,5.9486889 L 0.625,14.797589 C 0.625,17.733089 3.0027434,20.113189 5.9354975,20.113189 L 32.519227,20.113189 C 35.451981,20.113189 37.829724,17.733089 37.829724,14.797589 L 37.829724,5.9486889 C 37.829724,3.0130889 35.451981,0.63308889 32.519227,0.63308889 L 5.9354975,0.63308889 C 5.7521966,0.63308889 5.5829804,0.61488889 5.4044477,0.63308889 z "
     style="fill:none;fill-opacity:1;fill-rule:nonzero;stroke:#000000;stroke-width:1.25;stroke-miterlimit:4;stroke-dasharray:none;stroke-dashoffset:0;stroke-opacity:1"
     id="path3438" />
  <path
     style="font-size:11px;font-style:normal;font-weight:bold;text-align:center;text-anchor:middle;fill:#000000;fill-opacity:1;stroke:none;stroke-width:1px;stroke-linecap:butt;stroke-linejoin:miter;stroke-opacity:1;font-family:Arial Narrow"
     d="M 4.03927,16.140025 L 1.7350708,4.8810264 L 3.1476685,4.8810264 L 4.780481,13.213912 L 6.3595825,4.8810264 L 7.7453247,4.8810264 L 5.4357544,16.140025 L 4.03927,16.140025 z M 8.4167114,16.140025 L 8.4167114,4.8810264 L 12.842492,4.8810264 L 12.842492,6.7856847 L 9.7165161,6.7856847 L 9.7165161,9.4506721 L 12.418176,9.4506721 L 12.418176,11.355336 L 9.7165161,11.355336 L 9.7165161,16.140025 L 8.4167114,16.140025 z M 13.669641,10.579648 C 13.669641,9.2381966 13.808394,8.1335471 14.085901,7.26569 C 14.363406,6.3978516 14.725955,5.7514456 15.173547,5.3264696 C 15.621136,4.9015179 16.163616,4.6890351 16.800989,4.6890236 C 17.724812,4.6890351 18.47766,5.1933602 19.059533,6.2019984 C 19.641396,7.2106575 19.93233,8.6468312 19.932336,10.510524 C 19.93233,12.394708 19.624387,13.866725 19.008508,14.926578 C 18.467813,15.863531 17.733764,16.332024 16.80636,16.332024 C 15.871787,16.332024 15.134157,15.868651 14.593469,14.941934 C 13.977583,13.882088 13.669641,12.427994 13.669641,10.579648 L 13.669641,10.579648 z M 15.012414,10.502843 C 15.012413,11.798227 15.184287,12.769745 15.528039,13.417433 C 15.871787,14.065126 16.297893,14.38896 16.80636,14.388959 C 17.3184,14.38896 17.742716,14.067686 18.079309,13.425115 C 18.415892,12.782547 18.584186,11.795666 18.584192,10.464439 C 18.584186,9.1588404 18.420368,8.1937073 18.092737,7.5690523 C 17.765095,6.9444157 17.336304,6.6320925 16.80636,6.6320847 C 16.276409,6.6320925 15.844931,6.9469754 15.511926,7.5767331 C 15.178916,8.2065089 15.012413,9.1818742 15.012414,10.502843 L 15.012414,10.502843 z M 20.286828,16.332024 L 21.887414,4.6890236 L 22.816614,4.6890236 L 21.199914,16.332024 L 20.286828,16.332024 z M 23.450403,16.140025 L 23.450403,4.8810264 L 25.40011,4.8810264 L 26.571008,12.5611 L 27.731164,4.8810264 L 29.686242,4.8810264 L 29.686242,16.140025 L 28.477746,16.140025 L 28.477746,7.2772113 L 27.194055,16.140025 L 25.937219,16.140025 L 24.66427,7.2772113 L 24.66427,16.140025 L 23.450403,16.140025 z M 30.991418,16.140025 L 30.991418,4.8810264 L 33.736047,4.8810264 C 34.437866,4.8810378 34.939168,4.9821583 35.239953,5.1843881 C 35.540729,5.3866409 35.7878,5.7373638 35.981164,6.2365604 C 36.174518,6.7357735 36.271197,7.3335406 36.271203,8.0298576 C 36.271197,8.9105158 36.123493,9.6196389 35.828088,10.157242 C 35.532673,10.694847 35.112833,11.032783 34.568567,11.171017 C 34.847859,11.457728 35.078816,11.771343 35.261438,12.111812 C 35.44405,12.452312 35.69291,13.062882 36.00802,13.943509 L 36.7922,16.140025 L 35.239953,16.140025 L 34.294641,13.690085 C 33.954468,12.804311 33.723511,12.250072 33.60177,12.027348 C 33.480022,11.804629 33.351116,11.65103 33.215051,11.566538 C 33.078981,11.482053 32.860556,11.439827 32.559778,11.439824 L 32.291223,11.439824 L 32.291223,16.140025 L 30.991418,16.140025 z M 32.291223,9.6426727 L 33.25802,9.6426727 C 33.848837,9.6426778 34.224813,9.605558 34.38595,9.5313147 C 34.547078,9.4570781 34.677775,9.3073185 34.778039,9.0820306 C 34.878295,8.8567536 34.928425,8.5572319 34.92843,8.1834599 C 34.928425,7.8250647 34.878295,7.5370625 34.778039,7.3194498 C 34.677775,7.1018585 34.541707,6.9520964 34.369836,6.8701658 C 34.248088,6.8138557 33.895386,6.7856948 33.311731,6.7856847 L 32.291223,6.7856847 L 32.291223,9.6426727 z "
     id="text3562" />
</svg>
