<?xml version="1.0" encoding="UTF-8" standalone="no"?>
<!-- Created with Inkscape (http://www.inkscape.org/) -->
<svg
   xmlns:dc="http://purl.org/dc/elements/1.1/"
   xmlns:cc="http://web.resource.org/cc/"
   xmlns:rdf="http://www.w3.org/1999/02/22-rdf-syntax-ns#"
   xmlns:svg="http://www.w3.org/2000/svg"
   xmlns="http://www.w3.org/2000/svg"
   xmlns:sodipodi="http://sodipodi.sourceforge.net/DTD/sodipodi-0.dtd"
   xmlns:inkscape="http://www.inkscape.org/namespaces/inkscape"
   version="1.0"
   width="38.454731"
   height="20.73819"
   id="svg2"
   sodipodi:version="0.32"
   inkscape:version="0.45pre1"
   sodipodi:docname="key-pound.svg"
   inkscape:output_extension="org.inkscape.output.svg.inkscape"
   sodipodi:docbase="E:\lenny\workspace\radiodoc\uv-5r\assets\images"
   sodipodi:modified="true">
  <metadata
     id="metadata9">
    <rdf:RDF>
      <cc:Work
         rdf:about="">
        <dc:format>image/svg+xml</dc:format>
        <dc:type
           rdf:resource="http://purl.org/dc/dcmitype/StillImage" />
      </cc:Work>
    </rdf:RDF>
  </metadata>
  <sodipodi:namedview
     inkscape:window-height="1180"
     inkscape:window-width="1600"
     inkscape:pageshadow="2"
     inkscape:pageopacity="0.0"
     guidetolerance="10.0"
     gridtolerance="10.0"
     objecttolerance="10.0"
     borderopacity="1.0"
     bordercolor="#666666"
     pagecolor="#ffffff"
     id="base"
     inkscape:zoom="16.928996"
     inkscape:cx="19.227365"
     inkscape:cy="10.369095"
     inkscape:window-x="0"
     inkscape:window-y="0"
     inkscape:current-layer="svg2" />
  <defs
     id="defs4" />
  <path
     d="M 5.40445,0.63308889 C 2.72644,0.90558889 0.62501,3.1965889 0.625,5.9486889 L 0.625,14.797589 C 0.625,17.733089 3.00275,20.113189 5.9355,20.113189 L 32.51923,20.113189 C 35.45198,20.113189 37.82973,17.733089 37.82973,14.797589 L 37.82973,5.9486889 C 37.82973,3.0130889 35.45198,0.63308889 32.51923,0.63308889 L 5.9355,0.63308889 C 5.7522,0.63308889 5.58298,0.61488889 5.40445,0.63308889 z "
     style="fill:none;fill-opacity:1;fill-rule:nonzero;stroke:#000000;stroke-width:1.25;stroke-miterlimit:4;stroke-dasharray:none;stroke-dashoffset:0;stroke-opacity:1"
     id="path3420" />
  <path
     style="font-size:16px;font-style:normal;font-weight:bold;text-align:center;text-anchor:middle;fill:#000000;fill-opacity:1;stroke:none;stroke-width:1px;stroke-linecap:butt;stroke-linejoin:miter;stroke-opacity:1;font-family:Arial"
     d="M 3.6799544,13.580607 L 2.3948092,13.580607 L 2.3948092,11.501695 L 4.0957367,11.501695 L 4.6627129,8.7140654 L 2.3948092,8.7140654 L 2.3948092,6.6257044 L 5.0879446,6.6257044 L 5.8344631,2.9403611 L 7.9511729,2.9403611 L 7.2046544,6.6257044 L 9.293016,6.6257044 L 10.020635,2.9403611 L 12.212944,2.9403611 L 11.456977,6.6257044 L 12.761019,6.6257044 L 12.761019,8.7140654 L 11.031743,8.7140654 L 10.464764,11.501695 L 12.761019,11.501695 L 12.761019,13.580607 L 10.039531,13.580607 L 9.293016,17.265952 L 7.1857555,17.265952 L 7.9133745,13.580607 L 5.8155636,13.580607 L 5.0690451,17.265952 L 2.9334366,17.265952 L 3.6799544,13.580607 z M 6.7888721,8.7140654 L 6.2313459,11.501695 L 8.3291568,11.501695 L 8.877234,8.7140654 L 6.7888721,8.7140654 z "
     id="text3494" />
  <path
     style="fill:#000000;fill-opacity:1;fill-rule:nonzero;stroke:none;stroke-width:40;stroke-miterlimit:4;stroke-dasharray:none;stroke-dashoffset:0;stroke-opacity:1"
     d="M 32.044317,4.4406352 C 30.067848,4.4406352 28.394117,5.6995105 27.773097,7.4645062 L 15.413026,7.4645062 L 15.413026,9.8836033 L 15.413026,16.573917 L 17.832121,16.573917 L 17.832121,9.8836033 L 19.986631,9.8836033 L 19.986631,14.570604 L 22.405727,14.570604 L 22.405727,9.8836033 L 27.584109,9.8836033 C 28.007286,11.949879 29.853525,13.512252 32.044317,13.512252 C 34.548087,13.512252 36.580123,11.480209 36.580123,8.976442 C 36.580123,6.4726766 34.548087,4.440635 32.044317,4.4406352 z "
     id="path2162" />
</svg>
