<?xml version="1.0" encoding="UTF-8" standalone="no"?>
<!-- Created with Inkscape (http://www.inkscape.org/) -->
<svg
   xmlns:dc="http://purl.org/dc/elements/1.1/"
   xmlns:cc="http://web.resource.org/cc/"
   xmlns:rdf="http://www.w3.org/1999/02/22-rdf-syntax-ns#"
   xmlns:svg="http://www.w3.org/2000/svg"
   xmlns="http://www.w3.org/2000/svg"
   xmlns:sodipodi="http://sodipodi.sourceforge.net/DTD/sodipodi-0.dtd"
   xmlns:inkscape="http://www.inkscape.org/namespaces/inkscape"
   version="1.0"
   width="38.454727"
   height="20.73819"
   id="svg2"
   sodipodi:version="0.32"
   inkscape:version="0.45pre1"
   sodipodi:docname="key-6.svg"
   inkscape:output_extension="org.inkscape.output.svg.inkscape"
   sodipodi:docbase="E:\lenny\workspace\radiodoc\uv-5r\assets\images"
   sodipodi:modified="true">
  <metadata
     id="metadata10">
    <rdf:RDF>
      <cc:Work
         rdf:about="">
        <dc:format>image/svg+xml</dc:format>
        <dc:type
           rdf:resource="http://purl.org/dc/dcmitype/StillImage" />
      </cc:Work>
    </rdf:RDF>
  </metadata>
  <sodipodi:namedview
     inkscape:window-height="583"
     inkscape:window-width="734"
     inkscape:pageshadow="2"
     inkscape:pageopacity="0.0"
     guidetolerance="10.0"
     gridtolerance="10.0"
     objecttolerance="10.0"
     borderopacity="1.0"
     bordercolor="#666666"
     pagecolor="#ffffff"
     id="base"
     inkscape:zoom="16.928998"
     inkscape:cx="19.037206"
     inkscape:cy="10.369095"
     inkscape:window-x="276"
     inkscape:window-y="276"
     inkscape:current-layer="svg2" />
  <defs
     id="defs4" />
  <path
     d="M 5.404448,0.63308889 C 2.726438,0.90558889 0.62501,3.1965889 0.625,5.9486889 L 0.625,14.797589 C 0.625,17.733089 3.002743,20.113189 5.935497,20.113189 L 32.519228,20.113189 C 35.451978,20.113189 37.829728,17.733089 37.829728,14.797589 L 37.829728,5.9486889 C 37.829728,3.0130889 35.451978,0.63308889 32.519228,0.63308889 L 5.935497,0.63308889 C 5.752197,0.63308889 5.58298,0.61488889 5.404448,0.63308889 z "
     style="fill:none;fill-opacity:1;fill-rule:nonzero;stroke:#000000;stroke-width:1.25;stroke-miterlimit:4;stroke-dasharray:none;stroke-dashoffset:0;stroke-opacity:1"
     id="path3426" />
  <path
     style="font-size:16px;font-style:normal;font-weight:bold;text-align:center;text-anchor:middle;fill:#000000;fill-opacity:1;stroke:none;stroke-width:1px;stroke-linecap:butt;stroke-linejoin:miter;stroke-opacity:1;font-family:Arial"
     d="M 11.181517,6.7821809 L 8.6056411,7.0662847 C 8.5425001,6.5359686 8.3783501,6.1445372 8.1131941,5.8919896 C 7.8480241,5.6394648 7.5039435,5.5131966 7.0809508,5.5131849 C 6.5190516,5.5131966 6.0439677,5.765733 5.6556977,6.2707946 C 5.2674184,6.7758782 5.0227745,7.8270606 4.9217631,9.4243448 C 5.5846676,8.6414899 6.408567,8.2500589 7.3934648,8.2500501 C 8.5046191,8.2500589 9.4563671,8.6730571 10.248705,9.5190464 C 11.041027,10.365051 11.437196,11.457274 11.437204,12.795707 C 11.437196,14.216228 11.020515,15.355797 10.187152,16.214425 C 9.3537691,17.073047 8.2836491,17.502359 6.9767797,17.502359 C 5.5751975,17.502359 4.4230007,16.957826 3.5201851,15.868761 C 2.6173659,14.779704 2.1659572,12.994586 2.1659579,10.513409 C 2.1659572,7.9691123 2.6363062,6.1350671 3.5770061,5.0112686 C 4.5177015,3.887494 5.7393461,3.3256006 7.2419429,3.3255869 C 8.2962771,3.3256006 9.1691051,3.6207526 9.8604331,4.211043 C 10.55174,4.80136 10.992098,5.6584049 11.181517,6.7821809 L 11.181517,6.7821809 z M 5.1490464,12.587366 C 5.1490425,13.452307 5.3479144,14.119951 5.7456639,14.590299 C 6.143404,15.060645 6.5979694,15.29582 7.1093613,15.295818 C 7.6018011,15.29582 8.0121731,15.103266 8.3404761,14.718143 C 8.6687691,14.33303 8.8329141,13.701687 8.8329201,12.824117 C 8.8329141,11.92131 8.6561401,11.259973 8.3025981,10.840128 C 7.9490391,10.420294 7.5071003,10.210372 6.9767797,10.210365 C 6.465388,10.210372 6.0329196,10.410823 5.6793728,10.811719 C 5.3258176,11.212626 5.1490425,11.804506 5.1490464,12.587366 L 5.1490464,12.587366 z "
     id="text3482" />
  <path
     style="font-size:11px;font-style:normal;font-weight:bold;text-align:center;text-anchor:middle;fill:#000000;fill-opacity:1;stroke:none;stroke-width:1px;stroke-linecap:butt;stroke-linejoin:miter;stroke-opacity:1;font-family:Arial Narrow"
     d="M 20.938103,15.421521 L 19.219275,15.421521 L 18.535653,13.253456 L 15.410513,13.253456 L 14.765953,15.421521 L 13.086194,15.421521 L 16.133204,5.8768224 L 17.806457,5.8768224 L 20.938103,15.421521 z M 18.027816,11.645308 L 16.953549,8.103485 L 15.892307,11.645308 L 18.027816,11.645308 z M 21.771473,5.8768224 L 24.903126,5.8768224 C 25.758199,5.8768322 26.359353,5.9549607 26.706597,6.1112081 C 27.053824,6.2674744 27.346807,6.543094 27.585542,6.9380679 C 27.824257,7.3330591 27.943618,7.7801274 27.94363,8.279274 C 27.943618,8.7393706 27.841619,9.1549706 27.637626,9.5260745 C 27.433619,9.8971907 27.168848,10.171726 26.84332,10.34968 C 27.307746,10.514621 27.671257,10.796754 27.933865,11.19607 C 28.196455,11.5954 28.327749,12.08153 28.327762,12.65447 C 28.327749,13.348951 28.160646,13.935995 27.826438,14.415619 C 27.492212,14.895238 27.09723,15.191474 26.641484,15.304329 C 26.324628,15.38246 25.588919,15.421521 24.434357,15.421521 L 21.771473,15.421521 L 21.771473,5.8768224 z M 23.347066,7.4654353 L 23.347066,9.6725658 L 24.388784,9.6725658 C 25.013802,9.6725712 25.40011,9.6617201 25.547686,9.6400121 C 25.816791,9.5966133 26.027308,9.4826757 26.179228,9.2982001 C 26.331133,9.1137361 26.407095,8.8630742 26.4071,8.5462131 C 26.407095,8.2640897 26.345243,8.0351297 26.221543,7.8593333 C 26.097834,7.683552 25.948092,7.573955 25.772305,7.5305427 C 25.59651,7.4871457 25.091932,7.4654433 24.258566,7.4654353 L 23.347066,7.4654353 z M 23.347066,11.261175 L 23.347066,13.813373 L 24.811978,13.813373 C 25.454366,13.81338 25.86671,13.779742 26.049011,13.712459 C 26.231304,13.645187 26.384305,13.512801 26.508015,13.315308 C 26.631715,13.117819 26.693567,12.867157 26.693572,12.563321 C 26.693567,12.250809 26.627377,11.993634 26.494996,11.791803 C 26.362606,11.589972 26.186814,11.45108 25.967628,11.375114 C 25.748426,11.299163 25.300273,11.261186 24.623167,11.261175 L 23.347066,11.261175 z M 29.668964,15.421521 L 29.668964,5.8768224 L 32.995939,5.8768224 C 33.846667,5.8768322 34.454334,5.9625563 34.818933,6.1339957 C 35.18353,6.3054533 35.483019,6.6027754 35.717416,7.0259627 C 35.951794,7.4491667 36.068986,7.9559165 36.068992,8.5462131 C 36.068986,9.2927803 35.889942,9.8939351 35.531859,10.34968 C 35.173764,10.805435 34.664843,11.091906 34.005101,11.209096 C 34.343647,11.452165 34.623608,11.71802 34.844976,12.006657 C 35.066337,12.2953 35.368003,12.812902 35.749965,13.559458 L 36.700534,15.421521 L 34.818933,15.421521 L 33.673048,13.344604 C 33.2607,12.593704 32.980742,12.123852 32.833172,11.935039 C 32.685589,11.746232 32.529336,11.616015 32.364396,11.544394 C 32.199459,11.472779 31.934688,11.43697 31.570095,11.436967 L 31.244555,11.436967 L 31.244555,15.421521 L 29.668964,15.421521 z M 31.244555,9.9134626 L 32.416483,9.9134626 C 33.132658,9.9134673 33.588408,9.8819988 33.783735,9.8190568 C 33.979052,9.7561256 34.137475,9.6291669 34.259016,9.43818 C 34.380541,9.2472054 34.441309,8.9932882 34.441313,8.6764274 C 34.441309,8.3726012 34.380541,8.1284497 34.259016,7.9439727 C 34.137475,7.7595102 33.97254,7.6325516 33.764204,7.5630959 C 33.61662,7.5153589 33.189082,7.491486 32.481589,7.4914781 L 31.244555,7.4914781 L 31.244555,9.9134626 z "
     id="text3538" />
</svg>
