<?xml version="1.0" encoding="UTF-8" standalone="no"?>
<!-- Created with Inkscape (http://www.inkscape.org/) -->
<svg
   xmlns:dc="http://purl.org/dc/elements/1.1/"
   xmlns:cc="http://web.resource.org/cc/"
   xmlns:rdf="http://www.w3.org/1999/02/22-rdf-syntax-ns#"
   xmlns:svg="http://www.w3.org/2000/svg"
   xmlns="http://www.w3.org/2000/svg"
   xmlns:sodipodi="http://sodipodi.sourceforge.net/DTD/sodipodi-0.dtd"
   xmlns:inkscape="http://www.inkscape.org/namespaces/inkscape"
   version="1.0"
   width="38.454723"
   height="20.73819"
   id="svg2"
   sodipodi:version="0.32"
   inkscape:version="0.45pre1"
   sodipodi:docname="key-4.svg"
   inkscape:output_extension="org.inkscape.output.svg.inkscape"
   sodipodi:docbase="E:\lenny\workspace\radiodoc\uv-5r\assets\images"
   sodipodi:modified="true">
  <metadata
     id="metadata10">
    <rdf:RDF>
      <cc:Work
         rdf:about="">
        <dc:format>image/svg+xml</dc:format>
        <dc:type
           rdf:resource="http://purl.org/dc/dcmitype/StillImage" />
      </cc:Work>
    </rdf:RDF>
  </metadata>
  <sodipodi:namedview
     inkscape:window-height="583"
     inkscape:window-width="734"
     inkscape:pageshadow="2"
     inkscape:pageopacity="0.0"
     guidetolerance="10.0"
     gridtolerance="10.0"
     objecttolerance="10.0"
     borderopacity="1.0"
     bordercolor="#666666"
     pagecolor="#ffffff"
     id="base"
     inkscape:zoom="16.929"
     inkscape:cx="19.227362"
     inkscape:cy="10.369095"
     inkscape:window-x="184"
     inkscape:window-y="184"
     inkscape:current-layer="svg2" />
  <defs
     id="defs4" />
  <path
     d="M 5.4044477,0.63308889 C 2.7264376,0.90558889 0.62501,3.1965889 0.625,5.9486889 L 0.625,14.797589 C 0.625,17.733089 3.0027434,20.113189 5.9354975,20.113189 L 32.519227,20.113189 C 35.451981,20.113189 37.829724,17.733089 37.829724,14.797589 L 37.829724,5.9486889 C 37.829724,3.0130889 35.451981,0.63308889 32.519227,0.63308889 L 5.9354975,0.63308889 C 5.7521966,0.63308889 5.5829804,0.61488889 5.4044477,0.63308889 z "
     style="fill:none;fill-opacity:1;fill-rule:nonzero;stroke:#000000;stroke-width:1.25;stroke-miterlimit:4;stroke-dasharray:none;stroke-dashoffset:0;stroke-opacity:1"
     id="path3422" />
  <path
     style="font-size:16px;font-style:normal;font-weight:bold;text-align:center;text-anchor:middle;fill:#000000;fill-opacity:1;stroke:none;stroke-width:1px;stroke-linecap:butt;stroke-linejoin:miter;stroke-opacity:1;font-family:Arial"
     d="M 7.508578,17.247976 L 7.508578,14.374885 L 1.6650098,14.374885 L 1.6650098,11.979027 L 7.8591925,2.9117555 L 10.157658,2.9117555 L 10.157658,11.969285 L 11.930207,11.969285 L 11.930207,14.374885 L 10.157658,14.374885 L 10.157658,17.247976 L 7.508578,17.247976 z M 7.508578,11.969285 L 7.508578,7.0899066 L 4.2264402,11.969285 L 7.508578,11.969285 z "
     id="text3450" />
  <path
     style="font-size:11px;font-style:normal;font-weight:bold;text-align:center;text-anchor:middle;fill:#000000;fill-opacity:1;stroke:none;stroke-width:1px;stroke-linecap:butt;stroke-linejoin:miter;stroke-opacity:1;font-family:Arial Narrow"
     d="M 15.740956,15.392511 L 12.839175,5.4763821 L 14.618124,5.4763821 L 16.6744,12.815399 L 18.663032,5.4763821 L 20.408167,5.4763821 L 17.499617,15.392511 L 15.740956,15.392511 z M 20.915474,10.49532 C 20.915472,9.3138703 21.090209,8.3409724 21.439683,7.5766258 C 21.789157,6.8122943 22.245734,6.2429858 22.80941,5.8686983 C 23.373081,5.4944295 24.056246,5.3072906 24.858924,5.3072803 C 26.022337,5.3072906 26.970431,5.751464 27.703217,6.639802 C 28.435981,7.5281578 28.802369,8.7930374 28.802376,10.434444 C 28.802369,12.093897 28.414556,13.390343 27.638952,14.323784 C 26.958035,15.149002 26.033612,15.56161 24.865684,15.561611 C 23.688738,15.56161 22.759801,15.15351 22.078891,14.337313 C 21.303279,13.40387 20.915472,12.123215 20.915474,10.49532 L 20.915474,10.49532 z M 22.606484,10.427679 C 22.606482,11.568556 22.822936,12.424214 23.255835,12.994644 C 23.688738,13.565087 24.225354,13.850304 24.865684,13.850303 C 25.510524,13.850304 26.044887,13.567341 26.468772,13.001413 C 26.892644,12.435488 27.104583,11.566303 27.104597,10.393861 C 27.104583,9.2439748 26.898282,8.3939576 26.485678,7.8438065 C 26.073065,7.2936701 25.533067,7.0185983 24.865684,7.0185899 C 24.198297,7.0185983 23.654912,7.2959247 23.235547,7.8505705 C 22.816167,8.4052313 22.606482,9.2642671 22.606484,10.427679 L 22.606484,10.427679 z M 29.269098,15.392511 L 32.049124,10.217994 L 29.526127,5.4763821 L 31.447129,5.4763821 L 33.077266,8.6622585 L 34.673588,5.4763821 L 36.574293,5.4763821 L 34.051296,10.292401 L 36.831322,15.392511 L 34.849456,15.392511 L 33.043449,11.963127 L 31.237438,15.392511 L 29.269098,15.392511 z "
     id="text3530" />
</svg>
