<?xml version="1.0" encoding="UTF-8" standalone="no"?>
<!-- Created with Inkscape (http://www.inkscape.org/) -->
<svg
   xmlns:dc="http://purl.org/dc/elements/1.1/"
   xmlns:cc="http://web.resource.org/cc/"
   xmlns:rdf="http://www.w3.org/1999/02/22-rdf-syntax-ns#"
   xmlns:svg="http://www.w3.org/2000/svg"
   xmlns="http://www.w3.org/2000/svg"
   xmlns:sodipodi="http://sodipodi.sourceforge.net/DTD/sodipodi-0.dtd"
   xmlns:inkscape="http://www.inkscape.org/namespaces/inkscape"
   version="1.0"
   width="38.454723"
   height="20.73819"
   id="svg2"
   sodipodi:version="0.32"
   inkscape:version="0.45pre1"
   sodipodi:docname="key-moni.svg"
   inkscape:output_extension="org.inkscape.output.svg.inkscape"
   sodipodi:docbase="E:\lenny\workspace\radiodoc\uv-5r\assets\images"
   sodipodi:modified="true">
  <metadata
     id="metadata8">
    <rdf:RDF>
      <cc:Work
         rdf:about="">
        <dc:format>image/svg+xml</dc:format>
        <dc:type
           rdf:resource="http://purl.org/dc/dcmitype/StillImage" />
      </cc:Work>
    </rdf:RDF>
  </metadata>
  <sodipodi:namedview
     inkscape:window-height="1180"
     inkscape:window-width="1600"
     inkscape:pageshadow="2"
     inkscape:pageopacity="0.0"
     guidetolerance="10.0"
     gridtolerance="10.0"
     objecttolerance="10.0"
     borderopacity="1.0"
     bordercolor="#666666"
     pagecolor="#ffffff"
     id="base"
     inkscape:zoom="16.929"
     inkscape:cx="19.227362"
     inkscape:cy="10.369095"
     inkscape:window-x="0"
     inkscape:window-y="0"
     inkscape:current-layer="svg2" />
  <defs
     id="defs4" />
  <path
     d="M 5.4044477,0.63308889 C 2.7264376,0.90558889 0.62501,3.1965889 0.625,5.9486889 L 0.625,14.797589 C 0.625,17.733089 3.0027434,20.113189 5.9354975,20.113189 L 32.519227,20.113189 C 35.451981,20.113189 37.829724,17.733089 37.829724,14.797589 L 37.829724,5.9486889 C 37.829724,3.0130889 35.451981,0.63308889 32.519227,0.63308889 L 5.9354975,0.63308889 C 5.7521966,0.63308889 5.5829804,0.61488889 5.4044477,0.63308889 z "
     style="fill:none;fill-opacity:1;fill-rule:nonzero;stroke:#000000;stroke-width:1.25;stroke-miterlimit:4;stroke-dasharray:none;stroke-dashoffset:0;stroke-opacity:1"
     id="path3438" />
  <path
     style="font-size:11px;font-style:normal;font-weight:bold;text-align:center;text-anchor:middle;fill:#000000;fill-opacity:1;stroke:none;stroke-width:1px;stroke-linecap:butt;stroke-linejoin:miter;stroke-opacity:1;font-family:Arial Narrow"
     d="M 3.75,16.363912 L 3.75,4.3782104 L 6.4524196,4.3782104 L 8.0753616,12.553995 L 9.683413,4.3782104 L 12.393278,4.3782104 L 12.393278,16.363912 L 10.718224,16.363912 L 10.718224,6.9290543 L 8.9389454,16.363912 L 7.1968892,16.363912 L 5.4324988,6.9290543 L 5.4324988,16.363912 L 3.75,16.363912 z M 13.837547,10.44464 C 13.837547,9.0166125 14.029869,7.8406629 14.414508,6.9167918 C 14.799151,5.9929386 15.301668,5.3048104 15.922057,4.8524057 C 16.542445,4.4000245 17.29436,4.173828 18.177798,4.1738159 C 19.458279,4.173828 20.501769,4.7107039 21.308289,5.7844454 C 22.114784,6.8582078 22.518039,8.3870776 22.518053,10.371059 C 22.518039,12.376857 22.091211,13.943881 21.237565,15.072137 C 20.488127,16.069582 19.470685,16.568304 18.185242,16.568304 C 16.889868,16.568304 15.867461,16.075031 15.118037,15.088487 C 14.264375,13.960231 13.837547,12.412288 13.837547,10.44464 L 13.837547,10.44464 z M 15.698718,10.362885 C 15.698716,11.74187 15.936946,12.776107 16.413405,13.465593 C 16.889868,14.155089 17.480475,14.499833 18.185242,14.499832 C 18.894961,14.499833 19.483094,14.157812 19.949635,13.473768 C 20.416162,12.789732 20.649428,11.739144 20.649431,10.322002 C 20.649428,8.9321309 20.422361,7.904706 19.968245,7.2397347 C 19.514114,6.574781 18.919776,6.2422996 18.185242,6.242289 C 17.450695,6.2422996 16.85264,6.5775059 16.391074,7.2479117 C 15.929503,7.9183357 15.698716,8.9566563 15.698718,10.362885 L 15.698718,10.362885 z M 23.954872,16.363912 L 23.954872,4.3782104 L 25.711822,4.3782104 L 29.374604,12.382303 L 29.374604,4.3782104 L 31.057101,4.3782104 L 31.057101,16.363912 L 29.240601,16.363912 L 25.637374,8.5478583 L 25.637374,16.363912 L 23.954872,16.363912 z M 32.903387,16.363912 L 32.903387,4.3782104 L 34.705,4.3782104 L 34.705,16.363912 L 32.903387,16.363912 z "
     id="text3562" />
</svg>
