<?xml version="1.0" encoding="UTF-8" standalone="no"?>
<!-- Created with Inkscape (http://www.inkscape.org/) -->
<svg
   xmlns:dc="http://purl.org/dc/elements/1.1/"
   xmlns:cc="http://web.resource.org/cc/"
   xmlns:rdf="http://www.w3.org/1999/02/22-rdf-syntax-ns#"
   xmlns:svg="http://www.w3.org/2000/svg"
   xmlns="http://www.w3.org/2000/svg"
   xmlns:sodipodi="http://sodipodi.sourceforge.net/DTD/sodipodi-0.dtd"
   xmlns:inkscape="http://www.inkscape.org/namespaces/inkscape"
   version="1.0"
   width="38.454723"
   height="20.73819"
   id="svg2"
   sodipodi:version="0.32"
   inkscape:version="0.45pre1"
   sodipodi:docname="key-1.svg"
   inkscape:output_extension="org.inkscape.output.svg.inkscape"
   sodipodi:docbase="E:\lenny\workspace\radiodoc\uv-5r\assets\images"
   sodipodi:modified="true">
  <metadata
     id="metadata10">
    <rdf:RDF>
      <cc:Work
         rdf:about="">
        <dc:format>image/svg+xml</dc:format>
        <dc:type
           rdf:resource="http://purl.org/dc/dcmitype/StillImage" />
      </cc:Work>
    </rdf:RDF>
  </metadata>
  <sodipodi:namedview
     inkscape:window-height="583"
     inkscape:window-width="734"
     inkscape:pageshadow="2"
     inkscape:pageopacity="0.0"
     guidetolerance="10.0"
     gridtolerance="10.0"
     objecttolerance="10.0"
     borderopacity="1.0"
     bordercolor="#666666"
     pagecolor="#ffffff"
     id="base"
     inkscape:zoom="16.929"
     inkscape:cx="19.987992"
     inkscape:cy="10.369095"
     inkscape:window-x="161"
     inkscape:window-y="161"
     inkscape:current-layer="svg2" />
  <defs
     id="defs4" />
  <path
     d="M 5.4044477,0.63308889 C 2.7264376,0.90558889 0.62501,3.1965889 0.625,5.9486889 L 0.625,14.797589 C 0.625,17.733089 3.0027434,20.113189 5.9354975,20.113189 L 32.519227,20.113189 C 35.451981,20.113189 37.829724,17.733089 37.829724,14.797589 L 37.829724,5.9486889 C 37.829724,3.0130889 35.451981,0.63308889 32.519227,0.63308889 L 5.9354975,0.63308889 C 5.7521966,0.63308889 5.5829804,0.61488889 5.4044477,0.63308889 z "
     style="fill:none;fill-opacity:1;fill-rule:nonzero;stroke:#000000;stroke-width:1.25;stroke-miterlimit:4;stroke-dasharray:none;stroke-dashoffset:0;stroke-opacity:1"
     id="path3430" />
  <g
     id="g2159"
     transform="matrix(1.1850052,0,0,1.1850052,-4.280467,-1.7537752)">
    <path
       id="text3454"
       d="M 9.968749,16.184671 L 7.7734365,16.184671 L 7.7734365,7.9112339 C 6.9713499,8.6612414 6.0260384,9.2159284 4.937499,9.5752964 L 4.937499,7.5831089 C 5.5104139,7.3956177 6.1328091,7.0401493 6.8046865,6.5167027 C 7.4765577,5.9932753 7.9374948,5.3825989 8.187499,4.6846714 L 9.968749,4.6846714 L 9.968749,16.184671 z "
       style="font-size:16px;font-style:normal;font-weight:bold;text-align:center;text-anchor:middle;fill:#000000;fill-opacity:1;stroke:none;stroke-width:1px;stroke-linecap:butt;stroke-linejoin:miter;stroke-opacity:1;font-family:Arial" />
    <path
       id="text3546"
       d="M 11.668455,12.101418 L 12.941404,11.951028 C 13.084632,12.957214 13.553707,13.460306 14.348631,13.460305 C 14.742508,13.460306 15.05224,13.357361 15.27783,13.151467 C 15.503412,12.945577 15.616205,12.69045 15.616209,12.386086 C 15.616205,12.207052 15.576817,12.054872 15.498045,11.929543 C 15.419265,11.804221 15.299311,11.701275 15.138182,11.620706 C 14.977045,11.540142 14.586746,11.40497 13.967283,11.215188 C 13.412268,11.046897 13.005856,10.86428 12.748045,10.667336 C 12.490231,10.470401 12.285235,10.211693 12.133055,9.8912134 C 11.980873,9.5707432 11.904783,9.2260984 11.904783,8.8572779 C 11.904783,8.4275966 12.002357,8.0408782 12.197508,7.6971216 C 12.392657,7.3533789 12.662106,7.0937763 13.005857,6.918313 C 13.349605,6.7428652 13.773921,6.6551374 14.278807,6.6551294 C 15.037918,6.6551374 15.630528,6.8610292 16.056639,7.2728052 C 16.48274,7.684596 16.708326,8.2736254 16.733397,9.0398951 L 15.428221,9.1097193 C 15.370925,8.6871992 15.24739,8.3917894 15.057615,8.2234888 C 14.867833,8.0552011 14.597488,7.9710541 14.24658,7.9710474 C 13.895666,7.9710541 13.625321,8.044459 13.435545,8.1912622 C 13.245764,8.3380785 13.150875,8.5206955 13.150877,8.7391138 C 13.150875,8.9539633 13.236813,9.1347899 13.408689,9.2815943 C 13.580562,9.4284094 13.976232,9.5895421 14.595701,9.7649927 C 15.250971,9.9547761 15.724522,10.154402 16.016356,10.36387 C 16.30818,10.573346 16.53108,10.843691 16.685057,11.174905 C 16.839023,11.506125 16.916008,11.908062 16.916014,12.380715 C 16.916008,13.064636 16.705641,13.639343 16.28491,14.104836 C 15.86417,14.570331 15.206212,14.803079 14.311033,14.803079 C 12.72835,14.803079 11.847491,13.902526 11.668455,12.101418 L 11.668455,12.101418 z M 19.467283,14.66343 L 19.467283,8.121438 L 17.549803,8.121438 L 17.549803,6.7894068 L 22.679197,6.7894068 L 22.679197,8.121438 L 20.767088,8.121438 L 20.767088,14.66343 L 19.467283,14.66343 z M 23.538572,14.66343 L 23.538572,6.7894068 L 28.329588,6.7894068 L 28.329588,8.121438 L 24.838377,8.121438 L 24.838377,9.8670435 L 28.082518,9.8670435 L 28.082518,11.193704 L 24.838377,11.193704 L 24.838377,13.33677 L 28.447752,13.33677 L 28.447752,14.66343 L 23.538572,14.66343 z M 29.548826,14.66343 L 29.548826,6.7894068 L 31.643553,6.7894068 C 32.424148,6.7894147 32.934402,6.8270123 33.174314,6.9021997 C 33.557448,7.0239522 33.873447,7.2835548 34.122313,7.6810083 C 34.371168,8.0784759 34.495598,8.5905196 34.495604,9.2171412 C 34.495598,9.786482 34.388176,10.263614 34.173338,10.648538 C 33.958489,11.03347 33.689935,11.303814 33.367674,11.459573 C 33.045404,11.615338 32.490392,11.693218 31.702635,11.693215 L 30.848631,11.693215 L 30.848631,14.66343 L 29.548826,14.66343 z M 30.848631,8.121438 L 30.848631,10.355813 L 31.568357,10.355813 C 32.051753,10.355817 32.380284,10.3218 32.553953,10.253762 C 32.727615,10.185733 32.869949,10.063093 32.980955,9.8858423 C 33.091954,9.7086012 33.147455,9.4910721 33.147459,9.2332544 C 33.147455,8.9718669 33.090163,8.7516523 32.975584,8.5726099 C 32.860997,8.3935797 32.719558,8.2736254 32.551268,8.2127466 C 32.38297,8.1518807 32.026688,8.1214446 31.48242,8.121438 L 30.848631,8.121438 z "
       style="font-size:11px;font-style:normal;font-weight:bold;text-align:center;text-anchor:middle;fill:#000000;fill-opacity:1;stroke:none;stroke-width:1px;stroke-linecap:butt;stroke-linejoin:miter;stroke-opacity:1;font-family:Arial Narrow" />
  </g>
</svg>
