<?xml version="1.0" encoding="UTF-8" standalone="no"?>
<!-- Created with Inkscape (http://www.inkscape.org/) -->
<svg
   xmlns:dc="http://purl.org/dc/elements/1.1/"
   xmlns:cc="http://web.resource.org/cc/"
   xmlns:rdf="http://www.w3.org/1999/02/22-rdf-syntax-ns#"
   xmlns:svg="http://www.w3.org/2000/svg"
   xmlns="http://www.w3.org/2000/svg"
   xmlns:sodipodi="http://sodipodi.sourceforge.net/DTD/sodipodi-0.dtd"
   xmlns:inkscape="http://www.inkscape.org/namespaces/inkscape"
   version="1.0"
   width="38.454727"
   height="20.73819"
   id="svg2"
   sodipodi:version="0.32"
   inkscape:version="0.45pre1"
   sodipodi:docname="key-6.svg"
   inkscape:output_extension="org.inkscape.output.svg.inkscape"
   sodipodi:docbase="E:\lenny\workspace\radiodoc\uv-5r\assets\images"
   sodipodi:modified="true">
  <metadata
     id="metadata10">
    <rdf:RDF>
      <cc:Work
         rdf:about="">
        <dc:format>image/svg+xml</dc:format>
        <dc:type
           rdf:resource="http://purl.org/dc/dcmitype/StillImage" />
      </cc:Work>
    </rdf:RDF>
  </metadata>
  <sodipodi:namedview
     inkscape:window-height="480"
     inkscape:window-width="640"
     inkscape:pageshadow="2"
     inkscape:pageopacity="0.0"
     guidetolerance="10.0"
     gridtolerance="10.0"
     objecttolerance="10.0"
     borderopacity="1.0"
     bordercolor="#666666"
     pagecolor="#ffffff"
     id="base" />
  <defs
     id="defs4" />
  <path
     d="M 5.404448,0.63308889 C 2.726438,0.90558889 0.62501,3.1965889 0.625,5.9486889 L 0.625,14.797589 C 0.625,17.733089 3.002743,20.113189 5.935497,20.113189 L 32.519228,20.113189 C 35.451978,20.113189 37.829728,17.733089 37.829728,14.797589 L 37.829728,5.9486889 C 37.829728,3.0130889 35.451978,0.63308889 32.519228,0.63308889 L 5.935497,0.63308889 C 5.752197,0.63308889 5.58298,0.61488889 5.404448,0.63308889 z "
     style="fill:none;fill-opacity:1;fill-rule:nonzero;stroke:#000000;stroke-width:1.25;stroke-miterlimit:4;stroke-dasharray:none;stroke-dashoffset:0;stroke-opacity:1"
     id="path3426" />
  <path
     style="font-size:16px;font-style:normal;font-weight:bold;text-align:center;text-anchor:middle;fill:#000000;fill-opacity:1;stroke:none;stroke-width:1px;stroke-linecap:butt;stroke-linejoin:miter;stroke-opacity:1;font-family:Arial"
     d="M 11.789057,7.536274 L 9.6640568,7.770649 C 9.6119675,7.3331578 9.476551,7.0102415 9.2578068,6.801899 C 9.0390514,6.5935752 8.7551975,6.4894087 8.4062443,6.489399 C 7.9426983,6.4894087 7.5507716,6.6977418 7.230463,7.114399 C 6.9101473,7.5310743 6.7083246,8.3982609 6.6249943,9.7159615 C 7.1718658,9.0701352 7.8515526,8.7472189 8.6640568,8.7472115 C 9.5807175,8.7472189 10.365873,9.0961769 11.019526,9.7940865 C 11.673163,10.492009 11.999986,11.39305 11.999994,12.497211 C 11.999986,13.669089 11.656236,14.609192 10.968744,15.317524 C 10.281238,16.025857 9.3984261,16.380024 8.3203068,16.380024 C 7.1640533,16.380024 6.2135334,15.930805 5.4687443,15.032368 C 4.7239516,14.133932 4.3515561,12.661277 4.3515568,10.614399 C 4.3515561,8.5154483 4.7395765,7.002429 5.5156193,6.0753365 C 6.2916583,5.1482642 7.2994698,4.684723 8.5390568,4.6847115 C 9.4088427,4.684723 10.128894,4.9282123 10.699213,5.4151802 C 11.269518,5.9021697 11.632799,6.6092002 11.789057,7.536274 L 11.789057,7.536274 z M 6.8124943,12.325336 C 6.8124911,13.038881 6.9765535,13.589662 7.3046818,13.97768 C 7.6328028,14.365703 8.0078024,14.559713 8.4296818,14.559711 C 8.8359266,14.559713 9.1744679,14.400859 9.4453068,14.083149 C 9.7161341,13.765443 9.8515506,13.24461 9.8515568,12.520649 C 9.8515506,11.775862 9.7057174,11.230289 9.4140568,10.88393 C 9.1223847,10.537582 8.7578017,10.364405 8.3203068,10.364399 C 7.8984276,10.364405 7.5416571,10.529769 7.2499943,10.860493 C 6.9583243,11.191227 6.8124911,11.679508 6.8124943,12.325336 L 6.8124943,12.325336 z "
     id="text3482" />
  <path
     style="font-size:11px;font-style:normal;font-weight:bold;text-align:center;text-anchor:middle;fill:#000000;fill-opacity:1;stroke:none;stroke-width:1px;stroke-linecap:butt;stroke-linejoin:miter;stroke-opacity:1;font-family:Arial Narrow"
     d="M 19.837885,14.66341 L 18.419916,14.66341 L 17.855951,12.874836 L 15.277826,12.874836 L 14.746088,14.66341 L 13.360346,14.66341 L 15.874018,6.7893867 L 17.254389,6.7893867 L 19.837885,14.66341 z M 17.437006,11.548176 L 16.550776,8.6263008 L 15.675287,11.548176 L 17.437006,11.548176 z M 20.525385,6.7893867 L 23.108881,6.7893867 C 23.814281,6.7893946 24.310211,6.8538477 24.596674,6.9827461 C 24.883127,7.1116599 25.124826,7.339036 25.321772,7.664875 C 25.518706,7.9907281 25.617176,8.3595428 25.617182,8.7713203 C 25.617176,9.1508831 25.533029,9.4937376 25.36474,9.7998848 C 25.196441,10.106042 24.978017,10.332523 24.709467,10.479328 C 25.0926,10.6154 25.392486,10.848147 25.609125,11.17757 C 25.825753,11.507001 25.93407,11.908042 25.934076,12.380695 C 25.93407,12.953614 25.796212,13.437907 25.520502,13.833576 C 25.244781,14.229247 24.918935,14.473632 24.542963,14.56673 C 24.281565,14.631184 23.674632,14.66341 22.722162,14.66341 L 20.525385,14.66341 L 20.525385,6.7893867 z M 21.82519,8.0999336 L 21.82519,9.9207344 L 22.684565,9.9207344 C 23.200186,9.9207391 23.518871,9.9117873 23.640619,9.8938789 C 23.86262,9.8580765 24.036286,9.7640824 24.161615,9.6118965 C 24.286936,9.4597207 24.349599,9.2529338 24.349604,8.9915352 C 24.349599,8.7587937 24.298574,8.5699104 24.196527,8.4248848 C 24.094472,8.2798716 23.970937,8.1894583 23.825922,8.1536446 C 23.680899,8.1178438 23.264639,8.0999402 22.577143,8.0999336 L 21.82519,8.0999336 z M 21.82519,11.231281 L 21.82519,13.33675 L 23.033686,13.33675 C 23.56363,13.336751 23.903799,13.309001 24.054193,13.253498 C 24.20458,13.197998 24.3308,13.088786 24.432856,12.925861 C 24.534902,12.76294 24.585927,12.556153 24.585932,12.3055 C 24.585927,12.04769 24.531321,11.835532 24.422113,11.669025 C 24.312897,11.502525 24.167877,11.387941 23.987055,11.325275 C 23.806224,11.262616 23.436514,11.231285 22.877924,11.231281 L 21.82519,11.231281 z M 27.040522,14.66341 L 27.040522,6.7893867 L 29.785151,6.7893867 C 30.486969,6.7893946 30.988271,6.860114 31.289057,7.001545 C 31.589833,7.1429913 31.836903,7.388271 32.030268,7.7373848 C 32.223621,8.0865125 32.320301,8.5045622 32.320307,8.9915352 C 32.320301,9.6074257 32.172596,10.103356 31.877192,10.479328 C 31.581776,10.855309 31.161936,11.091636 30.61767,11.188313 C 30.896962,11.388837 31.127919,11.608156 31.310541,11.846272 C 31.493153,12.084393 31.742014,12.511394 32.057123,13.127277 L 32.841303,14.66341 L 31.289057,14.66341 L 30.343744,12.950031 C 30.003571,12.330567 29.772615,11.942954 29.650873,11.787189 C 29.529125,11.631431 29.400219,11.524009 29.264154,11.464924 C 29.128084,11.405845 28.90966,11.376304 28.608881,11.376301 L 28.340326,11.376301 L 28.340326,14.66341 L 27.040522,14.66341 z M 28.340326,10.119465 L 29.307123,10.119465 C 29.89794,10.119469 30.273916,10.093509 30.435053,10.041584 C 30.596181,9.9896681 30.726878,9.8849319 30.827143,9.727375 C 30.927399,9.569828 30.977529,9.3603556 30.977533,9.0989571 C 30.977529,8.8483118 30.927399,8.646896 30.827143,8.494709 C 30.726878,8.3425343 30.59081,8.2377981 30.41894,8.1805 C 30.297191,8.1411185 29.944489,8.1214245 29.360834,8.121418 L 28.340326,8.121418 L 28.340326,10.119465 z "
     id="text3538" />
</svg>
