<?xml version="1.0" encoding="UTF-8" standalone="no"?>
<!-- Created with Inkscape (http://www.inkscape.org/) -->
<svg
   xmlns:dc="http://purl.org/dc/elements/1.1/"
   xmlns:cc="http://web.resource.org/cc/"
   xmlns:rdf="http://www.w3.org/1999/02/22-rdf-syntax-ns#"
   xmlns:svg="http://www.w3.org/2000/svg"
   xmlns="http://www.w3.org/2000/svg"
   xmlns:sodipodi="http://sodipodi.sourceforge.net/DTD/sodipodi-0.dtd"
   xmlns:inkscape="http://www.inkscape.org/namespaces/inkscape"
   version="1.0"
   width="38.454731"
   height="20.73819"
   id="svg2"
   sodipodi:version="0.32"
   inkscape:version="0.45pre1"
   sodipodi:docname="key-0.svg"
   inkscape:output_extension="org.inkscape.output.svg.inkscape"
   sodipodi:docbase="E:\lenny\workspace\radiodoc\uv-5r\assets\images"
   sodipodi:modified="true">
  <metadata
     id="metadata10">
    <rdf:RDF>
      <cc:Work
         rdf:about="">
        <dc:format>image/svg+xml</dc:format>
        <dc:type
           rdf:resource="http://purl.org/dc/dcmitype/StillImage" />
      </cc:Work>
    </rdf:RDF>
  </metadata>
  <sodipodi:namedview
     inkscape:window-height="583"
     inkscape:window-width="734"
     inkscape:pageshadow="2"
     inkscape:pageopacity="0.0"
     guidetolerance="10.0"
     gridtolerance="10.0"
     objecttolerance="10.0"
     borderopacity="1.0"
     bordercolor="#666666"
     pagecolor="#ffffff"
     id="base"
     inkscape:zoom="16.928996"
     inkscape:cx="19.227365"
     inkscape:cy="10.369095"
     inkscape:window-x="92"
     inkscape:window-y="92"
     inkscape:current-layer="svg2" />
  <defs
     id="defs4" />
  <path
     d="M 5.40445,0.63308889 C 2.72644,0.90558889 0.62501,3.1965889 0.625,5.9486889 L 0.625,14.797589 C 0.625,17.733089 3.00275,20.113189 5.9355,20.113189 L 32.51923,20.113189 C 35.45198,20.113189 37.82973,17.733089 37.82973,14.797589 L 37.82973,5.9486889 C 37.82973,3.0130889 35.45198,0.63308889 32.51923,0.63308889 L 5.9355,0.63308889 C 5.7522,0.63308889 5.58298,0.61488889 5.40445,0.63308889 z "
     style="fill:none;fill-opacity:1;fill-rule:nonzero;stroke:#000000;stroke-width:1.25;stroke-miterlimit:4;stroke-dasharray:none;stroke-dashoffset:0;stroke-opacity:1"
     id="path3428" />
  <path
     style="font-size:16px;font-style:normal;font-weight:bold;text-align:center;text-anchor:middle;fill:#000000;fill-opacity:1;stroke:none;stroke-width:1px;stroke-linecap:butt;stroke-linejoin:miter;stroke-opacity:1;font-family:Arial"
     d="M 8.0624952,4.6847115 C 9.1718647,4.684723 10.039051,5.0805559 10.664058,5.8722115 C 11.408842,6.8097208 11.781237,8.3644068 11.781245,10.536274 C 11.781237,12.702944 11.406237,14.260234 10.656245,15.208149 C 10.036447,15.989399 9.1718647,16.380024 8.0624952,16.380024 C 6.9479086,16.380024 6.049472,15.951639 5.3671827,15.094868 C 4.6848901,14.238099 4.3437446,12.710757 4.3437452,10.512836 C 4.3437446,8.3565943 4.7187442,6.8045125 5.4687452,5.8565865 C 6.0885345,5.0753476 6.953117,4.684723 8.0624952,4.6847115 L 8.0624952,4.6847115 z M 8.0624952,6.505024 C 7.7968661,6.5050336 7.5598872,6.589669 7.3515577,6.7589302 C 7.1432209,6.9282103 6.9817628,7.2315954 6.8671827,7.6690865 C 6.716138,8.2368027 6.6406173,9.1925309 6.6406202,10.536274 C 6.6406173,11.880028 6.7083255,12.803204 6.8437452,13.305805 C 6.9791586,13.808412 7.1497313,14.143047 7.355464,14.309711 C 7.5611893,14.47638 7.7968661,14.559713 8.0624952,14.559711 C 8.3281156,14.559713 8.5650945,14.475078 8.7734327,14.305805 C 8.9817608,14.136536 9.1432189,13.833151 9.2578077,13.395649 C 9.4088437,12.833152 9.4843644,11.880028 9.4843702,10.536274 C 9.4843644,9.1925309 9.4166562,8.2693548 9.2812452,7.7667427 C 9.1458231,7.2641475 8.9752503,6.9282103 8.7695265,6.7589302 C 8.5637924,6.589669 8.3281156,6.5050336 8.0624952,6.505024 L 8.0624952,6.505024 z "
     id="text3498" />
  <path
     style="font-size:11px;font-style:normal;font-weight:bold;text-align:center;text-anchor:middle;fill:#000000;fill-opacity:1;stroke:none;stroke-width:1px;stroke-linecap:butt;stroke-linejoin:miter;stroke-opacity:1;font-family:Arial Narrow"
     d="M 14.171381,12.101398 L 15.44433,11.951008 C 15.587558,12.957194 16.056633,13.460286 16.851557,13.460285 C 17.245434,13.460286 17.555166,13.357341 17.780756,13.151447 C 18.006338,12.945557 18.119131,12.69043 18.119135,12.386066 C 18.119131,12.207032 18.079743,12.054852 18.000971,11.929523 C 17.922191,11.804201 17.802236,11.701255 17.641108,11.620686 C 17.479971,11.540122 17.089672,11.40495 16.470209,11.215168 C 15.915194,11.046877 15.508782,10.86426 15.250971,10.667316 C 14.993157,10.470381 14.788161,10.211673 14.635981,9.8911934 C 14.483799,9.5707232 14.407709,9.2260784 14.407709,8.8572578 C 14.407709,8.4275766 14.505283,8.0408582 14.700434,7.6971016 C 14.895582,7.3533589 15.165032,7.0937563 15.508783,6.918293 C 15.852531,6.7428452 16.276847,6.6551174 16.781733,6.6551094 C 17.540843,6.6551174 18.133454,6.8610091 18.559565,7.2727852 C 18.985666,7.684576 19.211252,8.2736054 19.236322,9.039875 L 17.931147,9.1096992 C 17.873851,8.6871792 17.750316,8.3917693 17.560541,8.2234688 C 17.370759,8.0551811 17.100414,7.9710341 16.749506,7.9710274 C 16.398592,7.9710341 16.128247,8.0444389 15.938471,8.1912422 C 15.74869,8.3380584 15.653801,8.5206754 15.653803,8.7390938 C 15.653801,8.9539432 15.739738,9.1347699 15.911615,9.2815742 C 16.083488,9.4283894 16.479158,9.589522 17.098627,9.7649727 C 17.753897,9.954756 18.227448,10.154381 18.519281,10.36385 C 18.811106,10.573326 19.034006,10.843671 19.187983,11.174885 C 19.341948,11.506105 19.418934,11.908042 19.41894,12.380695 C 19.418934,13.064616 19.208566,13.639323 18.787836,14.104816 C 18.367096,14.570311 17.709138,14.803058 16.813959,14.803059 C 15.231275,14.803058 14.350417,13.902506 14.171381,12.101398 L 14.171381,12.101398 z M 25.713861,13.664387 C 26.03254,13.940104 26.379871,14.162109 26.755854,14.330402 L 26.277826,15.452961 C 26.084461,15.381346 25.894682,15.284666 25.70849,15.162922 C 25.665516,15.137856 25.373687,14.903319 24.833002,14.459309 C 24.406891,14.684895 23.919912,14.797687 23.372065,14.797688 C 22.441072,14.797687 21.688225,14.449462 21.11352,13.75301 C 20.538812,13.05656 20.251459,12.04769 20.251459,10.726398 C 20.251459,9.4015339 20.540602,8.3917693 21.118891,7.6971016 C 21.697177,7.0024478 22.455395,6.6551174 23.393549,6.6551094 C 24.320953,6.6551174 25.072011,7.003343 25.646723,7.6997871 C 26.221423,8.3962452 26.508777,9.4051147 26.508783,10.726398 C 26.508777,11.367352 26.445219,11.918784 26.31811,12.380695 C 26.190987,12.842611 25.989571,13.270508 25.713861,13.664387 L 25.713861,13.664387 z M 24.666498,12.767414 C 24.999501,12.301922 25.166005,11.623374 25.16601,10.73177 C 25.166005,9.8079463 24.999501,9.1240277 24.666498,8.6800117 C 24.333486,8.2360078 23.905589,8.0140028 23.382807,8.0139961 C 22.860017,8.0140028 22.431225,8.2360078 22.09643,8.6800117 C 21.76163,9.1240277 21.594231,9.8061559 21.594233,10.726398 C 21.594231,11.660972 21.76163,12.352947 22.09643,12.802326 C 22.431225,13.251709 22.847485,13.4764 23.345209,13.476398 C 23.531403,13.4764 23.708649,13.438802 23.876947,13.363605 C 23.604808,13.148763 23.336254,12.98405 23.071283,12.869465 L 23.436518,11.96175 C 23.866201,12.140789 24.276194,12.409343 24.666498,12.767414 L 24.666498,12.767414 z M 27.577631,14.66341 L 27.577631,6.8538399 L 28.877436,6.8538399 L 28.877436,13.33675 L 32.121576,13.33675 L 32.121576,14.66341 L 27.577631,14.66341 z "
     id="text3542" />
</svg>
