<?xml version="1.0" encoding="UTF-8" standalone="no"?>
<!-- Created with Inkscape (http://www.inkscape.org/) -->
<svg
   xmlns:dc="http://purl.org/dc/elements/1.1/"
   xmlns:cc="http://web.resource.org/cc/"
   xmlns:rdf="http://www.w3.org/1999/02/22-rdf-syntax-ns#"
   xmlns:svg="http://www.w3.org/2000/svg"
   xmlns="http://www.w3.org/2000/svg"
   xmlns:sodipodi="http://sodipodi.sourceforge.net/DTD/sodipodi-0.dtd"
   xmlns:inkscape="http://www.inkscape.org/namespaces/inkscape"
   version="1.0"
   width="38.454723"
   height="20.73819"
   id="svg2"
   sodipodi:version="0.32"
   inkscape:version="0.45pre1"
   sodipodi:docname="key-band.svg"
   inkscape:output_extension="org.inkscape.output.svg.inkscape"
   sodipodi:docbase="E:\lenny\workspace\radiodoc\uv-5r\assets\images"
   sodipodi:modified="true">
  <metadata
     id="metadata8">
    <rdf:RDF>
      <cc:Work
         rdf:about="">
        <dc:format>image/svg+xml</dc:format>
        <dc:type
           rdf:resource="http://purl.org/dc/dcmitype/StillImage" />
      </cc:Work>
    </rdf:RDF>
  </metadata>
  <sodipodi:namedview
     inkscape:window-height="480"
     inkscape:window-width="640"
     inkscape:pageshadow="2"
     inkscape:pageopacity="0.0"
     guidetolerance="10.0"
     gridtolerance="10.0"
     objecttolerance="10.0"
     borderopacity="1.0"
     bordercolor="#666666"
     pagecolor="#ffffff"
     id="base" />
  <defs
     id="defs4" />
  <path
     d="M 5.4044477,0.63308889 C 2.7264376,0.90558889 0.62501,3.1965889 0.625,5.9486889 L 0.625,14.797589 C 0.625,17.733089 3.0027434,20.113189 5.9354975,20.113189 L 32.519227,20.113189 C 35.451981,20.113189 37.829724,17.733089 37.829724,14.797589 L 37.829724,5.9486889 C 37.829724,3.0130889 35.451981,0.63308889 32.519227,0.63308889 L 5.9354975,0.63308889 C 5.7521966,0.63308889 5.5829804,0.61488889 5.4044477,0.63308889 z "
     style="fill:none;fill-opacity:1;fill-rule:nonzero;stroke:#000000;stroke-width:1.25;stroke-miterlimit:4;stroke-dasharray:none;stroke-dashoffset:0;stroke-opacity:1"
     id="path3438" />
  <path
     style="font-size:11px;font-style:normal;font-weight:bold;text-align:center;text-anchor:middle;fill:#000000;fill-opacity:1;stroke:none;stroke-width:1px;stroke-linecap:butt;stroke-linejoin:miter;stroke-opacity:1;font-family:Arial Narrow"
     d="M 6.8644772,6.4334755 L 9.4479733,6.4334755 C 10.153373,6.4334834 10.649303,6.4979364 10.935766,6.6268349 C 11.22222,6.7557487 11.463919,6.9831247 11.660864,7.3089638 C 11.857798,7.6348168 11.956268,8.0036315 11.956274,8.4154091 C 11.956268,8.7949719 11.872121,9.1378264 11.703833,9.4439735 C 11.535533,9.7501304 11.317109,9.9766113 11.048559,10.123417 C 11.431692,10.259489 11.731578,10.492236 11.948217,10.821659 C 12.164846,11.151089 12.273162,11.552131 12.273169,12.024784 C 12.273162,12.597702 12.135305,13.081996 11.859594,13.477665 C 11.583873,13.873336 11.258027,14.11772 10.882055,14.210819 C 10.620658,14.275272 10.013725,14.307499 9.0612545,14.307499 L 6.8644772,14.307499 L 6.8644772,6.4334755 z M 8.1642818,7.7440224 L 8.1642818,9.5648232 L 9.0236568,9.5648232 C 9.5392785,9.5648279 9.8579631,9.5558761 9.9797115,9.5379677 C 10.201713,9.5021652 10.375378,9.4081711 10.500708,9.2559853 C 10.626029,9.1038095 10.688691,8.8970226 10.688696,8.6356239 C 10.688691,8.4028824 10.637666,8.2139992 10.53562,8.0689735 C 10.433565,7.9239604 10.31003,7.8335471 10.165014,7.7977333 C 10.019991,7.7619326 9.6037316,7.7440289 8.916235,7.7440224 L 8.1642818,7.7440224 z M 8.1642818,10.87537 L 8.1642818,12.980839 L 9.3727779,12.980839 C 9.9027222,12.98084 10.242891,12.953089 10.393286,12.897587 C 10.543672,12.842087 10.669893,12.732875 10.771948,12.56995 C 10.873994,12.407029 10.925019,12.200242 10.925024,11.949589 C 10.925019,11.691779 10.870413,11.479621 10.761206,11.313114 C 10.651989,11.146613 10.50697,11.03203 10.326147,10.969364 C 10.145316,10.906705 9.7756064,10.875373 9.2170162,10.87537 L 8.1642818,10.87537 z M 19.196508,14.307499 L 17.77854,14.307499 L 17.214575,12.518925 L 14.63645,12.518925 L 14.104712,14.307499 L 12.718969,14.307499 L 15.232641,6.4334755 L 16.613012,6.4334755 L 19.196508,14.307499 z M 16.79563,11.192265 L 15.909399,8.2703896 L 15.033911,11.192265 L 16.79563,11.192265 z M 19.900122,14.307499 L 19.900122,6.4334755 L 21.1677,6.4334755 L 23.810278,11.691776 L 23.810278,6.4334755 L 25.024145,6.4334755 L 25.024145,14.307499 L 23.713598,14.307499 L 21.113989,9.1727333 L 21.113989,14.307499 L 19.900122,14.307499 z M 26.388403,6.4334755 L 28.767797,6.4334755 C 29.369356,6.4334834 29.823213,6.500622 30.12937,6.6348915 C 30.435517,6.7691764 30.7175,6.9956573 30.975317,7.3143349 C 31.233124,7.6330264 31.435435,8.0466002 31.582251,8.5550575 C 31.729055,9.0635263 31.802459,9.6955244 31.802465,10.451054 C 31.802459,11.131395 31.725474,11.72311 31.571508,12.2262 C 31.417531,12.729294 31.222382,13.12765 30.986059,13.421268 C 30.749726,13.714889 30.464163,13.935999 30.12937,14.084599 C 29.794568,14.233199 29.363985,14.307499 28.837622,14.307499 L 26.388403,14.307499 L 26.388403,6.4334755 z M 27.688208,7.7655067 L 27.688208,12.980839 L 28.665747,12.980839 C 29.084689,12.98084 29.388155,12.941452 29.576147,12.862675 C 29.764131,12.7839 29.918103,12.664841 30.038061,12.505497 C 30.158011,12.346156 30.257376,12.094611 30.336157,11.750858 C 30.414928,11.407111 30.454316,10.954149 30.454321,10.391972 C 30.454316,9.8083172 30.414033,9.348194 30.333471,9.0116005 C 30.2529,8.6750176 30.127575,8.4100439 29.957495,8.2166786 C 29.787406,8.0233255 29.580619,7.8962098 29.337133,7.835331 C 29.154513,7.788788 28.801811,7.7655133 28.279028,7.7655067 L 27.688208,7.7655067 z "
     id="text3562" />
</svg>
