<?xml version="1.0" encoding="UTF-8" standalone="no"?>
<!-- Created with Inkscape (http://www.inkscape.org/) -->
<svg
   xmlns:dc="http://purl.org/dc/elements/1.1/"
   xmlns:cc="http://web.resource.org/cc/"
   xmlns:rdf="http://www.w3.org/1999/02/22-rdf-syntax-ns#"
   xmlns:svg="http://www.w3.org/2000/svg"
   xmlns="http://www.w3.org/2000/svg"
   xmlns:sodipodi="http://sodipodi.sourceforge.net/DTD/sodipodi-0.dtd"
   xmlns:inkscape="http://www.inkscape.org/namespaces/inkscape"
   version="1.0"
   width="38.454723"
   height="20.73819"
   id="svg2"
   sodipodi:version="0.32"
   inkscape:version="0.45pre1"
   sodipodi:docname="key-7.svg"
   inkscape:output_extension="org.inkscape.output.svg.inkscape"
   sodipodi:docbase="E:\lenny\workspace\radiodoc\uv-5r\assets\images"
   sodipodi:modified="true">
  <metadata
     id="metadata11">
    <rdf:RDF>
      <cc:Work
         rdf:about="">
        <dc:format>image/svg+xml</dc:format>
        <dc:type
           rdf:resource="http://purl.org/dc/dcmitype/StillImage" />
      </cc:Work>
    </rdf:RDF>
  </metadata>
  <sodipodi:namedview
     inkscape:window-height="583"
     inkscape:window-width="734"
     inkscape:pageshadow="2"
     inkscape:pageopacity="0.0"
     guidetolerance="10.0"
     gridtolerance="10.0"
     objecttolerance="10.0"
     borderopacity="1.0"
     bordercolor="#666666"
     pagecolor="#ffffff"
     id="base"
     inkscape:zoom="16.929"
     inkscape:cx="19.227362"
     inkscape:cy="10.369095"
     inkscape:window-x="46"
     inkscape:window-y="46"
     inkscape:current-layer="svg2" />
  <defs
     id="defs4" />
  <path
     id="rect3397"
     style="fill:none;fill-opacity:1;fill-rule:nonzero;stroke:#000000;stroke-width:1.25;stroke-miterlimit:4;stroke-dasharray:none;stroke-dashoffset:0;stroke-opacity:1"
     d="M 5.4044477,0.6331 C 2.7264376,0.9056 0.62501,3.1966 0.625,5.9487 L 0.625,14.7976 C 0.625,17.7331 3.0027434,20.1132 5.9354975,20.1132 L 32.519227,20.1132 C 35.451981,20.1132 37.829724,17.7331 37.829724,14.7976 L 37.829724,5.9487 C 37.829724,3.0131 35.451981,0.6331 32.519227,0.6331 L 5.9354975,0.6331 C 5.7521966,0.6331 5.5829804,0.6149 5.4044477,0.6331 z " />
  <path
     style="font-size:16px;font-style:normal;font-weight:bold;text-align:center;text-anchor:middle;fill:#000000;fill-opacity:1;stroke:none;stroke-width:1px;stroke-linecap:butt;stroke-linejoin:miter;stroke-opacity:1;font-family:Arial"
     d="M 3.75,5.7317588 L 3.75,3.1172392 L 13.376638,3.1172392 L 13.376638,5.1607718 C 12.581924,5.9421341 11.773858,7.0640725 10.952448,8.5265902 C 10.131026,9.9891258 9.5049415,11.543483 9.0742036,13.189651 C 8.6434536,14.835836 8.4314206,16.306709 8.4381043,17.602279 L 5.7234116,17.602279 C 5.7701557,15.572103 6.1892129,13.50186 6.9805842,11.391543 C 7.7719474,9.2812363 8.8287734,7.3946437 10.151066,5.7317588 L 3.75,5.7317588 z "
     id="text3446" />
  <path
     style="font-size:11px;font-style:normal;font-weight:bold;text-align:center;text-anchor:middle;fill:#000000;fill-opacity:1;stroke:none;stroke-width:1px;stroke-linecap:butt;stroke-linejoin:miter;stroke-opacity:1;font-family:Arial Narrow"
     d="M 16.203834,15.179161 L 16.203834,7.5270702 L 14.067075,7.5270702 L 14.067075,5.9690096 L 19.783066,5.9690096 L 19.783066,7.5270702 L 17.652287,7.5270702 L 17.652287,15.179161 L 16.203834,15.179161 z M 20.728752,5.9690096 L 23.38025,5.9690096 C 24.050601,5.9690188 24.556367,6.0475499 24.897538,6.2046035 C 25.238693,6.3616748 25.552928,6.6265868 25.840225,6.9993401 C 26.127512,7.3721096 26.352963,7.8558618 26.516569,8.4505983 C 26.680158,9.045348 26.761962,9.7845885 26.761967,10.668322 C 26.761962,11.464109 26.67617,12.156227 26.504598,12.744689 C 26.333008,13.333155 26.115542,13.799101 25.852195,14.142548 C 25.588832,14.485988 25.270619,14.744625 24.897538,14.918432 C 24.524441,15.092249 24.04462,15.179161 23.458059,15.179161 L 20.728752,15.179161 L 20.728752,5.9690096 z M 22.177203,7.5270702 L 22.177203,13.627385 L 23.266535,13.627385 C 23.733385,13.627386 24.071553,13.581309 24.281049,13.489164 C 24.490529,13.397028 24.662106,13.257761 24.795786,13.071377 C 24.929452,12.885005 25.040183,12.590773 25.127974,12.18869 C 25.215747,11.786611 25.259644,11.256789 25.259648,10.599217 C 25.259644,9.9165209 25.21475,9.3783202 25.124974,8.984611 C 25.035191,8.5909143 24.895533,8.2809778 24.706007,8.0548005 C 24.516465,7.8286377 24.28603,7.6799522 24.014699,7.6087429 C 23.811195,7.5543021 23.418154,7.5270779 22.835587,7.5270702 L 22.177203,7.5270702 z M 27.994946,15.179161 L 27.994946,5.9690096 L 31.053449,5.9690096 C 31.835529,5.9690188 32.394164,6.0517383 32.729345,6.2171685 C 33.064519,6.3826163 33.33984,6.6695171 33.555319,7.0778714 C 33.770787,7.4862416 33.87852,7.9752295 33.878526,8.5448359 C 33.87852,9.2652352 33.713922,9.8453201 33.384739,10.285088 C 33.055538,10.724868 32.587689,11.0013 31.981181,11.114379 C 32.292413,11.348934 32.54978,11.60547 32.753288,11.883986 C 32.956778,12.162515 33.234102,12.661973 33.585251,13.382361 L 34.459109,15.179161 L 32.729345,15.179161 L 31.675927,13.17504 C 31.296849,12.45046 31.039482,11.997078 30.90382,11.814878 C 30.768146,11.632693 30.6245,11.507038 30.472873,11.437928 C 30.32124,11.368825 30.077837,11.334268 29.742661,11.334265 L 29.443397,11.334265 L 29.443397,15.179161 L 27.994946,15.179161 z M 29.443397,9.8641624 L 30.520758,9.8641624 C 31.17914,9.8641671 31.598115,9.8338021 31.777679,9.7730651 C 31.957235,9.7123402 32.102875,9.589831 32.214608,9.405539 C 32.326325,9.2212579 32.382193,8.9762407 32.382197,8.6704858 C 32.382193,8.3773091 32.326325,8.1417156 32.214608,7.963704 C 32.102875,7.7857073 31.951246,7.6631987 31.759718,7.5961779 C 31.624051,7.5501137 31.231012,7.5270779 30.580606,7.5270702 L 29.443397,7.5270702 L 29.443397,9.8641624 z "
     id="text3510" />
</svg>
