<?xml version="1.0" encoding="UTF-8" standalone="no"?>
<!-- Created with Inkscape (http://www.inkscape.org/) -->
<svg
   xmlns:dc="http://purl.org/dc/elements/1.1/"
   xmlns:cc="http://web.resource.org/cc/"
   xmlns:rdf="http://www.w3.org/1999/02/22-rdf-syntax-ns#"
   xmlns:svg="http://www.w3.org/2000/svg"
   xmlns="http://www.w3.org/2000/svg"
   xmlns:sodipodi="http://sodipodi.sourceforge.net/DTD/sodipodi-0.dtd"
   xmlns:inkscape="http://www.inkscape.org/namespaces/inkscape"
   version="1.0"
   width="38.454727"
   height="20.73819"
   id="svg2"
   sodipodi:version="0.32"
   inkscape:version="0.45pre1"
   sodipodi:docname="key-3.svg"
   inkscape:output_extension="org.inkscape.output.svg.inkscape"
   sodipodi:docbase="E:\lenny\workspace\radiodoc\uv-5r\assets\images"
   sodipodi:modified="true">
  <metadata
     id="metadata10">
    <rdf:RDF>
      <cc:Work
         rdf:about="">
        <dc:format>image/svg+xml</dc:format>
        <dc:type
           rdf:resource="http://purl.org/dc/dcmitype/StillImage" />
      </cc:Work>
    </rdf:RDF>
  </metadata>
  <sodipodi:namedview
     inkscape:window-height="480"
     inkscape:window-width="640"
     inkscape:pageshadow="2"
     inkscape:pageopacity="0.0"
     guidetolerance="10.0"
     gridtolerance="10.0"
     objecttolerance="10.0"
     borderopacity="1.0"
     bordercolor="#666666"
     pagecolor="#ffffff"
     id="base" />
  <defs
     id="defs4" />
  <path
     d="M 5.404448,0.63308889 C 2.726438,0.90558889 0.62501,3.1965889 0.625,5.9486889 L 0.625,14.797589 C 0.625,17.733089 3.002743,20.113189 5.935497,20.113189 L 32.519228,20.113189 C 35.451978,20.113189 37.829728,17.733089 37.829728,14.797589 L 37.829728,5.9486889 C 37.829728,3.0130889 35.451978,0.63308889 32.519228,0.63308889 L 5.935497,0.63308889 C 5.752197,0.63308889 5.58298,0.61488889 5.404448,0.63308889 z "
     style="fill:none;fill-opacity:1;fill-rule:nonzero;stroke:#000000;stroke-width:1.25;stroke-miterlimit:4;stroke-dasharray:none;stroke-dashoffset:0;stroke-opacity:1"
     id="path3434" />
  <path
     style="font-size:16px;font-style:normal;font-weight:bold;text-align:center;text-anchor:middle;fill:#000000;fill-opacity:1;stroke:none;stroke-width:1px;stroke-linecap:butt;stroke-linejoin:miter;stroke-opacity:1;font-family:Arial"
     d="M 4.2734318,13.145609 L 6.3984318,12.887796 C 6.4661373,13.429466 6.6484288,13.843528 6.9453068,14.129984 C 7.2421782,14.416444 7.6015528,14.559673 8.0234318,14.559671 C 8.476552,14.559673 8.858062,14.387798 9.167963,14.044046 C 9.4778531,13.700299 9.6328008,13.236758 9.6328068,12.653421 C 9.6328008,12.101342 9.4843635,11.663843 9.1874943,11.340921 C 8.8906141,11.01801 8.5286353,10.856552 8.1015568,10.856546 C 7.8203026,10.856552 7.4843655,10.911239 7.0937443,11.020609 L 7.3359318,9.2315464 C 7.9296775,9.2471783 8.3828021,9.1182722 8.6953068,8.8448277 C 9.0078014,8.5713978 9.1640513,8.2081169 9.1640568,7.7549839 C 9.1640513,7.3695761 9.0494681,7.0622847 8.8203068,6.8331089 C 8.5911352,6.6039518 8.286448,6.4893686 7.9062443,6.4893589 C 7.5312404,6.4893686 7.2109282,6.6195768 6.9453068,6.8799839 C 6.6796788,7.1404096 6.5182206,7.5206176 6.4609318,8.0206089 L 4.4374943,7.6768589 C 4.5781184,6.9841598 4.7903577,6.4307749 5.074213,6.0167027 C 5.3580655,5.6026507 5.7538984,5.2771302 6.261713,5.0401402 C 6.7695224,4.8031724 7.3385323,4.6846829 7.9687443,4.6846714 C 9.0468639,4.6846829 9.9114464,5.0284326 10.562494,5.7159214 C 11.098945,6.2784313 11.367174,6.9138473 11.367182,7.6221714 C 11.367174,8.6273873 10.817695,9.4294698 9.7187443,10.028421 C 10.374988,10.169052 10.899727,10.484156 11.292963,10.973734 C 11.686184,11.463322 11.882799,12.054467 11.882807,12.747171 C 11.882799,13.752382 11.515611,14.609152 10.781244,15.317484 C 10.046863,16.025817 9.1328013,16.379984 8.0390568,16.379984 C 7.0025951,16.379984 6.143221,16.081807 5.4609318,15.485453 C 4.778639,14.8891 4.3828061,14.109153 4.2734318,13.145609 L 4.2734318,13.145609 z "
     id="text3486" />
  <path
     style="font-size:11px;font-style:normal;font-weight:bold;text-align:center;text-anchor:middle;fill:#000000;fill-opacity:1;stroke:none;stroke-width:1px;stroke-linecap:butt;stroke-linejoin:miter;stroke-opacity:1;font-family:Arial Narrow"
     d="M 12.238306,12.101418 L 13.511255,11.951028 C 13.654483,12.957214 14.123558,13.460306 14.918482,13.460305 C 15.312359,13.460306 15.622091,13.357361 15.847681,13.151467 C 16.073263,12.945577 16.186056,12.69045 16.18606,12.386086 C 16.186056,12.207052 16.146668,12.054872 16.067896,11.929543 C 15.989116,11.804221 15.869161,11.701275 15.708033,11.620706 C 15.546896,11.540142 15.156597,11.40497 14.537134,11.215188 C 13.982119,11.046897 13.575707,10.86428 13.317896,10.667336 C 13.060082,10.470401 12.855086,10.211693 12.702906,9.8912134 C 12.550724,9.5707432 12.474634,9.2260984 12.474634,8.8572779 C 12.474634,8.4275966 12.572208,8.0408782 12.767359,7.6971216 C 12.962507,7.3533789 13.231957,7.0937763 13.575708,6.918313 C 13.919456,6.7428652 14.343772,6.6551374 14.848658,6.6551294 C 15.607768,6.6551374 16.200379,6.8610292 16.62649,7.2728052 C 17.052591,7.684596 17.278177,8.2736254 17.303247,9.0398951 L 15.998072,9.1097193 C 15.940776,8.6871992 15.817241,8.3917894 15.627466,8.2234888 C 15.437684,8.0552011 15.167339,7.9710541 14.816431,7.9710474 C 14.465517,7.9710541 14.195172,8.044459 14.005396,8.1912622 C 13.815615,8.3380785 13.720726,8.5206955 13.720728,8.7391138 C 13.720726,8.9539633 13.806664,9.1347899 13.97854,9.2815943 C 14.150413,9.4284094 14.546083,9.5895421 15.165552,9.7649927 C 15.820822,9.9547761 16.294373,10.154402 16.586206,10.36387 C 16.878031,10.573346 17.100931,10.843691 17.254908,11.174905 C 17.408873,11.506125 17.485859,11.908062 17.485865,12.380715 C 17.485859,13.064636 17.275491,13.639343 16.854761,14.104836 C 16.434021,14.570331 15.776063,14.803079 14.880884,14.803079 C 13.2982,14.803079 12.417342,13.902526 12.238306,12.101418 L 12.238306,12.101418 z M 24.403833,14.66343 L 22.985865,14.66343 L 22.4219,12.874856 L 19.843775,12.874856 L 19.312037,14.66343 L 17.926294,14.66343 L 20.439966,6.7894068 L 21.820337,6.7894068 L 24.403833,14.66343 z M 22.002954,11.548196 L 21.116724,8.6263208 L 20.241236,11.548196 L 22.002954,11.548196 z M 26.740259,14.66343 L 24.43606,6.7894068 L 25.848658,6.7894068 L 27.48147,12.617043 L 29.060572,6.7894068 L 30.446314,6.7894068 L 28.136744,14.66343 L 26.740259,14.66343 z M 31.112329,14.66343 L 31.112329,6.7894068 L 35.903345,6.7894068 L 35.903345,8.121438 L 32.412134,8.121438 L 32.412134,9.8670435 L 35.656275,9.8670435 L 35.656275,11.193704 L 32.412134,11.193704 L 32.412134,13.33677 L 36.021509,13.33677 L 36.021509,14.66343 L 31.112329,14.66343 z "
     id="text3554" />
</svg>
