<?xml version="1.0" encoding="UTF-8" standalone="no"?>
<!-- Created with Inkscape (http://www.inkscape.org/) -->
<svg
   xmlns:dc="http://purl.org/dc/elements/1.1/"
   xmlns:cc="http://web.resource.org/cc/"
   xmlns:rdf="http://www.w3.org/1999/02/22-rdf-syntax-ns#"
   xmlns:svg="http://www.w3.org/2000/svg"
   xmlns="http://www.w3.org/2000/svg"
   xmlns:sodipodi="http://sodipodi.sourceforge.net/DTD/sodipodi-0.dtd"
   xmlns:inkscape="http://www.inkscape.org/namespaces/inkscape"
   version="1.0"
   width="38.454723"
   height="20.73819"
   id="svg2"
   sodipodi:version="0.32"
   inkscape:version="0.45pre1"
   sodipodi:docname="key-5.svg"
   inkscape:output_extension="org.inkscape.output.svg.inkscape"
   sodipodi:docbase="E:\lenny\workspace\radiodoc\uv-5r\assets\images"
   sodipodi:modified="true">
  <metadata
     id="metadata10">
    <rdf:RDF>
      <cc:Work
         rdf:about="">
        <dc:format>image/svg+xml</dc:format>
        <dc:type
           rdf:resource="http://purl.org/dc/dcmitype/StillImage" />
      </cc:Work>
    </rdf:RDF>
  </metadata>
  <sodipodi:namedview
     inkscape:window-height="480"
     inkscape:window-width="640"
     inkscape:pageshadow="2"
     inkscape:pageopacity="0.0"
     guidetolerance="10.0"
     gridtolerance="10.0"
     objecttolerance="10.0"
     borderopacity="1.0"
     bordercolor="#666666"
     pagecolor="#ffffff"
     id="base" />
  <defs
     id="defs4" />
  <path
     d="M 5.404448,0.63308889 C 2.726438,0.90558889 0.62501,3.1965889 0.625,5.9486889 L 0.625,14.797589 C 0.625,17.733089 3.002743,20.113189 5.935497,20.113189 L 32.519227,20.113189 C 35.451981,20.113189 37.829724,17.733089 37.829724,14.797589 L 37.829724,5.9486889 C 37.829724,3.0130889 35.451981,0.63308889 32.519227,0.63308889 L 5.935497,0.63308889 C 5.752197,0.63308889 5.58298,0.61488889 5.404448,0.63308889 z "
     style="fill:none;fill-opacity:1;fill-rule:nonzero;stroke:#000000;stroke-width:1.25;stroke-miterlimit:4;stroke-dasharray:none;stroke-dashoffset:0;stroke-opacity:1"
     id="path3424" />
  <path
     style="font-size:16px;font-style:normal;font-weight:bold;text-align:center;text-anchor:middle;fill:#000000;fill-opacity:1;stroke:none;stroke-width:1px;stroke-linecap:butt;stroke-linejoin:miter;stroke-opacity:1;font-family:Arial"
     d="M 4.3828096,13.239399 L 6.5703096,13.012836 C 6.6328067,13.507631 6.8177023,13.899557 7.1249971,14.188618 C 7.432285,14.477682 7.7864514,14.622213 8.1874971,14.622211 C 8.6458255,14.622213 9.0338459,14.436015 9.3515596,14.063618 C 9.669262,13.691224 9.828116,13.130027 9.8281221,12.380024 C 9.828116,11.676903 9.6705641,11.14956 9.3554659,10.797993 C 9.0403564,10.446436 8.6302005,10.270655 8.1249971,10.270649 C 7.494785,10.270655 6.9296814,10.5493 6.4296846,11.106586 L 4.6484346,10.848774 L 5.7734346,4.8878365 L 11.578122,4.8878365 L 11.578122,6.942524 L 7.4374971,6.942524 L 7.0937471,8.8878365 C 7.5833266,8.6430523 8.0833261,8.5206566 8.5937471,8.520649 C 9.5676996,8.5206566 10.39322,8.8748229 11.07031,9.583149 C 11.747385,10.291488 12.085926,11.210758 12.085935,12.340961 C 12.085926,13.283673 11.812489,14.124818 11.265622,14.864399 C 10.520824,15.874816 9.4869705,16.380024 8.1640596,16.380024 C 7.1067645,16.380024 6.2447862,16.09617 5.5781221,15.528461 C 4.9114542,14.960754 4.5130171,14.197734 4.3828096,13.239399 L 4.3828096,13.239399 z "
     id="text3466" />
  <path
     style="font-size:11px;font-style:normal;font-weight:bold;text-align:center;text-anchor:middle;fill:#000000;fill-opacity:1;stroke:none;stroke-width:1px;stroke-linecap:butt;stroke-linejoin:miter;stroke-opacity:1;font-family:Arial Narrow"
     d="M 17.184568,14.66341 L 15.643064,6.7893867 L 16.980467,6.7893867 L 17.947264,12.198078 L 19.128904,6.7893867 L 20.68115,6.7893867 L 21.814451,12.289387 L 22.808104,6.7893867 L 24.11865,6.7893867 L 22.550291,14.66341 L 21.164549,14.66341 L 19.875486,8.7766914 L 18.597166,14.66341 L 17.184568,14.66341 z M 24.795408,14.66341 L 24.795408,6.7893867 L 26.062986,6.7893867 L 28.705564,12.047688 L 28.705564,6.7893867 L 29.919432,6.7893867 L 29.919432,14.66341 L 28.608885,14.66341 L 26.009275,9.5286446 L 26.009275,14.66341 L 24.795408,14.66341 z "
     id="text3534" />
</svg>
