<?xml version="1.0" encoding="UTF-8" standalone="no"?>
<!-- Created with Inkscape (http://www.inkscape.org/) -->
<svg
   xmlns:dc="http://purl.org/dc/elements/1.1/"
   xmlns:cc="http://web.resource.org/cc/"
   xmlns:rdf="http://www.w3.org/1999/02/22-rdf-syntax-ns#"
   xmlns:svg="http://www.w3.org/2000/svg"
   xmlns="http://www.w3.org/2000/svg"
   xmlns:sodipodi="http://sodipodi.sourceforge.net/DTD/sodipodi-0.dtd"
   xmlns:inkscape="http://www.inkscape.org/namespaces/inkscape"
   version="1.0"
   width="38.454723"
   height="20.73819"
   id="svg2"
   sodipodi:version="0.32"
   inkscape:version="0.45pre1"
   sodipodi:docname="key-band.svg"
   inkscape:output_extension="org.inkscape.output.svg.inkscape"
   sodipodi:docbase="E:\lenny\workspace\radiodoc\uv-5r\assets\images"
   sodipodi:modified="true">
  <metadata
     id="metadata8">
    <rdf:RDF>
      <cc:Work
         rdf:about="">
        <dc:format>image/svg+xml</dc:format>
        <dc:type
           rdf:resource="http://purl.org/dc/dcmitype/StillImage" />
      </cc:Work>
    </rdf:RDF>
  </metadata>
  <sodipodi:namedview
     inkscape:window-height="583"
     inkscape:window-width="734"
     inkscape:pageshadow="2"
     inkscape:pageopacity="0.0"
     guidetolerance="10.0"
     gridtolerance="10.0"
     objecttolerance="10.0"
     borderopacity="1.0"
     bordercolor="#666666"
     pagecolor="#ffffff"
     id="base"
     inkscape:zoom="16.929"
     inkscape:cx="19.227362"
     inkscape:cy="10.369095"
     inkscape:window-x="69"
     inkscape:window-y="69"
     inkscape:current-layer="svg2" />
  <defs
     id="defs4" />
  <path
     d="M 5.4044477,0.63308889 C 2.7264376,0.90558889 0.62501,3.1965889 0.625,5.9486889 L 0.625,14.797589 C 0.625,17.733089 3.0027434,20.113189 5.9354975,20.113189 L 32.519227,20.113189 C 35.451981,20.113189 37.829724,17.733089 37.829724,14.797589 L 37.829724,5.9486889 C 37.829724,3.0130889 35.451981,0.63308889 32.519227,0.63308889 L 5.9354975,0.63308889 C 5.7521966,0.63308889 5.5829804,0.61488889 5.4044477,0.63308889 z "
     style="fill:none;fill-opacity:1;fill-rule:nonzero;stroke:#000000;stroke-width:1.25;stroke-miterlimit:4;stroke-dasharray:none;stroke-dashoffset:0;stroke-opacity:1"
     id="path3438" />
  <path
     style="font-size:11px;font-style:normal;font-weight:bold;text-align:center;text-anchor:middle;fill:#000000;fill-opacity:1;stroke:none;stroke-width:1px;stroke-linecap:butt;stroke-linejoin:miter;stroke-opacity:1;font-family:Arial Narrow"
     d="M 2.6114202,4.5450211 L 6.1247116,4.5450211 C 7.0839832,4.5450328 7.7583999,4.6413834 8.1479626,4.8340737 C 8.5375063,5.026787 8.8661994,5.366691 9.134019,5.8537869 C 9.4018291,6.3409043 9.5357379,6.8922448 9.535752,7.5078105 C 9.5357379,8.0752183 9.4213111,8.5877517 9.192456,9.0454104 C 8.9635795,9.5030832 8.6665453,9.8416502 8.3013418,10.061107 C 8.8223654,10.264523 9.2301809,10.612456 9.5247913,11.104909 C 9.8193832,11.597376 9.9666865,12.196895 9.9666945,12.903461 C 9.9666865,13.759912 9.7792125,14.48388 9.4042735,15.075375 C 9.0293248,15.666861 8.5862075,16.032187 8.0749206,16.171356 C 7.7194459,16.267713 6.8940779,16.315887 5.5988156,16.315887 L 2.6114202,16.315887 L 2.6114202,4.5450211 z M 4.3790223,6.5041555 L 4.3790223,9.226068 L 5.5476859,9.226068 C 6.2488793,9.2260752 6.6822603,9.2126934 6.8478182,9.1859215 C 7.1497178,9.1324004 7.3858845,8.991889 7.5563229,8.7643865 C 7.7267533,8.5368993 7.8119588,8.227774 7.8119743,7.8370098 C 7.8119588,7.4890844 7.7425705,7.2067235 7.6037988,6.9899244 C 7.4650206,6.7731446 7.2970262,6.6379861 7.0998159,6.5844479 C 6.9025989,6.5309295 6.3365255,6.5041652 5.4016029,6.5041555 L 4.3790223,6.5041555 z M 4.3790223,11.185202 L 4.3790223,14.332661 L 6.0224518,14.332661 C 6.7431266,14.332662 7.2057158,14.291186 7.4102398,14.208211 C 7.6147566,14.12525 7.7864058,13.961984 7.9251839,13.718423 C 8.0639555,13.474878 8.1333432,13.165757 8.1333478,12.791049 C 8.1333432,12.405654 8.0590872,12.0885 7.9105806,11.839586 C 7.7620545,11.590681 7.5648409,11.419393 7.3189399,11.325713 C 7.0730334,11.232043 6.5702643,11.185206 5.8106342,11.185202 L 4.3790223,11.185202 z M 19.381735,16.315887 L 17.453438,16.315887 L 16.686506,13.642148 L 13.180513,13.642148 L 12.457406,16.315887 L 10.572938,16.315887 L 13.991276,4.5450211 L 15.868443,4.5450211 L 19.381735,16.315887 z M 16.116779,11.658931 L 14.911598,7.2910212 L 13.721022,11.658931 L 16.116779,11.658931 z M 20.338574,16.315887 L 20.338574,4.5450211 L 22.062352,4.5450211 L 25.655991,12.405651 L 25.655991,4.5450211 L 27.306727,4.5450211 L 27.306727,16.315887 L 25.52452,16.315887 L 21.98931,8.6399336 L 21.98931,16.315887 L 20.338574,16.315887 z M 29.161982,4.5450211 L 32.397713,4.5450211 C 33.215773,4.5450328 33.832975,4.6453985 34.249317,4.8461174 C 34.665648,5.0468598 35.049115,5.3854258 35.399721,5.8618162 C 35.750311,6.3382279 36.025434,6.9564786 36.22509,7.7165709 C 36.424727,8.4766806 36.524549,9.4214532 36.524555,10.550892 C 36.524549,11.567933 36.419858,12.452492 36.210477,13.20456 C 36.001084,13.956632 35.735706,14.552134 35.414327,14.991065 C 35.092938,15.43 34.704603,15.760538 34.249317,15.98268 C 33.79402,16.204822 33.208472,16.315887 32.492669,16.315887 L 29.161982,16.315887 L 29.161982,4.5450211 z M 30.929585,6.5362723 L 30.929585,14.332661 L 32.258937,14.332661 C 32.828656,14.332662 33.241336,14.273786 33.496989,14.156022 C 33.752626,14.03826 33.962015,13.860275 34.125145,13.622077 C 34.288267,13.383882 34.42339,13.007842 34.530527,12.493965 C 34.637646,11.980104 34.691214,11.302968 34.691219,10.462571 C 34.691214,9.5900662 34.636431,8.902228 34.526877,8.3990563 C 34.417306,7.8958992 34.246874,7.4997904 34.015586,7.2107288 C 33.784282,6.9216858 33.503069,6.7316607 33.171954,6.6406526 C 32.923613,6.5710757 32.443972,6.5362823 31.733041,6.5362723 L 30.929585,6.5362723 z "
     id="text3562" />
</svg>
