<?xml version="1.0" encoding="UTF-8" standalone="no"?>
<!-- Created with Inkscape (http://www.inkscape.org/) -->
<svg
   xmlns:dc="http://purl.org/dc/elements/1.1/"
   xmlns:cc="http://web.resource.org/cc/"
   xmlns:rdf="http://www.w3.org/1999/02/22-rdf-syntax-ns#"
   xmlns:svg="http://www.w3.org/2000/svg"
   xmlns="http://www.w3.org/2000/svg"
   xmlns:sodipodi="http://sodipodi.sourceforge.net/DTD/sodipodi-0.dtd"
   xmlns:inkscape="http://www.inkscape.org/namespaces/inkscape"
   version="1.0"
   width="38.454727"
   height="20.73819"
   id="svg2"
   sodipodi:version="0.32"
   inkscape:version="0.45pre1"
   sodipodi:docname="key-3.svg"
   inkscape:output_extension="org.inkscape.output.svg.inkscape"
   sodipodi:docbase="E:\lenny\workspace\radiodoc\uv-5r\assets\images"
   sodipodi:modified="true">
  <metadata
     id="metadata10">
    <rdf:RDF>
      <cc:Work
         rdf:about="">
        <dc:format>image/svg+xml</dc:format>
        <dc:type
           rdf:resource="http://purl.org/dc/dcmitype/StillImage" />
      </cc:Work>
    </rdf:RDF>
  </metadata>
  <sodipodi:namedview
     inkscape:window-height="583"
     inkscape:window-width="734"
     inkscape:pageshadow="2"
     inkscape:pageopacity="0.0"
     guidetolerance="10.0"
     gridtolerance="10.0"
     objecttolerance="10.0"
     borderopacity="1.0"
     bordercolor="#666666"
     pagecolor="#ffffff"
     id="base"
     inkscape:zoom="16.928998"
     inkscape:cx="19.227364"
     inkscape:cy="10.369095"
     inkscape:window-x="138"
     inkscape:window-y="138"
     inkscape:current-layer="svg2" />
  <defs
     id="defs4" />
  <path
     d="M 5.404448,0.63308889 C 2.726438,0.90558889 0.62501,3.1965889 0.625,5.9486889 L 0.625,14.797589 C 0.625,17.733089 3.002743,20.113189 5.935497,20.113189 L 32.519228,20.113189 C 35.451978,20.113189 37.829728,17.733089 37.829728,14.797589 L 37.829728,5.9486889 C 37.829728,3.0130889 35.451978,0.63308889 32.519228,0.63308889 L 5.935497,0.63308889 C 5.752197,0.63308889 5.58298,0.61488889 5.404448,0.63308889 z "
     style="fill:none;fill-opacity:1;fill-rule:nonzero;stroke:#000000;stroke-width:1.25;stroke-miterlimit:4;stroke-dasharray:none;stroke-dashoffset:0;stroke-opacity:1"
     id="path3434" />
  <path
     style="font-size:16px;font-style:normal;font-weight:bold;text-align:center;text-anchor:middle;fill:#000000;fill-opacity:1;stroke:none;stroke-width:1px;stroke-linecap:butt;stroke-linejoin:miter;stroke-opacity:1;font-family:Arial"
     d="M 1.3199197,13.403101 L 3.7026504,13.114018 C 3.7785678,13.721385 3.9829682,14.185664 4.3158534,14.506864 C 4.648731,14.828068 5.0516924,14.988667 5.524739,14.988665 C 6.0328161,14.988667 6.4605973,14.795947 6.8080849,14.410505 C 7.155559,14.025065 7.3293016,13.505303 7.329307,12.851216 C 7.3293016,12.232179 7.1628611,11.741618 6.8299838,11.379528 C 6.4970974,11.017454 6.091216,10.836416 5.6123393,10.836406 C 5.2969732,10.836416 4.920292,10.897732 4.4822942,11.020369 L 4.7538554,9.0143199 C 5.4196136,9.0318477 5.9276953,8.8873073 6.2781022,8.5806982 C 6.6284981,8.2741051 6.8036984,7.8667637 6.8037049,7.3586725 C 6.8036984,6.9265203 6.6752179,6.5819592 6.4182628,6.3249878 C 6.1612965,6.0680373 5.819655,5.9395568 5.3933382,5.939546 C 4.9728519,5.9395568 4.6136908,6.0855572 4.3158534,6.3775479 C 4.0180085,6.6695591 3.8369677,7.0958808 3.772731,7.6565137 L 1.5038806,7.2710717 C 1.6615601,6.4943588 1.899541,5.8738564 2.2178236,5.4095637 C 2.5361031,4.9452929 2.9799447,4.5802921 3.5493499,4.3145585 C 4.118749,4.0488502 4.7567713,3.9159893 5.4634186,3.9159768 C 6.6722986,3.9159893 7.6417423,4.3014309 8.3717542,5.072302 C 8.9732644,5.7030356 9.2740286,6.4155184 9.274036,7.2097519 C 9.2740286,8.3368853 8.6579024,9.2362486 7.4256691,9.9078443 C 8.1615058,10.065529 8.7498879,10.418852 9.1908131,10.967809 C 9.6317294,11.516777 9.8521924,12.17962 9.8521992,12.956336 C 9.8521924,14.083465 9.4404674,15.044147 8.617033,15.838392 C 7.7935852,16.632634 6.7686578,17.029756 5.5422587,17.029756 C 4.3800901,17.029756 3.4164867,16.695414 2.651446,16.026733 C 1.8864011,15.35805 1.4425595,14.483507 1.3199197,13.403101 L 1.3199197,13.403101 z "
     id="text3486" />
  <path
     style="font-size:11px;font-style:normal;font-weight:bold;text-align:center;text-anchor:middle;fill:#000000;fill-opacity:1;stroke:none;stroke-width:1px;stroke-linecap:butt;stroke-linejoin:miter;stroke-opacity:1;font-family:Arial Narrow"
     d="M 10.250813,12.232263 L 11.678156,12.063635 C 11.838753,13.191855 12.364718,13.755964 13.256055,13.755963 C 13.697703,13.755964 14.045001,13.640533 14.297953,13.409667 C 14.550893,13.178805 14.67737,12.892737 14.677374,12.551459 C 14.67737,12.350708 14.633201,12.180073 14.544879,12.039544 C 14.456542,11.899021 14.32204,11.783589 14.141368,11.693248 C 13.960687,11.602913 13.52305,11.451347 12.828454,11.238547 C 12.206125,11.049843 11.750421,10.84508 11.461341,10.624249 C 11.172263,10.403428 10.942401,10.113344 10.771763,9.7539943 C 10.601127,9.3946563 10.515804,9.0082112 10.515804,8.5946584 C 10.515804,8.1128631 10.625212,7.6792414 10.844034,7.293792 C 11.062849,6.9083585 11.364981,6.6172703 11.750422,6.4205257 C 12.135864,6.2237988 12.611641,6.1254307 13.177765,6.1254221 C 14.028941,6.1254307 14.693426,6.3562944 15.171218,6.8180127 C 15.649001,7.2797473 15.901945,7.9402174 15.930058,8.7994243 L 14.466583,8.8777167 C 14.402337,8.4039513 14.263823,8.0727129 14.051029,7.8840001 C 13.838228,7.6953015 13.535097,7.6009487 13.141626,7.6009412 C 12.748154,7.6009487 12.445019,7.6832564 12.232229,7.8478647 C 12.019428,8.0124878 11.91303,8.2172535 11.913032,8.4621627 C 11.91303,8.7030699 12.009394,8.9058283 12.202113,9.0704379 C 12.394831,9.2350592 12.838493,9.4157348 13.533095,9.6124653 C 14.267836,9.8252663 14.798821,10.049103 15.12605,10.283977 C 15.453268,10.51886 15.703202,10.821993 15.875854,11.19338 C 16.048494,11.564772 16.134816,12.015457 16.134827,12.545436 C 16.134816,13.312308 15.898935,13.956715 15.427176,14.478665 C 14.955407,15.000618 14.217648,15.261597 13.213898,15.261597 C 11.439259,15.261597 10.451568,14.25182 10.250813,12.232263 L 10.250813,12.232263 z M 23.891838,15.10501 L 22.301892,15.10501 L 21.669528,13.099509 L 18.778715,13.099509 L 18.182484,15.10501 L 16.62867,15.10501 L 19.447211,6.2759851 L 20.995002,6.2759851 L 23.891838,15.10501 z M 21.199768,11.611943 L 20.206052,8.3356895 L 19.224383,11.611943 L 21.199768,11.611943 z M 26.511637,15.10501 L 23.927972,6.2759851 L 25.511902,6.2759851 L 27.342749,12.810427 L 29.113369,6.2759851 L 30.667183,6.2759851 L 28.077494,15.10501 L 26.511637,15.10501 z M 31.413975,15.10501 L 31.413975,6.2759851 L 36.786072,6.2759851 L 36.786072,7.7695719 L 32.871428,7.7695719 L 32.871428,9.7268933 L 36.509034,9.7268933 L 36.509034,11.214457 L 32.871428,11.214457 L 32.871428,13.617444 L 36.918568,13.617444 L 36.918568,15.10501 L 31.413975,15.10501 z "
     id="text3554" />
</svg>
