<?xml version="1.0" encoding="UTF-8" standalone="no"?>
<!-- Created with Inkscape (http://www.inkscape.org/) -->
<svg
   xmlns:dc="http://purl.org/dc/elements/1.1/"
   xmlns:cc="http://web.resource.org/cc/"
   xmlns:rdf="http://www.w3.org/1999/02/22-rdf-syntax-ns#"
   xmlns:svg="http://www.w3.org/2000/svg"
   xmlns="http://www.w3.org/2000/svg"
   xmlns:sodipodi="http://sodipodi.sourceforge.net/DTD/sodipodi-0.dtd"
   xmlns:inkscape="http://www.inkscape.org/namespaces/inkscape"
   version="1.0"
   width="38.454723"
   height="20.73819"
   id="svg2"
   sodipodi:version="0.32"
   inkscape:version="0.45pre1"
   sodipodi:docname="key-call.svg"
   inkscape:output_extension="org.inkscape.output.svg.inkscape"
   sodipodi:docbase="E:\lenny\workspace\radiodoc\uv-5r\assets\images"
   sodipodi:modified="true">
  <metadata
     id="metadata8">
    <rdf:RDF>
      <cc:Work
         rdf:about="">
        <dc:format>image/svg+xml</dc:format>
        <dc:type
           rdf:resource="http://purl.org/dc/dcmitype/StillImage" />
      </cc:Work>
    </rdf:RDF>
  </metadata>
  <sodipodi:namedview
     inkscape:window-height="583"
     inkscape:window-width="734"
     inkscape:pageshadow="2"
     inkscape:pageopacity="0.0"
     guidetolerance="10.0"
     gridtolerance="10.0"
     objecttolerance="10.0"
     borderopacity="1.0"
     bordercolor="#666666"
     pagecolor="#ffffff"
     id="base"
     inkscape:zoom="16.929"
     inkscape:cx="19.227362"
     inkscape:cy="10.369095"
     inkscape:window-x="115"
     inkscape:window-y="115"
     inkscape:current-layer="svg2" />
  <defs
     id="defs4" />
  <path
     d="M 5.4044477,0.63308889 C 2.7264376,0.90558889 0.62501,3.1965889 0.625,5.9486889 L 0.625,14.797589 C 0.625,17.733089 3.0027434,20.113189 5.9354975,20.113189 L 32.519227,20.113189 C 35.451981,20.113189 37.829724,17.733089 37.829724,14.797589 L 37.829724,5.9486889 C 37.829724,3.0130889 35.451981,0.63308889 32.519227,0.63308889 L 5.9354975,0.63308889 C 5.7521966,0.63308889 5.5829804,0.61488889 5.4044477,0.63308889 z "
     style="fill:none;fill-opacity:1;fill-rule:nonzero;stroke:#000000;stroke-width:1.25;stroke-miterlimit:4;stroke-dasharray:none;stroke-dashoffset:0;stroke-opacity:1"
     id="path3438" />
  <path
     style="font-size:11px;font-style:normal;font-weight:bold;text-align:center;text-anchor:middle;fill:#000000;fill-opacity:1;stroke:none;stroke-width:1px;stroke-linecap:butt;stroke-linejoin:miter;stroke-opacity:1;font-family:Arial Narrow"
     d="M 9.532255,11.793635 L 11.205691,12.516361 C 10.944579,13.818857 10.510198,14.770586 9.902546,15.37153 C 9.2948822,15.972476 8.5471768,16.272953 7.6594306,16.272953 C 6.5438031,16.272953 5.6394371,15.793778 4.9463284,14.835437 C 4.1487752,13.728846 3.7499996,12.235748 3.75,10.356119 C 3.7499996,8.3706135 4.1511488,6.8166212 4.9534493,5.6941343 C 5.6513051,4.71992 6.588903,4.2328078 7.7662452,4.2327959 C 8.7252011,4.2328078 9.5275004,4.5981418 10.173145,5.3287996 C 10.633629,5.8476908 10.97069,6.6180692 11.184327,7.6399388 L 9.4752865,8.1958817 C 9.3660911,7.5658198 9.1489007,7.0826799 8.8237151,6.7464577 C 8.4985172,6.4102528 8.1151695,6.2421463 7.6736724,6.242136 C 7.0422727,6.2421463 6.5271879,6.5492385 6.128415,7.1634146 C 5.729636,7.7776095 5.5302485,8.7915432 5.5302503,10.205219 C 5.5302485,11.671859 5.7248888,12.714913 6.1141731,13.334394 C 6.5034513,13.953878 7.0090416,14.263615 7.6309472,14.263614 C 8.0866858,14.263615 8.480714,14.066389 8.8130331,13.671927 C 9.1453412,13.277478 9.3850804,12.651377 9.532255,11.793635 L 9.532255,11.793635 z M 20.398908,16.074404 L 18.518963,16.074404 L 17.771253,13.429701 L 14.353173,13.429701 L 13.648195,16.074404 L 11.810975,16.074404 L 15.143605,4.4313472 L 16.973704,4.4313472 L 20.398908,16.074404 z M 17.215821,11.46801 L 16.040849,7.1475304 L 14.880127,11.46801 L 17.215821,11.46801 z M 21.360242,16.074404 L 21.360242,4.5266519 L 23.083525,4.5266519 L 23.083525,14.112713 L 27.384608,14.112713 L 27.384608,16.074404 L 21.360242,16.074404 z M 28.680635,16.074404 L 28.680635,4.5266519 L 30.403917,4.5266519 L 30.403917,14.112713 L 34.705,14.112713 L 34.705,16.074404 L 28.680635,16.074404 z "
     id="text3562" />
</svg>
