<?xml version="1.0" encoding="UTF-8" standalone="no"?>
<!-- Created with Inkscape (http://www.inkscape.org/) -->
<svg
   xmlns:dc="http://purl.org/dc/elements/1.1/"
   xmlns:cc="http://web.resource.org/cc/"
   xmlns:rdf="http://www.w3.org/1999/02/22-rdf-syntax-ns#"
   xmlns:svg="http://www.w3.org/2000/svg"
   xmlns="http://www.w3.org/2000/svg"
   xmlns:sodipodi="http://sodipodi.sourceforge.net/DTD/sodipodi-0.dtd"
   xmlns:inkscape="http://www.inkscape.org/namespaces/inkscape"
   version="1.0"
   width="38.454723"
   height="20.73819"
   id="svg2"
   sodipodi:version="0.32"
   inkscape:version="0.45pre1"
   sodipodi:docname="key-2.svg"
   inkscape:output_extension="org.inkscape.output.svg.inkscape"
   sodipodi:docbase="E:\lenny\workspace\radiodoc\uv-5r\assets\images"
   sodipodi:modified="true">
  <metadata
     id="metadata10">
    <rdf:RDF>
      <cc:Work
         rdf:about="">
        <dc:format>image/svg+xml</dc:format>
        <dc:type
           rdf:resource="http://purl.org/dc/dcmitype/StillImage" />
      </cc:Work>
    </rdf:RDF>
  </metadata>
  <sodipodi:namedview
     inkscape:window-height="583"
     inkscape:window-width="734"
     inkscape:pageshadow="2"
     inkscape:pageopacity="0.0"
     guidetolerance="10.0"
     gridtolerance="10.0"
     objecttolerance="10.0"
     borderopacity="1.0"
     bordercolor="#666666"
     pagecolor="#ffffff"
     id="base"
     inkscape:zoom="16.929"
     inkscape:cx="19.227362"
     inkscape:cy="10.369095"
     inkscape:window-x="207"
     inkscape:window-y="207"
     inkscape:current-layer="svg2" />
  <defs
     id="defs4" />
  <path
     d="M 5.404448,0.63308889 C 2.726438,0.90558889 0.62501,3.1965889 0.625,5.9486889 L 0.625,14.797589 C 0.625,17.733089 3.002743,20.113189 5.935497,20.113189 L 32.519227,20.113189 C 35.451981,20.113189 37.829724,17.733089 37.829724,14.797589 L 37.829724,5.9486889 C 37.829724,3.0130889 35.451981,0.63308889 32.519227,0.63308889 L 5.935497,0.63308889 C 5.752197,0.63308889 5.58298,0.61488889 5.404448,0.63308889 z "
     style="fill:none;fill-opacity:1;fill-rule:nonzero;stroke:#000000;stroke-width:1.25;stroke-miterlimit:4;stroke-dasharray:none;stroke-dashoffset:0;stroke-opacity:1"
     id="path3432" />
  <path
     style="font-size:16px;font-style:normal;font-weight:bold;text-align:center;text-anchor:middle;fill:#000000;fill-opacity:1;stroke:none;stroke-width:1px;stroke-linecap:butt;stroke-linejoin:miter;stroke-opacity:1;font-family:Arial"
     d="M 13.341879,14.52877 L 13.341879,17.070722 L 3.75,17.070722 C 3.8538709,16.109781 4.1654849,15.199159 4.684843,14.338854 C 5.2041982,13.478555 6.2299278,12.337436 7.7620344,10.915497 C 8.9955022,9.7662689 9.7518153,8.9871276 10.030976,8.5780698 C 10.407503,8.0132006 10.59577,7.4548156 10.595777,6.9029135 C 10.59577,6.292596 10.431848,5.8234878 10.104011,5.4955875 C 9.7761601,5.1677103 9.323346,5.0037659 8.7455672,5.0037538 C 8.1742694,5.0037659 7.7198323,5.1758264 7.3822545,5.5199357 C 7.0446686,5.8640682 6.8499098,6.4354386 6.7979776,7.234049 L 4.0713523,6.9613492 C 4.2336505,5.4550188 4.7432692,4.3739598 5.6002101,3.7181688 C 6.4571463,3.0624046 7.5283195,2.7345158 8.8137328,2.7345015 C 10.222482,2.7345158 11.329361,3.1143474 12.134373,3.8739973 C 12.939368,4.6336736 13.341869,5.5783828 13.341879,6.7081279 C 13.341869,7.3509301 13.226636,7.9628809 12.996181,8.5439823 C 12.765708,9.1251007 12.400534,9.7338055 11.900662,10.370097 C 11.569564,10.792139 10.972303,11.399221 10.10888,12.191343 C 9.2454425,12.983475 8.6984951,13.509395 8.4680357,13.769106 C 8.237566,14.028824 8.0509221,14.282044 7.9081037,14.52877 L 13.341879,14.52877 z "
     id="text3470" />
  <path
     style="font-size:11px;font-style:normal;font-weight:bold;text-align:center;text-anchor:middle;fill:#000000;fill-opacity:1;stroke:none;stroke-width:1px;stroke-linecap:butt;stroke-linejoin:miter;stroke-opacity:1;font-family:Arial Narrow"
     d="M 16.505887,15.351511 L 16.505887,7.1960813 L 14.169301,7.1960813 L 14.169301,5.535534 L 20.419831,5.535534 L 20.419831,7.1960813 L 18.08979,7.1960813 L 18.08979,15.351511 L 16.505887,15.351511 z M 20.668542,15.351511 L 23.358561,10.229258 L 20.917255,5.535534 L 22.776052,5.535534 L 24.35341,8.6892347 L 25.898043,5.535534 L 27.737205,5.535534 L 25.295899,10.302913 L 27.985916,15.351511 L 26.068215,15.351511 L 24.320685,11.956764 L 22.573155,15.351511 L 20.668542,15.351511 z M 28.790959,15.351511 L 28.790959,5.535534 L 31.34353,5.535534 C 32.294742,5.5355439 32.916522,5.5824141 33.208872,5.6761448 C 33.675747,5.8279249 34.060814,6.1515527 34.364075,6.6470293 C 34.667322,7.1425235 34.818949,7.7808515 34.818956,8.5620155 C 34.818949,9.2717716 34.688049,9.8665777 34.426252,10.346435 C 34.164445,10.826302 33.837191,11.16332 33.444494,11.357494 C 33.051786,11.551675 32.375464,11.648762 31.415527,11.648758 L 30.374862,11.648758 L 30.374862,15.351511 L 28.790959,15.351511 z M 30.374862,7.1960813 L 30.374862,9.9815155 L 31.2519,9.9815155 C 31.840951,9.9815205 32.24129,9.939114 32.452918,9.8542959 C 32.664536,9.769489 32.837981,9.6166026 32.97325,9.3956369 C 33.108509,9.1746832 33.176141,8.9035054 33.176147,8.5821026 C 33.176141,8.2562497 33.106328,7.981724 32.966705,7.7585248 C 32.827072,7.5353407 32.65472,7.3858024 32.449645,7.3099091 C 32.244562,7.234032 31.810408,7.1960895 31.147179,7.1960813 L 30.374862,7.1960813 z "
     id="text3550" />
</svg>
