<?xml version="1.0" encoding="UTF-8" standalone="no"?>
<!-- Created with Inkscape (http://www.inkscape.org/) -->
<svg
   xmlns:dc="http://purl.org/dc/elements/1.1/"
   xmlns:cc="http://web.resource.org/cc/"
   xmlns:rdf="http://www.w3.org/1999/02/22-rdf-syntax-ns#"
   xmlns:svg="http://www.w3.org/2000/svg"
   xmlns="http://www.w3.org/2000/svg"
   xmlns:sodipodi="http://sodipodi.sourceforge.net/DTD/sodipodi-0.dtd"
   xmlns:inkscape="http://www.inkscape.org/namespaces/inkscape"
   version="1.0"
   width="38.454731"
   height="20.73819"
   id="svg2"
   sodipodi:version="0.32"
   inkscape:version="0.45pre1"
   sodipodi:docname="key-star.svg"
   inkscape:output_extension="org.inkscape.output.svg.inkscape"
   sodipodi:docbase="E:\lenny\workspace\radiodoc\uv-5r\assets\images"
   sodipodi:modified="true">
  <metadata
     id="metadata10">
    <rdf:RDF>
      <cc:Work
         rdf:about="">
        <dc:format>image/svg+xml</dc:format>
        <dc:type
           rdf:resource="http://purl.org/dc/dcmitype/StillImage" />
      </cc:Work>
    </rdf:RDF>
  </metadata>
  <sodipodi:namedview
     inkscape:window-height="583"
     inkscape:window-width="734"
     inkscape:pageshadow="2"
     inkscape:pageopacity="0.0"
     guidetolerance="10.0"
     gridtolerance="10.0"
     objecttolerance="10.0"
     borderopacity="1.0"
     bordercolor="#666666"
     pagecolor="#ffffff"
     id="base"
     inkscape:zoom="16.928996"
     inkscape:cx="19.227365"
     inkscape:cy="10.369095"
     inkscape:window-x="230"
     inkscape:window-y="230"
     inkscape:current-layer="svg2" />
  <defs
     id="defs4" />
  <path
     d="M 5.40445,0.63308889 C 2.72644,0.90558889 0.62501,3.1965889 0.625,5.9486889 L 0.625,14.797589 C 0.625,17.733089 3.00275,20.113189 5.9355,20.113189 L 32.51923,20.113189 C 35.45198,20.113189 37.82973,17.733089 37.82973,14.797589 L 37.82973,5.9486889 C 37.82973,3.0130889 35.45198,0.63308889 32.51923,0.63308889 L 5.9355,0.63308889 C 5.7522,0.63308889 5.58298,0.61488889 5.40445,0.63308889 z "
     style="fill:none;fill-opacity:1;fill-rule:nonzero;stroke:#000000;stroke-width:1.25;stroke-miterlimit:4;stroke-dasharray:none;stroke-dashoffset:0;stroke-opacity:1"
     id="path3436" />
  <path
     style="font-size:26.01399231px;font-style:normal;font-weight:bold;text-align:center;text-anchor:middle;fill:#000000;fill-opacity:1;stroke:none;stroke-width:1px;stroke-linecap:butt;stroke-linejoin:miter;stroke-opacity:1;font-family:Arial"
     d="M 6.6120266,14.824035 L 4.5444093,13.221973 C 5.2016631,12.482574 5.8863041,11.775112 6.5983339,11.099585 C 6.8813154,10.825742 7.0593219,10.652301 7.1323542,10.579257 C 6.9041368,10.542758 6.2514458,10.392137 5.1742795,10.127394 C 4.3983513,9.9357101 3.8871527,9.7942172 3.6406824,9.7029159 L 4.4485595,7.2929776 C 5.6443976,7.7768089 6.7124374,8.3108288 7.6526818,8.8950388 C 7.4335922,7.4071027 7.3240499,6.1930064 7.3240538,5.2527457 L 9.7613777,5.2527457 C 9.7613713,5.91915 9.638136,7.1423751 9.3916714,8.9224244 C 9.5742361,8.849413 9.9667634,8.6714062 10.569255,8.3884042 C 11.390816,8.0141511 12.148487,7.6946519 12.842265,7.429906 L 13.567984,9.9083089 C 12.554706,10.136537 11.381688,10.360188 10.048927,10.579257 L 11.692067,12.427788 C 12.020685,12.802074 12.28085,13.107878 12.472559,13.345209 L 10.377555,14.728186 L 8.529023,11.674684 C 7.9721764,12.660581 7.3331784,13.710364 6.6120266,14.824035 L 6.6120266,14.824035 z "
     id="text3502" />
  <path
     style="font-size:11px;font-style:normal;font-weight:bold;text-align:center;text-anchor:middle;fill:#000000;fill-opacity:1;stroke:none;stroke-width:1px;stroke-linecap:butt;stroke-linejoin:miter;stroke-opacity:1;font-family:Arial Narrow"
     d="M 14.481339,11.514518 L 15.5068,11.374204 C 15.622182,12.312975 16.000061,12.78236 16.640433,12.782359 C 16.957733,12.78236 17.207248,12.686311 17.388979,12.494213 C 17.570701,12.302118 17.661567,12.064084 17.661571,11.780112 C 17.661567,11.613076 17.629837,11.47109 17.566379,11.354158 C 17.502915,11.237233 17.406282,11.141184 17.276481,11.066014 C 17.146673,10.990847 16.832255,10.864732 16.333228,10.687666 C 15.886119,10.53065 15.558723,10.360269 15.351035,10.17652 C 15.143346,9.99278 14.978206,9.7514052 14.85561,9.4523979 C 14.733017,9.1533993 14.67172,8.8318459 14.671721,8.4877365 C 14.67172,8.086844 14.750324,7.7260361 14.907533,7.4053113 C 15.064741,7.0845997 15.281805,6.8423904 15.558724,6.6786834 C 15.835641,6.5149906 16.177461,6.4331406 16.584185,6.4331332 C 17.19571,6.4331406 17.673104,6.6252375 18.016371,7.0094242 C 18.359629,7.3936249 18.541358,7.9431891 18.561554,8.6581183 L 17.51013,8.7232642 C 17.463975,8.3290533 17.364457,8.0534361 17.211579,7.8964117 C 17.058693,7.7393992 16.840909,7.6608901 16.558224,7.6608838 C 16.275535,7.6608901 16.057752,7.729377 15.904871,7.8663443 C 15.751988,8.0033238 15.675548,8.1737053 15.67555,8.3774895 C 15.675548,8.577944 15.744776,8.7466551 15.883237,8.8836236 C 16.021694,9.0206019 16.340436,9.1709387 16.839469,9.3346339 C 17.367342,9.5117018 17.748825,9.6979531 17.983919,9.8933864 C 18.219009,10.088828 18.398571,10.34106 18.522612,10.650082 C 18.646644,10.95911 18.708662,11.334117 18.708666,11.775101 C 18.708662,12.413201 18.539194,12.949401 18.200261,13.383706 C 17.861323,13.818012 17.331284,14.035167 16.610147,14.035167 C 15.335169,14.035167 14.625567,13.194951 14.481339,11.514518 L 14.481339,11.514518 z M 22.923014,11.203823 L 23.93982,11.659844 C 23.781166,12.481686 23.517228,13.082198 23.148008,13.46138 C 22.77878,13.840563 22.324461,14.030153 21.785051,14.030154 C 21.107179,14.030153 20.557668,13.727812 20.136524,13.123122 C 19.651918,12.424894 19.409614,11.482783 19.409614,10.296789 C 19.409614,9.0439877 19.653359,8.0634584 20.140851,7.3551991 C 20.564882,6.7404956 21.13458,6.4331406 21.849955,6.4331332 C 22.432634,6.4331406 22.920123,6.6636569 23.312428,7.1246826 C 23.592226,7.4520892 23.797031,7.9381779 23.926839,8.5829498 L 22.888398,8.9337358 C 22.822048,8.5361838 22.690081,8.2313345 22.492492,8.0191868 C 22.294895,7.8070508 22.061965,7.7009799 21.793705,7.7009738 C 21.410057,7.7009799 21.097082,7.8947474 20.85478,8.2822762 C 20.612475,8.6698162 20.491323,9.3095824 20.491325,10.201576 C 20.491323,11.126986 20.609591,11.785127 20.846126,12.176001 C 21.08266,12.566877 21.389864,12.762315 21.767745,12.762314 C 22.044661,12.762315 22.284079,12.63787 22.486001,12.388977 C 22.687917,12.140089 22.833586,11.745037 22.923014,11.203823 L 22.923014,11.203823 z M 29.525777,13.904875 L 28.383491,13.904875 L 27.929172,12.236136 L 25.852286,12.236136 L 25.423929,13.904875 L 24.307602,13.904875 L 26.332564,6.558414 L 27.444565,6.558414 L 29.525777,13.904875 z M 27.591677,10.998363 L 26.877749,8.2722537 L 26.172471,10.998363 L 27.591677,10.998363 z M 30.092593,13.904875 L 30.092593,6.558414 L 31.113729,6.558414 L 33.242536,11.464406 L 33.242536,6.558414 L 34.220403,6.558414 L 34.220403,13.904875 L 33.164653,13.904875 L 31.07046,9.1141399 L 31.07046,13.904875 L 30.092593,13.904875 z "
     id="text3558" />
</svg>
