<?xml version="1.0" encoding="UTF-8" standalone="no"?>
<!-- Created with Inkscape (http://www.inkscape.org/) -->
<svg
   xmlns:dc="http://purl.org/dc/elements/1.1/"
   xmlns:cc="http://web.resource.org/cc/"
   xmlns:rdf="http://www.w3.org/1999/02/22-rdf-syntax-ns#"
   xmlns:svg="http://www.w3.org/2000/svg"
   xmlns="http://www.w3.org/2000/svg"
   xmlns:sodipodi="http://sodipodi.sourceforge.net/DTD/sodipodi-0.dtd"
   xmlns:inkscape="http://www.inkscape.org/namespaces/inkscape"
   version="1.0"
   width="38.454727"
   height="20.73819"
   id="svg2"
   sodipodi:version="0.32"
   inkscape:version="0.45pre1"
   sodipodi:docname="key-9.svg"
   inkscape:output_extension="org.inkscape.output.svg.inkscape"
   sodipodi:docbase="E:\lenny\workspace\radiodoc\uv-5r\assets\images"
   sodipodi:modified="true">
  <metadata
     id="metadata10">
    <rdf:RDF>
      <cc:Work
         rdf:about="">
        <dc:format>image/svg+xml</dc:format>
        <dc:type
           rdf:resource="http://purl.org/dc/dcmitype/StillImage" />
      </cc:Work>
    </rdf:RDF>
  </metadata>
  <sodipodi:namedview
     inkscape:window-height="583"
     inkscape:window-width="734"
     inkscape:pageshadow="2"
     inkscape:pageopacity="0.0"
     guidetolerance="10.0"
     gridtolerance="10.0"
     objecttolerance="10.0"
     borderopacity="1.0"
     bordercolor="#666666"
     pagecolor="#ffffff"
     id="base"
     inkscape:zoom="16.928998"
     inkscape:cx="19.227364"
     inkscape:cy="10.369095"
     inkscape:window-x="253"
     inkscape:window-y="253"
     inkscape:current-layer="svg2" />
  <defs
     id="defs4" />
  <path
     d="M 5.404448,0.63308889 C 2.726438,0.90558889 0.62501,3.1965889 0.625,5.9486889 L 0.625,14.797589 C 0.625,17.733089 3.002743,20.113189 5.935497,20.113189 L 32.519228,20.113189 C 35.451978,20.113189 37.829728,17.733089 37.829728,14.797589 L 37.829728,5.9486889 C 37.829728,3.0130889 35.451978,0.63308889 32.519228,0.63308889 L 5.935497,0.63308889 C 5.752197,0.63308889 5.58298,0.61488889 5.404448,0.63308889 z "
     style="fill:none;fill-opacity:1;fill-rule:nonzero;stroke:#000000;stroke-width:1.25;stroke-miterlimit:4;stroke-dasharray:none;stroke-dashoffset:0;stroke-opacity:1"
     id="path3418" />
  <path
     style="font-size:16px;font-style:normal;font-weight:bold;text-align:center;text-anchor:middle;fill:#000000;fill-opacity:1;stroke:none;stroke-width:1px;stroke-linecap:butt;stroke-linejoin:miter;stroke-opacity:1;font-family:Arial"
     d="M 2.4954826,14.05403 L 5.0709228,13.769974 C 5.1340429,14.293906 5.2981636,14.682115 5.5632862,14.934604 C 5.8284008,15.187102 6.178736,15.31335 6.6142932,15.313349 C 7.1634621,15.31335 7.6305758,15.060854 8.0156356,14.555866 C 8.400682,14.050882 8.646863,13.003029 8.75418,11.412313 C 8.085065,12.188737 7.248679,12.576947 6.2450205,12.576942 C 5.1529796,12.576947 4.2108621,12.155596 3.418664,11.312891 C 2.6264632,10.4702 2.2303633,9.3734295 2.2303638,8.0225781 C 2.2303633,6.6149339 2.6485563,5.4802896 3.484944,4.6186416 C 4.3213279,3.7570191 5.3865367,3.3262012 6.680573,3.3261873 C 8.088221,3.3262012 9.24338,3.8706412 10.146055,4.9595087 C 11.048709,6.0484009 11.500042,7.8395295 11.500057,10.3329 C 11.500042,12.870473 11.029773,14.701052 10.089245,15.82465 C 9.148697,16.948249 7.9240999,17.510045 6.4154541,17.510046 C 5.3297257,17.510045 4.4523093,17.221257 3.7832028,16.643675 C 3.1140915,16.066094 2.6848522,15.202881 2.4954826,14.05403 L 2.4954826,14.05403 z M 8.517468,8.2403544 C 8.517461,7.3818842 8.3202,6.7159317 7.9256844,6.2424945 C 7.5311565,5.7690796 7.0750896,5.5323665 6.5574821,5.5323547 C 6.0651139,5.5323665 5.6563896,5.7264711 5.3313074,6.1146693 C 5.0062175,6.5028898 4.8436747,7.1388588 4.8436781,8.0225781 C 4.8436747,8.9189406 5.0204202,9.5770027 5.3739157,9.9967664 C 5.7274036,10.416544 6.1692677,10.626433 6.6995098,10.626423 C 7.2108049,10.626433 7.6416227,10.424435 7.9919642,10.020437 C 8.342293,9.616455 8.517461,9.0230944 8.517468,8.2403544 L 8.517468,8.2403544 z "
     id="text3478" />
  <path
     style="font-size:11px;font-style:normal;font-weight:bold;text-align:center;text-anchor:middle;fill:#000000;fill-opacity:1;stroke:none;stroke-width:1px;stroke-linecap:butt;stroke-linejoin:miter;stroke-opacity:1;font-family:Arial Narrow"
     d="M 16.800654,15.420163 L 16.800654,7.4914528 L 14.476726,7.4914528 L 14.476726,5.8770685 L 20.693404,5.8770685 L 20.693404,7.4914528 L 18.375983,7.4914528 L 18.375983,15.420163 L 16.800654,15.420163 z M 21.415974,10.707201 C 21.415974,9.5701954 21.584139,8.633897 21.92047,7.8983036 C 22.256799,7.1627254 22.696193,6.6148335 23.238665,6.2546261 C 23.781127,5.894437 24.438601,5.7143379 25.211076,5.714328 C 26.330727,5.7143379 27.243155,6.141802 27.948368,6.9967221 C 28.653571,7.851659 29.006178,9.0689556 29.006184,10.648617 C 29.006178,12.245648 28.632956,13.493319 27.886526,14.391643 C 27.231222,15.185818 26.341578,15.582907 25.217588,15.582907 C 24.08491,15.582907 23.190923,15.190156 22.535625,14.404666 C 21.789188,13.506336 21.415974,12.273851 21.415974,10.707201 L 21.415974,10.707201 z M 23.043374,10.642106 C 23.043373,11.740068 23.25168,12.563532 23.6683,13.112506 C 24.08491,13.661484 24.601338,13.935972 25.217588,13.935971 C 25.838167,13.935972 26.352427,13.663653 26.760363,13.119012 C 27.168295,12.574381 27.37226,11.737893 27.372272,10.609558 C 27.37226,9.5029294 27.173722,8.6848888 26.77664,8.1554333 C 26.379547,7.6259925 25.859866,7.3612686 25.217588,7.3612606 C 24.575303,7.3612686 24.052362,7.6281623 23.648771,8.1619432 C 23.245169,8.695738 23.043373,9.5224585 23.043374,10.642106 L 23.043374,10.642106 z M 32.007115,15.420163 L 32.007115,7.4914528 L 29.683182,7.4914528 L 29.683182,5.8770685 L 35.899866,5.8770685 L 35.899866,7.4914528 L 33.582442,7.4914528 L 33.582442,15.420163 L 32.007115,15.420163 z "
     id="text3518" />
</svg>
