<?xml version="1.0" encoding="UTF-8" standalone="no"?>
<!-- Created with Inkscape (http://www.inkscape.org/) -->
<svg
   xmlns:dc="http://purl.org/dc/elements/1.1/"
   xmlns:cc="http://web.resource.org/cc/"
   xmlns:rdf="http://www.w3.org/1999/02/22-rdf-syntax-ns#"
   xmlns:svg="http://www.w3.org/2000/svg"
   xmlns="http://www.w3.org/2000/svg"
   xmlns:sodipodi="http://sodipodi.sourceforge.net/DTD/sodipodi-0.dtd"
   xmlns:inkscape="http://www.inkscape.org/namespaces/inkscape"
   version="1.0"
   width="38.454723"
   height="20.73819"
   id="svg2"
   sodipodi:version="0.32"
   inkscape:version="0.45pre1"
   sodipodi:docname="key-8.svg"
   inkscape:output_extension="org.inkscape.output.svg.inkscape"
   sodipodi:docbase="E:\lenny\workspace\radiodoc\uv-5r\assets\images"
   sodipodi:modified="true">
  <metadata
     id="metadata10">
    <rdf:RDF>
      <cc:Work
         rdf:about="">
        <dc:format>image/svg+xml</dc:format>
        <dc:type
           rdf:resource="http://purl.org/dc/dcmitype/StillImage" />
      </cc:Work>
    </rdf:RDF>
  </metadata>
  <sodipodi:namedview
     inkscape:window-height="480"
     inkscape:window-width="640"
     inkscape:pageshadow="2"
     inkscape:pageopacity="0.0"
     guidetolerance="10.0"
     gridtolerance="10.0"
     objecttolerance="10.0"
     borderopacity="1.0"
     bordercolor="#666666"
     pagecolor="#ffffff"
     id="base" />
  <defs
     id="defs4" />
  <path
     d="M 5.404448,0.63308889 C 2.726438,0.90558889 0.62501,3.1965889 0.625,5.9486889 L 0.625,14.797589 C 0.625,17.733089 3.002743,20.113189 5.935497,20.113189 L 32.519227,20.113189 C 35.451981,20.113189 37.829724,17.733089 37.829724,14.797589 L 37.829724,5.9486889 C 37.829724,3.0130889 35.451981,0.63308889 32.519227,0.63308889 L 5.935497,0.63308889 C 5.752197,0.63308889 5.58298,0.61488889 5.404448,0.63308889 z "
     style="fill:none;fill-opacity:1;fill-rule:nonzero;stroke:#000000;stroke-width:1.25;stroke-miterlimit:4;stroke-dasharray:none;stroke-dashoffset:0;stroke-opacity:1"
     id="path3416" />
  <path
     style="font-size:16px;font-style:normal;font-weight:bold;text-align:center;text-anchor:middle;fill:#000000;fill-opacity:1;stroke:none;stroke-width:1px;stroke-linecap:butt;stroke-linejoin:miter;stroke-opacity:1;font-family:Arial"
     d="M 6.2343721,10.004898 C 5.6666618,9.7653212 5.2539018,9.4358944 4.9960909,9.0166168 C 4.7382773,8.5973536 4.6093712,8.1377186 4.6093721,7.6377106 C 4.6093712,6.7835533 4.907548,6.0778248 5.5039034,5.5205231 C 6.1002551,4.9632426 6.9479105,4.6845971 8.0468721,4.6845856 C 9.1354083,4.6845971 9.9804596,4.9632426 10.582028,5.5205231 C 11.183583,6.0778248 11.484364,6.7835533 11.484372,7.6377106 C 11.484364,8.1689686 11.346344,8.6416244 11.07031,9.0556793 C 10.794261,9.4697485 10.40624,9.7861545 9.9062471,10.004898 C 10.541657,10.260112 11.024729,10.632508 11.355466,11.122086 C 11.686187,11.611673 11.851551,12.176777 11.85156,12.817398 C 11.851551,13.874692 11.514312,14.734066 10.839841,15.395523 C 10.165355,16.056982 9.2682207,16.38771 8.1484346,16.387711 C 7.1067645,16.38771 6.2395779,16.114273 5.5468721,15.567398 C 4.7291627,14.921566 4.320309,14.03615 4.3203096,12.911148 C 4.320309,12.29136 4.4739547,11.72235 4.7812471,11.204117 C 5.0885374,10.685893 5.5729119,10.286154 6.2343721,10.004898 L 6.2343721,10.004898 z M 6.6874971,7.7939606 C 6.6874941,8.2314685 6.8111919,8.572614 7.0585909,8.8173981 C 7.3059831,9.0621969 7.6354098,9.1845926 8.0468721,9.1845856 C 8.463534,9.1845926 8.796867,9.0608948 9.0468721,8.8134918 C 9.2968665,8.5661036 9.4218664,8.223656 9.4218721,7.7861481 C 9.4218664,7.3746985 9.2981686,7.0452718 9.0507784,6.7978668 C 8.8033774,6.5504806 8.4765548,6.4267828 8.0703096,6.4267731 C 7.6484307,6.4267828 7.3124935,6.5517827 7.0624971,6.8017731 C 6.812494,7.0517822 6.6874941,7.382511 6.6874971,7.7939606 L 6.6874971,7.7939606 z M 6.4843721,12.700211 C 6.4843693,13.30438 6.6393171,13.775734 6.9492159,14.114273 C 7.2591081,14.452816 7.6458265,14.622087 8.1093721,14.622086 C 8.5624922,14.622087 8.9374919,14.459327 9.2343721,14.133804 C 9.5312413,13.808286 9.6796786,13.338234 9.6796846,12.723648 C 9.6796786,12.187194 9.5286371,11.756205 9.2265596,11.430679 C 8.9244711,11.105164 8.5416589,10.942403 8.0781221,10.942398 C 7.5416599,10.942403 7.1419208,11.127299 6.8789034,11.497086 C 6.6158796,11.866882 6.4843693,12.267923 6.4843721,12.700211 L 6.4843721,12.700211 z "
     id="text3462" />
  <path
     style="font-size:11px;font-style:normal;font-weight:bold;text-align:center;text-anchor:middle;fill:#000000;fill-opacity:1;stroke:none;stroke-width:1px;stroke-linecap:butt;stroke-linejoin:miter;stroke-opacity:1;font-family:Arial Narrow"
     d="M 12.565947,6.7893219 L 15.149443,6.7893219 C 15.854842,6.7893298 16.350773,6.8537828 16.637236,6.9826813 C 16.923689,7.1115951 17.165388,7.3389712 17.362333,7.6648102 C 17.559268,7.9906632 17.657738,8.3594779 17.657743,8.7712555 C 17.657738,9.1508183 17.573591,9.4936728 17.405302,9.7998199 C 17.237002,10.105977 17.018578,10.332458 16.750029,10.479263 C 17.133161,10.615335 17.433047,10.848082 17.649687,11.177505 C 17.866315,11.506936 17.974632,11.907977 17.974638,12.38063 C 17.974632,12.953549 17.836774,13.437842 17.561064,13.833511 C 17.285342,14.229182 16.959496,14.473567 16.583525,14.566666 C 16.322127,14.631119 15.715194,14.663345 14.762724,14.663345 L 12.565947,14.663345 L 12.565947,6.7893219 z M 13.865751,8.0998688 L 13.865751,9.9206696 L 14.725126,9.9206696 C 15.240748,9.9206743 15.559433,9.9117225 15.681181,9.8938141 C 15.903182,9.8580116 16.076847,9.7640176 16.202177,9.6118317 C 16.327498,9.4596559 16.390161,9.252869 16.390165,8.9914703 C 16.390161,8.7587288 16.339136,8.5698456 16.237089,8.4248199 C 16.135034,8.2798068 16.011499,8.1893935 15.866484,8.1535797 C 15.72146,8.117779 15.305201,8.0998753 14.617704,8.0998688 L 13.865751,8.0998688 z M 13.865751,11.231216 L 13.865751,13.336685 L 15.074247,13.336685 C 15.604192,13.336687 15.944361,13.308936 16.094755,13.253433 C 16.245141,13.197933 16.371362,13.088721 16.473417,12.925797 C 16.575463,12.762875 16.626489,12.556088 16.626493,12.305435 C 16.626489,12.047625 16.571883,11.835467 16.462675,11.668961 C 16.353458,11.50246 16.208439,11.387877 16.027617,11.325211 C 15.846786,11.262551 15.477076,11.23122 14.918486,11.231216 L 13.865751,11.231216 z M 19.081083,14.663345 L 19.081083,6.7893219 L 23.872099,6.7893219 L 23.872099,8.1213531 L 20.380888,8.1213531 L 20.380888,9.8669586 L 23.625029,9.8669586 L 23.625029,11.193619 L 20.380888,11.193619 L 20.380888,13.336685 L 23.990263,13.336685 L 23.990263,14.663345 L 19.081083,14.663345 z M 25.096708,14.663345 L 25.096708,6.7893219 L 29.887724,6.7893219 L 29.887724,8.1213531 L 26.396513,8.1213531 L 26.396513,9.8669586 L 29.640654,9.8669586 L 29.640654,11.193619 L 26.396513,11.193619 L 26.396513,13.336685 L 30.005888,13.336685 L 30.005888,14.663345 L 25.096708,14.663345 z M 31.106962,14.663345 L 31.106962,6.7893219 L 33.201689,6.7893219 C 33.982284,6.7893298 34.492538,6.8269274 34.73245,6.9021149 C 35.115584,7.0238673 35.431583,7.2834699 35.680449,7.6809235 C 35.929304,8.078391 36.053734,8.5904347 36.05374,9.2170563 C 36.053734,9.7863971 35.946312,10.263529 35.731474,10.648453 C 35.516625,11.033385 35.248071,11.30373 34.92581,11.459488 C 34.60354,11.615253 34.048528,11.693133 33.260771,11.69313 L 32.406767,11.69313 L 32.406767,14.663345 L 31.106962,14.663345 z M 32.406767,8.1213531 L 32.406767,10.355728 L 33.126493,10.355728 C 33.609889,10.355732 33.93842,10.321716 34.112089,10.253677 C 34.285751,10.185648 34.428085,10.063008 34.539091,9.8857574 C 34.65009,9.7085163 34.705591,9.4909872 34.705595,9.2331696 C 34.705591,8.971782 34.648299,8.7515674 34.53372,8.572525 C 34.419133,8.3934948 34.277694,8.2735405 34.109404,8.2126617 C 33.941106,8.1517959 33.584824,8.1213597 33.040556,8.1213531 L 32.406767,8.1213531 z "
     id="text3514" />
</svg>
