<?xml version="1.0" encoding="UTF-8" standalone="no"?>
<!-- Created with Inkscape (http://www.inkscape.org/) -->
<svg
   xmlns:dc="http://purl.org/dc/elements/1.1/"
   xmlns:cc="http://web.resource.org/cc/"
   xmlns:rdf="http://www.w3.org/1999/02/22-rdf-syntax-ns#"
   xmlns:svg="http://www.w3.org/2000/svg"
   xmlns="http://www.w3.org/2000/svg"
   xmlns:sodipodi="http://sodipodi.sourceforge.net/DTD/sodipodi-0.dtd"
   xmlns:inkscape="http://www.inkscape.org/namespaces/inkscape"
   version="1.0"
   width="38.454723"
   height="20.73819"
   id="svg2"
   sodipodi:version="0.32"
   inkscape:version="0.45pre1"
   sodipodi:docname="key-5.svg"
   inkscape:output_extension="org.inkscape.output.svg.inkscape"
   sodipodi:docbase="E:\lenny\workspace\radiodoc\uv-5r\assets\images"
   sodipodi:modified="true">
  <metadata
     id="metadata10">
    <rdf:RDF>
      <cc:Work
         rdf:about="">
        <dc:format>image/svg+xml</dc:format>
        <dc:type
           rdf:resource="http://purl.org/dc/dcmitype/StillImage" />
      </cc:Work>
    </rdf:RDF>
  </metadata>
  <sodipodi:namedview
     inkscape:window-height="583"
     inkscape:window-width="734"
     inkscape:pageshadow="2"
     inkscape:pageopacity="0.0"
     guidetolerance="10.0"
     gridtolerance="10.0"
     objecttolerance="10.0"
     borderopacity="1.0"
     bordercolor="#666666"
     pagecolor="#ffffff"
     id="base"
     inkscape:zoom="16.929"
     inkscape:cx="19.227362"
     inkscape:cy="10.369095"
     inkscape:window-x="230"
     inkscape:window-y="230"
     inkscape:current-layer="svg2" />
  <defs
     id="defs4" />
  <path
     d="M 5.404448,0.63308889 C 2.726438,0.90558889 0.62501,3.1965889 0.625,5.9486889 L 0.625,14.797589 C 0.625,17.733089 3.002743,20.113189 5.935497,20.113189 L 32.519227,20.113189 C 35.451981,20.113189 37.829724,17.733089 37.829724,14.797589 L 37.829724,5.9486889 C 37.829724,3.0130889 35.451981,0.63308889 32.519227,0.63308889 L 5.935497,0.63308889 C 5.752197,0.63308889 5.58298,0.61488889 5.404448,0.63308889 z "
     style="fill:none;fill-opacity:1;fill-rule:nonzero;stroke:#000000;stroke-width:1.25;stroke-miterlimit:4;stroke-dasharray:none;stroke-dashoffset:0;stroke-opacity:1"
     id="path3424" />
  <path
     style="font-size:16px;font-style:normal;font-weight:bold;text-align:center;text-anchor:middle;fill:#000000;fill-opacity:1;stroke:none;stroke-width:1px;stroke-linecap:butt;stroke-linejoin:miter;stroke-opacity:1;font-family:Arial"
     d="M 3.0832644,13.76462 L 5.8103884,13.482201 C 5.8883023,14.098991 6.1188091,14.587539 6.5019087,14.947872 C 6.8849998,15.308201 7.3265342,15.488372 7.8265119,15.48837 C 8.3979031,15.488372 8.8816428,15.256266 9.2777328,14.792053 C 9.6738058,14.327844 9.8718498,13.628283 9.8718568,12.693369 C 9.8718498,11.816892 9.6754278,11.159534 9.2826008,10.721287 C 8.8897588,10.283053 8.3784234,10.063933 7.7485943,10.063925 C 6.9629182,10.063933 6.2584114,10.411278 5.635073,11.105965 L 3.414415,10.784588 L 4.8169358,3.3539786 L 12.053553,3.3539786 L 12.053553,5.9152501 L 6.8914983,5.9152501 L 6.4629499,8.3401799 C 7.0733014,8.0350445 7.6966433,7.8824716 8.3329779,7.8824624 C 9.5471878,7.8824716 10.576355,8.323958 11.420469,9.206922 C 12.264568,10.089903 12.686629,11.235822 12.686638,12.644671 C 12.686629,13.819809 12.345736,14.868343 11.663965,15.790268 C 10.735439,17.0498 9.4465458,17.679569 7.7972928,17.679569 C 6.4791785,17.679569 5.4045626,17.32573 4.5734425,16.61805 C 3.7423178,15.91038 3.2455919,14.959235 3.0832644,13.76462 L 3.0832644,13.76462 z "
     id="text3466" />
  <path
     style="font-size:11px;font-style:normal;font-weight:bold;text-align:center;text-anchor:middle;fill:#000000;fill-opacity:1;stroke:none;stroke-width:1px;stroke-linecap:butt;stroke-linejoin:miter;stroke-opacity:1;font-family:Arial Narrow"
     d="M 19.043023,15.539724 L 17.121255,5.7243568 L 18.788578,5.7243568 L 19.993871,12.466563 L 21.466999,5.7243568 L 23.402165,5.7243568 L 24.815034,12.580383 L 26.053807,5.7243568 L 27.687641,5.7243568 L 25.732394,15.539724 L 24.004812,15.539724 L 22.397757,8.2016323 L 20.804093,15.539724 L 19.043023,15.539724 z M 28.531351,15.539724 L 28.531351,5.7243568 L 30.111617,5.7243568 L 33.406083,12.279094 L 33.406083,5.7243568 L 34.919391,5.7243568 L 34.919391,15.539724 L 33.285556,15.539724 L 30.044658,9.1389795 L 30.044658,15.539724 L 28.531351,15.539724 z "
     id="text3534" />
</svg>
