<?xml version="1.0" encoding="UTF-8" standalone="no"?>
<!-- Created with Inkscape (http://www.inkscape.org/) -->
<svg
   xmlns:dc="http://purl.org/dc/elements/1.1/"
   xmlns:cc="http://web.resource.org/cc/"
   xmlns:rdf="http://www.w3.org/1999/02/22-rdf-syntax-ns#"
   xmlns:svg="http://www.w3.org/2000/svg"
   xmlns="http://www.w3.org/2000/svg"
   xmlns:sodipodi="http://sodipodi.sourceforge.net/DTD/sodipodi-0.dtd"
   xmlns:inkscape="http://www.inkscape.org/namespaces/inkscape"
   version="1.0"
   width="38.454723"
   height="20.73819"
   id="svg2"
   sodipodi:version="0.32"
   inkscape:version="0.45pre1"
   sodipodi:docname="key-7.svg"
   inkscape:output_extension="org.inkscape.output.svg.inkscape"
   sodipodi:docbase="E:\lenny\workspace\radiodoc\uv-5r\assets\images"
   sodipodi:modified="true">
  <metadata
     id="metadata11">
    <rdf:RDF>
      <cc:Work
         rdf:about="">
        <dc:format>image/svg+xml</dc:format>
        <dc:type
           rdf:resource="http://purl.org/dc/dcmitype/StillImage" />
      </cc:Work>
    </rdf:RDF>
  </metadata>
  <sodipodi:namedview
     inkscape:window-height="480"
     inkscape:window-width="640"
     inkscape:pageshadow="2"
     inkscape:pageopacity="0.0"
     guidetolerance="10.0"
     gridtolerance="10.0"
     objecttolerance="10.0"
     borderopacity="1.0"
     bordercolor="#666666"
     pagecolor="#ffffff"
     id="base" />
  <defs
     id="defs4" />
  <path
     id="rect3397"
     style="fill:none;fill-opacity:1;fill-rule:nonzero;stroke:#000000;stroke-width:1.25;stroke-miterlimit:4;stroke-dasharray:none;stroke-dashoffset:0;stroke-opacity:1"
     d="M 5.4044477,0.6331 C 2.7264376,0.9056 0.62501,3.1966 0.625,5.9487 L 0.625,14.7976 C 0.625,17.7331 3.0027434,20.1132 5.9354975,20.1132 L 32.519227,20.1132 C 35.451981,20.1132 37.829724,17.7331 37.829724,14.7976 L 37.829724,5.9487 C 37.829724,3.0131 35.451981,0.6331 32.519227,0.6331 L 5.9354975,0.6331 C 5.7521966,0.6331 5.5829804,0.6149 5.4044477,0.6331 z " />
  <path
     style="font-size:16px;font-style:normal;font-weight:bold;text-align:center;text-anchor:middle;fill:#000000;fill-opacity:1;stroke:none;stroke-width:1px;stroke-linecap:butt;stroke-linejoin:miter;stroke-opacity:1;font-family:Arial"
     d="M 4.3515615,6.9267807 L 4.3515615,4.8877182 L 11.859374,4.8877182 L 11.859374,6.4814682 C 11.239575,7.0908523 10.609367,7.9658514 9.968749,9.1064682 C 9.3281184,10.247099 8.8398376,11.459338 8.5039053,12.743187 C 8.1679633,14.027043 8.0025989,15.174178 8.0078115,16.184593 L 5.890624,16.184593 C 5.9270801,14.601261 6.2539027,12.98668 6.8710928,11.340843 C 7.4882765,9.6950164 8.3124944,8.2236637 9.343749,6.9267807 L 4.3515615,6.9267807 z "
     id="text3446" />
  <path
     style="font-size:11px;font-style:normal;font-weight:bold;text-align:center;text-anchor:middle;fill:#000000;fill-opacity:1;stroke:none;stroke-width:1px;stroke-linecap:butt;stroke-linejoin:miter;stroke-opacity:1;font-family:Arial Narrow"
     d="M 15.96533,14.663354 L 15.96533,8.1213617 L 14.04785,8.1213617 L 14.04785,6.7893305 L 19.177244,6.7893305 L 19.177244,8.1213617 L 17.265135,8.1213617 L 17.265135,14.663354 L 15.96533,14.663354 z M 20.025877,6.7893305 L 22.405272,6.7893305 C 23.00683,6.7893384 23.460687,6.856477 23.766844,6.9907465 C 24.072991,7.1250314 24.354974,7.3515123 24.612791,7.6701899 C 24.870598,7.9888814 25.072909,8.4024552 25.219725,8.9109125 C 25.366529,9.4193813 25.439933,10.051379 25.439939,10.806909 C 25.439933,11.48725 25.362948,12.078965 25.208982,12.582055 C 25.055005,13.085149 24.859856,13.483505 24.623533,13.777123 C 24.3872,14.070744 24.101637,14.291854 23.766844,14.440454 C 23.432042,14.589054 23.001459,14.663354 22.475096,14.663354 L 20.025877,14.663354 L 20.025877,6.7893305 z M 21.325682,8.1213617 L 21.325682,13.336694 L 22.303221,13.336694 C 22.722163,13.336695 23.025629,13.297307 23.213621,13.21853 C 23.401605,13.139755 23.555577,13.020696 23.675535,12.861352 C 23.795485,12.702011 23.89485,12.450466 23.973631,12.106713 C 24.052402,11.762966 24.09179,11.310004 24.091795,10.747827 C 24.09179,10.164172 24.051507,9.704049 23.970945,9.3674555 C 23.890374,9.0308726 23.765049,8.7658989 23.594969,8.5725336 C 23.42488,8.3791805 23.218093,8.2520648 22.974607,8.191186 C 22.791987,8.144643 22.439285,8.1213683 21.916502,8.1213617 L 21.325682,8.1213617 z M 26.546385,14.663354 L 26.546385,6.7893305 L 29.291014,6.7893305 C 29.992833,6.7893384 30.494134,6.8600577 30.79492,7.0014887 C 31.095696,7.142935 31.342766,7.3882147 31.536131,7.7373285 C 31.729484,8.0864562 31.826164,8.5045059 31.82617,8.9914789 C 31.826164,9.6073694 31.678459,10.1033 31.383055,10.479272 C 31.087639,10.855252 30.667799,11.09158 30.123533,11.188256 C 30.402826,11.38878 30.633782,11.6081 30.816404,11.846215 C 30.999016,12.084336 31.247877,12.511338 31.562986,13.127221 L 32.347166,14.663354 L 30.79492,14.663354 L 29.849607,12.949975 C 29.509435,12.330511 29.278478,11.942898 29.156736,11.787133 C 29.034988,11.631375 28.906082,11.523953 28.770018,11.464868 C 28.633947,11.405789 28.415523,11.376248 28.114744,11.376245 L 27.846189,11.376245 L 27.846189,14.663354 L 26.546385,14.663354 z M 27.846189,10.119409 L 28.812986,10.119409 C 29.403803,10.119413 29.779779,10.093453 29.940916,10.041528 C 30.102045,9.9896118 30.232741,9.8848756 30.333006,9.7273188 C 30.433262,9.5697718 30.483392,9.3602993 30.483397,9.0989008 C 30.483392,8.8482556 30.433262,8.6468398 30.333006,8.4946527 C 30.232741,8.3424781 30.096674,8.2377419 29.924803,8.1804438 C 29.803054,8.1410623 29.450353,8.1213683 28.866697,8.1213617 L 27.846189,8.1213617 L 27.846189,10.119409 z "
     id="text3510" />
</svg>
