<?xml version="1.0" encoding="UTF-8" standalone="no"?>
<!-- Created with Inkscape (http://www.inkscape.org/) -->
<svg
   xmlns:dc="http://purl.org/dc/elements/1.1/"
   xmlns:cc="http://web.resource.org/cc/"
   xmlns:rdf="http://www.w3.org/1999/02/22-rdf-syntax-ns#"
   xmlns:svg="http://www.w3.org/2000/svg"
   xmlns="http://www.w3.org/2000/svg"
   xmlns:sodipodi="http://sodipodi.sourceforge.net/DTD/sodipodi-0.dtd"
   xmlns:inkscape="http://www.inkscape.org/namespaces/inkscape"
   version="1.0"
   width="38.454723"
   height="20.73819"
   id="svg2"
   sodipodi:version="0.32"
   inkscape:version="0.45pre1"
   sodipodi:docname="key-band.svg"
   inkscape:output_extension="org.inkscape.output.svg.inkscape"
   sodipodi:docbase="E:\lenny\workspace\radiodoc\uv-5r\assets\images"
   sodipodi:modified="true">
  <metadata
     id="metadata8">
    <rdf:RDF>
      <cc:Work
         rdf:about="">
        <dc:format>image/svg+xml</dc:format>
        <dc:type
           rdf:resource="http://purl.org/dc/dcmitype/StillImage" />
      </cc:Work>
    </rdf:RDF>
  </metadata>
  <sodipodi:namedview
     inkscape:window-height="583"
     inkscape:window-width="734"
     inkscape:pageshadow="2"
     inkscape:pageopacity="0.0"
     guidetolerance="10.0"
     gridtolerance="10.0"
     objecttolerance="10.0"
     borderopacity="1.0"
     bordercolor="#666666"
     pagecolor="#ffffff"
     id="base"
     inkscape:zoom="16.929"
     inkscape:cx="19.227362"
     inkscape:cy="10.369095"
     inkscape:window-x="69"
     inkscape:window-y="69"
     inkscape:current-layer="svg2" />
  <defs
     id="defs4" />
  <path
     d="M 5.4044477,0.63308889 C 2.7264376,0.90558889 0.62501,3.1965889 0.625,5.9486889 L 0.625,14.797589 C 0.625,17.733089 3.0027434,20.113189 5.9354975,20.113189 L 32.519227,20.113189 C 35.451981,20.113189 37.829724,17.733089 37.829724,14.797589 L 37.829724,5.9486889 C 37.829724,3.0130889 35.451981,0.63308889 32.519227,0.63308889 L 5.9354975,0.63308889 C 5.7521966,0.63308889 5.5829804,0.61488889 5.4044477,0.63308889 z "
     style="fill:none;fill-opacity:1;fill-rule:nonzero;stroke:#000000;stroke-width:1.25;stroke-miterlimit:4;stroke-dasharray:none;stroke-dashoffset:0;stroke-opacity:1"
     id="path3438" />
  <path
     style="font-size:11px;font-style:normal;font-weight:bold;text-align:center;text-anchor:middle;fill:#000000;fill-opacity:1;stroke:none;stroke-width:1px;stroke-linecap:butt;stroke-linejoin:miter;stroke-opacity:1;font-family:Arial Narrow"
     d="M 3.75,4.5450211 L 6.9568382,4.5450211 C 7.8324356,4.5450328 8.448025,4.6413834 8.8036074,4.8340737 C 9.1591725,5.026787 9.4591947,5.366691 9.7036533,5.8537869 C 9.9481031,6.3409043 10.070332,6.8922448 10.070344,7.5078105 C 10.070332,8.0752183 9.9658858,8.5877517 9.756993,9.0454104 C 9.5480807,9.5030832 9.2769558,9.8416502 8.9436079,10.061107 C 9.4191842,10.264523 9.7914273,10.612456 10.06034,11.104909 C 10.329235,11.597376 10.46369,12.196895 10.463697,12.903461 C 10.46369,13.759912 10.292569,14.48388 9.9503343,15.075375 C 9.6080912,15.666861 9.2036256,16.032187 8.7369367,16.171356 C 8.4124689,16.267713 7.6590951,16.315887 6.4768144,16.315887 L 3.75,16.315887 L 3.75,4.5450211 z M 5.3634198,6.5041555 L 5.3634198,9.226068 L 6.4301446,9.226068 C 7.0701751,9.2260752 7.4657537,9.2126934 7.6168705,9.1859215 C 7.8924363,9.1324004 8.108003,8.991889 8.2635746,8.7643865 C 8.4191389,8.5368993 8.4969122,8.227774 8.4969263,7.8370098 C 8.4969122,7.4890844 8.4335764,7.2067235 8.3069093,6.9899244 C 8.1802363,6.7731446 8.0268955,6.6379861 7.8468872,6.5844479 C 7.6668728,6.5309295 7.1501762,6.5041652 6.2968039,6.5041555 L 5.3634198,6.5041555 z M 5.3634198,11.185202 L 5.3634198,14.332661 L 6.8634982,14.332661 C 7.5213108,14.332662 7.9435498,14.291186 8.1302338,14.208211 C 8.3169113,14.12525 8.4735881,13.961984 8.600261,13.718423 C 8.726928,13.474878 8.7902632,13.165757 8.7902674,12.791049 C 8.7902632,12.405654 8.7224843,12.0885 8.5869315,11.839586 C 8.4513609,11.590681 8.2713496,11.419393 8.0468977,11.325713 C 7.8224409,11.232043 7.3635267,11.185206 6.6701567,11.185202 L 5.3634198,11.185202 z M 19.057494,16.315887 L 17.297396,16.315887 L 16.597361,13.642148 L 13.397185,13.642148 L 12.737152,16.315887 L 11.01706,16.315887 L 14.137227,4.5450211 L 15.850655,4.5450211 L 19.057494,16.315887 z M 16.07733,11.658931 L 14.977273,7.2910212 L 13.890547,11.658931 L 16.07733,11.658931 z M 19.930871,16.315887 L 19.930871,4.5450211 L 21.504289,4.5450211 L 24.784466,12.405651 L 24.784466,4.5450211 L 26.291214,4.5450211 L 26.291214,16.315887 L 24.664463,16.315887 L 21.437618,8.6399336 L 21.437618,16.315887 L 19.930871,16.315887 z M 27.984641,4.5450211 L 30.938129,4.5450211 C 31.684833,4.5450328 32.248198,4.6453985 32.628224,4.8461174 C 33.00824,5.0468598 33.358258,5.3854258 33.678282,5.8618162 C 33.998291,6.3382279 34.249416,6.9564786 34.431657,7.7165709 C 34.61388,8.4766806 34.704995,9.4214532 34.705,10.550892 C 34.704995,11.567933 34.609436,12.452492 34.418318,13.20456 C 34.22719,13.956632 33.98496,14.552134 33.691614,14.991065 C 33.398259,15.43 33.043797,15.760538 32.628224,15.98268 C 32.212641,16.204822 31.678169,16.315887 31.024803,16.315887 L 27.984641,16.315887 L 27.984641,4.5450211 z M 29.598062,6.5362723 L 29.598062,14.332661 L 30.811458,14.332661 C 31.331483,14.332662 31.708166,14.273786 31.941519,14.156022 C 32.174858,14.03826 32.365982,13.860275 32.514883,13.622077 C 32.663776,13.383882 32.787113,13.007842 32.884905,12.493965 C 32.98268,11.980104 33.031576,11.302968 33.03158,10.462571 C 33.031576,9.5900662 32.981571,8.902228 32.881573,8.3990563 C 32.78156,7.8958992 32.625994,7.4997904 32.414881,7.2107288 C 32.203752,6.9216858 31.947069,6.7316607 31.644836,6.6406526 C 31.418157,6.5710757 30.980353,6.5362823 30.331435,6.5362723 L 29.598062,6.5362723 z "
     id="text3562" />
</svg>
