<?xml version="1.0" encoding="UTF-8" standalone="no"?>
<!-- Created with Inkscape (http://www.inkscape.org/) -->
<svg
   xmlns:dc="http://purl.org/dc/elements/1.1/"
   xmlns:cc="http://web.resource.org/cc/"
   xmlns:rdf="http://www.w3.org/1999/02/22-rdf-syntax-ns#"
   xmlns:svg="http://www.w3.org/2000/svg"
   xmlns="http://www.w3.org/2000/svg"
   xmlns:sodipodi="http://sodipodi.sourceforge.net/DTD/sodipodi-0.dtd"
   xmlns:inkscape="http://www.inkscape.org/namespaces/inkscape"
   version="1.0"
   width="38.454723"
   height="20.73819"
   id="svg2"
   sodipodi:version="0.32"
   inkscape:version="0.45pre1"
   sodipodi:docname="key-menu.svg"
   inkscape:output_extension="org.inkscape.output.svg.inkscape"
   sodipodi:docbase="E:\lenny\workspace\radiodoc\uv-5r\assets\images"
   sodipodi:modified="true">
  <metadata
     id="metadata8">
    <rdf:RDF>
      <cc:Work
         rdf:about="">
        <dc:format>image/svg+xml</dc:format>
        <dc:type
           rdf:resource="http://purl.org/dc/dcmitype/StillImage" />
      </cc:Work>
    </rdf:RDF>
  </metadata>
  <sodipodi:namedview
     inkscape:window-height="583"
     inkscape:window-width="734"
     inkscape:pageshadow="2"
     inkscape:pageopacity="0.0"
     guidetolerance="10.0"
     gridtolerance="10.0"
     objecttolerance="10.0"
     borderopacity="1.0"
     bordercolor="#666666"
     pagecolor="#ffffff"
     id="base"
     inkscape:zoom="16.929"
     inkscape:cx="19.227362"
     inkscape:cy="10.369095"
     inkscape:window-x="207"
     inkscape:window-y="207"
     inkscape:current-layer="svg2" />
  <defs
     id="defs4" />
  <path
     d="M 5.4044477,0.63308889 C 2.7264376,0.90558889 0.62501,3.1965889 0.625,5.9486889 L 0.625,14.797589 C 0.625,17.733089 3.0027434,20.113189 5.9354975,20.113189 L 32.519227,20.113189 C 35.451981,20.113189 37.829724,17.733089 37.829724,14.797589 L 37.829724,5.9486889 C 37.829724,3.0130889 35.451981,0.63308889 32.519227,0.63308889 L 5.9354975,0.63308889 C 5.7521966,0.63308889 5.5829804,0.61488889 5.4044477,0.63308889 z "
     style="fill:none;fill-opacity:1;fill-rule:nonzero;stroke:#000000;stroke-width:1.25;stroke-miterlimit:4;stroke-dasharray:none;stroke-dashoffset:0;stroke-opacity:1"
     id="path3438" />
  <path
     style="font-size:11px;font-style:normal;font-weight:bold;text-align:center;text-anchor:middle;fill:#000000;fill-opacity:1;stroke:none;stroke-width:1px;stroke-linecap:butt;stroke-linejoin:miter;stroke-opacity:1;font-family:Arial Narrow"
     d="M 2.2784242,15.795804 L 2.2784242,5.1350827 L 4.9181521,5.1350827 L 6.5034434,12.407063 L 8.0741906,5.1350827 L 10.72119,5.1350827 L 10.72119,15.795804 L 9.0849959,15.795804 L 9.0849959,7.4039403 L 7.3469934,15.795804 L 5.6453505,15.795804 L 3.9218915,7.4039403 L 3.9218915,15.795804 L 2.2784242,15.795804 z M 12.488279,15.795804 L 12.488279,5.1350827 L 18.974887,5.1350827 L 18.974887,6.9385335 L 14.248102,6.9385335 L 14.248102,9.3019283 L 18.640373,9.3019283 L 18.640373,11.098102 L 14.248102,11.098102 L 14.248102,13.999623 L 19.134869,13.999623 L 19.134869,15.795804 L 12.488279,15.795804 z M 20.647444,15.795804 L 20.647444,5.1350827 L 22.363627,5.1350827 L 25.94144,12.254349 L 25.94144,5.1350827 L 27.584907,5.1350827 L 27.584907,15.795804 L 25.81055,15.795804 L 22.29091,8.8437923 L 22.29091,15.795804 L 20.647444,15.795804 z M 29.424721,5.1350827 L 31.184537,5.1350827 L 31.184537,10.909037 C 31.184535,11.805913 31.206351,12.390094 31.249986,12.661579 C 31.327552,13.131836 31.512987,13.495433 31.806293,13.752376 C 32.099592,14.009322 32.48622,14.137797 32.966176,14.137796 C 33.373402,14.137797 33.705484,14.046894 33.962433,13.865095 C 34.219373,13.683298 34.395112,13.431198 34.489656,13.10881 C 34.584184,12.78642 34.631447,12.09437 34.631458,11.032661 L 34.631458,5.1350827 L 36.398549,5.1350827 L 36.398549,10.734506 C 36.398536,12.164663 36.322182,13.1985 36.169481,13.836003 C 36.01676,14.473517 35.672551,14.989828 35.136858,15.384937 C 34.601148,15.780048 33.894558,15.977602 33.017076,15.977602 C 32.105652,15.977602 31.394208,15.813983 30.882752,15.486744 C 30.371284,15.159507 30.000414,14.698948 29.770138,14.105068 C 29.539862,13.511189 29.424721,12.416763 29.424721,10.821772 L 29.424721,5.1350827 z "
     id="text3562" />
</svg>
