<?xml version="1.0" encoding="UTF-8" standalone="no"?>
<!-- Created with Inkscape (http://www.inkscape.org/) -->
<svg
   xmlns:dc="http://purl.org/dc/elements/1.1/"
   xmlns:cc="http://web.resource.org/cc/"
   xmlns:rdf="http://www.w3.org/1999/02/22-rdf-syntax-ns#"
   xmlns:svg="http://www.w3.org/2000/svg"
   xmlns="http://www.w3.org/2000/svg"
   xmlns:sodipodi="http://sodipodi.sourceforge.net/DTD/sodipodi-0.dtd"
   xmlns:inkscape="http://www.inkscape.org/namespaces/inkscape"
   version="1.0"
   width="38.454723"
   height="20.73819"
   id="svg2"
   sodipodi:version="0.32"
   inkscape:version="0.45pre1"
   sodipodi:docname="key-moni.svg"
   inkscape:output_extension="org.inkscape.output.svg.inkscape"
   sodipodi:docbase="E:\lenny\workspace\radiodoc\uv-5r\assets\images"
   sodipodi:modified="true">
  <metadata
     id="metadata8">
    <rdf:RDF>
      <cc:Work
         rdf:about="">
        <dc:format>image/svg+xml</dc:format>
        <dc:type
           rdf:resource="http://purl.org/dc/dcmitype/StillImage" />
      </cc:Work>
    </rdf:RDF>
  </metadata>
  <sodipodi:namedview
     inkscape:window-height="1180"
     inkscape:window-width="1600"
     inkscape:pageshadow="2"
     inkscape:pageopacity="0.0"
     guidetolerance="10.0"
     gridtolerance="10.0"
     objecttolerance="10.0"
     borderopacity="1.0"
     bordercolor="#666666"
     pagecolor="#ffffff"
     id="base"
     inkscape:zoom="16.929"
     inkscape:cx="19.227362"
     inkscape:cy="10.369095"
     inkscape:window-x="0"
     inkscape:window-y="0"
     inkscape:current-layer="svg2" />
  <defs
     id="defs4" />
  <path
     d="M 5.4044477,0.63308889 C 2.7264376,0.90558889 0.62501,3.1965889 0.625,5.9486889 L 0.625,14.797589 C 0.625,17.733089 3.0027434,20.113189 5.9354975,20.113189 L 32.519227,20.113189 C 35.451981,20.113189 37.829724,17.733089 37.829724,14.797589 L 37.829724,5.9486889 C 37.829724,3.0130889 35.451981,0.63308889 32.519227,0.63308889 L 5.9354975,0.63308889 C 5.7521966,0.63308889 5.5829804,0.61488889 5.4044477,0.63308889 z "
     style="fill:none;fill-opacity:1;fill-rule:nonzero;stroke:#000000;stroke-width:1.25;stroke-miterlimit:4;stroke-dasharray:none;stroke-dashoffset:0;stroke-opacity:1"
     id="path3438" />
  <path
     style="font-size:11px;font-style:normal;font-weight:bold;text-align:center;text-anchor:middle;fill:#000000;fill-opacity:1;stroke:none;stroke-width:1px;stroke-linecap:butt;stroke-linejoin:miter;stroke-opacity:1;font-family:Arial Narrow"
     d="M 2.176692,16.363912 L 2.176692,4.3782104 L 5.1445008,4.3782104 L 6.9268227,12.553995 L 8.6927916,4.3782104 L 11.668777,4.3782104 L 11.668777,16.363912 L 9.8292256,16.363912 L 9.8292256,6.9290543 L 7.8752141,16.363912 L 5.9620805,16.363912 L 4.0244194,6.9290543 L 4.0244194,16.363912 L 2.176692,16.363912 z M 13.25488,10.44464 C 13.25488,9.0166125 13.466088,7.8406629 13.888501,6.9167918 C 14.310917,5.9929386 14.862783,5.3048104 15.544097,4.8524057 C 16.22541,4.4000245 17.051166,4.173828 18.021362,4.1738159 C 19.427592,4.173828 20.573557,4.7107039 21.45928,5.7844454 C 22.344977,6.8582078 22.787833,8.3870776 22.787848,10.371059 C 22.787833,12.376857 22.319089,13.943881 21.381611,15.072137 C 20.558575,16.069582 19.441216,16.568304 18.029537,16.568304 C 16.606951,16.568304 15.48414,16.075031 14.661119,15.088487 C 13.723624,13.960231 13.25488,12.412288 13.25488,10.44464 L 13.25488,10.44464 z M 15.298825,10.362885 C 15.298823,11.74187 15.560449,12.776107 16.083698,13.465593 C 16.606951,14.155089 17.255559,14.499833 18.029537,14.499832 C 18.808953,14.499833 19.454843,14.157812 19.967201,13.473768 C 20.479543,12.789732 20.735716,11.739144 20.73572,10.322002 C 20.735716,8.9321309 20.48635,7.904706 19.987638,7.2397347 C 19.48891,6.574781 18.836205,6.2422996 18.029537,6.242289 C 17.222854,6.2422996 16.566068,6.5775059 16.059174,7.2479117 C 15.552274,7.9183357 15.298823,8.9566563 15.298825,10.362885 L 15.298825,10.362885 z M 24.365769,16.363912 L 24.365769,4.3782104 L 26.295259,4.3782104 L 30.317742,12.382303 L 30.317742,4.3782104 L 32.165468,4.3782104 L 32.165468,16.363912 L 30.170579,16.363912 L 26.2135,8.5478583 L 26.2135,16.363912 L 24.365769,16.363912 z M 34.193067,16.363912 L 34.193067,4.3782104 L 36.171606,4.3782104 L 36.171606,16.363912 L 34.193067,16.363912 z "
     id="text3562" />
</svg>
