<?xml version="1.0" encoding="UTF-8" standalone="no"?>
<!-- Created with Inkscape (http://www.inkscape.org/) -->
<svg
   xmlns:dc="http://purl.org/dc/elements/1.1/"
   xmlns:cc="http://web.resource.org/cc/"
   xmlns:rdf="http://www.w3.org/1999/02/22-rdf-syntax-ns#"
   xmlns:svg="http://www.w3.org/2000/svg"
   xmlns="http://www.w3.org/2000/svg"
   xmlns:sodipodi="http://sodipodi.sourceforge.net/DTD/sodipodi-0.dtd"
   xmlns:inkscape="http://www.inkscape.org/namespaces/inkscape"
   version="1.0"
   width="38.454723"
   height="20.73819"
   id="svg2"
   sodipodi:version="0.32"
   inkscape:version="0.45pre1"
   sodipodi:docname="key-mode.svg"
   inkscape:output_extension="org.inkscape.output.svg.inkscape"
   sodipodi:docbase="E:\lenny\workspace\radiodoc\uv-5r\assets\images"
   sodipodi:modified="true">
  <metadata
     id="metadata8">
    <rdf:RDF>
      <cc:Work
         rdf:about="">
        <dc:format>image/svg+xml</dc:format>
        <dc:type
           rdf:resource="http://purl.org/dc/dcmitype/StillImage" />
      </cc:Work>
    </rdf:RDF>
  </metadata>
  <sodipodi:namedview
     inkscape:window-height="480"
     inkscape:window-width="640"
     inkscape:pageshadow="2"
     inkscape:pageopacity="0.0"
     guidetolerance="10.0"
     gridtolerance="10.0"
     objecttolerance="10.0"
     borderopacity="1.0"
     bordercolor="#666666"
     pagecolor="#ffffff"
     id="base" />
  <defs
     id="defs4" />
  <path
     d="M 5.4044477,0.63308889 C 2.7264376,0.90558889 0.62501,3.1965889 0.625,5.9486889 L 0.625,14.797589 C 0.625,17.733089 3.0027434,20.113189 5.9354975,20.113189 L 32.519227,20.113189 C 35.451981,20.113189 37.829724,17.733089 37.829724,14.797589 L 37.829724,5.9486889 C 37.829724,3.0130889 35.451981,0.63308889 32.519227,0.63308889 L 5.9354975,0.63308889 C 5.7521966,0.63308889 5.5829804,0.61488889 5.4044477,0.63308889 z "
     style="fill:none;fill-opacity:1;fill-rule:nonzero;stroke:#000000;stroke-width:1.25;stroke-miterlimit:4;stroke-dasharray:none;stroke-dashoffset:0;stroke-opacity:1"
     id="path3438" />
  <path
     style="font-size:11px;font-style:normal;font-weight:bold;text-align:center;text-anchor:middle;fill:#000000;fill-opacity:1;stroke:none;stroke-width:1px;stroke-linecap:butt;stroke-linejoin:miter;stroke-opacity:1;font-family:Arial Narrow"
     d="M 3.9801998,14.307499 L 1.6760006,6.4334755 L 3.0885983,6.4334755 L 4.7214108,12.261112 L 6.3005123,6.4334755 L 7.6862545,6.4334755 L 5.3766842,14.307499 L 3.9801998,14.307499 z M 8.3576412,14.307499 L 8.3576412,6.4334755 L 12.783422,6.4334755 L 12.783422,7.7655067 L 9.6574459,7.7655067 L 9.6574459,9.6292763 L 12.359106,9.6292763 L 12.359106,10.961308 L 9.6574459,10.961308 L 9.6574459,14.307499 L 8.3576412,14.307499 z M 13.610571,10.418827 C 13.610571,9.4806808 13.749324,8.7081393 14.026831,8.1012001 C 14.304336,7.4942733 14.666885,7.0422067 15.114477,6.7449989 C 15.562066,6.4478063 16.104546,6.2992062 16.741919,6.2991982 C 17.665742,6.2992062 18.41859,6.6519076 19.000463,7.3573036 C 19.582326,8.0627135 19.87326,9.067107 19.873266,10.370487 C 19.87326,11.688198 19.565317,12.717657 18.949438,13.458866 C 18.408743,14.11414 17.674694,14.441776 16.74729,14.441776 C 15.812717,14.441776 15.075087,14.11772 14.534399,13.469608 C 13.918513,12.728399 13.610571,11.711473 13.610571,10.418827 L 13.610571,10.418827 z M 14.953344,10.365116 C 14.953343,11.271044 15.125217,11.950486 15.468969,12.403446 C 15.812717,12.85641 16.238823,13.082891 16.74729,13.08289 C 17.25933,13.082891 17.683646,12.8582 18.020239,12.408817 C 18.356822,11.959438 18.525116,11.269253 18.525122,10.338261 C 18.525116,9.4251796 18.361298,8.7502128 18.033667,8.3133583 C 17.706025,7.8765158 17.277234,7.6580915 16.74729,7.6580849 C 16.217339,7.6580915 15.785861,7.8783061 15.452856,8.3187294 C 15.119846,8.7591646 14.953343,9.4412929 14.953344,10.365116 L 14.953344,10.365116 z M 20.227758,14.441776 L 21.828344,6.2991982 L 22.757544,6.2991982 L 21.140844,14.441776 L 20.227758,14.441776 z M 23.391333,14.307499 L 23.391333,6.4334755 L 25.34104,6.4334755 L 26.511938,11.804569 L 27.672094,6.4334755 L 29.627172,6.4334755 L 29.627172,14.307499 L 28.418676,14.307499 L 28.418676,8.1092567 L 27.134985,14.307499 L 25.878149,14.307499 L 24.6052,8.1092567 L 24.6052,14.307499 L 23.391333,14.307499 z M 30.932348,14.307499 L 30.932348,6.4334755 L 33.676977,6.4334755 C 34.378796,6.4334834 34.880098,6.5042027 35.180883,6.6456337 C 35.481659,6.78708 35.72873,7.0323597 35.922094,7.3814735 C 36.115448,7.7306012 36.212127,8.1486509 36.212133,8.6356239 C 36.212127,9.2515144 36.064423,9.7474449 35.769018,10.123417 C 35.473603,10.499397 35.053763,10.735725 34.509497,10.832401 C 34.788789,11.032925 35.019746,11.252245 35.202368,11.49036 C 35.38498,11.728481 35.63384,12.155483 35.94895,12.771366 L 36.73313,14.307499 L 35.180883,14.307499 L 34.235571,12.59412 C 33.895398,11.974656 33.664441,11.587043 33.5427,11.431278 C 33.420952,11.27552 33.292046,11.168098 33.155981,11.109013 C 33.019911,11.049934 32.801486,11.020393 32.500708,11.02039 L 32.232153,11.02039 L 32.232153,14.307499 L 30.932348,14.307499 z M 32.232153,9.7635536 L 33.19895,9.7635536 C 33.789767,9.7635582 34.165743,9.7375979 34.32688,9.6856728 C 34.488008,9.6337569 34.618705,9.5290206 34.718969,9.3714638 C 34.819225,9.2139168 34.869355,9.0044443 34.86936,8.7430458 C 34.869355,8.4924006 34.819225,8.2909848 34.718969,8.1387978 C 34.618705,7.9866231 34.482637,7.8818869 34.310766,7.8245888 C 34.189018,7.7852073 33.836316,7.7655133 33.252661,7.7655067 L 32.232153,7.7655067 L 32.232153,9.7635536 z "
     id="text3562" />
</svg>
