<?xml version="1.0" encoding="UTF-8" standalone="no"?>
<!-- Created with Inkscape (http://www.inkscape.org/) -->
<svg
   xmlns:dc="http://purl.org/dc/elements/1.1/"
   xmlns:cc="http://web.resource.org/cc/"
   xmlns:rdf="http://www.w3.org/1999/02/22-rdf-syntax-ns#"
   xmlns:svg="http://www.w3.org/2000/svg"
   xmlns="http://www.w3.org/2000/svg"
   xmlns:sodipodi="http://sodipodi.sourceforge.net/DTD/sodipodi-0.dtd"
   xmlns:inkscape="http://www.inkscape.org/namespaces/inkscape"
   version="1.0"
   width="38.454723"
   height="20.73819"
   id="svg2"
   sodipodi:version="0.32"
   inkscape:version="0.45pre1"
   sodipodi:docname="key-ab.svg"
   inkscape:output_extension="org.inkscape.output.svg.inkscape"
   sodipodi:docbase="E:\lenny\workspace\radiodoc\uv-5r\assets\images"
   sodipodi:modified="true">
  <metadata
     id="metadata8">
    <rdf:RDF>
      <cc:Work
         rdf:about="">
        <dc:format>image/svg+xml</dc:format>
        <dc:type
           rdf:resource="http://purl.org/dc/dcmitype/StillImage" />
      </cc:Work>
    </rdf:RDF>
  </metadata>
  <sodipodi:namedview
     inkscape:window-height="583"
     inkscape:window-width="734"
     inkscape:pageshadow="2"
     inkscape:pageopacity="0.0"
     guidetolerance="10.0"
     gridtolerance="10.0"
     objecttolerance="10.0"
     borderopacity="1.0"
     bordercolor="#666666"
     pagecolor="#ffffff"
     id="base"
     inkscape:zoom="16.929"
     inkscape:cx="19.227362"
     inkscape:cy="10.369095"
     inkscape:window-x="288"
     inkscape:window-y="150"
     inkscape:current-layer="svg2" />
  <defs
     id="defs4" />
  <path
     d="M 5.4044477,0.63308889 C 2.7264376,0.90558889 0.62501,3.1965889 0.625,5.9486889 L 0.625,14.797589 C 0.625,17.733089 3.0027434,20.113189 5.9354975,20.113189 L 32.519227,20.113189 C 35.451981,20.113189 37.829724,17.733089 37.829724,14.797589 L 37.829724,5.9486889 C 37.829724,3.0130889 35.451981,0.63308889 32.519227,0.63308889 L 5.9354975,0.63308889 C 5.7521966,0.63308889 5.5829804,0.61488889 5.4044477,0.63308889 z "
     style="fill:none;fill-opacity:1;fill-rule:nonzero;stroke:#000000;stroke-width:1.25;stroke-miterlimit:4;stroke-dasharray:none;stroke-dashoffset:0;stroke-opacity:1"
     id="path3438" />
  <path
     style="font-size:11px;font-style:normal;font-weight:bold;text-align:center;text-anchor:middle;fill:#000000;fill-opacity:1;stroke:none;stroke-width:1px;stroke-linecap:butt;stroke-linejoin:miter;stroke-opacity:1;font-family:Arial Narrow"
     d="M 13.718416,16.931243 L 11.536275,16.931243 L 10.668384,13.897385 L 6.7008552,13.897385 L 5.8825528,16.931243 L 3.75,16.931243 L 7.6183349,3.5749633 L 9.7426192,3.5749633 L 13.718416,16.931243 z M 10.023656,11.647039 L 8.6598171,6.6908202 L 7.3125187,11.647039 L 10.023656,11.647039 z M 17.61983,17.159007 L 20.082995,3.347196 L 21.512961,3.347196 L 19.024987,17.159007 L 17.61983,17.159007 z M 26.381458,3.5749633 L 30.357241,3.5749633 C 31.442795,3.5749765 32.205996,3.6843045 32.646844,3.9029484 C 33.087671,4.1216176 33.45963,4.5073034 33.76271,5.060006 C 34.065779,5.6127332 34.217317,6.2383336 34.217323,6.9368095 C 34.217317,7.5806413 34.087817,8.162206 33.828838,8.6815072 C 33.569833,9.2008238 33.233694,9.584991 32.82042,9.83401 C 33.41004,10.064821 33.87153,10.459618 34.204931,11.018401 C 34.538295,11.577193 34.704994,12.257461 34.705,13.0592 C 34.704994,14.03101 34.492841,14.852485 34.068541,15.523639 C 33.644231,16.194795 33.142771,16.609322 32.564191,16.767251 C 32.16192,16.876569 31.227901,16.931243 29.762118,16.931243 L 26.381458,16.931243 L 26.381458,3.5749633 z M 28.381754,5.7979729 L 28.381754,8.8864976 L 29.70426,8.8864976 C 30.497765,8.886506 30.988182,8.8713212 31.175544,8.8409441 C 31.517193,8.780214 31.784448,8.6207772 31.977323,8.3626325 C 32.170178,8.1045057 32.26661,7.7537442 32.266615,7.3103475 C 32.26661,6.9155611 32.188093,6.5951689 32.031046,6.3491696 C 31.873992,6.1031915 31.683892,5.9498285 31.460717,5.8890792 C 31.237534,5.8283523 30.596942,5.7979832 29.538938,5.7979729 L 28.381754,5.7979729 z M 28.381754,11.109506 L 28.381754,14.680897 L 30.241525,14.680897 C 31.057068,14.680898 31.580565,14.633834 31.812002,14.539677 C 32.043446,14.445538 32.237681,14.260294 32.394736,13.98393 C 32.551783,13.707571 32.6303,13.356817 32.63032,12.931653 C 32.6303,12.49434 32.54627,12.134471 32.378212,11.85203 C 32.210131,11.569599 31.986967,11.37524 31.70869,11.268942 C 31.430406,11.162661 30.861454,11.109512 30.001821,11.109506 L 28.381754,11.109506 z "
     id="text3562" />
</svg>
