<?xml version="1.0" encoding="UTF-8" standalone="no"?>
<!-- Created with Inkscape (http://www.inkscape.org/) -->
<svg
   xmlns:dc="http://purl.org/dc/elements/1.1/"
   xmlns:cc="http://web.resource.org/cc/"
   xmlns:rdf="http://www.w3.org/1999/02/22-rdf-syntax-ns#"
   xmlns:svg="http://www.w3.org/2000/svg"
   xmlns="http://www.w3.org/2000/svg"
   xmlns:sodipodi="http://sodipodi.sourceforge.net/DTD/sodipodi-0.dtd"
   xmlns:inkscape="http://www.inkscape.org/namespaces/inkscape"
   version="1.0"
   width="38.454727"
   height="20.73819"
   id="svg2"
   sodipodi:version="0.32"
   inkscape:version="0.45pre1"
   sodipodi:docname="key-9.svg"
   inkscape:output_extension="org.inkscape.output.svg.inkscape"
   sodipodi:docbase="E:\lenny\workspace\radiodoc\uv-5r\assets\images"
   sodipodi:modified="true">
  <metadata
     id="metadata10">
    <rdf:RDF>
      <cc:Work
         rdf:about="">
        <dc:format>image/svg+xml</dc:format>
        <dc:type
           rdf:resource="http://purl.org/dc/dcmitype/StillImage" />
      </cc:Work>
    </rdf:RDF>
  </metadata>
  <sodipodi:namedview
     inkscape:window-height="583"
     inkscape:window-width="734"
     inkscape:pageshadow="2"
     inkscape:pageopacity="0.0"
     guidetolerance="10.0"
     gridtolerance="10.0"
     objecttolerance="10.0"
     borderopacity="1.0"
     bordercolor="#666666"
     pagecolor="#ffffff"
     id="base"
     inkscape:zoom="16.928998"
     inkscape:cx="19.227364"
     inkscape:cy="10.369095"
     inkscape:window-x="253"
     inkscape:window-y="253"
     inkscape:current-layer="svg2" />
  <defs
     id="defs4" />
  <path
     d="M 5.404448,0.63308889 C 2.726438,0.90558889 0.62501,3.1965889 0.625,5.9486889 L 0.625,14.797589 C 0.625,17.733089 3.002743,20.113189 5.935497,20.113189 L 32.519228,20.113189 C 35.451978,20.113189 37.829728,17.733089 37.829728,14.797589 L 37.829728,5.9486889 C 37.829728,3.0130889 35.451978,0.63308889 32.519228,0.63308889 L 5.935497,0.63308889 C 5.752197,0.63308889 5.58298,0.61488889 5.404448,0.63308889 z "
     style="fill:none;fill-opacity:1;fill-rule:nonzero;stroke:#000000;stroke-width:1.25;stroke-miterlimit:4;stroke-dasharray:none;stroke-dashoffset:0;stroke-opacity:1"
     id="path3418" />
  <path
     style="font-size:16px;font-style:normal;font-weight:bold;text-align:center;text-anchor:middle;fill:#000000;fill-opacity:1;stroke:none;stroke-width:1px;stroke-linecap:butt;stroke-linejoin:miter;stroke-opacity:1;font-family:Arial"
     d="M 4.0151188,14.054174 L 6.590559,13.770118 C 6.6536791,14.29405 6.8177998,14.682259 7.0829224,14.934748 C 7.348037,15.187246 7.6983722,15.313494 8.1339294,15.313493 C 8.6830983,15.313494 9.150212,15.060998 9.5352718,14.55601 C 9.9203182,14.051026 10.166499,13.003173 10.273816,11.412457 C 9.6047012,12.188881 8.7683152,12.577091 7.7646567,12.577086 C 6.6726158,12.577091 5.7304983,12.15574 4.9383002,11.313035 C 4.1460994,10.470344 3.7499995,9.3735732 3.75,8.0227218 C 3.7499995,6.6150776 4.1681925,5.4804333 5.0045802,4.6187853 C 5.8409641,3.7571628 6.9061729,3.3263449 8.2002092,3.326331 C 9.6078572,3.3263449 10.763016,3.8707849 11.665691,4.9596524 C 12.568345,6.0485446 13.019678,7.8396732 13.019693,10.333044 C 13.019678,12.870617 12.549409,14.701196 11.608881,15.824794 C 10.668333,16.948393 9.4437361,17.510189 7.9350903,17.51019 C 6.8493619,17.510189 5.9719455,17.221401 5.302839,16.643819 C 4.6337277,16.066238 4.2044884,15.203025 4.0151188,14.054174 L 4.0151188,14.054174 z M 10.037104,8.2404981 C 10.037097,7.3820279 9.8398362,6.7160754 9.4453206,6.2426382 C 9.0507927,5.7692233 8.5947258,5.5325102 8.0771183,5.5324984 C 7.5847501,5.5325102 7.1760258,5.7266148 6.8509436,6.114813 C 6.5258537,6.5030335 6.3633109,7.1390025 6.3633143,8.0227218 C 6.3633109,8.9190843 6.5400564,9.5771464 6.8935519,9.9969101 C 7.2470398,10.416688 7.6889039,10.626577 8.219146,10.626567 C 8.7304411,10.626577 9.1612589,10.424579 9.5116004,10.020581 C 9.8619292,9.6165987 10.037097,9.0232381 10.037104,8.2404981 L 10.037104,8.2404981 z "
     id="text3478" />
  <path
     style="font-size:11px;font-style:normal;font-weight:bold;text-align:center;text-anchor:middle;fill:#000000;fill-opacity:1;stroke:none;stroke-width:1px;stroke-linecap:butt;stroke-linejoin:miter;stroke-opacity:1;font-family:Arial Narrow"
     d="M 16.589197,15.420163 L 16.589197,7.4914528 L 14.476726,7.4914528 L 14.476726,5.8770685 L 20.127741,5.8770685 L 20.127741,7.4914528 L 18.021185,7.4914528 L 18.021185,15.420163 L 16.589197,15.420163 z M 20.784563,10.707201 C 20.784563,9.5701954 20.937427,8.633897 21.243155,7.8983036 C 21.548881,7.1627254 21.948294,6.6148335 22.441405,6.2546261 C 22.934508,5.894437 23.532158,5.7143379 24.234344,5.714328 C 25.252117,5.7143379 26.081522,6.141802 26.722567,6.9967221 C 27.363602,7.851659 27.684125,9.0689556 27.684131,10.648617 C 27.684125,12.245648 27.344863,13.493319 26.666352,14.391643 C 26.070675,15.185818 25.26198,15.582907 24.240264,15.582907 C 23.210649,15.582907 22.398007,15.190156 21.802336,14.404666 C 21.123818,13.506336 20.784563,12.273851 20.784563,10.707201 L 20.784563,10.707201 z M 22.263884,10.642106 C 22.263883,11.740068 22.453236,12.563532 22.831947,13.112506 C 23.210649,13.661484 23.680087,13.935972 24.240264,13.935971 C 24.804375,13.935972 25.271842,13.663653 25.64266,13.119012 C 26.013473,12.574381 26.198879,11.737893 26.19889,10.609558 C 26.198879,9.5029294 26.018407,8.6848888 25.657456,8.1554333 C 25.296495,7.6259925 24.8241,7.3612686 24.240264,7.3612606 C 23.656421,7.3612686 23.181063,7.6281623 22.814195,8.1619432 C 22.447318,8.695738 22.263883,9.5224585 22.263884,10.642106 L 22.263884,10.642106 z M 30.412003,15.420163 L 30.412003,7.4914528 L 28.299528,7.4914528 L 28.299528,5.8770685 L 33.950548,5.8770685 L 33.950548,7.4914528 L 31.843989,7.4914528 L 31.843989,15.420163 L 30.412003,15.420163 z "
     id="text3518" />
</svg>
