<?xml version="1.0" encoding="UTF-8" standalone="no"?>
<!-- Created with Inkscape (http://www.inkscape.org/) -->
<svg
   xmlns:dc="http://purl.org/dc/elements/1.1/"
   xmlns:cc="http://web.resource.org/cc/"
   xmlns:rdf="http://www.w3.org/1999/02/22-rdf-syntax-ns#"
   xmlns:svg="http://www.w3.org/2000/svg"
   xmlns="http://www.w3.org/2000/svg"
   xmlns:sodipodi="http://sodipodi.sourceforge.net/DTD/sodipodi-0.dtd"
   xmlns:inkscape="http://www.inkscape.org/namespaces/inkscape"
   version="1.0"
   width="38.454727"
   height="20.73819"
   id="svg2"
   sodipodi:version="0.32"
   inkscape:version="0.45pre1"
   sodipodi:docname="key-3.svg"
   inkscape:output_extension="org.inkscape.output.svg.inkscape"
   sodipodi:docbase="E:\lenny\workspace\radiodoc\uv-5r\assets\images"
   sodipodi:modified="true">
  <metadata
     id="metadata10">
    <rdf:RDF>
      <cc:Work
         rdf:about="">
        <dc:format>image/svg+xml</dc:format>
        <dc:type
           rdf:resource="http://purl.org/dc/dcmitype/StillImage" />
      </cc:Work>
    </rdf:RDF>
  </metadata>
  <sodipodi:namedview
     inkscape:window-height="583"
     inkscape:window-width="734"
     inkscape:pageshadow="2"
     inkscape:pageopacity="0.0"
     guidetolerance="10.0"
     gridtolerance="10.0"
     objecttolerance="10.0"
     borderopacity="1.0"
     bordercolor="#666666"
     pagecolor="#ffffff"
     id="base"
     inkscape:zoom="16.928998"
     inkscape:cx="19.227364"
     inkscape:cy="10.369095"
     inkscape:window-x="138"
     inkscape:window-y="138"
     inkscape:current-layer="svg2" />
  <defs
     id="defs4" />
  <path
     d="M 5.404448,0.63308889 C 2.726438,0.90558889 0.62501,3.1965889 0.625,5.9486889 L 0.625,14.797589 C 0.625,17.733089 3.002743,20.113189 5.935497,20.113189 L 32.519228,20.113189 C 35.451978,20.113189 37.829728,17.733089 37.829728,14.797589 L 37.829728,5.9486889 C 37.829728,3.0130889 35.451978,0.63308889 32.519228,0.63308889 L 5.935497,0.63308889 C 5.752197,0.63308889 5.58298,0.61488889 5.404448,0.63308889 z "
     style="fill:none;fill-opacity:1;fill-rule:nonzero;stroke:#000000;stroke-width:1.25;stroke-miterlimit:4;stroke-dasharray:none;stroke-dashoffset:0;stroke-opacity:1"
     id="path3434" />
  <path
     style="font-size:16px;font-style:normal;font-weight:bold;text-align:center;text-anchor:middle;fill:#000000;fill-opacity:1;stroke:none;stroke-width:1px;stroke-linecap:butt;stroke-linejoin:miter;stroke-opacity:1;font-family:Arial"
     d="M 3.75,13.403101 L 6.1327307,13.114018 C 6.2086481,13.721385 6.4130485,14.185664 6.7459337,14.506864 C 7.0788113,14.828068 7.4817727,14.988667 7.9548193,14.988665 C 8.4628964,14.988667 8.8906776,14.795947 9.2381652,14.410505 C 9.5856393,14.025065 9.7593819,13.505303 9.7593873,12.851216 C 9.7593819,12.232179 9.5929414,11.741618 9.2600641,11.379528 C 8.9271777,11.017454 8.5212963,10.836416 8.0424196,10.836406 C 7.7270535,10.836416 7.3503723,10.897732 6.9123745,11.020369 L 7.1839357,9.0143199 C 7.8496939,9.0318477 8.3577756,8.8873073 8.7081825,8.5806982 C 9.0585784,8.2741051 9.2337787,7.8667637 9.2337852,7.3586725 C 9.2337787,6.9265203 9.1052982,6.5819592 8.8483431,6.3249878 C 8.5913768,6.0680373 8.2497353,5.9395568 7.8234185,5.939546 C 7.4029322,5.9395568 7.0437711,6.0855572 6.7459337,6.3775479 C 6.4480888,6.6695591 6.267048,7.0958808 6.2028113,7.6565137 L 3.9339609,7.2710717 C 4.0916404,6.4943588 4.3296213,5.8738564 4.6479039,5.4095637 C 4.9661834,4.9452929 5.410025,4.5802921 5.9794302,4.3145585 C 6.5488293,4.0488502 7.1868516,3.9159893 7.8934989,3.9159768 C 9.1023789,3.9159893 10.071823,4.3014309 10.801835,5.072302 C 11.403345,5.7030356 11.704109,6.4155184 11.704116,7.2097519 C 11.704109,8.3368853 11.087983,9.2362486 9.8557494,9.9078443 C 10.591586,10.065529 11.179968,10.418852 11.620893,10.967809 C 12.06181,11.516777 12.282273,12.17962 12.28228,12.956336 C 12.282273,14.083465 11.870548,15.044147 11.047113,15.838392 C 10.223665,16.632634 9.1987381,17.029756 7.972339,17.029756 C 6.8101704,17.029756 5.846567,16.695414 5.0815263,16.026733 C 4.3164814,15.35805 3.8726398,14.483507 3.75,13.403101 L 3.75,13.403101 z "
     id="text3486" />
  <path
     style="font-size:11px;font-style:normal;font-weight:bold;text-align:center;text-anchor:middle;fill:#000000;fill-opacity:1;stroke:none;stroke-width:1px;stroke-linecap:butt;stroke-linejoin:miter;stroke-opacity:1;font-family:Arial Narrow"
     d="M 12.849904,12.232263 L 14.01167,12.063635 C 14.142385,13.191855 14.570488,13.755964 15.295978,13.755963 C 15.655453,13.755964 15.938131,13.640533 16.144018,13.409667 C 16.349894,13.178805 16.452839,12.892737 16.452843,12.551459 C 16.452839,12.350708 16.416889,12.180073 16.345,12.039544 C 16.2731,11.899021 16.163624,11.783589 16.016568,11.693248 C 15.869505,11.602913 15.513296,11.451347 14.94794,11.238547 C 14.441404,11.049843 14.070489,10.84508 13.835196,10.624249 C 13.599906,10.403428 13.412813,10.113344 13.273924,9.7539943 C 13.135037,9.3946563 13.065589,9.0082112 13.065589,8.5946584 C 13.065589,8.1128631 13.154641,7.6792414 13.332748,7.293792 C 13.510849,6.9083585 13.756766,6.6172703 14.07049,6.4205257 C 14.384215,6.2237988 14.771468,6.1254307 15.232256,6.1254221 C 15.925059,6.1254307 16.465908,6.3562944 16.8548,6.8180127 C 17.243685,7.2797473 17.449565,7.9402174 17.472448,8.7994243 L 16.281272,8.8777167 C 16.22898,8.4039513 16.116238,8.0727129 15.943038,7.8840001 C 15.769832,7.6953015 15.523102,7.6009487 15.202841,7.6009412 C 14.88258,7.6009487 14.635848,7.6832564 14.46265,7.8478647 C 14.289445,8.0124878 14.202843,8.2172535 14.202844,8.4621627 C 14.202843,8.7030699 14.281277,8.9058283 14.438137,9.0704379 C 14.594997,9.2350592 14.956111,9.4157348 15.521472,9.6124653 C 16.119505,9.8252663 16.551693,10.049103 16.818036,10.283977 C 17.08437,10.51886 17.287802,10.821993 17.428329,11.19338 C 17.568846,11.564772 17.639107,12.015457 17.639116,12.545436 C 17.639107,13.312308 17.447115,13.956715 17.063134,14.478665 C 16.679144,15.000618 16.078654,15.261597 15.261666,15.261597 C 13.817224,15.261597 13.013306,14.25182 12.849904,12.232263 L 12.849904,12.232263 z M 23.952829,15.10501 L 22.658715,15.10501 L 22.144011,13.099509 L 19.791073,13.099509 L 19.305778,15.10501 L 18.041074,15.10501 L 20.335186,6.2759851 L 21.59499,6.2759851 L 23.952829,15.10501 z M 21.761656,11.611943 L 20.952834,8.3356895 L 20.153819,11.611943 L 21.761656,11.611943 z M 26.08518,15.10501 L 23.98224,6.2759851 L 25.271459,6.2759851 L 26.761652,12.810427 L 28.202824,6.2759851 L 29.46753,6.2759851 L 27.359687,15.10501 L 26.08518,15.10501 z M 30.07537,15.10501 L 30.07537,6.2759851 L 34.447915,6.2759851 L 34.447915,7.7695719 L 31.261644,7.7695719 L 31.261644,9.7268933 L 34.222424,9.7268933 L 34.222424,11.214457 L 31.261644,11.214457 L 31.261644,13.617444 L 34.555758,13.617444 L 34.555758,15.10501 L 30.07537,15.10501 z "
     id="text3554" />
</svg>
