<?xml version="1.0" encoding="UTF-8" standalone="no"?>
<!-- Created with Inkscape (http://www.inkscape.org/) -->
<svg
   xmlns:dc="http://purl.org/dc/elements/1.1/"
   xmlns:cc="http://web.resource.org/cc/"
   xmlns:rdf="http://www.w3.org/1999/02/22-rdf-syntax-ns#"
   xmlns:svg="http://www.w3.org/2000/svg"
   xmlns="http://www.w3.org/2000/svg"
   xmlns:sodipodi="http://sodipodi.sourceforge.net/DTD/sodipodi-0.dtd"
   xmlns:inkscape="http://www.inkscape.org/namespaces/inkscape"
   version="1.0"
   width="38.454731"
   height="20.73819"
   id="svg2"
   sodipodi:version="0.32"
   inkscape:version="0.45pre1"
   sodipodi:docname="key-0.svg"
   inkscape:output_extension="org.inkscape.output.svg.inkscape"
   sodipodi:docbase="E:\lenny\workspace\radiodoc\uv-5r\assets\images"
   sodipodi:modified="true">
  <metadata
     id="metadata10">
    <rdf:RDF>
      <cc:Work
         rdf:about="">
        <dc:format>image/svg+xml</dc:format>
        <dc:type
           rdf:resource="http://purl.org/dc/dcmitype/StillImage" />
      </cc:Work>
    </rdf:RDF>
  </metadata>
  <sodipodi:namedview
     inkscape:window-height="583"
     inkscape:window-width="734"
     inkscape:pageshadow="2"
     inkscape:pageopacity="0.0"
     guidetolerance="10.0"
     gridtolerance="10.0"
     objecttolerance="10.0"
     borderopacity="1.0"
     bordercolor="#666666"
     pagecolor="#ffffff"
     id="base"
     inkscape:zoom="16.928996"
     inkscape:cx="19.227365"
     inkscape:cy="10.369095"
     inkscape:window-x="92"
     inkscape:window-y="92"
     inkscape:current-layer="svg2" />
  <defs
     id="defs4" />
  <path
     d="M 5.40445,0.63308889 C 2.72644,0.90558889 0.62501,3.1965889 0.625,5.9486889 L 0.625,14.797589 C 0.625,17.733089 3.00275,20.113189 5.9355,20.113189 L 32.51923,20.113189 C 35.45198,20.113189 37.82973,17.733089 37.82973,14.797589 L 37.82973,5.9486889 C 37.82973,3.0130889 35.45198,0.63308889 32.51923,0.63308889 L 5.9355,0.63308889 C 5.7522,0.63308889 5.58298,0.61488889 5.40445,0.63308889 z "
     style="fill:none;fill-opacity:1;fill-rule:nonzero;stroke:#000000;stroke-width:1.25;stroke-miterlimit:4;stroke-dasharray:none;stroke-dashoffset:0;stroke-opacity:1"
     id="path3428" />
  <path
     style="font-size:16px;font-style:normal;font-weight:bold;text-align:center;text-anchor:middle;fill:#000000;fill-opacity:1;stroke:none;stroke-width:1px;stroke-linecap:butt;stroke-linejoin:miter;stroke-opacity:1;font-family:Arial"
     d="M 6.9612752,3.1483763 C 8.3060261,3.14839 9.3572101,3.6282091 10.114823,4.5878347 C 11.017635,5.7242606 11.469041,7.6088127 11.469056,10.241497 C 11.469041,12.86788 11.014477,14.75559 10.105358,15.90463 C 9.3540531,16.85164 8.3060261,17.325148 6.9612752,17.325148 C 5.6102008,17.325148 4.5211377,16.805868 3.6940832,15.767314 C 2.8670248,14.728755 2.4534967,12.877353 2.4534973,10.213086 C 2.4534967,7.5993425 2.9080621,5.7179472 3.8171947,4.5688945 C 4.5684885,3.6218957 5.6165143,3.14839 6.9612752,3.1483763 L 6.9612752,3.1483763 z M 6.9612752,5.3549145 C 6.6392862,5.3549261 6.3520262,5.457519 6.0994938,5.6626934 C 5.8469533,5.8678906 5.6512375,6.2356466 5.5123464,6.7659625 C 5.3292535,7.4541341 5.2377094,8.6126446 5.237713,10.241497 C 5.2377094,11.87036 5.3197834,12.989416 5.4839359,13.598655 C 5.6480807,14.2079 5.8548447,14.613541 6.1042292,14.815564 C 6.3536043,15.0176 6.6392862,15.118609 6.9612752,15.118607 C 7.2832534,15.118609 7.5705134,15.016018 7.823056,14.810832 C 8.0755864,14.605644 8.2713021,14.237892 8.4102031,13.707562 C 8.5932841,13.025716 8.6848291,11.87036 8.6848381,10.241497 C 8.6848291,8.6126446 8.6027561,7.4935932 8.4386151,6.884339 C 8.2744591,6.2751057 8.0676945,5.8678906 7.8183213,5.6626934 C 7.5689354,5.457519 7.2832534,5.3549261 6.9612752,5.3549145 L 6.9612752,5.3549145 z "
     id="text3498" />
  <path
     style="font-size:11px;font-style:normal;font-weight:bold;text-align:center;text-anchor:middle;fill:#000000;fill-opacity:1;stroke:none;stroke-width:1px;stroke-linecap:butt;stroke-linejoin:miter;stroke-opacity:1;font-family:Arial Narrow"
     d="M 14.366316,12.1387 L 15.909352,11.956404 C 16.082974,13.176076 16.651572,13.785911 17.615162,13.78591 C 18.092608,13.785911 18.468059,13.661123 18.741516,13.411543 C 19.014958,13.161974 19.151681,12.852712 19.151685,12.483771 C 19.151681,12.266752 19.103938,12.08228 19.008449,11.93036 C 18.912959,11.778446 18.767548,11.653657 18.572237,11.555993 C 18.37691,11.458334 17.903798,11.294484 17.152898,11.064434 C 16.480124,10.86044 15.987481,10.639074 15.674968,10.400342 C 15.362452,10.161624 15.113966,9.8480246 14.929494,9.4595463 C 14.74502,9.0710803 14.652788,8.6533099 14.652788,8.2062347 C 14.652788,7.685386 14.771063,7.2166151 15.007624,6.7999218 C 15.244175,6.3832454 15.5708,6.0685615 15.987482,5.8558692 C 16.404169,5.6431958 16.918511,5.5368541 17.530519,5.5368445 C 18.450696,5.5368541 19.169043,5.786431 19.685566,6.285576 C 20.202078,6.7847385 20.475525,7.4987454 20.505917,8.4275991 L 18.923813,8.512238 C 18.85436,8.0000697 18.704612,7.6419809 18.474575,7.4379713 C 18.244524,7.2339773 17.916816,7.1319762 17.491457,7.1319681 C 17.066084,7.1319762 16.738383,7.2209555 16.508338,7.3989071 C 16.278289,7.576874 16.163273,7.798238 16.163275,8.0629994 C 16.163273,8.3234345 16.267439,8.5426284 16.475789,8.7205809 C 16.684128,8.8985465 17.163745,9.0938675 17.914651,9.3065445 C 18.708956,9.5365952 19.282982,9.7785759 19.636738,10.032489 C 19.990478,10.286412 20.260671,10.614115 20.447318,11.015607 C 20.633953,11.417104 20.727271,11.904319 20.727277,12.477259 C 20.727271,13.306294 20.472271,14.002934 19.962271,14.567193 C 19.452261,15.131455 18.654701,15.413589 17.569587,15.41359 C 15.651091,15.413589 14.583338,14.321961 14.366316,12.1387 L 14.366316,12.1387 z M 28.357826,14.03332 C 28.744121,14.367535 29.165147,14.636644 29.620907,14.840646 L 29.041455,16.201385 C 28.807058,16.114573 28.577017,15.997381 28.35132,15.849809 C 28.299228,15.81942 27.945476,15.535126 27.290072,14.996901 C 26.773549,15.270354 26.183244,15.407076 25.519158,15.407077 C 24.390632,15.407076 23.478048,14.984967 22.78141,14.140747 C 22.084761,13.296529 21.736438,12.073598 21.736438,10.47196 C 21.736438,8.8659932 22.08693,7.6419809 22.787915,6.7999218 C 23.488905,5.9578795 24.407994,5.5368541 25.545201,5.5368445 C 26.669381,5.5368541 27.579791,5.9589644 28.276443,6.8031773 C 28.973083,7.6474064 29.321407,8.8703337 29.321413,10.47196 C 29.321407,11.24891 29.244361,11.917345 29.090283,12.477259 C 28.93619,13.037185 28.692041,13.555872 28.357826,14.03332 L 28.357826,14.03332 z M 27.088243,12.946028 C 27.491902,12.381776 27.69373,11.559256 27.693735,10.478473 C 27.69373,9.3586363 27.491902,8.5296066 27.088243,7.9913814 C 26.684569,7.4531706 26.165889,7.1840617 25.532183,7.1840536 C 24.898469,7.1840617 24.378698,7.4531706 23.972869,7.9913814 C 23.567028,8.5296066 23.364116,9.3564657 23.364118,10.47196 C 23.364116,11.60483 23.567028,12.443621 23.972869,12.988349 C 24.378698,13.533081 24.883275,13.805443 25.486608,13.805441 C 25.712307,13.805443 25.927161,13.759868 26.131168,13.668718 C 25.801287,13.408292 25.475749,13.208633 25.154562,13.069733 L 25.597288,11.969422 C 26.118139,12.186453 26.615126,12.511986 27.088243,12.946028 L 27.088243,12.946028 z M 30.617047,15.24431 L 30.617047,5.7777407 L 32.192639,5.7777407 L 32.192639,13.636162 L 36.125106,13.636162 L 36.125106,15.24431 L 30.617047,15.24431 z "
     id="text3542" />
</svg>
