<?xml version="1.0" encoding="UTF-8" standalone="no"?>
<!-- Created with Inkscape (http://www.inkscape.org/) -->
<svg
   xmlns:dc="http://purl.org/dc/elements/1.1/"
   xmlns:cc="http://web.resource.org/cc/"
   xmlns:rdf="http://www.w3.org/1999/02/22-rdf-syntax-ns#"
   xmlns:svg="http://www.w3.org/2000/svg"
   xmlns="http://www.w3.org/2000/svg"
   xmlns:sodipodi="http://sodipodi.sourceforge.net/DTD/sodipodi-0.dtd"
   xmlns:inkscape="http://www.inkscape.org/namespaces/inkscape"
   version="1.0"
   width="38.454731"
   height="20.73819"
   id="svg2"
   sodipodi:version="0.32"
   inkscape:version="0.45pre1"
   sodipodi:docname="key-0.svg"
   inkscape:output_extension="org.inkscape.output.svg.inkscape"
   sodipodi:docbase="E:\lenny\workspace\radiodoc\uv-5r\assets\images"
   sodipodi:modified="true">
  <metadata
     id="metadata10">
    <rdf:RDF>
      <cc:Work
         rdf:about="">
        <dc:format>image/svg+xml</dc:format>
        <dc:type
           rdf:resource="http://purl.org/dc/dcmitype/StillImage" />
      </cc:Work>
    </rdf:RDF>
  </metadata>
  <sodipodi:namedview
     inkscape:window-height="583"
     inkscape:window-width="734"
     inkscape:pageshadow="2"
     inkscape:pageopacity="0.0"
     guidetolerance="10.0"
     gridtolerance="10.0"
     objecttolerance="10.0"
     borderopacity="1.0"
     bordercolor="#666666"
     pagecolor="#ffffff"
     id="base"
     inkscape:zoom="16.928996"
     inkscape:cx="19.227365"
     inkscape:cy="10.369095"
     inkscape:window-x="92"
     inkscape:window-y="92"
     inkscape:current-layer="svg2" />
  <defs
     id="defs4" />
  <path
     d="M 5.40445,0.63308889 C 2.72644,0.90558889 0.62501,3.1965889 0.625,5.9486889 L 0.625,14.797589 C 0.625,17.733089 3.00275,20.113189 5.9355,20.113189 L 32.51923,20.113189 C 35.45198,20.113189 37.82973,17.733089 37.82973,14.797589 L 37.82973,5.9486889 C 37.82973,3.0130889 35.45198,0.63308889 32.51923,0.63308889 L 5.9355,0.63308889 C 5.7522,0.63308889 5.58298,0.61488889 5.40445,0.63308889 z "
     style="fill:none;fill-opacity:1;fill-rule:nonzero;stroke:#000000;stroke-width:1.25;stroke-miterlimit:4;stroke-dasharray:none;stroke-dashoffset:0;stroke-opacity:1"
     id="path3428" />
  <path
     style="font-size:16px;font-style:normal;font-weight:bold;text-align:center;text-anchor:middle;fill:#000000;fill-opacity:1;stroke:none;stroke-width:1px;stroke-linecap:butt;stroke-linejoin:miter;stroke-opacity:1;font-family:Arial"
     d="M 8.2608206,3.1483763 C 9.6055715,3.14839 10.656756,3.6282091 11.414369,4.5878347 C 12.317181,5.7242606 12.768587,7.6088127 12.768602,10.241497 C 12.768587,12.86788 12.314023,14.75559 11.404904,15.90463 C 10.653599,16.85164 9.6055715,17.325148 8.2608206,17.325148 C 6.9097462,17.325148 5.8206831,16.805868 4.9936286,15.767314 C 4.1665702,14.728755 3.7530421,12.877353 3.7530427,10.213086 C 3.7530421,7.5993425 4.2076075,5.7179472 5.1167401,4.5688945 C 5.8680339,3.6218957 6.9160597,3.14839 8.2608206,3.1483763 L 8.2608206,3.1483763 z M 8.2608206,5.3549145 C 7.9388316,5.3549261 7.6515716,5.457519 7.3990392,5.6626934 C 7.1464987,5.8678906 6.9507829,6.2356466 6.8118918,6.7659625 C 6.6287989,7.4541341 6.5372548,8.6126446 6.5372584,10.241497 C 6.5372548,11.87036 6.6193288,12.989416 6.7834813,13.598655 C 6.9476261,14.2079 7.1543901,14.613541 7.4037746,14.815564 C 7.6531497,15.0176 7.9388316,15.118609 8.2608206,15.118607 C 8.5827988,15.118609 8.8700588,15.016018 9.1226014,14.810832 C 9.3751318,14.605644 9.5708475,14.237892 9.7097485,13.707562 C 9.8928295,13.025716 9.9843745,11.87036 9.9843835,10.241497 C 9.9843745,8.6126446 9.9023015,7.4935932 9.7381605,6.884339 C 9.5740045,6.2751057 9.3672399,5.8678906 9.1178667,5.6626934 C 8.8684808,5.457519 8.5827988,5.3549261 8.2608206,5.3549145 L 8.2608206,5.3549145 z "
     id="text3498" />
  <path
     style="font-size:11px;font-style:normal;font-weight:bold;text-align:center;text-anchor:middle;fill:#000000;fill-opacity:1;stroke:none;stroke-width:1px;stroke-linecap:butt;stroke-linejoin:miter;stroke-opacity:1;font-family:Arial Narrow"
     d="M 13.480262,12.02056 L 14.943707,11.838264 C 15.108373,13.057936 15.647643,13.667771 16.56153,13.66777 C 17.014349,13.667771 17.370434,13.542983 17.629786,13.293403 C 17.889124,13.043834 18.018794,12.734572 18.018798,12.365631 C 18.018794,12.148612 17.973514,11.96414 17.88295,11.81222 C 17.792386,11.660306 17.654475,11.535517 17.469238,11.437853 C 17.283987,11.340194 16.835278,11.176344 16.12311,10.946294 C 15.485038,10.7423 15.017806,10.520934 14.721413,10.282202 C 14.425017,10.043484 14.189348,9.7298841 14.014391,9.3414058 C 13.839432,8.9529398 13.751958,8.5351694 13.751958,8.0880942 C 13.751958,7.5672455 13.864132,7.0984746 14.088491,6.6817813 C 14.31284,6.2651049 14.622618,5.950421 15.017807,5.7377287 C 15.413001,5.5250553 15.900813,5.4187136 16.481253,5.418704 C 17.353967,5.4187136 18.035261,5.6682905 18.525141,6.1674355 C 19.015011,6.666598 19.274353,7.3806049 19.303178,8.3094586 L 17.80268,8.3940975 C 17.736809,7.8819292 17.594785,7.5238404 17.376614,7.3198308 C 17.158429,7.1158368 16.847625,7.0138357 16.444206,7.0138276 C 16.040774,7.0138357 15.729976,7.102815 15.511797,7.2807666 C 15.293614,7.4587335 15.184531,7.6800975 15.184533,7.9448589 C 15.184531,8.205294 15.283324,8.4244879 15.480927,8.6024404 C 15.67852,8.780406 16.133398,8.975727 16.845571,9.188404 C 17.598905,9.4184547 18.143323,9.6604354 18.478832,9.9143485 C 18.814326,10.168272 19.070582,10.495975 19.247601,10.897467 C 19.42461,11.298964 19.513114,11.786179 19.51312,12.359119 C 19.513114,13.188154 19.271267,13.884794 18.787573,14.449053 C 18.30387,15.013315 17.547449,15.295449 16.518306,15.29545 C 14.698767,15.295449 13.68609,14.203821 13.480262,12.02056 L 13.480262,12.02056 z M 26.750079,13.91518 C 27.116449,14.249395 27.515758,14.518504 27.94801,14.722506 L 27.398446,16.083245 C 27.17614,15.996433 26.957964,15.879241 26.743909,15.731669 C 26.694504,15.70128 26.358999,15.416986 25.737401,14.878761 C 25.247521,15.152214 24.687664,15.288936 24.057832,15.288937 C 22.987516,15.288936 22.122004,14.866827 21.461299,14.022607 C 20.800584,13.178389 20.470228,11.955458 20.470228,10.35382 C 20.470228,8.7478527 20.802641,7.5238404 21.467469,6.6817813 C 22.132301,5.839739 23.003983,5.4187136 24.082532,5.418704 C 25.148726,5.4187136 26.012176,5.8408239 26.672894,6.6850368 C 27.333601,7.5292659 27.663958,8.7521932 27.663964,10.35382 C 27.663958,11.13077 27.590886,11.799205 27.444756,12.359119 C 27.298611,12.919045 27.067055,13.437732 26.750079,13.91518 L 26.750079,13.91518 z M 25.545982,12.827888 C 25.92882,12.263636 26.120238,11.441116 26.120243,10.360333 C 26.120238,9.2404958 25.92882,8.4114661 25.545982,7.8732409 C 25.16313,7.3350301 24.671204,7.0659212 24.070185,7.0659131 C 23.469159,7.0659212 22.976198,7.3350301 22.591302,7.8732409 C 22.206394,8.4114661 22.013949,9.2383252 22.013951,10.35382 C 22.013949,11.48669 22.206394,12.325481 22.591302,12.870209 C 22.976198,13.414941 23.454748,13.687303 24.026961,13.687301 C 24.241018,13.687303 24.44479,13.641728 24.638274,13.550578 C 24.325409,13.290152 24.016662,13.090493 23.712042,12.951593 L 24.131932,11.851282 C 24.625917,12.068313 25.097269,12.393846 25.545982,12.827888 L 25.545982,12.827888 z M 28.892768,15.12617 L 28.892768,5.6596002 L 30.38709,5.6596002 L 30.38709,13.518022 L 34.116717,13.518022 L 34.116717,15.12617 L 28.892768,15.12617 z "
     id="text3542" />
</svg>
