<?xml version="1.0" encoding="UTF-8" standalone="no"?>
<!-- Created with Inkscape (http://www.inkscape.org/) -->
<svg
   xmlns:dc="http://purl.org/dc/elements/1.1/"
   xmlns:cc="http://web.resource.org/cc/"
   xmlns:rdf="http://www.w3.org/1999/02/22-rdf-syntax-ns#"
   xmlns:svg="http://www.w3.org/2000/svg"
   xmlns="http://www.w3.org/2000/svg"
   xmlns:sodipodi="http://sodipodi.sourceforge.net/DTD/sodipodi-0.dtd"
   xmlns:inkscape="http://www.inkscape.org/namespaces/inkscape"
   version="1.0"
   width="38.454731"
   height="20.73819"
   id="svg2"
   sodipodi:version="0.32"
   inkscape:version="0.45pre1"
   sodipodi:docname="key-star.svg"
   inkscape:output_extension="org.inkscape.output.svg.inkscape"
   sodipodi:docbase="E:\lenny\workspace\radiodoc\uv-5r\assets\images"
   sodipodi:modified="true">
  <metadata
     id="metadata10">
    <rdf:RDF>
      <cc:Work
         rdf:about="">
        <dc:format>image/svg+xml</dc:format>
        <dc:type
           rdf:resource="http://purl.org/dc/dcmitype/StillImage" />
      </cc:Work>
    </rdf:RDF>
  </metadata>
  <sodipodi:namedview
     inkscape:window-height="480"
     inkscape:window-width="640"
     inkscape:pageshadow="2"
     inkscape:pageopacity="0.0"
     guidetolerance="10.0"
     gridtolerance="10.0"
     objecttolerance="10.0"
     borderopacity="1.0"
     bordercolor="#666666"
     pagecolor="#ffffff"
     id="base" />
  <defs
     id="defs4" />
  <path
     d="M 5.40445,0.63308889 C 2.72644,0.90558889 0.62501,3.1965889 0.625,5.9486889 L 0.625,14.797589 C 0.625,17.733089 3.00275,20.113189 5.9355,20.113189 L 32.51923,20.113189 C 35.45198,20.113189 37.82973,17.733089 37.82973,14.797589 L 37.82973,5.9486889 C 37.82973,3.0130889 35.45198,0.63308889 32.51923,0.63308889 L 5.9355,0.63308889 C 5.7522,0.63308889 5.58298,0.61488889 5.40445,0.63308889 z "
     style="fill:none;fill-opacity:1;fill-rule:nonzero;stroke:#000000;stroke-width:1.25;stroke-miterlimit:4;stroke-dasharray:none;stroke-dashoffset:0;stroke-opacity:1"
     id="path3436" />
  <path
     style="font-size:26.01399231px;font-style:normal;font-weight:bold;text-align:center;text-anchor:middle;fill:#000000;fill-opacity:1;stroke:none;stroke-width:1px;stroke-linecap:butt;stroke-linejoin:miter;stroke-opacity:1;font-family:Arial"
     d="M 5.1565727,14.603333 L 3.2385489,13.117182 C 3.84825,12.431278 4.4833566,11.775001 5.1438706,11.148349 C 5.4063782,10.89432 5.5715059,10.733426 5.6392542,10.665668 C 5.4275484,10.631809 4.8220801,10.492086 3.8228475,10.246497 C 3.1030583,10.068682 2.6288453,9.9374262 2.4002073,9.8527305 L 3.1496339,7.617153 C 4.2589523,8.0659787 5.2497186,8.5613619 6.1219357,9.1033039 C 5.9186975,7.7230211 5.8170805,6.5967654 5.8170842,5.7245334 L 8.078066,5.7245334 C 8.07806,6.3427228 7.9637408,7.4774466 7.7351081,9.1287082 C 7.9044642,9.0609791 8.2685919,8.8958513 8.8274925,8.6333246 C 9.5896137,8.286149 10.292465,7.9897659 10.936049,7.7441745 L 11.609262,10.043263 C 10.669295,10.254979 9.5811456,10.462448 8.344811,10.665668 L 9.8690684,12.380457 C 10.173912,12.727661 10.415252,13.011342 10.593091,13.231501 L 8.6496625,14.514418 L 6.934873,11.681839 C 6.4183147,12.596406 5.8255486,13.570236 5.1565727,14.603333 L 5.1565727,14.603333 z "
     id="text3502" />
  <path
     style="font-size:11px;font-style:normal;font-weight:bold;text-align:center;text-anchor:middle;fill:#000000;fill-opacity:1;stroke:none;stroke-width:1px;stroke-linecap:butt;stroke-linejoin:miter;stroke-opacity:1;font-family:Arial Narrow"
     d="M 11.744181,12.101418 L 13.01713,11.951028 C 13.160357,12.957214 13.629432,13.460306 14.424356,13.460305 C 14.818233,13.460306 15.127966,13.357361 15.353556,13.151467 C 15.579137,12.945577 15.69193,12.69045 15.691935,12.386086 C 15.69193,12.207052 15.652542,12.054872 15.573771,11.929543 C 15.49499,11.804221 15.375036,11.701275 15.213907,11.620706 C 15.052771,11.540142 14.662472,11.40497 14.043009,11.215188 C 13.487994,11.046897 13.081581,10.86428 12.823771,10.667336 C 12.565957,10.470401 12.36096,10.211693 12.20878,9.8912134 C 12.056599,9.5707432 11.980508,9.2260984 11.980509,8.8572779 C 11.980508,8.4275966 12.078083,8.0408782 12.273233,7.6971216 C 12.468382,7.3533789 12.737832,7.0937763 13.081583,6.918313 C 13.425331,6.7428652 13.849647,6.6551374 14.354532,6.6551294 C 15.113643,6.6551374 15.706253,6.8610292 16.132364,7.2728052 C 16.558466,7.684596 16.784052,8.2736254 16.809122,9.0398951 L 15.503946,9.1097193 C 15.446651,8.6871992 15.323116,8.3917894 15.133341,8.2234888 C 14.943559,8.0552011 14.673214,7.9710541 14.322306,7.9710474 C 13.971392,7.9710541 13.701047,8.044459 13.511271,8.1912622 C 13.32149,8.3380785 13.226601,8.5206955 13.226603,8.7391138 C 13.226601,8.9539633 13.312538,9.1347899 13.484415,9.2815943 C 13.656288,9.4284094 14.051958,9.5895421 14.671427,9.7649927 C 15.326696,9.9547761 15.800247,10.154402 16.092081,10.36387 C 16.383906,10.573346 16.606806,10.843691 16.760782,11.174905 C 16.914748,11.506125 16.991734,11.908062 16.991739,12.380715 C 16.991734,13.064636 16.781366,13.639343 16.360636,14.104836 C 15.939896,14.570331 15.281937,14.803079 14.386759,14.803079 C 12.804075,14.803079 11.923217,13.902526 11.744181,12.101418 L 11.744181,12.101418 z M 22.223185,11.768411 L 23.485392,12.25718 C 23.288446,13.138041 22.960809,13.781677 22.502481,14.188088 C 22.044144,14.594501 21.480179,14.797707 20.810587,14.797708 C 19.969113,14.797707 19.286985,14.473652 18.7642,13.82554 C 18.162637,13.077169 17.861856,12.067404 17.861856,10.796243 C 17.861856,9.4534745 18.164427,8.4025315 18.769571,7.6434107 C 19.295937,6.9845642 20.00313,6.6551374 20.891153,6.6551294 C 21.614456,6.6551374 22.219599,6.9022075 22.706583,7.3963404 C 23.053908,7.7472587 23.30814,8.2682543 23.469278,8.9593287 L 22.180216,9.3353052 C 22.097854,8.9092042 21.934036,8.582463 21.688761,8.3550806 C 21.443477,8.1277108 21.154333,8.0140228 20.821329,8.0140162 C 20.345089,8.0140228 19.95658,8.2217049 19.655802,8.637063 C 19.355019,9.0524332 19.204628,9.7381422 19.20463,10.694192 C 19.204628,11.686057 19.351438,12.39146 19.64506,12.810403 C 19.938677,13.22935 20.320024,13.438822 20.789103,13.438821 C 21.132849,13.438822 21.430049,13.30544 21.680704,13.038674 C 21.931351,12.771912 22.112177,12.348491 22.223185,11.768411 L 22.223185,11.768411 z M 30.419474,14.66343 L 29.001505,14.66343 L 28.43754,12.874856 L 25.859415,12.874856 L 25.327677,14.66343 L 23.941935,14.66343 L 26.455606,6.7894068 L 27.835978,6.7894068 L 30.419474,14.66343 z M 28.018595,11.548196 L 27.132364,8.6263208 L 26.256876,11.548196 L 28.018595,11.548196 z M 31.123087,14.66343 L 31.123087,6.7894068 L 32.390665,6.7894068 L 35.033243,12.047708 L 35.033243,6.7894068 L 36.24711,6.7894068 L 36.24711,14.66343 L 34.936563,14.66343 L 32.336954,9.5286646 L 32.336954,14.66343 L 31.123087,14.66343 z "
     id="text3558" />
</svg>
