<?xml version="1.0" encoding="UTF-8" standalone="no"?>
<!-- Created with Inkscape (http://www.inkscape.org/) -->
<svg
   xmlns:dc="http://purl.org/dc/elements/1.1/"
   xmlns:cc="http://web.resource.org/cc/"
   xmlns:rdf="http://www.w3.org/1999/02/22-rdf-syntax-ns#"
   xmlns:svg="http://www.w3.org/2000/svg"
   xmlns="http://www.w3.org/2000/svg"
   xmlns:sodipodi="http://sodipodi.sourceforge.net/DTD/sodipodi-0.dtd"
   xmlns:inkscape="http://www.inkscape.org/namespaces/inkscape"
   version="1.0"
   width="38.454723"
   height="20.73819"
   id="svg2"
   sodipodi:version="0.32"
   inkscape:version="0.45pre1"
   sodipodi:docname="key-8.svg"
   inkscape:output_extension="org.inkscape.output.svg.inkscape"
   sodipodi:docbase="E:\lenny\workspace\radiodoc\uv-5r\assets\images"
   sodipodi:modified="true">
  <metadata
     id="metadata10">
    <rdf:RDF>
      <cc:Work
         rdf:about="">
        <dc:format>image/svg+xml</dc:format>
        <dc:type
           rdf:resource="http://purl.org/dc/dcmitype/StillImage" />
      </cc:Work>
    </rdf:RDF>
  </metadata>
  <sodipodi:namedview
     inkscape:window-height="583"
     inkscape:window-width="734"
     inkscape:pageshadow="2"
     inkscape:pageopacity="0.0"
     guidetolerance="10.0"
     gridtolerance="10.0"
     objecttolerance="10.0"
     borderopacity="1.0"
     bordercolor="#666666"
     pagecolor="#ffffff"
     id="base"
     inkscape:zoom="16.929"
     inkscape:cx="19.227362"
     inkscape:cy="10.369095"
     inkscape:window-x="92"
     inkscape:window-y="92"
     inkscape:current-layer="svg2" />
  <defs
     id="defs4" />
  <path
     d="M 5.404448,0.63308889 C 2.726438,0.90558889 0.62501,3.1965889 0.625,5.9486889 L 0.625,14.797589 C 0.625,17.733089 3.002743,20.113189 5.935497,20.113189 L 32.519227,20.113189 C 35.451981,20.113189 37.829724,17.733089 37.829724,14.797589 L 37.829724,5.9486889 C 37.829724,3.0130889 35.451981,0.63308889 32.519227,0.63308889 L 5.935497,0.63308889 C 5.752197,0.63308889 5.58298,0.61488889 5.404448,0.63308889 z "
     style="fill:none;fill-opacity:1;fill-rule:nonzero;stroke:#000000;stroke-width:1.25;stroke-miterlimit:4;stroke-dasharray:none;stroke-dashoffset:0;stroke-opacity:1"
     id="path3416" />
  <path
     style="font-size:16px;font-style:normal;font-weight:bold;text-align:center;text-anchor:middle;fill:#000000;fill-opacity:1;stroke:none;stroke-width:1px;stroke-linecap:butt;stroke-linejoin:miter;stroke-opacity:1;font-family:Arial"
     d="M 3.745658,9.9514667 C 3.057609,9.6611064 2.5573555,9.2618503 2.2448962,8.7536976 C 1.9324331,8.2455625 1.7762026,7.6884978 1.7762035,7.0825022 C 1.7762026,6.0472876 2.1375845,5.1919648 2.8603504,4.5165307 C 3.583112,3.8411224 4.6104464,3.5034118 5.9423569,3.5033979 C 7.2616325,3.5034118 8.2858105,3.8411224 9.0148925,4.5165307 C 9.7439645,5.1919648 10.108499,6.0472876 10.108508,7.0825022 C 10.108499,7.7263719 9.9412225,8.2992176 9.6066785,8.8010404 C 9.2721135,9.3028806 8.8018435,9.6863558 8.1958665,9.9514667 C 8.9659645,10.260778 9.5514355,10.712112 9.9522815,11.305468 C 10.353105,11.898833 10.553519,12.583721 10.553533,13.360137 C 10.553519,14.641546 10.144797,15.683083 9.3273555,16.484753 C 8.5098985,17.286424 7.4225975,17.687255 6.0654478,17.687256 C 4.8029729,17.687255 3.7519672,17.355855 2.9124272,16.693061 C 1.9213867,15.910329 1.4258675,14.837232 1.4258681,13.473761 C 1.4258675,12.722592 1.6120814,12.032971 1.9845113,11.404884 C 2.3569385,10.776813 2.9439868,10.292341 3.745658,9.9514667 L 3.745658,9.9514667 z M 4.2948329,7.2718728 C 4.2948292,7.8021201 4.4447472,8.215579 4.7445878,8.5122502 C 5.0444202,8.8089395 5.4436761,8.9572796 5.9423569,8.9572711 C 6.4473393,8.9572796 6.8513296,8.8073614 7.1543285,8.5075159 C 7.4573145,8.2076884 7.6088115,7.7926515 7.6088185,7.2624044 C 7.6088115,6.763739 7.4588935,6.3644831 7.1590635,6.0646353 C 6.85922,5.7648102 6.46312,5.6148918 5.9707624,5.61488 C 5.4594571,5.6148918 5.0523107,5.7663882 4.7493222,6.0693695 C 4.4463252,6.3723736 4.2948292,6.7732076 4.2948329,7.2718728 L 4.2948329,7.2718728 z M 4.0486507,13.218109 C 4.0486472,13.950344 4.2364396,14.521612 4.6120284,14.931913 C 4.9876091,15.342218 5.456301,15.54737 6.0181052,15.547369 C 6.5672738,15.54737 7.0217628,15.350108 7.3815735,14.955582 C 7.7413695,14.561067 7.9212715,13.991374 7.9212805,13.246517 C 7.9212715,12.59635 7.7382135,12.074002 7.3721045,11.679473 C 7.0059821,11.284957 6.5420245,11.087697 5.9802309,11.087689 C 5.3300539,11.087697 4.8455813,11.311786 4.5268118,11.759958 C 4.2080341,12.20814 4.0486472,12.69419 4.0486507,13.218109 L 4.0486507,13.218109 z "
     id="text3462" />
  <path
     style="font-size:11px;font-style:normal;font-weight:bold;text-align:center;text-anchor:middle;fill:#000000;fill-opacity:1;stroke:none;stroke-width:1px;stroke-linecap:butt;stroke-linejoin:miter;stroke-opacity:1;font-family:Arial Narrow"
     d="M 11.301207,6.2912562 L 14.083242,6.2912562 C 14.84285,6.2912648 15.376892,6.3606708 15.685369,6.4994752 C 15.993836,6.6382958 16.254109,6.8831454 16.466191,7.234025 C 16.67826,7.5849194 16.784298,7.9820771 16.784301,8.4254993 C 16.784298,8.8342314 16.693682,9.2034337 16.512461,9.5331081 C 16.331228,9.8627921 16.096018,10.106679 15.806831,10.264766 C 16.219406,10.411294 16.542339,10.661929 16.775627,11.01667 C 17.008904,11.371414 17.125542,11.803274 17.125549,12.312249 C 17.125542,12.929197 16.97709,13.45071 16.680194,13.876784 C 16.383282,14.30286 16.032395,14.566026 15.62753,14.666283 C 15.346046,14.735685 14.69247,14.77039 13.666805,14.77039 L 11.301207,14.77039 L 11.301207,6.2912562 z M 12.700898,7.7025173 L 12.700898,9.6632451 L 13.626315,9.6632451 C 14.181565,9.6632501 14.524738,9.6536101 14.655843,9.6343251 C 14.894906,9.5957721 15.081917,9.4945542 15.216877,9.330673 C 15.351828,9.1668026 15.419308,8.9441244 15.419312,8.6626375 C 15.419308,8.41201 15.364363,8.2086112 15.254472,8.0524408 C 15.144575,7.8962836 15.011544,7.798922 14.855387,7.7603559 C 14.699217,7.7218038 14.250971,7.7025243 13.51064,7.7025173 L 12.700898,7.7025173 z M 12.700898,11.074507 L 12.700898,13.341776 L 14.00227,13.341776 C 14.572935,13.341779 14.939249,13.311894 15.101201,13.252129 C 15.263142,13.192362 15.399064,13.074759 15.508963,12.899314 C 15.61885,12.723869 15.673799,12.501193 15.673803,12.231279 C 15.673799,11.953654 15.614994,11.725193 15.497392,11.545889 C 15.379784,11.366594 15.223621,11.243206 15.028901,11.175726 C 14.834173,11.108251 14.436052,11.07451 13.834538,11.074507 L 12.700898,11.074507 z M 18.317025,14.77039 L 18.317025,6.2912562 L 23.476227,6.2912562 L 23.476227,7.7256527 L 19.716718,7.7256527 L 19.716718,9.6054061 L 23.210168,9.6054061 L 23.210168,11.03402 L 19.716718,11.03402 L 19.716718,13.341776 L 23.603468,13.341776 L 23.603468,14.77039 L 18.317025,14.77039 z M 24.794942,14.77039 L 24.794942,6.2912562 L 29.954145,6.2912562 L 29.954145,7.7256527 L 26.194636,7.7256527 L 26.194636,9.6054061 L 29.68809,9.6054061 L 29.68809,11.03402 L 26.194636,11.03402 L 26.194636,13.341776 L 30.08139,13.341776 L 30.08139,14.77039 L 24.794942,14.77039 z M 31.267079,14.77039 L 31.267079,6.2912562 L 33.522784,6.2912562 C 34.363368,6.2912648 34.912834,6.3317518 35.171183,6.4127173 C 35.583761,6.5438262 35.924042,6.8233789 36.192033,7.2513767 C 36.460014,7.6793891 36.594006,8.2307825 36.594012,8.9055597 C 36.594006,9.5186536 36.478329,10.032453 36.246981,10.446958 C 36.01562,10.861469 35.726427,11.152592 35.379402,11.320318 C 35.032366,11.488054 34.434703,11.571918 33.586407,11.571917 L 32.666773,11.571917 L 32.666773,14.77039 L 31.267079,14.77039 z M 32.666773,7.7256527 L 32.666773,10.131739 L 33.44181,10.131739 C 33.962353,10.131741 34.316133,10.095111 34.503147,10.021843 C 34.690155,9.9485861 34.843429,9.8165211 34.962964,9.6256491 C 35.082492,9.4347879 35.142261,9.2005418 35.142265,8.9229112 C 35.142261,8.6414361 35.080564,8.4042985 34.95718,8.2114969 C 34.833787,8.018708 34.681477,7.8895356 34.500256,7.8239783 C 34.319026,7.7584351 33.935363,7.7256598 33.349267,7.7256527 L 32.666773,7.7256527 z "
     id="text3514" />
</svg>
