<?xml version="1.0" encoding="UTF-8" standalone="no"?>
<!-- Created with Inkscape (http://www.inkscape.org/) -->
<svg
   xmlns:dc="http://purl.org/dc/elements/1.1/"
   xmlns:cc="http://web.resource.org/cc/"
   xmlns:rdf="http://www.w3.org/1999/02/22-rdf-syntax-ns#"
   xmlns:svg="http://www.w3.org/2000/svg"
   xmlns="http://www.w3.org/2000/svg"
   xmlns:sodipodi="http://sodipodi.sourceforge.net/DTD/sodipodi-0.dtd"
   xmlns:inkscape="http://www.inkscape.org/namespaces/inkscape"
   version="1.0"
   width="38.454723"
   height="20.73819"
   id="svg2"
   sodipodi:version="0.32"
   inkscape:version="0.45pre1"
   sodipodi:docname="key-menu.svg"
   inkscape:output_extension="org.inkscape.output.svg.inkscape"
   sodipodi:docbase="E:\lenny\workspace\radiodoc\uv-5r\assets\images"
   sodipodi:modified="true">
  <metadata
     id="metadata8">
    <rdf:RDF>
      <cc:Work
         rdf:about="">
        <dc:format>image/svg+xml</dc:format>
        <dc:type
           rdf:resource="http://purl.org/dc/dcmitype/StillImage" />
      </cc:Work>
    </rdf:RDF>
  </metadata>
  <sodipodi:namedview
     inkscape:window-height="583"
     inkscape:window-width="734"
     inkscape:pageshadow="2"
     inkscape:pageopacity="0.0"
     guidetolerance="10.0"
     gridtolerance="10.0"
     objecttolerance="10.0"
     borderopacity="1.0"
     bordercolor="#666666"
     pagecolor="#ffffff"
     id="base"
     inkscape:zoom="16.929"
     inkscape:cx="19.227362"
     inkscape:cy="10.369095"
     inkscape:window-x="207"
     inkscape:window-y="207"
     inkscape:current-layer="svg2" />
  <defs
     id="defs4" />
  <path
     d="M 5.4044477,0.63308889 C 2.7264376,0.90558889 0.62501,3.1965889 0.625,5.9486889 L 0.625,14.797589 C 0.625,17.733089 3.0027434,20.113189 5.9354975,20.113189 L 32.519227,20.113189 C 35.451981,20.113189 37.829724,17.733089 37.829724,14.797589 L 37.829724,5.9486889 C 37.829724,3.0130889 35.451981,0.63308889 32.519227,0.63308889 L 5.9354975,0.63308889 C 5.7521966,0.63308889 5.5829804,0.61488889 5.4044477,0.63308889 z "
     style="fill:none;fill-opacity:1;fill-rule:nonzero;stroke:#000000;stroke-width:1.25;stroke-miterlimit:4;stroke-dasharray:none;stroke-dashoffset:0;stroke-opacity:1"
     id="path3438" />
  <path
     style="font-size:11px;font-style:normal;font-weight:bold;text-align:center;text-anchor:middle;fill:#000000;fill-opacity:1;stroke:none;stroke-width:1px;stroke-linecap:butt;stroke-linejoin:miter;stroke-opacity:1;font-family:Arial Narrow"
     d="M 3.75,15.795804 L 3.75,5.1350827 L 6.1448558,5.1350827 L 7.5830888,12.407063 L 9.008127,5.1350827 L 11.40958,5.1350827 L 11.40958,15.795804 L 9.9251658,15.795804 L 9.9251658,7.4039403 L 8.3483876,15.795804 L 6.8045962,15.795804 L 5.2410124,7.4039403 L 5.2410124,15.795804 L 3.75,15.795804 z M 13.012746,15.795804 L 13.012746,5.1350827 L 18.89763,5.1350827 L 18.89763,6.9385335 L 14.609321,6.9385335 L 14.609321,9.3019283 L 18.594147,9.3019283 L 18.594147,11.098102 L 14.609321,11.098102 L 14.609321,13.999623 L 19.042771,13.999623 L 19.042771,15.795804 L 13.012746,15.795804 z M 20.415033,15.795804 L 20.415033,5.1350827 L 21.972016,5.1350827 L 25.217936,12.254349 L 25.217936,5.1350827 L 26.708948,5.1350827 L 26.708948,15.795804 L 25.099188,15.795804 L 21.906045,8.8437923 L 21.906045,15.795804 L 20.415033,15.795804 z M 28.378094,5.1350827 L 29.974662,5.1350827 L 29.974662,10.909037 C 29.97466,11.805913 29.994452,12.390094 30.034039,12.661579 C 30.10441,13.131836 30.272643,13.495433 30.538741,13.752376 C 30.804832,14.009322 31.155595,14.137797 31.591028,14.137796 C 31.960478,14.137797 32.261755,14.046894 32.494868,13.865095 C 32.727974,13.683298 32.88741,13.431198 32.973184,13.10881 C 33.058943,12.78642 33.101822,12.09437 33.101832,11.032661 L 33.101832,5.1350827 L 34.705,5.1350827 L 34.705,10.734506 C 34.704988,12.164663 34.635717,13.1985 34.497182,13.836003 C 34.358628,14.473517 34.046349,14.989828 33.560349,15.384937 C 33.074334,15.780048 32.43329,15.977602 31.637207,15.977602 C 30.81033,15.977602 30.164883,15.813983 29.700871,15.486744 C 29.236849,15.159507 28.900383,14.698948 28.691468,14.105068 C 28.482554,13.511189 28.378094,12.416763 28.378094,10.821772 L 28.378094,5.1350827 z "
     id="text3562" />
</svg>
