<?xml version="1.0" encoding="UTF-8" standalone="no"?>
<!-- Created with Inkscape (http://www.inkscape.org/) -->
<svg
   xmlns:dc="http://purl.org/dc/elements/1.1/"
   xmlns:cc="http://web.resource.org/cc/"
   xmlns:rdf="http://www.w3.org/1999/02/22-rdf-syntax-ns#"
   xmlns:svg="http://www.w3.org/2000/svg"
   xmlns="http://www.w3.org/2000/svg"
   xmlns:sodipodi="http://sodipodi.sourceforge.net/DTD/sodipodi-0.dtd"
   xmlns:inkscape="http://www.inkscape.org/namespaces/inkscape"
   version="1.0"
   width="38.454723"
   height="20.73819"
   id="svg2"
   sodipodi:version="0.32"
   inkscape:version="0.45pre1"
   sodipodi:docname="key-2.svg"
   inkscape:output_extension="org.inkscape.output.svg.inkscape"
   sodipodi:docbase="E:\lenny\workspace\radiodoc\uv-5r\assets\images"
   sodipodi:modified="true">
  <metadata
     id="metadata10">
    <rdf:RDF>
      <cc:Work
         rdf:about="">
        <dc:format>image/svg+xml</dc:format>
        <dc:type
           rdf:resource="http://purl.org/dc/dcmitype/StillImage" />
      </cc:Work>
    </rdf:RDF>
  </metadata>
  <sodipodi:namedview
     inkscape:window-height="583"
     inkscape:window-width="734"
     inkscape:pageshadow="2"
     inkscape:pageopacity="0.0"
     guidetolerance="10.0"
     gridtolerance="10.0"
     objecttolerance="10.0"
     borderopacity="1.0"
     bordercolor="#666666"
     pagecolor="#ffffff"
     id="base"
     inkscape:zoom="16.929"
     inkscape:cx="19.227362"
     inkscape:cy="10.369095"
     inkscape:window-x="207"
     inkscape:window-y="207"
     inkscape:current-layer="svg2" />
  <defs
     id="defs4" />
  <path
     d="M 5.404448,0.63308889 C 2.726438,0.90558889 0.62501,3.1965889 0.625,5.9486889 L 0.625,14.797589 C 0.625,17.733089 3.002743,20.113189 5.935497,20.113189 L 32.519227,20.113189 C 35.451981,20.113189 37.829724,17.733089 37.829724,14.797589 L 37.829724,5.9486889 C 37.829724,3.0130889 35.451981,0.63308889 32.519227,0.63308889 L 5.935497,0.63308889 C 5.752197,0.63308889 5.58298,0.61488889 5.404448,0.63308889 z "
     style="fill:none;fill-opacity:1;fill-rule:nonzero;stroke:#000000;stroke-width:1.25;stroke-miterlimit:4;stroke-dasharray:none;stroke-dashoffset:0;stroke-opacity:1"
     id="path3432" />
  <path
     style="font-size:16px;font-style:normal;font-weight:bold;text-align:center;text-anchor:middle;fill:#000000;fill-opacity:1;stroke:none;stroke-width:1px;stroke-linecap:butt;stroke-linejoin:miter;stroke-opacity:1;font-family:Arial"
     d="M 11.765622,14.145609 L 11.765622,16.184671 L 4.0703096,16.184671 C 4.1536425,15.413839 4.4036422,14.683371 4.8203096,13.993265 C 5.2369747,13.303164 6.0598906,12.3878 7.2890596,11.247171 C 8.2786384,10.325302 8.8854086,9.7003029 9.1093721,9.3721714 C 9.4114497,8.9190537 9.5624912,8.4711374 9.5624971,8.0284214 C 9.5624912,7.5388467 9.430981,7.162545 9.1679659,6.8995152 C 8.9049398,6.6365039 8.5416589,6.5049936 8.0781221,6.5049839 C 7.6197849,6.5049936 7.2552019,6.6430143 6.9843721,6.9190464 C 6.7135358,7.1950971 6.5572859,7.6534299 6.5156221,8.2940464 L 4.3281221,8.0752964 C 4.4583297,6.8669724 4.8671834,5.9997858 5.5546846,5.4737339 C 6.2421821,4.9477035 7.1015562,4.6846829 8.1328096,4.6846714 C 9.2630124,4.6846829 10.151032,4.9893701 10.796872,5.5987339 C 11.442698,6.2081189 11.765614,6.9659306 11.765622,7.8721714 C 11.765614,8.3878042 11.673166,8.8786891 11.488278,9.3448277 C 11.303375,9.8109799 11.010406,10.299261 10.609372,10.809671 C 10.34374,11.148218 9.8645743,11.635197 9.1718721,12.270609 C 8.479159,12.906029 8.0403574,13.327903 7.8554659,13.536234 C 7.6705661,13.74457 7.5208266,13.947694 7.4062471,14.145609 L 11.765622,14.145609 z "
     id="text3470" />
  <path
     style="font-size:11px;font-style:normal;font-weight:bold;text-align:center;text-anchor:middle;fill:#000000;fill-opacity:1;stroke:none;stroke-width:1px;stroke-linecap:butt;stroke-linejoin:miter;stroke-opacity:1;font-family:Arial Narrow"
     d="M 16.459471,14.66343 L 16.459471,8.121438 L 14.54199,8.121438 L 14.54199,6.7894068 L 19.671385,6.7894068 L 19.671385,8.121438 L 17.759275,8.121438 L 17.759275,14.66343 L 16.459471,14.66343 z M 19.875486,14.66343 L 22.083006,10.554543 L 20.079588,6.7894068 L 21.604979,6.7894068 L 22.899412,9.3191919 L 24.16699,6.7894068 L 25.676268,6.7894068 L 23.67285,10.613626 L 25.880369,14.66343 L 24.306639,14.66343 L 22.872557,11.940286 L 21.438475,14.66343 L 19.875486,14.66343 z M 26.541014,14.66343 L 26.541014,6.7894068 L 28.63574,6.7894068 C 29.416336,6.7894147 29.926589,6.8270123 30.166502,6.9021997 C 30.549635,7.0239522 30.865634,7.2835548 31.1145,7.6810083 C 31.363355,8.0784759 31.487785,8.5905196 31.487791,9.2171412 C 31.487785,9.786482 31.380364,10.263614 31.165525,10.648538 C 30.950677,11.03347 30.682122,11.303814 30.359861,11.459573 C 30.037592,11.615338 29.482579,11.693218 28.694822,11.693215 L 27.840818,11.693215 L 27.840818,14.66343 L 26.541014,14.66343 z M 27.840818,8.121438 L 27.840818,10.355813 L 28.560545,10.355813 C 29.04394,10.355817 29.372472,10.3218 29.546141,10.253762 C 29.719802,10.185733 29.862136,10.063093 29.973143,9.8858423 C 30.084141,9.7086012 30.139642,9.4910721 30.139647,9.2332544 C 30.139642,8.9718669 30.082351,8.7516523 29.967772,8.5726099 C 29.853184,8.3935797 29.711746,8.2736254 29.543455,8.2127466 C 29.375157,8.1518807 29.018875,8.1214446 28.474607,8.121438 L 27.840818,8.121438 z "
     id="text3550" />
</svg>
