<?xml version="1.0" encoding="UTF-8" standalone="no"?>
<!-- Created with Inkscape (http://www.inkscape.org/) -->
<svg
   xmlns:dc="http://purl.org/dc/elements/1.1/"
   xmlns:cc="http://web.resource.org/cc/"
   xmlns:rdf="http://www.w3.org/1999/02/22-rdf-syntax-ns#"
   xmlns:svg="http://www.w3.org/2000/svg"
   xmlns="http://www.w3.org/2000/svg"
   xmlns:sodipodi="http://sodipodi.sourceforge.net/DTD/sodipodi-0.dtd"
   xmlns:inkscape="http://www.inkscape.org/namespaces/inkscape"
   version="1.0"
   width="38.454731"
   height="20.73819"
   id="svg2"
   sodipodi:version="0.32"
   inkscape:version="0.45pre1"
   sodipodi:docname="key-exit.svg"
   inkscape:output_extension="org.inkscape.output.svg.inkscape"
   sodipodi:docbase="E:\lenny\workspace\radiodoc\uv-5r\assets\images"
   sodipodi:modified="true">
  <metadata
     id="metadata8">
    <rdf:RDF>
      <cc:Work
         rdf:about="">
        <dc:format>image/svg+xml</dc:format>
        <dc:type
           rdf:resource="http://purl.org/dc/dcmitype/StillImage" />
      </cc:Work>
    </rdf:RDF>
  </metadata>
  <sodipodi:namedview
     inkscape:window-height="583"
     inkscape:window-width="734"
     inkscape:pageshadow="2"
     inkscape:pageopacity="0.0"
     guidetolerance="10.0"
     gridtolerance="10.0"
     objecttolerance="10.0"
     borderopacity="1.0"
     bordercolor="#666666"
     pagecolor="#ffffff"
     id="base"
     inkscape:zoom="16.928996"
     inkscape:cx="19.227365"
     inkscape:cy="10.369095"
     inkscape:window-x="161"
     inkscape:window-y="161"
     inkscape:current-layer="svg2" />
  <defs
     id="defs4" />
  <path
     d="M 5.40445,0.63308889 C 2.72644,0.90558889 0.62501,3.1965889 0.625,5.9486889 L 0.625,14.797589 C 0.625,17.733089 3.00275,20.113189 5.9355,20.113189 L 32.51923,20.113189 C 35.45198,20.113189 37.82973,17.733089 37.82973,14.797589 L 37.82973,5.9486889 C 37.82973,3.0130889 35.45198,0.63308889 32.51923,0.63308889 L 5.9355,0.63308889 C 5.7522,0.63308889 5.58298,0.61488889 5.40445,0.63308889 z "
     style="fill:none;fill-opacity:1;fill-rule:nonzero;stroke:#000000;stroke-width:1.25;stroke-miterlimit:4;stroke-dasharray:none;stroke-dashoffset:0;stroke-opacity:1"
     id="path3444" />
  <path
     style="font-size:11px;font-style:normal;font-weight:bold;text-align:center;text-anchor:middle;fill:#000000;fill-opacity:1;stroke:none;stroke-width:1px;stroke-linecap:butt;stroke-linejoin:miter;stroke-opacity:1;font-family:Arial Narrow"
     d="M 3.75,16.98819 L 3.75,3.82069 L 11.471435,3.82069 L 11.471435,6.0482065 L 5.8448278,6.0482065 L 5.8448278,8.9673341 L 11.073245,8.9673341 L 11.073245,11.185865 L 5.8448278,11.185865 L 5.8448278,14.769654 L 11.661874,14.769654 L 11.661874,16.98819 L 3.75,16.98819 z M 12.389004,16.98819 L 15.946755,10.117015 L 12.717945,3.82069 L 15.176341,3.82069 L 17.262512,8.0511722 L 19.305403,3.82069 L 21.737828,3.82069 L 18.509027,10.215821 L 22.06677,16.98819 L 19.530466,16.98819 L 17.219234,12.434357 L 14.907995,16.98819 L 12.389004,16.98819 z M 23.070902,16.98819 L 23.070902,3.82069 L 25.165729,3.82069 L 25.165729,16.98819 L 23.070902,16.98819 z M 29.52852,16.98819 L 29.52852,6.0482065 L 26.438211,6.0482065 L 26.438211,3.82069 L 34.705,3.82069 L 34.705,6.0482065 L 31.623352,6.0482065 L 31.623352,16.98819 L 29.52852,16.98819 z "
     id="text3574" />
</svg>
