<?xml version="1.0" encoding="UTF-8" standalone="no"?>
<!-- Created with Inkscape (http://www.inkscape.org/) -->
<svg
   xmlns:dc="http://purl.org/dc/elements/1.1/"
   xmlns:cc="http://web.resource.org/cc/"
   xmlns:rdf="http://www.w3.org/1999/02/22-rdf-syntax-ns#"
   xmlns:svg="http://www.w3.org/2000/svg"
   xmlns="http://www.w3.org/2000/svg"
   xmlns:sodipodi="http://sodipodi.sourceforge.net/DTD/sodipodi-0.dtd"
   xmlns:inkscape="http://www.inkscape.org/namespaces/inkscape"
   version="1.0"
   width="38.454727"
   height="20.73819"
   id="svg2"
   sodipodi:version="0.32"
   inkscape:version="0.45pre1"
   sodipodi:docname="key-9.svg"
   inkscape:output_extension="org.inkscape.output.svg.inkscape"
   sodipodi:docbase="E:\lenny\workspace\radiodoc\uv-5r\assets\images"
   sodipodi:modified="true">
  <metadata
     id="metadata10">
    <rdf:RDF>
      <cc:Work
         rdf:about="">
        <dc:format>image/svg+xml</dc:format>
        <dc:type
           rdf:resource="http://purl.org/dc/dcmitype/StillImage" />
      </cc:Work>
    </rdf:RDF>
  </metadata>
  <sodipodi:namedview
     inkscape:window-height="480"
     inkscape:window-width="640"
     inkscape:pageshadow="2"
     inkscape:pageopacity="0.0"
     guidetolerance="10.0"
     gridtolerance="10.0"
     objecttolerance="10.0"
     borderopacity="1.0"
     bordercolor="#666666"
     pagecolor="#ffffff"
     id="base" />
  <defs
     id="defs4" />
  <path
     d="M 5.404448,0.63308889 C 2.726438,0.90558889 0.62501,3.1965889 0.625,5.9486889 L 0.625,14.797589 C 0.625,17.733089 3.002743,20.113189 5.935497,20.113189 L 32.519228,20.113189 C 35.451978,20.113189 37.829728,17.733089 37.829728,14.797589 L 37.829728,5.9486889 C 37.829728,3.0130889 35.451978,0.63308889 32.519228,0.63308889 L 5.935497,0.63308889 C 5.752197,0.63308889 5.58298,0.61488889 5.404448,0.63308889 z "
     style="fill:none;fill-opacity:1;fill-rule:nonzero;stroke:#000000;stroke-width:1.25;stroke-miterlimit:4;stroke-dasharray:none;stroke-dashoffset:0;stroke-opacity:1"
     id="path3418" />
  <path
     style="font-size:16px;font-style:normal;font-weight:bold;text-align:center;text-anchor:middle;fill:#000000;fill-opacity:1;stroke:none;stroke-width:1px;stroke-linecap:butt;stroke-linejoin:miter;stroke-opacity:1;font-family:Arial"
     d="M 4.3984318,13.536148 L 6.5234318,13.301773 C 6.5755122,13.734067 6.7109287,14.054379 6.9296818,14.262711 C 7.1484283,14.471046 7.4374905,14.575212 7.7968693,14.575211 C 8.2499897,14.575212 8.635406,14.366879 8.9531193,13.950211 C 9.270822,13.533547 9.4739468,12.668964 9.5624943,11.356461 C 9.0104056,11.99709 8.3203021,12.317402 7.4921818,12.317398 C 6.5911372,12.317402 5.8137942,11.969746 5.1601505,11.274429 C 4.5065039,10.579122 4.1796813,9.6741754 4.1796818,8.5595856 C 4.1796813,7.398136 4.524733,6.461939 5.214838,5.7509918 C 5.90494,5.0400655 6.7838453,4.6845971 7.8515568,4.6845856 C 9.0130098,4.6845971 9.9661338,5.1338154 10.710932,6.0322418 C 11.455716,6.9306886 11.828111,8.4085517 11.828119,10.465836 C 11.828111,12.559589 11.440091,14.070004 10.664057,14.997086 C 9.8880089,15.924169 8.8775932,16.38771 7.6328068,16.387711 C 6.7369704,16.38771 6.0130128,16.149429 5.4609318,15.672867 C 4.9088472,15.196305 4.5546809,14.484066 4.3984318,13.536148 L 4.3984318,13.536148 z M 9.3671818,8.7392731 C 9.3671761,8.0309479 9.2044158,7.4814693 8.8789005,7.0908356 C 8.5533748,6.7002201 8.1770731,6.5049078 7.7499943,6.5048981 C 7.3437406,6.5049078 7.0065014,6.6650638 6.7382755,6.9853668 C 6.4700436,7.3056882 6.3359291,7.8304273 6.3359318,8.5595856 C 6.3359291,9.2991758 6.4817623,9.842144 6.7734318,10.188492 C 7.0650951,10.534852 7.429678,10.708029 7.8671818,10.708023 C 8.2890522,10.708029 8.6445206,10.541362 8.933588,10.208023 C 9.222645,9.874696 9.3671761,9.3851132 9.3671818,8.7392731 L 9.3671818,8.7392731 z "
     id="text3478" />
  <path
     style="font-size:11px;font-style:normal;font-weight:bold;text-align:center;text-anchor:middle;fill:#000000;fill-opacity:1;stroke:none;stroke-width:1px;stroke-linecap:butt;stroke-linejoin:miter;stroke-opacity:1;font-family:Arial Narrow"
     d="M 16.201654,14.663345 L 16.201654,8.1213531 L 14.284174,8.1213531 L 14.284174,6.7893219 L 19.413568,6.7893219 L 19.413568,8.1213531 L 17.501459,8.1213531 L 17.501459,14.663345 L 16.201654,14.663345 z M 20.00976,10.774673 C 20.00976,9.8365272 20.148513,9.0639857 20.42602,8.4570465 C 20.703525,7.8501197 21.066074,7.3980531 21.513666,7.1008453 C 21.961255,6.8036527 22.503735,6.6550526 23.141108,6.6550446 C 24.064931,6.6550526 24.817779,7.007754 25.399652,7.71315 C 25.981515,8.4185599 26.272449,9.4229534 26.272455,10.726334 C 26.272449,12.044045 25.964506,13.073503 25.348627,13.814713 C 24.807932,14.469986 24.073883,14.797623 23.146479,14.797623 C 22.211906,14.797623 21.474276,14.473567 20.933588,13.825455 C 20.317702,13.084245 20.00976,12.067319 20.00976,10.774673 L 20.00976,10.774673 z M 21.352533,10.720963 C 21.352532,11.62689 21.524406,12.306333 21.868158,12.759293 C 22.211906,13.212256 22.638012,13.438737 23.146479,13.438736 C 23.658519,13.438737 24.082835,13.214047 24.419428,12.764664 C 24.756011,12.315285 24.924305,11.6251 24.924311,10.694107 C 24.924305,9.781026 24.760487,9.1060592 24.432856,8.6692047 C 24.105214,8.2323622 23.676423,8.0139379 23.146479,8.0139313 C 22.616528,8.0139379 22.18505,8.2341525 21.852045,8.6745758 C 21.519035,9.115011 21.352532,9.7971393 21.352533,10.720963 L 21.352533,10.720963 z M 28.748529,14.663345 L 28.748529,8.1213531 L 26.831049,8.1213531 L 26.831049,6.7893219 L 31.960443,6.7893219 L 31.960443,8.1213531 L 30.048334,8.1213531 L 30.048334,14.663345 L 28.748529,14.663345 z "
     id="text3518" />
</svg>
