<?xml version="1.0" encoding="UTF-8" standalone="no"?>
<!-- Created with Inkscape (http://www.inkscape.org/) -->
<svg
   xmlns:dc="http://purl.org/dc/elements/1.1/"
   xmlns:cc="http://web.resource.org/cc/"
   xmlns:rdf="http://www.w3.org/1999/02/22-rdf-syntax-ns#"
   xmlns:svg="http://www.w3.org/2000/svg"
   xmlns="http://www.w3.org/2000/svg"
   xmlns:sodipodi="http://sodipodi.sourceforge.net/DTD/sodipodi-0.dtd"
   xmlns:inkscape="http://www.inkscape.org/namespaces/inkscape"
   version="1.0"
   width="38.454731"
   height="20.73819"
   id="svg2"
   sodipodi:version="0.32"
   inkscape:version="0.45pre1"
   sodipodi:docname="key-star.svg"
   inkscape:output_extension="org.inkscape.output.svg.inkscape"
   sodipodi:docbase="E:\lenny\workspace\radiodoc\uv-5r\assets\images"
   sodipodi:modified="true">
  <metadata
     id="metadata10">
    <rdf:RDF>
      <cc:Work
         rdf:about="">
        <dc:format>image/svg+xml</dc:format>
        <dc:type
           rdf:resource="http://purl.org/dc/dcmitype/StillImage" />
      </cc:Work>
    </rdf:RDF>
  </metadata>
  <sodipodi:namedview
     inkscape:window-height="583"
     inkscape:window-width="734"
     inkscape:pageshadow="2"
     inkscape:pageopacity="0.0"
     guidetolerance="10.0"
     gridtolerance="10.0"
     objecttolerance="10.0"
     borderopacity="1.0"
     bordercolor="#666666"
     pagecolor="#ffffff"
     id="base"
     inkscape:zoom="16.928996"
     inkscape:cx="19.227365"
     inkscape:cy="10.369095"
     inkscape:window-x="230"
     inkscape:window-y="230"
     inkscape:current-layer="svg2" />
  <defs
     id="defs4" />
  <path
     d="M 5.40445,0.63308889 C 2.72644,0.90558889 0.62501,3.1965889 0.625,5.9486889 L 0.625,14.797589 C 0.625,17.733089 3.00275,20.113189 5.9355,20.113189 L 32.51923,20.113189 C 35.45198,20.113189 37.82973,17.733089 37.82973,14.797589 L 37.82973,5.9486889 C 37.82973,3.0130889 35.45198,0.63308889 32.51923,0.63308889 L 5.9355,0.63308889 C 5.7522,0.63308889 5.58298,0.61488889 5.40445,0.63308889 z "
     style="fill:none;fill-opacity:1;fill-rule:nonzero;stroke:#000000;stroke-width:1.25;stroke-miterlimit:4;stroke-dasharray:none;stroke-dashoffset:0;stroke-opacity:1"
     id="path3436" />
  <path
     style="font-size:26.01399231px;font-style:normal;font-weight:bold;text-align:center;text-anchor:middle;fill:#000000;fill-opacity:1;stroke:none;stroke-width:1px;stroke-linecap:butt;stroke-linejoin:miter;stroke-opacity:1;font-family:Arial"
     d="M 4.4264275,14.764965 L 2.3588102,13.162903 C 3.016064,12.423504 3.700705,11.716042 4.4127348,11.040515 C 4.6957163,10.766672 4.8737228,10.593231 4.9467551,10.520187 C 4.7185377,10.483688 4.0658467,10.333067 2.9886804,10.068324 C 2.2127522,9.8766399 1.7015536,9.735147 1.4550833,9.6438457 L 2.2629604,7.2339074 C 3.4587985,7.7177387 4.5268383,8.2517586 5.4670827,8.8359686 C 5.2479931,7.3480325 5.1384508,6.1339362 5.1384547,5.1936755 L 7.5757786,5.1936755 C 7.5757722,5.8600798 7.4525369,7.0833049 7.2060723,8.8633542 C 7.388637,8.7903428 7.7811643,8.612336 8.3836556,8.329334 C 9.205217,7.9550809 9.962888,7.6355817 10.656666,7.3708358 L 11.382385,9.8492387 C 10.369107,10.077467 9.196089,10.301118 7.863328,10.520187 L 9.506468,12.368718 C 9.835086,12.743004 10.095251,13.048808 10.28696,13.286139 L 8.191956,14.669116 L 6.3434239,11.615614 C 5.7865773,12.601511 5.1475793,13.651294 4.4264275,14.764965 L 4.4264275,14.764965 z "
     id="text3502" />
  <path
     style="font-size:11px;font-style:normal;font-weight:bold;text-align:center;text-anchor:middle;fill:#000000;fill-opacity:1;stroke:none;stroke-width:1px;stroke-linecap:butt;stroke-linejoin:miter;stroke-opacity:1;font-family:Arial Narrow"
     d="M 11.527827,12.067917 L 12.820271,11.905797 C 12.965691,12.99046 13.441951,13.532789 14.249047,13.532788 C 14.648957,13.532789 14.963432,13.421814 15.192477,13.199862 C 15.421512,12.977915 15.536034,12.702889 15.536039,12.374787 C 15.536034,12.181791 15.496042,12.01774 15.416065,11.882636 C 15.336077,11.74754 15.214286,11.636565 15.05069,11.549713 C 14.887087,11.462864 14.490809,11.317151 13.86186,11.112567 C 13.298345,10.931149 12.885708,10.73429 12.62395,10.521985 C 12.362189,10.309691 12.154053,10.030805 11.99954,9.6853301 C 11.84503,9.3398652 11.767773,8.9683403 11.767774,8.5707541 C 11.767773,8.1075604 11.866842,7.6906805 12.064981,7.3201131 C 12.263119,6.9495607 12.536696,6.6697106 12.88571,6.4805624 C 13.234724,6.2914308 13.665536,6.1968608 14.178154,6.1968522 C 14.94889,6.1968608 15.550576,6.4188107 15.983213,6.8627026 C 16.415839,7.3066105 16.644881,7.9415805 16.670334,8.7676143 L 15.345171,8.8428844 C 15.286999,8.3874105 15.161571,8.0689606 14.96889,7.8875336 C 14.776201,7.7061204 14.501717,7.6154105 14.145434,7.6154032 C 13.789146,7.6154105 13.514662,7.6945406 13.321979,7.8527935 C 13.129292,8.0110606 13.032949,8.2079205 13.032951,8.4433741 C 13.032949,8.6749804 13.120202,8.8699103 13.294712,9.0281646 C 13.469217,9.1864303 13.870945,9.3601303 14.499902,9.5492649 C 15.165206,9.7538502 15.646009,9.9690461 15.942312,10.194851 C 16.238606,10.420665 16.46492,10.712095 16.621253,11.069141 C 16.777578,11.426195 16.855742,11.85948 16.855747,12.368996 C 16.855742,13.106261 16.642154,13.72579 16.21498,14.227589 C 15.787797,14.729389 15.119762,14.98029 14.210875,14.98029 C 12.603953,14.98029 11.709605,14.0095 11.527827,12.067917 L 11.527827,12.067917 z M 22.16731,11.708938 L 23.448846,12.235827 C 23.248885,13.185389 22.91623,13.879225 22.450883,14.317333 C 21.985527,14.755444 21.412925,14.974498 20.733079,14.974499 C 19.878719,14.974498 19.186144,14.625171 18.655353,13.926509 C 18.044578,13.119771 17.73919,12.03125 17.73919,10.660946 C 17.73919,9.2134503 18.046395,8.0805404 18.660806,7.2622131 C 19.195233,6.5519808 19.913255,6.1968608 20.81488,6.1968522 C 21.549259,6.1968608 22.163669,6.4632007 22.658111,6.9958728 C 23.010755,7.3741606 23.26888,7.9357905 23.432485,8.6807642 L 22.123683,9.0860646 C 22.040059,8.6267304 21.873733,8.2745055 21.624702,8.0293888 C 21.37566,7.7842854 21.082088,7.6617305 20.743985,7.6617234 C 20.260452,7.6617305 19.865995,7.8856106 19.560608,8.333364 C 19.25522,8.7811302 19.102525,9.5203202 19.102527,10.550935 C 19.102525,11.62016 19.251583,12.38058 19.549702,12.832198 C 19.847817,13.28382 20.235004,13.50963 20.711267,13.509629 C 21.060277,13.50963 21.362027,13.365845 21.616521,13.078272 C 21.871007,12.790706 22.054601,12.33426 22.16731,11.708938 L 22.16731,11.708938 z M 30.48912,14.82975 L 29.049435,14.82975 L 28.476834,12.901679 L 25.859226,12.901679 L 25.319346,14.82975 L 23.912381,14.82975 L 26.464547,6.3416024 L 27.866058,6.3416024 L 30.48912,14.82975 z M 28.051473,11.471548 L 27.15167,8.3217839 L 26.262774,11.471548 L 28.051473,11.471548 z M 31.203507,14.82975 L 31.203507,6.3416024 L 32.490498,6.3416024 L 35.173546,12.010017 L 35.173546,6.3416024 L 36.406002,6.3416024 L 36.406002,14.82975 L 35.075384,14.82975 L 32.435964,9.2945047 L 32.435964,14.82975 L 31.203507,14.82975 z "
     id="text3558" />
</svg>
