<?xml version="1.0" encoding="UTF-8" standalone="no"?>
<!-- Created with Inkscape (http://www.inkscape.org/) -->
<svg
   xmlns:dc="http://purl.org/dc/elements/1.1/"
   xmlns:cc="http://web.resource.org/cc/"
   xmlns:rdf="http://www.w3.org/1999/02/22-rdf-syntax-ns#"
   xmlns:svg="http://www.w3.org/2000/svg"
   xmlns="http://www.w3.org/2000/svg"
   xmlns:sodipodi="http://sodipodi.sourceforge.net/DTD/sodipodi-0.dtd"
   xmlns:inkscape="http://www.inkscape.org/namespaces/inkscape"
   version="1.0"
   width="38.454723"
   height="20.73819"
   id="svg2"
   sodipodi:version="0.32"
   inkscape:version="0.45pre1"
   sodipodi:docname="key-ab.svg"
   inkscape:output_extension="org.inkscape.output.svg.inkscape"
   sodipodi:docbase="E:\lenny\workspace\radiodoc\uv-5r\assets\images"
   sodipodi:modified="true">
  <metadata
     id="metadata8">
    <rdf:RDF>
      <cc:Work
         rdf:about="">
        <dc:format>image/svg+xml</dc:format>
        <dc:type
           rdf:resource="http://purl.org/dc/dcmitype/StillImage" />
      </cc:Work>
    </rdf:RDF>
  </metadata>
  <sodipodi:namedview
     inkscape:window-height="583"
     inkscape:window-width="734"
     inkscape:pageshadow="2"
     inkscape:pageopacity="0.0"
     guidetolerance="10.0"
     gridtolerance="10.0"
     objecttolerance="10.0"
     borderopacity="1.0"
     bordercolor="#666666"
     pagecolor="#ffffff"
     id="base"
     inkscape:zoom="16.929"
     inkscape:cx="19.227362"
     inkscape:cy="10.369095"
     inkscape:window-x="288"
     inkscape:window-y="150"
     inkscape:current-layer="svg2" />
  <defs
     id="defs4" />
  <path
     d="M 5.4044477,0.63308889 C 2.7264376,0.90558889 0.62501,3.1965889 0.625,5.9486889 L 0.625,14.797589 C 0.625,17.733089 3.0027434,20.113189 5.9354975,20.113189 L 32.519227,20.113189 C 35.451981,20.113189 37.829724,17.733089 37.829724,14.797589 L 37.829724,5.9486889 C 37.829724,3.0130889 35.451981,0.63308889 32.519227,0.63308889 L 5.9354975,0.63308889 C 5.7521966,0.63308889 5.5829804,0.61488889 5.4044477,0.63308889 z "
     style="fill:none;fill-opacity:1;fill-rule:nonzero;stroke:#000000;stroke-width:1.25;stroke-miterlimit:4;stroke-dasharray:none;stroke-dashoffset:0;stroke-opacity:1"
     id="path3438" />
  <path
     style="font-size:11px;font-style:normal;font-weight:bold;text-align:center;text-anchor:middle;fill:#000000;fill-opacity:1;stroke:none;stroke-width:1px;stroke-linecap:butt;stroke-linejoin:miter;stroke-opacity:1;font-family:Arial Narrow"
     d="M 13.261018,16.931243 L 10.855795,16.931243 L 9.8991785,13.897385 L 5.5260477,13.897385 L 4.6240898,16.931243 L 2.2735249,16.931243 L 6.5373219,3.5749633 L 8.8787729,3.5749633 L 13.261018,16.931243 z M 9.1885403,11.647039 L 7.6852753,6.6908202 L 6.2002419,11.647039 L 9.1885403,11.647039 z M 17.561275,17.159007 L 20.276251,3.347196 L 21.852403,3.347196 L 19.110083,17.159007 L 17.561275,17.159007 z M 27.21861,3.5749633 L 31.600839,3.5749633 C 32.79737,3.5749765 33.638593,3.6843045 34.12451,3.9029484 C 34.610402,4.1216176 35.020387,4.5073034 35.354451,5.060006 C 35.688503,5.6127332 35.855533,6.2383336 35.855539,6.9368095 C 35.855533,7.5806413 35.712794,8.162206 35.427339,8.6815072 C 35.141856,9.2008238 34.771354,9.584991 34.31583,9.83401 C 34.965728,10.064821 35.474396,10.459618 35.841881,11.018401 C 36.209325,11.577193 36.393065,12.257461 36.393072,13.0592 C 36.393065,14.03101 36.159224,14.852485 35.691547,15.523639 C 35.22386,16.194795 34.671136,16.609322 34.033407,16.767251 C 33.590012,16.876569 32.560507,16.931243 30.944876,16.931243 L 27.21861,16.931243 L 27.21861,3.5749633 z M 29.423397,5.7979729 L 29.423397,8.8864976 L 30.881103,8.8864976 C 31.755729,8.886506 32.296282,8.8713212 32.502798,8.8409441 C 32.879374,8.780214 33.17395,8.6207772 33.386543,8.3626325 C 33.599114,8.1045057 33.705404,7.7537442 33.705409,7.3103475 C 33.705404,6.9155611 33.61886,6.5951689 33.445758,6.3491696 C 33.272648,6.1031915 33.063114,5.9498285 32.817124,5.8890792 C 32.571125,5.8283523 31.865045,5.7979832 30.698881,5.7979729 L 29.423397,5.7979729 z M 29.423397,11.109506 L 29.423397,14.680897 L 31.473293,14.680897 C 32.37221,14.680898 32.949224,14.633834 33.204321,14.539677 C 33.459426,14.445538 33.673518,14.260294 33.846628,13.98393 C 34.01973,13.707571 34.106274,13.356817 34.106296,12.931653 C 34.106274,12.49434 34.013654,12.134471 33.828415,11.85203 C 33.643151,11.569599 33.397173,11.37524 33.090447,11.268942 C 32.783714,11.162661 32.156598,11.109512 31.209084,11.109506 L 29.423397,11.109506 z "
     id="text3562" />
</svg>
