<?xml version="1.0" encoding="UTF-8" standalone="no"?>
<!-- Created with Inkscape (http://www.inkscape.org/) -->
<svg
   xmlns:dc="http://purl.org/dc/elements/1.1/"
   xmlns:cc="http://web.resource.org/cc/"
   xmlns:rdf="http://www.w3.org/1999/02/22-rdf-syntax-ns#"
   xmlns:svg="http://www.w3.org/2000/svg"
   xmlns="http://www.w3.org/2000/svg"
   xmlns:sodipodi="http://sodipodi.sourceforge.net/DTD/sodipodi-0.dtd"
   xmlns:inkscape="http://www.inkscape.org/namespaces/inkscape"
   version="1.0"
   width="38.454723"
   height="20.73819"
   id="svg2"
   sodipodi:version="0.32"
   inkscape:version="0.45pre1"
   sodipodi:docname="key-call.svg"
   inkscape:output_extension="org.inkscape.output.svg.inkscape"
   sodipodi:docbase="E:\lenny\workspace\radiodoc\uv-5r\assets\images"
   sodipodi:modified="true">
  <metadata
     id="metadata8">
    <rdf:RDF>
      <cc:Work
         rdf:about="">
        <dc:format>image/svg+xml</dc:format>
        <dc:type
           rdf:resource="http://purl.org/dc/dcmitype/StillImage" />
      </cc:Work>
    </rdf:RDF>
  </metadata>
  <sodipodi:namedview
     inkscape:window-height="583"
     inkscape:window-width="734"
     inkscape:pageshadow="2"
     inkscape:pageopacity="0.0"
     guidetolerance="10.0"
     gridtolerance="10.0"
     objecttolerance="10.0"
     borderopacity="1.0"
     bordercolor="#666666"
     pagecolor="#ffffff"
     id="base"
     inkscape:zoom="16.929"
     inkscape:cx="19.227362"
     inkscape:cy="10.369095"
     inkscape:window-x="115"
     inkscape:window-y="115"
     inkscape:current-layer="svg2" />
  <defs
     id="defs4" />
  <path
     d="M 5.4044477,0.63308889 C 2.7264376,0.90558889 0.62501,3.1965889 0.625,5.9486889 L 0.625,14.797589 C 0.625,17.733089 3.0027434,20.113189 5.9354975,20.113189 L 32.519227,20.113189 C 35.451981,20.113189 37.829724,17.733089 37.829724,14.797589 L 37.829724,5.9486889 C 37.829724,3.0130889 35.451981,0.63308889 32.519227,0.63308889 L 5.9354975,0.63308889 C 5.7521966,0.63308889 5.5829804,0.61488889 5.4044477,0.63308889 z "
     style="fill:none;fill-opacity:1;fill-rule:nonzero;stroke:#000000;stroke-width:1.25;stroke-miterlimit:4;stroke-dasharray:none;stroke-dashoffset:0;stroke-opacity:1"
     id="path3438" />
  <path
     style="font-size:11px;font-style:normal;font-weight:bold;text-align:center;text-anchor:middle;fill:#000000;fill-opacity:1;stroke:none;stroke-width:1px;stroke-linecap:butt;stroke-linejoin:miter;stroke-opacity:1;font-family:Arial Narrow"
     d="M 8.2872401,11.793635 L 10.153624,12.516361 C 9.8624056,13.818857 9.37794,14.770586 8.7002258,15.37153 C 8.0224982,15.972476 7.1885821,16.272953 6.1984785,16.272953 C 4.9542188,16.272953 3.9455791,15.793778 3.1725548,14.835437 C 2.2830435,13.728846 1.8382889,12.235748 1.8382894,10.356119 C 1.8382889,8.3706135 2.2856908,6.8166212 3.1804968,5.6941343 C 3.9588155,4.71992 5.0045187,4.2328078 6.3176088,4.2327959 C 7.3871326,4.2328078 8.2819373,4.5981418 9.0020245,5.3287996 C 9.5156024,5.8476908 9.8915266,6.6180692 10.129796,7.6399388 L 8.2237031,8.1958817 C 8.1019174,7.5658198 7.8596849,7.0826799 7.4970053,6.7464577 C 7.134312,6.4102528 6.7067642,6.2421463 6.2143624,6.242136 C 5.5101621,6.2421463 4.9356879,6.5492385 4.4909363,7.1634146 C 4.046178,7.7776095 3.8238011,8.7915432 3.8238031,10.205219 C 3.8238011,11.671859 4.0408835,12.714913 4.4750523,13.334394 C 4.9092145,13.953878 5.4730994,14.263615 6.166711,14.263614 C 6.6749964,14.263615 7.1144561,14.066389 7.4850917,13.671927 C 7.855715,13.277478 8.1230962,12.651377 8.2872401,11.793635 L 8.2872401,11.793635 z M 20.406821,16.074404 L 18.310118,16.074404 L 17.476197,13.429701 L 13.664011,13.429701 L 12.877749,16.074404 L 10.828697,16.074404 L 14.54558,4.4313472 L 16.58669,4.4313472 L 20.406821,16.074404 z M 16.856723,11.46801 L 15.546276,7.1475304 L 14.251723,11.46801 L 16.856723,11.46801 z M 21.478997,16.074404 L 21.478997,4.5266519 L 23.400975,4.5266519 L 23.400975,14.112713 L 28.197974,14.112713 L 28.197974,16.074404 L 21.478997,16.074404 z M 29.643433,16.074404 L 29.643433,4.5266519 L 31.56541,4.5266519 L 31.56541,14.112713 L 36.36241,14.112713 L 36.36241,16.074404 L 29.643433,16.074404 z "
     id="text3562" />
</svg>
