<?xml version="1.0" encoding="UTF-8" standalone="no"?>
<!-- Created with Inkscape (http://www.inkscape.org/) -->
<svg
   xmlns:dc="http://purl.org/dc/elements/1.1/"
   xmlns:cc="http://web.resource.org/cc/"
   xmlns:rdf="http://www.w3.org/1999/02/22-rdf-syntax-ns#"
   xmlns:svg="http://www.w3.org/2000/svg"
   xmlns="http://www.w3.org/2000/svg"
   xmlns:sodipodi="http://sodipodi.sourceforge.net/DTD/sodipodi-0.dtd"
   xmlns:inkscape="http://www.inkscape.org/namespaces/inkscape"
   version="1.0"
   width="38.454723"
   height="20.73819"
   id="svg2"
   sodipodi:version="0.32"
   inkscape:version="0.45pre1"
   sodipodi:docname="key-8.svg"
   inkscape:output_extension="org.inkscape.output.svg.inkscape"
   sodipodi:docbase="E:\lenny\workspace\radiodoc\uv-5r\assets\images"
   sodipodi:modified="true">
  <metadata
     id="metadata10">
    <rdf:RDF>
      <cc:Work
         rdf:about="">
        <dc:format>image/svg+xml</dc:format>
        <dc:type
           rdf:resource="http://purl.org/dc/dcmitype/StillImage" />
      </cc:Work>
    </rdf:RDF>
  </metadata>
  <sodipodi:namedview
     inkscape:window-height="583"
     inkscape:window-width="734"
     inkscape:pageshadow="2"
     inkscape:pageopacity="0.0"
     guidetolerance="10.0"
     gridtolerance="10.0"
     objecttolerance="10.0"
     borderopacity="1.0"
     bordercolor="#666666"
     pagecolor="#ffffff"
     id="base"
     inkscape:zoom="16.929"
     inkscape:cx="19.227362"
     inkscape:cy="10.369095"
     inkscape:window-x="92"
     inkscape:window-y="92"
     inkscape:current-layer="svg2" />
  <defs
     id="defs4" />
  <path
     d="M 5.404448,0.63308889 C 2.726438,0.90558889 0.62501,3.1965889 0.625,5.9486889 L 0.625,14.797589 C 0.625,17.733089 3.002743,20.113189 5.935497,20.113189 L 32.519227,20.113189 C 35.451981,20.113189 37.829724,17.733089 37.829724,14.797589 L 37.829724,5.9486889 C 37.829724,3.0130889 35.451981,0.63308889 32.519227,0.63308889 L 5.935497,0.63308889 C 5.752197,0.63308889 5.58298,0.61488889 5.404448,0.63308889 z "
     style="fill:none;fill-opacity:1;fill-rule:nonzero;stroke:#000000;stroke-width:1.25;stroke-miterlimit:4;stroke-dasharray:none;stroke-dashoffset:0;stroke-opacity:1"
     id="path3416" />
  <path
     style="font-size:16px;font-style:normal;font-weight:bold;text-align:center;text-anchor:middle;fill:#000000;fill-opacity:1;stroke:none;stroke-width:1px;stroke-linecap:butt;stroke-linejoin:miter;stroke-opacity:1;font-family:Arial"
     d="M 6.0697899,9.9514667 C 5.3817409,9.6611064 4.8814874,9.2618503 4.5690281,8.7536976 C 4.256565,8.2455625 4.1003345,7.6884978 4.1003354,7.0825022 C 4.1003345,6.0472876 4.4617164,5.1919648 5.1844823,4.5165307 C 5.9072439,3.8411224 6.9345783,3.5034118 8.2664888,3.5033979 C 9.5857644,3.5034118 10.609942,3.8411224 11.339024,4.5165307 C 12.068096,5.1919648 12.432631,6.0472876 12.43264,7.0825022 C 12.432631,7.7263719 12.265354,8.2992176 11.93081,8.8010404 C 11.596245,9.3028806 11.125975,9.6863558 10.519998,9.9514667 C 11.290096,10.260778 11.875567,10.712112 12.276413,11.305468 C 12.677237,11.898833 12.877651,12.583721 12.877665,13.360137 C 12.877651,14.641546 12.468929,15.683083 11.651487,16.484753 C 10.83403,17.286424 9.7467294,17.687255 8.3895797,17.687256 C 7.1271048,17.687255 6.0760991,17.355855 5.2365591,16.693061 C 4.2455186,15.910329 3.7499994,14.837232 3.75,13.473761 C 3.7499994,12.722592 3.9362133,12.032971 4.3086432,11.404884 C 4.6810704,10.776813 5.2681187,10.292341 6.0697899,9.9514667 L 6.0697899,9.9514667 z M 6.6189648,7.2718728 C 6.6189611,7.8021201 6.7688791,8.215579 7.0687197,8.5122502 C 7.3685521,8.8089395 7.767808,8.9572796 8.2664888,8.9572711 C 8.7714712,8.9572796 9.1754615,8.8073614 9.4784604,8.5075159 C 9.7814464,8.2076884 9.9329434,7.7926515 9.9329504,7.2624044 C 9.9329434,6.763739 9.7830254,6.3644831 9.4831954,6.0646353 C 9.1833519,5.7648102 8.7872519,5.6148918 8.2948943,5.61488 C 7.783589,5.6148918 7.3764426,5.7663882 7.0734541,6.0693695 C 6.7704571,6.3723736 6.6189611,6.7732076 6.6189648,7.2718728 L 6.6189648,7.2718728 z M 6.3727826,13.218109 C 6.3727791,13.950344 6.5605715,14.521612 6.9361603,14.931913 C 7.311741,15.342218 7.7804329,15.54737 8.3422371,15.547369 C 8.8914057,15.54737 9.3458947,15.350108 9.7057054,14.955582 C 10.065501,14.561067 10.245403,13.991374 10.245412,13.246517 C 10.245403,12.59635 10.062345,12.074002 9.6962364,11.679473 C 9.330114,11.284957 8.8661564,11.087697 8.3043628,11.087689 C 7.6541858,11.087697 7.1697132,11.311786 6.8509437,11.759958 C 6.532166,12.20814 6.3727791,12.69419 6.3727826,13.218109 L 6.3727826,13.218109 z "
     id="text3462" />
  <path
     style="font-size:11px;font-style:normal;font-weight:bold;text-align:center;text-anchor:middle;fill:#000000;fill-opacity:1;stroke:none;stroke-width:1px;stroke-linecap:butt;stroke-linejoin:miter;stroke-opacity:1;font-family:Arial Narrow"
     d="M 14.136578,6.2912562 L 16.372838,6.2912562 C 16.983427,6.2912648 17.412702,6.3606708 17.660662,6.4994752 C 17.908616,6.6382958 18.117829,6.8831454 18.288305,7.234025 C 18.45877,7.5849194 18.544005,7.9820771 18.544008,8.4254993 C 18.544005,8.8342314 18.471167,9.2034337 18.325497,9.5331081 C 18.179818,9.8627921 17.990751,10.106679 17.758296,10.264766 C 18.089933,10.411294 18.349513,10.661929 18.537035,11.01667 C 18.724549,11.371414 18.818305,11.803274 18.818311,12.312249 C 18.818305,12.929197 18.698976,13.45071 18.460325,13.876784 C 18.22166,14.30286 17.93961,14.566026 17.61417,14.666283 C 17.387907,14.735685 16.862549,14.77039 16.038097,14.77039 L 14.136578,14.77039 L 14.136578,6.2912562 z M 15.26168,7.7025173 L 15.26168,9.6632451 L 16.00555,9.6632451 C 16.451873,9.6632501 16.727722,9.6536101 16.833107,9.6343251 C 17.025272,9.5957721 17.175595,9.4945542 17.284078,9.330673 C 17.392555,9.1668026 17.446797,8.9441244 17.4468,8.6626375 C 17.446797,8.41201 17.402631,8.2086112 17.314299,8.0524408 C 17.22596,7.8962836 17.119028,7.798922 16.993505,7.7603559 C 16.867972,7.7218038 16.507662,7.7025243 15.912569,7.7025173 L 15.26168,7.7025173 z M 15.26168,11.074507 L 15.26168,13.341776 L 16.307751,13.341776 C 16.766464,13.341779 17.060915,13.311894 17.191096,13.252129 C 17.321268,13.192362 17.430525,13.074759 17.518864,12.899314 C 17.607193,12.723869 17.651362,12.501193 17.651366,12.231279 C 17.651362,11.953654 17.604094,11.725193 17.509563,11.545889 C 17.415027,11.366594 17.289499,11.243206 17.13298,11.175726 C 16.976453,11.108251 16.656434,11.07451 16.172925,11.074507 L 15.26168,11.074507 z M 19.776045,14.77039 L 19.776045,6.2912562 L 23.923124,6.2912562 L 23.923124,7.7256527 L 20.901149,7.7256527 L 20.901149,9.6054061 L 23.709259,9.6054061 L 23.709259,11.03402 L 20.901149,11.03402 L 20.901149,13.341776 L 24.025403,13.341776 L 24.025403,14.77039 L 19.776045,14.77039 z M 24.983135,14.77039 L 24.983135,6.2912562 L 29.130215,6.2912562 L 29.130215,7.7256527 L 26.10824,7.7256527 L 26.10824,9.6054061 L 28.916354,9.6054061 L 28.916354,11.03402 L 26.10824,11.03402 L 26.10824,13.341776 L 29.232496,13.341776 L 29.232496,14.77039 L 24.983135,14.77039 z M 30.185579,14.77039 L 30.185579,6.2912562 L 31.998763,6.2912562 C 32.674443,6.2912648 33.116116,6.3317518 33.323783,6.4127173 C 33.655422,6.5438262 33.928947,6.8233789 34.144364,7.2513767 C 34.359773,7.6793891 34.467479,8.2307825 34.467484,8.9055597 C 34.467479,9.5186536 34.374495,10.032453 34.188533,10.446958 C 34.00256,10.861469 33.7701,11.152592 33.491154,11.320318 C 33.212198,11.488054 32.731784,11.571918 32.049905,11.571917 L 31.310684,11.571917 L 31.310684,14.77039 L 30.185579,14.77039 z M 31.310684,7.7256527 L 31.310684,10.131739 L 31.933675,10.131739 C 32.352099,10.131741 32.636475,10.095111 32.786801,10.021843 C 32.937122,9.9485861 33.060327,9.8165211 33.156412,9.6256491 C 33.252491,9.4347879 33.300535,9.2005418 33.300538,8.9229112 C 33.300535,8.6414361 33.250941,8.4042985 33.151762,8.2114969 C 33.052577,8.018708 32.930147,7.8895356 32.784477,7.8239783 C 32.6388,7.7584351 32.330404,7.7256598 31.859287,7.7256527 L 31.310684,7.7256527 z "
     id="text3514" />
</svg>
