<?xml version="1.0" encoding="UTF-8" standalone="no"?>
<!-- Created with Inkscape (http://www.inkscape.org/) -->
<svg
   xmlns:dc="http://purl.org/dc/elements/1.1/"
   xmlns:cc="http://web.resource.org/cc/"
   xmlns:rdf="http://www.w3.org/1999/02/22-rdf-syntax-ns#"
   xmlns:svg="http://www.w3.org/2000/svg"
   xmlns="http://www.w3.org/2000/svg"
   xmlns:sodipodi="http://sodipodi.sourceforge.net/DTD/sodipodi-0.dtd"
   xmlns:inkscape="http://www.inkscape.org/namespaces/inkscape"
   version="1.0"
   width="38.454723"
   height="20.73819"
   id="svg2"
   sodipodi:version="0.32"
   inkscape:version="0.45pre1"
   sodipodi:docname="key-5.svg"
   inkscape:output_extension="org.inkscape.output.svg.inkscape"
   sodipodi:docbase="E:\lenny\workspace\radiodoc\uv-5r\assets\images"
   sodipodi:modified="true">
  <metadata
     id="metadata10">
    <rdf:RDF>
      <cc:Work
         rdf:about="">
        <dc:format>image/svg+xml</dc:format>
        <dc:type
           rdf:resource="http://purl.org/dc/dcmitype/StillImage" />
      </cc:Work>
    </rdf:RDF>
  </metadata>
  <sodipodi:namedview
     inkscape:window-height="583"
     inkscape:window-width="734"
     inkscape:pageshadow="2"
     inkscape:pageopacity="0.0"
     guidetolerance="10.0"
     gridtolerance="10.0"
     objecttolerance="10.0"
     borderopacity="1.0"
     bordercolor="#666666"
     pagecolor="#ffffff"
     id="base"
     inkscape:zoom="16.929"
     inkscape:cx="19.227362"
     inkscape:cy="10.369095"
     inkscape:window-x="230"
     inkscape:window-y="230"
     inkscape:current-layer="svg2" />
  <defs
     id="defs4" />
  <path
     d="M 5.404448,0.63308889 C 2.726438,0.90558889 0.62501,3.1965889 0.625,5.9486889 L 0.625,14.797589 C 0.625,17.733089 3.002743,20.113189 5.935497,20.113189 L 32.519227,20.113189 C 35.451981,20.113189 37.829724,17.733089 37.829724,14.797589 L 37.829724,5.9486889 C 37.829724,3.0130889 35.451981,0.63308889 32.519227,0.63308889 L 5.935497,0.63308889 C 5.752197,0.63308889 5.58298,0.61488889 5.404448,0.63308889 z "
     style="fill:none;fill-opacity:1;fill-rule:nonzero;stroke:#000000;stroke-width:1.25;stroke-miterlimit:4;stroke-dasharray:none;stroke-dashoffset:0;stroke-opacity:1"
     id="path3424" />
  <path
     style="font-size:16px;font-style:normal;font-weight:bold;text-align:center;text-anchor:middle;fill:#000000;fill-opacity:1;stroke:none;stroke-width:1px;stroke-linecap:butt;stroke-linejoin:miter;stroke-opacity:1;font-family:Arial"
     d="M 3.75,13.76462 L 6.477124,13.482201 C 6.5550379,14.098991 6.7855447,14.587539 7.1686443,14.947872 C 7.5517354,15.308201 7.9932698,15.488372 8.4932475,15.48837 C 9.0646387,15.488372 9.5483784,15.256266 9.9444684,14.792053 C 10.340541,14.327844 10.538585,13.628283 10.538592,12.693369 C 10.538585,11.816892 10.342163,11.159534 9.9493364,10.721287 C 9.5564944,10.283053 9.045159,10.063933 8.4153299,10.063925 C 7.6296538,10.063933 6.925147,10.411278 6.3018086,11.105965 L 4.0811506,10.784588 L 5.4836714,3.3539786 L 12.720289,3.3539786 L 12.720289,5.9152501 L 7.5582339,5.9152501 L 7.1296855,8.3401799 C 7.740037,8.0350445 8.3633789,7.8824716 8.9997135,7.8824624 C 10.213923,7.8824716 11.243091,8.323958 12.087205,9.206922 C 12.931304,10.089903 13.353365,11.235822 13.353374,12.644671 C 13.353365,13.819809 13.012472,14.868343 12.330701,15.790268 C 11.402175,17.0498 10.113281,17.679569 8.4640284,17.679569 C 7.1459141,17.679569 6.0712982,17.32573 5.2401781,16.61805 C 4.4090534,15.91038 3.9123275,14.959235 3.75,13.76462 L 3.75,13.76462 z "
     id="text3466" />
  <path
     style="font-size:11px;font-style:normal;font-weight:bold;text-align:center;text-anchor:middle;fill:#000000;fill-opacity:1;stroke:none;stroke-width:1px;stroke-linecap:butt;stroke-linejoin:miter;stroke-opacity:1;font-family:Arial Narrow"
     d="M 17.056814,15.539724 L 14.994727,5.7243568 L 16.783791,5.7243568 L 18.077089,12.466563 L 19.657779,5.7243568 L 21.734242,5.7243568 L 23.250273,12.580383 L 24.579496,5.7243568 L 26.332626,5.7243568 L 24.234615,15.539724 L 22.380892,15.539724 L 20.656496,8.2016323 L 18.946469,15.539724 L 17.056814,15.539724 z M 27.237939,15.539724 L 27.237939,5.7243568 L 28.93359,5.7243568 L 32.468604,12.279094 L 32.468604,5.7243568 L 34.092408,5.7243568 L 34.092408,15.539724 L 32.339277,15.539724 L 28.861742,9.1389795 L 28.861742,15.539724 L 27.237939,15.539724 z "
     id="text3534" />
</svg>
