<?xml version="1.0" encoding="UTF-8" standalone="no"?>
<!-- Created with Inkscape (http://www.inkscape.org/) -->
<svg
   xmlns:dc="http://purl.org/dc/elements/1.1/"
   xmlns:cc="http://web.resource.org/cc/"
   xmlns:rdf="http://www.w3.org/1999/02/22-rdf-syntax-ns#"
   xmlns:svg="http://www.w3.org/2000/svg"
   xmlns="http://www.w3.org/2000/svg"
   xmlns:sodipodi="http://sodipodi.sourceforge.net/DTD/sodipodi-0.dtd"
   xmlns:inkscape="http://www.inkscape.org/namespaces/inkscape"
   version="1.0"
   width="38.454723"
   height="20.73819"
   id="svg2"
   sodipodi:version="0.32"
   inkscape:version="0.45pre1"
   sodipodi:docname="key-1.svg"
   inkscape:output_extension="org.inkscape.output.svg.inkscape"
   sodipodi:docbase="E:\lenny\workspace\radiodoc\uv-5r\assets\images"
   sodipodi:modified="true">
  <metadata
     id="metadata10">
    <rdf:RDF>
      <cc:Work
         rdf:about="">
        <dc:format>image/svg+xml</dc:format>
        <dc:type
           rdf:resource="http://purl.org/dc/dcmitype/StillImage" />
      </cc:Work>
    </rdf:RDF>
  </metadata>
  <sodipodi:namedview
     inkscape:window-height="583"
     inkscape:window-width="820"
     inkscape:pageshadow="2"
     inkscape:pageopacity="0.0"
     guidetolerance="10.0"
     gridtolerance="10.0"
     objecttolerance="10.0"
     borderopacity="1.0"
     bordercolor="#666666"
     pagecolor="#ffffff"
     id="base"
     inkscape:zoom="16.929"
     inkscape:cx="19.987992"
     inkscape:cy="10.369095"
     inkscape:window-x="161"
     inkscape:window-y="161"
     inkscape:current-layer="svg2" />
  <defs
     id="defs4" />
  <path
     d="M 5.4044477,0.63308889 C 2.7264376,0.90558889 0.62501,3.1965889 0.625,5.9486889 L 0.625,14.797589 C 0.625,17.733089 3.0027434,20.113189 5.9354975,20.113189 L 32.519227,20.113189 C 35.451981,20.113189 37.829724,17.733089 37.829724,14.797589 L 37.829724,5.9486889 C 37.829724,3.0130889 35.451981,0.63308889 32.519227,0.63308889 L 5.9354975,0.63308889 C 5.7521966,0.63308889 5.5829804,0.61488889 5.4044477,0.63308889 z "
     style="fill:none;fill-opacity:1;fill-rule:nonzero;stroke:#000000;stroke-width:1.25;stroke-miterlimit:4;stroke-dasharray:none;stroke-dashoffset:0;stroke-opacity:1"
     id="path3430" />
  <path
     style="font-size:16px;font-style:normal;font-weight:bold;text-align:center;text-anchor:middle;fill:#000000;fill-opacity:1;stroke:none;stroke-width:1px;stroke-linecap:butt;stroke-linejoin:miter;stroke-opacity:1;font-family:Arial"
     d="M 9.7120574,17.425144 L 7.1106007,17.425144 L 7.1106007,7.6210781 C 6.1601239,8.5098409 5.0399248,9.1671479 3.75,9.5930008 L 3.75,7.2322483 C 4.4289071,7.0100702 5.1664487,6.5888383 5.9626269,5.9685514 C 6.7587978,5.3482872 7.3050106,4.6246325 7.6012669,3.7975848 L 9.7120574,3.7975848 L 9.7120574,17.425144 z "
     id="text3454" />
  <path
     style="font-size:11px;font-style:normal;font-weight:bold;text-align:center;text-anchor:middle;fill:#000000;fill-opacity:1;stroke:none;stroke-width:1px;stroke-linecap:butt;stroke-linejoin:miter;stroke-opacity:1;font-family:Arial Narrow"
     d="M 10.669047,12.586468 L 12.009503,12.408255 C 12.160327,13.600591 12.654277,14.196757 13.491357,14.196756 C 13.906123,14.196757 14.23228,14.074767 14.469833,13.830782 C 14.707378,13.586801 14.826153,13.284474 14.826157,12.923801 C 14.826153,12.711645 14.784675,12.531311 14.701726,12.382795 C 14.618769,12.234288 14.492453,12.112297 14.322779,12.016822 C 14.153097,11.921353 13.7421,11.761174 13.089786,11.536281 C 12.505337,11.336855 12.077373,11.120453 11.80589,10.887073 C 11.534403,10.653704 11.318535,10.347134 11.158286,9.9673641 C 10.998034,9.5876053 10.917908,9.1791994 10.917908,8.7421452 C 10.917908,8.2329706 11.020657,7.7747073 11.226157,7.3673539 C 11.431655,6.960017 11.715393,6.6523866 12.077374,6.4444617 C 12.439351,6.2365551 12.88617,6.1325972 13.417831,6.1325877 C 14.217198,6.1325972 14.841236,6.3765801 15.289944,6.8645368 C 15.738642,7.352511 15.97619,8.0505139 16.00259,8.9585475 L 14.628199,9.0412895 C 14.567865,8.540601 14.437778,8.1905389 14.23794,7.9911018 C 14.038093,7.79168 13.753412,7.6919654 13.383894,7.6919574 C 13.01437,7.6919654 12.729689,7.7789505 12.52985,7.9529131 C 12.330003,8.1268912 12.230082,8.3432933 12.230085,8.6021201 C 12.230082,8.8567179 12.320578,9.0709983 12.501568,9.2449623 C 12.682557,9.418939 13.09921,9.6098821 13.75153,9.8177919 C 14.44155,10.042686 14.940213,10.279244 15.247524,10.527465 C 15.554824,10.775695 15.789545,11.096055 15.951687,11.488545 C 16.113819,11.881043 16.194886,12.35734 16.194893,12.917436 C 16.194886,13.727886 15.973363,14.408917 15.53032,14.960529 C 15.087267,15.512143 14.394417,15.78795 13.451766,15.78795 C 11.78515,15.78795 10.857578,14.72079 10.669047,12.586468 L 10.669047,12.586468 z M 18.881459,15.622466 L 18.881459,7.8701711 L 16.862292,7.8701711 L 16.862292,6.2917072 L 22.263706,6.2917072 L 22.263706,7.8701711 L 20.250195,7.8701711 L 20.250195,15.622466 L 18.881459,15.622466 z M 23.168655,15.622466 L 23.168655,6.2917072 L 28.213746,6.2917072 L 28.213746,7.8701711 L 24.537391,7.8701711 L 24.537391,9.9387227 L 27.953574,9.9387227 L 27.953574,11.510822 L 24.537391,11.510822 L 24.537391,14.050367 L 28.338177,14.050367 L 28.338177,15.622466 L 23.168655,15.622466 z M 29.497642,15.622466 L 29.497642,6.2917072 L 31.703456,6.2917072 C 32.525447,6.2917165 33.062761,6.3362699 33.315396,6.4253673 C 33.718847,6.5696447 34.051604,6.8772751 34.313668,7.3482596 C 34.575721,7.8192607 34.706749,8.4260352 34.706755,9.1685851 C 34.706749,9.8432569 34.59363,10.408661 34.367399,10.864798 C 34.141156,11.320944 33.85836,11.641303 33.51901,11.825878 C 33.179649,12.010461 32.595204,12.102749 31.765671,12.102745 L 30.866377,12.102745 L 30.866377,15.622466 L 29.497642,15.622466 z M 30.866377,7.8701711 L 30.866377,10.517917 L 31.624272,10.517917 C 32.133303,10.517922 32.479257,10.477611 32.662136,10.396986 C 32.845007,10.316371 32.994889,10.171042 33.111782,9.9609993 C 33.228668,9.7509677 33.287113,9.4931946 33.287116,9.1876793 C 33.287113,8.8779337 33.226782,8.6169783 33.106127,8.4048121 C 32.985462,8.1926604 32.836523,8.0505139 32.659308,7.9783722 C 32.482085,7.9062458 32.106909,7.8701789 31.533777,7.8701711 L 30.866377,7.8701711 z "
     id="text3546" />
</svg>
