<?xml version="1.0" encoding="UTF-8" standalone="no"?>
<!-- Created with Inkscape (http://www.inkscape.org/) -->
<svg
   xmlns:dc="http://purl.org/dc/elements/1.1/"
   xmlns:cc="http://web.resource.org/cc/"
   xmlns:rdf="http://www.w3.org/1999/02/22-rdf-syntax-ns#"
   xmlns:svg="http://www.w3.org/2000/svg"
   xmlns="http://www.w3.org/2000/svg"
   xmlns:sodipodi="http://sodipodi.sourceforge.net/DTD/sodipodi-0.dtd"
   xmlns:inkscape="http://www.inkscape.org/namespaces/inkscape"
   version="1.0"
   width="38.454727"
   height="20.73819"
   id="svg2"
   sodipodi:version="0.32"
   inkscape:version="0.45pre1"
   sodipodi:docname="key-6.svg"
   inkscape:output_extension="org.inkscape.output.svg.inkscape"
   sodipodi:docbase="E:\lenny\workspace\radiodoc\uv-5r\assets\images"
   sodipodi:modified="true">
  <metadata
     id="metadata10">
    <rdf:RDF>
      <cc:Work
         rdf:about="">
        <dc:format>image/svg+xml</dc:format>
        <dc:type
           rdf:resource="http://purl.org/dc/dcmitype/StillImage" />
      </cc:Work>
    </rdf:RDF>
  </metadata>
  <sodipodi:namedview
     inkscape:window-height="583"
     inkscape:window-width="734"
     inkscape:pageshadow="2"
     inkscape:pageopacity="0.0"
     guidetolerance="10.0"
     gridtolerance="10.0"
     objecttolerance="10.0"
     borderopacity="1.0"
     bordercolor="#666666"
     pagecolor="#ffffff"
     id="base"
     inkscape:zoom="16.928998"
     inkscape:cx="19.037206"
     inkscape:cy="10.369095"
     inkscape:window-x="276"
     inkscape:window-y="276"
     inkscape:current-layer="svg2" />
  <defs
     id="defs4" />
  <path
     d="M 5.404448,0.63308889 C 2.726438,0.90558889 0.62501,3.1965889 0.625,5.9486889 L 0.625,14.797589 C 0.625,17.733089 3.002743,20.113189 5.935497,20.113189 L 32.519228,20.113189 C 35.451978,20.113189 37.829728,17.733089 37.829728,14.797589 L 37.829728,5.9486889 C 37.829728,3.0130889 35.451978,0.63308889 32.519228,0.63308889 L 5.935497,0.63308889 C 5.752197,0.63308889 5.58298,0.61488889 5.404448,0.63308889 z "
     style="fill:none;fill-opacity:1;fill-rule:nonzero;stroke:#000000;stroke-width:1.25;stroke-miterlimit:4;stroke-dasharray:none;stroke-dashoffset:0;stroke-opacity:1"
     id="path3426" />
  <path
     style="font-size:16px;font-style:normal;font-weight:bold;text-align:center;text-anchor:middle;fill:#000000;fill-opacity:1;stroke:none;stroke-width:1px;stroke-linecap:butt;stroke-linejoin:miter;stroke-opacity:1;font-family:Arial"
     d="M 12.765559,6.7821809 L 10.189683,7.0662847 C 10.126542,6.5359686 9.9623922,6.1445372 9.6972362,5.8919896 C 9.4320662,5.6394648 9.0879856,5.5131966 8.6649929,5.5131849 C 8.1030937,5.5131966 7.6280098,5.765733 7.2397398,6.2707946 C 6.8514605,6.7758782 6.6068166,7.8270606 6.5058052,9.4243448 C 7.1687097,8.6414899 7.9926091,8.2500589 8.9775069,8.2500501 C 10.088661,8.2500589 11.040409,8.6730571 11.832747,9.5190464 C 12.625069,10.365051 13.021238,11.457274 13.021246,12.795707 C 13.021238,14.216228 12.604557,15.355797 11.771194,16.214425 C 10.937811,17.073047 9.8676912,17.502359 8.5608218,17.502359 C 7.1592396,17.502359 6.0070428,16.957826 5.1042272,15.868761 C 4.201408,14.779704 3.7499993,12.994586 3.75,10.513409 C 3.7499993,7.9691123 4.2203483,6.1350671 5.1610482,5.0112686 C 6.1017436,3.887494 7.3233882,3.3256006 8.825985,3.3255869 C 9.8803192,3.3256006 10.753147,3.6207526 11.444475,4.211043 C 12.135782,4.80136 12.57614,5.6584049 12.765559,6.7821809 L 12.765559,6.7821809 z M 6.7330885,12.587366 C 6.7330846,13.452307 6.9319565,14.119951 7.329706,14.590299 C 7.7274461,15.060645 8.1820115,15.29582 8.6934034,15.295818 C 9.1858432,15.29582 9.5962152,15.103266 9.9245182,14.718143 C 10.252811,14.33303 10.416956,13.701687 10.416962,12.824117 C 10.416956,11.92131 10.240182,11.259973 9.8866402,10.840128 C 9.5330812,10.420294 9.0911424,10.210372 8.5608218,10.210365 C 8.0494301,10.210372 7.6169617,10.410823 7.2634149,10.811719 C 6.9098597,11.212626 6.7330846,11.804506 6.7330885,12.587366 L 6.7330885,12.587366 z "
     id="text3482" />
  <path
     style="font-size:11px;font-style:normal;font-weight:bold;text-align:center;text-anchor:middle;fill:#000000;fill-opacity:1;stroke:none;stroke-width:1px;stroke-linecap:butt;stroke-linejoin:miter;stroke-opacity:1;font-family:Arial Narrow"
     d="M 20.940743,15.421521 L 19.454091,15.421521 L 18.862812,13.253456 L 16.159811,13.253456 L 15.602318,15.421521 L 14.149458,15.421521 L 16.784882,5.8768224 L 18.232115,5.8768224 L 20.940743,15.421521 z M 18.423573,11.645308 L 17.494416,8.103485 L 16.576526,11.645308 L 18.423573,11.645308 z M 21.661542,5.8768224 L 24.370176,5.8768224 C 25.109746,5.8768322 25.629697,5.9549607 25.930036,6.1112081 C 26.23036,6.2674744 26.483767,6.543094 26.690254,6.9380679 C 26.896724,7.3330591 26.999962,7.7801274 26.999972,8.279274 C 26.999962,8.7393706 26.91174,9.1549706 26.735302,9.5260745 C 26.558853,9.8971907 26.329847,10.171726 26.04829,10.34968 C 26.449983,10.514621 26.764391,10.796754 26.991526,11.19607 C 27.218645,11.5954 27.332205,12.08153 27.332216,12.65447 C 27.332205,13.348951 27.187674,13.935995 26.89861,14.415619 C 26.609531,14.895238 26.267902,15.191474 25.873718,15.304329 C 25.599663,15.38246 24.963332,15.421521 23.964727,15.421521 L 21.661542,15.421521 L 21.661542,5.8768224 z M 23.024306,7.4654353 L 23.024306,9.6725658 L 23.92531,9.6725658 C 24.465901,9.6725712 24.800027,9.6617201 24.927669,9.6400121 C 25.160424,9.5966133 25.342504,9.4826757 25.473903,9.2982001 C 25.605289,9.1137361 25.67099,8.8630742 25.670994,8.5462131 C 25.67099,8.2640897 25.617493,8.0351297 25.510502,7.8593333 C 25.403503,7.683552 25.273989,7.573955 25.121947,7.5305427 C 24.969898,7.4871457 24.533477,7.4654433 23.812682,7.4654353 L 23.024306,7.4654353 z M 23.024306,11.261175 L 23.024306,13.813373 L 24.29134,13.813373 C 24.846954,13.81338 25.203599,13.779742 25.361276,13.712459 C 25.518945,13.645187 25.651279,13.512801 25.758278,13.315308 C 25.865269,13.117819 25.918766,12.867157 25.918771,12.563321 C 25.918766,12.250809 25.861517,11.993634 25.747018,11.791803 C 25.632511,11.589972 25.480464,11.45108 25.290886,11.375114 C 25.101293,11.299163 24.713677,11.261186 24.128033,11.261175 L 23.024306,11.261175 z M 28.49225,15.421521 L 28.49225,5.8768224 L 31.369822,5.8768224 C 32.105635,5.8768322 32.631219,5.9625563 32.946568,6.1339957 C 33.261916,6.3054533 33.52095,6.6027754 33.723685,7.0259627 C 33.926404,7.4491667 34.027766,7.9559165 34.027771,8.5462131 C 34.027766,9.2927803 33.872907,9.8939351 33.563193,10.34968 C 33.25347,10.805435 32.813292,11.091906 32.242668,11.209096 C 32.535484,11.452165 32.777628,11.71802 32.969094,12.006657 C 33.160554,12.2953 33.421471,12.812902 33.751838,13.559458 L 34.574005,15.421521 L 32.946568,15.421521 L 31.955468,13.344604 C 31.59882,12.593704 31.356678,12.123852 31.229042,11.935039 C 31.101394,11.746232 30.966247,11.616015 30.823587,11.544394 C 30.680929,11.472779 30.451923,11.43697 30.136579,11.436967 L 29.855012,11.436967 L 29.855012,15.421521 L 28.49225,15.421521 z M 29.855012,9.9134626 L 30.868639,9.9134626 C 31.488073,9.9134673 31.882261,9.8819988 32.051203,9.8190568 C 32.220137,9.7561256 32.357161,9.6291669 32.462284,9.43818 C 32.567394,9.2472054 32.619953,8.9932882 32.619957,8.6764274 C 32.619953,8.3726012 32.567394,8.1284497 32.462284,7.9439727 C 32.357161,7.7595102 32.214505,7.6325516 32.034311,7.5630959 C 31.906662,7.5153589 31.536875,7.491486 30.92495,7.4914781 L 29.855012,7.4914781 L 29.855012,9.9134626 z "
     id="text3538" />
</svg>
