<?xml version="1.0" encoding="UTF-8" standalone="no"?>
<!-- Created with Inkscape (http://www.inkscape.org/) -->
<svg
   xmlns:dc="http://purl.org/dc/elements/1.1/"
   xmlns:cc="http://web.resource.org/cc/"
   xmlns:rdf="http://www.w3.org/1999/02/22-rdf-syntax-ns#"
   xmlns:svg="http://www.w3.org/2000/svg"
   xmlns="http://www.w3.org/2000/svg"
   xmlns:sodipodi="http://sodipodi.sourceforge.net/DTD/sodipodi-0.dtd"
   xmlns:inkscape="http://www.inkscape.org/namespaces/inkscape"
   version="1.0"
   width="38.454723"
   height="20.73819"
   id="svg2"
   sodipodi:version="0.32"
   inkscape:version="0.45pre1"
   sodipodi:docname="key-4.svg"
   inkscape:output_extension="org.inkscape.output.svg.inkscape"
   sodipodi:docbase="E:\lenny\workspace\radiodoc\uv-5r\assets\images"
   sodipodi:modified="true">
  <metadata
     id="metadata10">
    <rdf:RDF>
      <cc:Work
         rdf:about="">
        <dc:format>image/svg+xml</dc:format>
        <dc:type
           rdf:resource="http://purl.org/dc/dcmitype/StillImage" />
      </cc:Work>
    </rdf:RDF>
  </metadata>
  <sodipodi:namedview
     inkscape:window-height="583"
     inkscape:window-width="734"
     inkscape:pageshadow="2"
     inkscape:pageopacity="0.0"
     guidetolerance="10.0"
     gridtolerance="10.0"
     objecttolerance="10.0"
     borderopacity="1.0"
     bordercolor="#666666"
     pagecolor="#ffffff"
     id="base"
     inkscape:zoom="16.929"
     inkscape:cx="19.227362"
     inkscape:cy="10.369095"
     inkscape:window-x="184"
     inkscape:window-y="184"
     inkscape:current-layer="svg2" />
  <defs
     id="defs4" />
  <path
     d="M 5.4044477,0.63308889 C 2.7264376,0.90558889 0.62501,3.1965889 0.625,5.9486889 L 0.625,14.797589 C 0.625,17.733089 3.0027434,20.113189 5.9354975,20.113189 L 32.519227,20.113189 C 35.451981,20.113189 37.829724,17.733089 37.829724,14.797589 L 37.829724,5.9486889 C 37.829724,3.0130889 35.451981,0.63308889 32.519227,0.63308889 L 5.9354975,0.63308889 C 5.7521966,0.63308889 5.5829804,0.61488889 5.4044477,0.63308889 z "
     style="fill:none;fill-opacity:1;fill-rule:nonzero;stroke:#000000;stroke-width:1.25;stroke-miterlimit:4;stroke-dasharray:none;stroke-dashoffset:0;stroke-opacity:1"
     id="path3422" />
  <path
     style="font-size:16px;font-style:normal;font-weight:bold;text-align:center;text-anchor:middle;fill:#000000;fill-opacity:1;stroke:none;stroke-width:1px;stroke-linecap:butt;stroke-linejoin:miter;stroke-opacity:1;font-family:Arial"
     d="M 9.5935682,17.247976 L 9.5935682,14.374885 L 3.75,14.374885 L 3.75,11.979027 L 9.9441827,2.9117555 L 12.242648,2.9117555 L 12.242648,11.969285 L 14.015197,11.969285 L 14.015197,14.374885 L 12.242648,14.374885 L 12.242648,17.247976 L 9.5935682,17.247976 z M 9.5935682,11.969285 L 9.5935682,7.0899066 L 6.3114304,11.969285 L 9.5935682,11.969285 z "
     id="text3450" />
  <path
     style="font-size:11px;font-style:normal;font-weight:bold;text-align:center;text-anchor:middle;fill:#000000;fill-opacity:1;stroke:none;stroke-width:1px;stroke-linecap:butt;stroke-linejoin:miter;stroke-opacity:1;font-family:Arial Narrow"
     d="M 16.427483,15.392511 L 13.961509,5.4763821 L 15.473286,5.4763821 L 17.220737,12.815399 L 18.910705,5.4763821 L 20.393744,5.4763821 L 17.922019,15.392511 L 16.427483,15.392511 z M 20.824861,10.49532 C 20.824859,9.3138703 20.973353,8.3409724 21.270341,7.5766258 C 21.567329,6.8122943 21.955334,6.2429858 22.434354,5.8686983 C 22.91337,5.4944295 23.493933,5.3072906 24.176061,5.3072803 C 25.164745,5.3072906 25.970449,5.751464 26.593181,6.639802 C 27.215893,7.5281578 27.527255,8.7930374 27.527261,10.434444 C 27.527255,12.093897 27.197687,13.390343 26.538567,14.323784 C 25.959914,15.149002 25.174326,15.56161 24.181806,15.561611 C 23.18162,15.56161 22.392196,15.15351 21.813549,14.337313 C 21.154424,13.40387 20.824859,12.123215 20.824861,10.49532 L 20.824861,10.49532 z M 22.261905,10.427679 C 22.261904,11.568556 22.44585,12.424214 22.813733,12.994644 C 23.18162,13.565087 23.637644,13.850304 24.181806,13.850303 C 24.7298,13.850304 25.183909,13.567341 25.544132,13.001413 C 25.904343,12.435488 26.084453,11.566303 26.084465,10.393861 C 26.084453,9.2439748 25.909135,8.3939576 25.558499,7.8438065 C 25.207854,7.2936701 24.748957,7.0185983 24.181806,7.0185899 C 23.614651,7.0185983 23.152875,7.2959247 22.796492,7.8505705 C 22.440097,8.4052313 22.261904,9.2642671 22.261905,10.427679 L 22.261905,10.427679 z M 27.923888,15.392511 L 30.286393,10.217994 L 28.142315,5.4763821 L 29.774809,5.4763821 L 31.160123,8.6622585 L 32.516699,5.4763821 L 34.131945,5.4763821 L 31.987867,10.292401 L 34.350372,15.392511 L 32.666154,15.392511 L 31.131385,11.963127 L 29.596611,15.392511 L 27.923888,15.392511 z "
     id="text3530" />
</svg>
