<?xml version="1.0" encoding="UTF-8" standalone="no"?>
<!-- Created with Inkscape (http://www.inkscape.org/) -->
<svg
   xmlns:dc="http://purl.org/dc/elements/1.1/"
   xmlns:cc="http://web.resource.org/cc/"
   xmlns:rdf="http://www.w3.org/1999/02/22-rdf-syntax-ns#"
   xmlns:svg="http://www.w3.org/2000/svg"
   xmlns="http://www.w3.org/2000/svg"
   xmlns:sodipodi="http://sodipodi.sourceforge.net/DTD/sodipodi-0.dtd"
   xmlns:inkscape="http://www.inkscape.org/namespaces/inkscape"
   version="1.0"
   width="38.454731"
   height="20.73819"
   id="svg2"
   sodipodi:version="0.32"
   inkscape:version="0.45pre1"
   sodipodi:docname="key-pound.svg"
   inkscape:output_extension="org.inkscape.output.svg.inkscape"
   sodipodi:docbase="E:\lenny\workspace\radiodoc\uv-5r\assets\images"
   sodipodi:modified="true">
  <metadata
     id="metadata9">
    <rdf:RDF>
      <cc:Work
         rdf:about="">
        <dc:format>image/svg+xml</dc:format>
        <dc:type
           rdf:resource="http://purl.org/dc/dcmitype/StillImage" />
      </cc:Work>
    </rdf:RDF>
  </metadata>
  <sodipodi:namedview
     inkscape:window-height="1180"
     inkscape:window-width="1600"
     inkscape:pageshadow="2"
     inkscape:pageopacity="0.0"
     guidetolerance="10.0"
     gridtolerance="10.0"
     objecttolerance="10.0"
     borderopacity="1.0"
     bordercolor="#666666"
     pagecolor="#ffffff"
     id="base"
     inkscape:zoom="16.928996"
     inkscape:cx="19.227365"
     inkscape:cy="10.369095"
     inkscape:window-x="0"
     inkscape:window-y="0"
     inkscape:current-layer="svg2" />
  <defs
     id="defs4" />
  <path
     d="M 5.40445,0.63308889 C 2.72644,0.90558889 0.62501,3.1965889 0.625,5.9486889 L 0.625,14.797589 C 0.625,17.733089 3.00275,20.113189 5.9355,20.113189 L 32.51923,20.113189 C 35.45198,20.113189 37.82973,17.733089 37.82973,14.797589 L 37.82973,5.9486889 C 37.82973,3.0130889 35.45198,0.63308889 32.51923,0.63308889 L 5.9355,0.63308889 C 5.7522,0.63308889 5.58298,0.61488889 5.40445,0.63308889 z "
     style="fill:none;fill-opacity:1;fill-rule:nonzero;stroke:#000000;stroke-width:1.25;stroke-miterlimit:4;stroke-dasharray:none;stroke-dashoffset:0;stroke-opacity:1"
     id="path3420" />
  <path
     style="font-size:16px;font-style:normal;font-weight:bold;text-align:center;text-anchor:middle;fill:#000000;fill-opacity:1;stroke:none;stroke-width:1px;stroke-linecap:butt;stroke-linejoin:miter;stroke-opacity:1;font-family:Arial"
     d="M 5.0351452,13.59241 L 3.75,13.59241 L 3.75,11.676844 L 5.4509275,11.676844 L 6.0179037,9.1082423 L 3.75,9.1082423 L 3.75,7.1839682 L 6.4431354,7.1839682 L 7.1896539,3.78819 L 9.3063637,3.78819 L 8.5598452,7.1839682 L 10.648207,7.1839682 L 11.375826,3.78819 L 13.568135,3.78819 L 12.812168,7.1839682 L 14.11621,7.1839682 L 14.11621,9.1082423 L 12.386934,9.1082423 L 11.819955,11.676844 L 14.11621,11.676844 L 14.11621,13.59241 L 11.394722,13.59241 L 10.648207,16.98819 L 8.5409463,16.98819 L 9.2685653,13.59241 L 7.1707544,13.59241 L 6.4242359,16.98819 L 4.2886274,16.98819 L 5.0351452,13.59241 z M 8.1440629,9.1082423 L 7.5865367,11.676844 L 9.6843476,11.676844 L 10.232425,9.1082423 L 8.1440629,9.1082423 z "
     id="text3494" />
  <path
     style="fill:#000000;fill-opacity:1;fill-rule:nonzero;stroke:none;stroke-width:40;stroke-miterlimit:4;stroke-dasharray:none;stroke-dashoffset:0;stroke-opacity:1"
     d="M 30.276781,4.9806572 C 28.510368,4.9806572 27.01452,6.1057409 26.459494,7.6831562 L 15.413026,7.6831562 L 15.413026,9.8451598 L 15.413026,15.82444 L 17.575019,15.82444 L 17.575019,9.8451598 L 19.500556,9.8451598 L 19.500556,14.034029 L 21.66255,14.034029 L 21.66255,9.8451598 L 26.290591,9.8451598 C 26.668794,11.69184 28.318814,13.088157 30.276781,13.088157 C 32.514451,13.088157 34.330526,11.272075 34.330526,9.0344077 C 34.330526,6.7967373 32.514451,4.980657 30.276781,4.9806572 z "
     id="path2162" />
</svg>
