<?xml version="1.0" encoding="UTF-8" standalone="no"?>
<!-- Created with Inkscape (http://www.inkscape.org/) -->
<svg
   xmlns:dc="http://purl.org/dc/elements/1.1/"
   xmlns:cc="http://web.resource.org/cc/"
   xmlns:rdf="http://www.w3.org/1999/02/22-rdf-syntax-ns#"
   xmlns:svg="http://www.w3.org/2000/svg"
   xmlns="http://www.w3.org/2000/svg"
   xmlns:sodipodi="http://sodipodi.sourceforge.net/DTD/sodipodi-0.dtd"
   xmlns:inkscape="http://www.inkscape.org/namespaces/inkscape"
   version="1.0"
   width="38.454723"
   height="20.73819"
   id="svg2"
   sodipodi:version="0.32"
   inkscape:version="0.45pre1"
   sodipodi:docname="key-7.svg"
   inkscape:output_extension="org.inkscape.output.svg.inkscape"
   sodipodi:docbase="E:\lenny\workspace\radiodoc\uv-5r\assets\images"
   sodipodi:modified="true">
  <metadata
     id="metadata11">
    <rdf:RDF>
      <cc:Work
         rdf:about="">
        <dc:format>image/svg+xml</dc:format>
        <dc:type
           rdf:resource="http://purl.org/dc/dcmitype/StillImage" />
      </cc:Work>
    </rdf:RDF>
  </metadata>
  <sodipodi:namedview
     inkscape:window-height="583"
     inkscape:window-width="734"
     inkscape:pageshadow="2"
     inkscape:pageopacity="0.0"
     guidetolerance="10.0"
     gridtolerance="10.0"
     objecttolerance="10.0"
     borderopacity="1.0"
     bordercolor="#666666"
     pagecolor="#ffffff"
     id="base"
     inkscape:zoom="16.929"
     inkscape:cx="19.227362"
     inkscape:cy="10.369095"
     inkscape:window-x="46"
     inkscape:window-y="46"
     inkscape:current-layer="svg2" />
  <defs
     id="defs4" />
  <path
     id="rect3397"
     style="fill:none;fill-opacity:1;fill-rule:nonzero;stroke:#000000;stroke-width:1.25;stroke-miterlimit:4;stroke-dasharray:none;stroke-dashoffset:0;stroke-opacity:1"
     d="M 5.4044477,0.6331 C 2.7264376,0.9056 0.62501,3.1966 0.625,5.9487 L 0.625,14.7976 C 0.625,17.7331 3.0027434,20.1132 5.9354975,20.1132 L 32.519227,20.1132 C 35.451981,20.1132 37.829724,17.7331 37.829724,14.7976 L 37.829724,5.9487 C 37.829724,3.0131 35.451981,0.6331 32.519227,0.6331 L 5.9354975,0.6331 C 5.7521966,0.6331 5.5829804,0.6149 5.4044477,0.6331 z " />
  <path
     style="font-size:16px;font-style:normal;font-weight:bold;text-align:center;text-anchor:middle;fill:#000000;fill-opacity:1;stroke:none;stroke-width:1px;stroke-linecap:butt;stroke-linejoin:miter;stroke-opacity:1;font-family:Arial"
     d="M 2.7566651,5.7317588 L 2.7566651,3.1172392 L 12.383303,3.1172392 L 12.383303,5.1607718 C 11.588589,5.9421341 10.780523,7.0640725 9.9591136,8.5265902 C 9.1376906,9.9891258 8.5116066,11.543483 8.0808687,13.189651 C 7.6501187,14.835836 7.4380857,16.306709 7.4447694,17.602279 L 4.7300767,17.602279 C 4.7768208,15.572103 5.195878,13.50186 5.9872493,11.391543 C 6.7786125,9.2812363 7.8354385,7.3946437 9.1577306,5.7317588 L 2.7566651,5.7317588 z "
     id="text3446" />
  <path
     style="font-size:11px;font-style:normal;font-weight:bold;text-align:center;text-anchor:middle;fill:#000000;fill-opacity:1;stroke:none;stroke-width:1px;stroke-linecap:butt;stroke-linejoin:miter;stroke-opacity:1;font-family:Arial Narrow"
     d="M 15.048939,16.183355 L 15.048939,7.7951023 L 12.590319,7.7951023 L 12.590319,6.0871501 L 19.16731,6.0871501 L 19.16731,7.7951023 L 16.715572,7.7951023 L 16.715572,16.183355 L 15.048939,16.183355 z M 20.255444,6.0871501 L 23.306338,6.0871501 C 24.077664,6.0871602 24.659613,6.1732462 25.052175,6.345409 C 25.444718,6.5175912 25.806286,6.8079888 26.136858,7.2166025 C 26.46742,7.6252339 26.726831,8.155525 26.915081,8.8074776 C 27.103311,9.4594446 27.197437,10.269803 27.197443,11.238555 C 27.197437,12.1109 27.098722,12.869603 26.901306,13.514677 C 26.70387,14.159755 26.453646,14.670528 26.150632,15.047015 C 25.847599,15.423496 25.481453,15.707014 25.052175,15.897543 C 24.622879,16.088082 24.070782,16.183355 23.395867,16.183355 L 20.255444,16.183355 L 20.255444,6.0871501 z M 21.922076,7.7951023 L 21.922076,14.482292 L 23.175494,14.482292 C 23.712666,14.482293 24.101772,14.431783 24.342824,14.330773 C 24.583858,14.229774 24.78128,14.077108 24.935096,13.872794 C 25.088896,13.668491 25.216307,13.345954 25.317321,12.905188 C 25.418316,12.464428 25.468825,11.883635 25.46883,11.162801 C 25.468825,10.414428 25.417169,9.8244501 25.31387,9.3928644 C 25.210562,8.9612925 25.049867,8.6215388 24.831793,8.3736024 C 24.613701,8.1256818 24.348555,7.9626922 24.036354,7.8846323 C 23.802195,7.8249541 23.349951,7.7951107 22.679633,7.7951023 L 21.922076,7.7951023 z M 28.616145,16.183355 L 28.616145,6.0871501 L 32.135351,6.0871501 C 33.035236,6.0871602 33.678017,6.1778376 34.063688,6.3591828 C 34.449348,6.5405474 34.766141,6.8550492 35.014077,7.3026888 C 35.262002,7.7503459 35.385963,8.2863763 35.385969,8.9107812 C 35.385963,9.7004858 35.196571,10.336377 34.817803,10.818453 C 34.439015,11.300541 33.900693,11.603567 33.202827,11.727525 C 33.56094,11.984645 33.857075,12.26586 34.091236,12.57117 C 34.325378,12.876495 34.644475,13.424003 35.048518,14.213695 L 36.054005,16.183355 L 34.063688,16.183355 L 32.851593,13.98643 C 32.415415,13.192141 32.119279,12.695143 31.963183,12.495415 C 31.807073,12.295703 31.641789,12.157959 31.467323,12.082201 C 31.29285,12.006449 31.012783,11.968568 30.627119,11.968565 L 30.282777,11.968565 L 30.282777,16.183355 L 28.616145,16.183355 z M 30.282777,10.357032 L 31.52242,10.357032 C 32.279974,10.357037 32.76206,10.323751 32.968671,10.257171 C 33.175275,10.190604 33.342852,10.056309 33.471415,9.8542873 C 33.59996,9.6522777 33.664243,9.3836888 33.664248,9.0485191 C 33.664243,8.7271377 33.59996,8.4688791 33.471415,8.2737421 C 33.342852,8.0786214 33.168383,7.9443269 32.948005,7.8708585 C 32.791903,7.8203627 32.33966,7.7951107 31.591283,7.7951023 L 30.282777,7.7951023 L 30.282777,10.357032 z "
     id="text3510" />
</svg>
