<?xml version="1.0" encoding="UTF-8" standalone="no"?>
<!-- Created with Inkscape (http://www.inkscape.org/) -->
<svg
   xmlns:dc="http://purl.org/dc/elements/1.1/"
   xmlns:cc="http://web.resource.org/cc/"
   xmlns:rdf="http://www.w3.org/1999/02/22-rdf-syntax-ns#"
   xmlns:svg="http://www.w3.org/2000/svg"
   xmlns="http://www.w3.org/2000/svg"
   xmlns:sodipodi="http://sodipodi.sourceforge.net/DTD/sodipodi-0.dtd"
   xmlns:inkscape="http://www.inkscape.org/namespaces/inkscape"
   version="1.0"
   width="38.454723"
   height="20.73819"
   id="svg2"
   sodipodi:version="0.32"
   inkscape:version="0.45pre1"
   sodipodi:docname="key-menu.svg"
   inkscape:output_extension="org.inkscape.output.svg.inkscape"
   sodipodi:docbase="E:\lenny\workspace\radiodoc\uv-5r\assets\images"
   sodipodi:modified="true">
  <metadata
     id="metadata8">
    <rdf:RDF>
      <cc:Work
         rdf:about="">
        <dc:format>image/svg+xml</dc:format>
        <dc:type
           rdf:resource="http://purl.org/dc/dcmitype/StillImage" />
      </cc:Work>
    </rdf:RDF>
  </metadata>
  <sodipodi:namedview
     inkscape:window-height="480"
     inkscape:window-width="640"
     inkscape:pageshadow="2"
     inkscape:pageopacity="0.0"
     guidetolerance="10.0"
     gridtolerance="10.0"
     objecttolerance="10.0"
     borderopacity="1.0"
     bordercolor="#666666"
     pagecolor="#ffffff"
     id="base" />
  <defs
     id="defs4" />
  <path
     d="M 5.4044477,0.63308889 C 2.7264376,0.90558889 0.62501,3.1965889 0.625,5.9486889 L 0.625,14.797589 C 0.625,17.733089 3.0027434,20.113189 5.9354975,20.113189 L 32.519227,20.113189 C 35.451981,20.113189 37.829724,17.733089 37.829724,14.797589 L 37.829724,5.9486889 C 37.829724,3.0130889 35.451981,0.63308889 32.519227,0.63308889 L 5.9354975,0.63308889 C 5.7521966,0.63308889 5.5829804,0.61488889 5.4044477,0.63308889 z "
     style="fill:none;fill-opacity:1;fill-rule:nonzero;stroke:#000000;stroke-width:1.25;stroke-miterlimit:4;stroke-dasharray:none;stroke-dashoffset:0;stroke-opacity:1"
     id="path3438" />
  <path
     style="font-size:11px;font-style:normal;font-weight:bold;text-align:center;text-anchor:middle;fill:#000000;fill-opacity:1;stroke:none;stroke-width:1px;stroke-linecap:butt;stroke-linejoin:miter;stroke-opacity:1;font-family:Arial Narrow"
     d="M 6.5905514,14.307499 L 6.5905514,6.4334755 L 8.5402584,6.4334755 L 9.7111568,11.804569 L 10.871313,6.4334755 L 12.826391,6.4334755 L 12.826391,14.307499 L 11.617895,14.307499 L 11.617895,8.1092567 L 10.334204,14.307499 L 9.0773678,14.307499 L 7.8044186,8.1092567 L 7.8044186,14.307499 L 6.5905514,14.307499 z M 14.131567,14.307499 L 14.131567,6.4334755 L 18.922583,6.4334755 L 18.922583,7.7655067 L 15.431372,7.7655067 L 15.431372,9.5111122 L 18.675512,9.5111122 L 18.675512,10.837772 L 15.431372,10.837772 L 15.431372,12.980839 L 19.040747,12.980839 L 19.040747,14.307499 L 14.131567,14.307499 z M 20.157934,14.307499 L 20.157934,6.4334755 L 21.425512,6.4334755 L 24.06809,11.691776 L 24.06809,6.4334755 L 25.281958,6.4334755 L 25.281958,14.307499 L 23.971411,14.307499 L 21.371801,9.1727333 L 21.371801,14.307499 L 20.157934,14.307499 z M 26.640844,6.4334755 L 27.940649,6.4334755 L 27.940649,10.698124 C 27.940647,11.360562 27.95676,11.792039 27.988989,11.992558 C 28.046278,12.33989 28.183241,12.608445 28.399878,12.798222 C 28.616509,12.988002 28.902072,13.082891 29.256567,13.08289 C 29.557345,13.082891 29.802624,13.015752 29.992407,12.881474 C 30.182181,12.747198 30.311983,12.561 30.381811,12.32288 C 30.451631,12.084764 30.486543,11.573615 30.486547,10.789433 L 30.486547,6.4334755 L 31.791723,6.4334755 L 31.791723,10.569218 C 31.791717,11.625535 31.735321,12.389125 31.622534,12.859989 C 31.509735,13.330856 31.255504,13.712203 30.859838,14.004032 C 30.464163,14.295862 29.942273,14.441776 29.294165,14.441776 C 28.620985,14.441776 28.095513,14.320927 27.717749,14.079227 C 27.33998,13.837529 27.066055,13.49736 26.895971,13.05872 C 26.725886,12.620082 26.640844,11.811733 26.640844,10.633671 L 26.640844,6.4334755 z "
     id="text3562" />
</svg>
