<?xml version="1.0" encoding="UTF-8" standalone="no"?>
<!-- Created with Inkscape (http://www.inkscape.org/) -->
<svg
   xmlns:dc="http://purl.org/dc/elements/1.1/"
   xmlns:cc="http://web.resource.org/cc/"
   xmlns:rdf="http://www.w3.org/1999/02/22-rdf-syntax-ns#"
   xmlns:svg="http://www.w3.org/2000/svg"
   xmlns="http://www.w3.org/2000/svg"
   xmlns:sodipodi="http://sodipodi.sourceforge.net/DTD/sodipodi-0.dtd"
   xmlns:inkscape="http://www.inkscape.org/namespaces/inkscape"
   version="1.0"
   width="38.454723"
   height="20.73819"
   id="svg2"
   sodipodi:version="0.32"
   inkscape:version="0.45pre1"
   sodipodi:docname="key-mode.svg"
   inkscape:output_extension="org.inkscape.output.svg.inkscape"
   sodipodi:docbase="E:\lenny\workspace\radiodoc\uv-5r\assets\images"
   sodipodi:modified="true">
  <metadata
     id="metadata8">
    <rdf:RDF>
      <cc:Work
         rdf:about="">
        <dc:format>image/svg+xml</dc:format>
        <dc:type
           rdf:resource="http://purl.org/dc/dcmitype/StillImage" />
      </cc:Work>
    </rdf:RDF>
  </metadata>
  <sodipodi:namedview
     inkscape:window-height="583"
     inkscape:window-width="734"
     inkscape:pageshadow="2"
     inkscape:pageopacity="0.0"
     guidetolerance="10.0"
     gridtolerance="10.0"
     objecttolerance="10.0"
     borderopacity="1.0"
     bordercolor="#666666"
     pagecolor="#ffffff"
     id="base"
     inkscape:zoom="16.929"
     inkscape:cx="19.227362"
     inkscape:cy="10.369095"
     inkscape:window-x="253"
     inkscape:window-y="253"
     inkscape:current-layer="svg2" />
  <defs
     id="defs4" />
  <path
     d="M 5.4044477,0.63308889 C 2.7264376,0.90558889 0.62501,3.1965889 0.625,5.9486889 L 0.625,14.797589 C 0.625,17.733089 3.0027434,20.113189 5.9354975,20.113189 L 32.519227,20.113189 C 35.451981,20.113189 37.829724,17.733089 37.829724,14.797589 L 37.829724,5.9486889 C 37.829724,3.0130889 35.451981,0.63308889 32.519227,0.63308889 L 5.9354975,0.63308889 C 5.7521966,0.63308889 5.5829804,0.61488889 5.4044477,0.63308889 z "
     style="fill:none;fill-opacity:1;fill-rule:nonzero;stroke:#000000;stroke-width:1.25;stroke-miterlimit:4;stroke-dasharray:none;stroke-dashoffset:0;stroke-opacity:1"
     id="path3438" />
  <path
     style="font-size:11px;font-style:normal;font-weight:bold;text-align:center;text-anchor:middle;fill:#000000;fill-opacity:1;stroke:none;stroke-width:1px;stroke-linecap:butt;stroke-linejoin:miter;stroke-opacity:1;font-family:Arial Narrow"
     d="M 5.7845786,16.140025 L 3.75,4.8810264 L 4.9973058,4.8810264 L 6.4390585,13.213912 L 7.8333851,4.8810264 L 9.0569779,4.8810264 L 7.0176566,16.140025 L 5.7845786,16.140025 z M 9.6498038,16.140025 L 9.6498038,4.8810264 L 13.557712,4.8810264 L 13.557712,6.7856847 L 10.797515,6.7856847 L 10.797515,9.4506721 L 13.183046,9.4506721 L 13.183046,11.355336 L 10.797515,11.355336 L 10.797515,16.140025 L 9.6498038,16.140025 z M 14.288074,10.579648 C 14.288074,9.2381966 14.410591,8.1335471 14.655626,7.26569 C 14.900659,6.3978516 15.220786,5.7514456 15.616004,5.3264696 C 16.011219,4.9015179 16.490222,4.6890351 17.053014,4.6890236 C 17.868738,4.6890351 18.533494,5.1933602 19.04728,6.2019984 C 19.561058,7.2106575 19.817949,8.6468312 19.817954,10.510524 C 19.817949,12.394708 19.546039,13.866725 19.002226,14.926578 C 18.524799,15.863531 17.876643,16.332024 17.057757,16.332024 C 16.232541,16.332024 15.581223,15.868651 15.103802,14.941934 C 14.559983,13.882088 14.288074,12.427994 14.288074,10.579648 L 14.288074,10.579648 z M 15.473725,10.502843 C 15.473724,11.798227 15.625487,12.769745 15.929016,13.417433 C 16.232541,14.065126 16.608787,14.38896 17.057757,14.388959 C 17.509882,14.38896 17.884547,14.067686 18.181755,13.425115 C 18.478953,12.782547 18.627555,11.795666 18.62756,10.464439 C 18.627555,9.1588404 18.482905,8.1937073 18.193611,7.5690523 C 17.904308,6.9444157 17.525691,6.6320925 17.057757,6.6320847 C 16.589817,6.6320925 16.208827,6.9469754 15.914788,7.5767331 C 15.620744,8.2065089 15.473724,9.1818742 15.473725,10.502843 L 15.473725,10.502843 z M 20.130966,16.332024 L 21.544263,4.6890236 L 22.364735,4.6890236 L 20.937209,16.332024 L 20.130966,16.332024 z M 22.924362,16.140025 L 22.924362,4.8810264 L 24.645929,4.8810264 L 25.679817,12.5611 L 26.70422,4.8810264 L 28.430529,4.8810264 L 28.430529,16.140025 L 27.363442,16.140025 L 27.363442,7.2772113 L 26.22996,16.140025 L 25.120189,16.140025 L 23.996192,7.2772113 L 23.996192,16.140025 L 22.924362,16.140025 z M 29.582983,16.140025 L 29.582983,4.8810264 L 32.006456,4.8810264 C 32.626153,4.8810378 33.068796,4.9821583 33.334385,5.1843881 C 33.599967,5.3866409 33.818127,5.7373638 33.988865,6.2365604 C 34.159594,6.7357735 34.244961,7.3335406 34.244966,8.0298576 C 34.244961,8.9105158 34.11454,9.6196389 33.853701,10.157242 C 33.592853,10.694847 33.22214,11.032783 32.74156,11.171017 C 32.988171,11.457728 33.192103,11.771343 33.353356,12.111812 C 33.5146,12.452312 33.734341,13.062882 34.012579,13.943509 L 34.705,16.140025 L 33.334385,16.140025 L 32.499687,13.690085 C 32.199318,12.804311 31.995386,12.250072 31.887891,12.027348 C 31.780389,11.804629 31.666566,11.65103 31.546423,11.566538 C 31.426275,11.482053 31.233408,11.439827 30.967825,11.439824 L 30.730694,11.439824 L 30.730694,16.140025 L 29.582983,16.140025 z M 30.730694,9.6426727 L 31.584364,9.6426727 C 32.106048,9.6426778 32.43803,9.605558 32.580312,9.5313147 C 32.722586,9.4570781 32.837989,9.3073185 32.926521,9.0820306 C 33.015046,8.8567536 33.05931,8.5572319 33.059315,8.1834599 C 33.05931,7.8250647 33.015046,7.5370625 32.926521,7.3194498 C 32.837989,7.1018585 32.717843,6.9520964 32.566083,6.8701658 C 32.458581,6.8138557 32.14715,6.7856948 31.63179,6.7856847 L 30.730694,6.7856847 L 30.730694,9.6426727 z "
     id="text3562" />
</svg>
