<?xml version="1.0" encoding="UTF-8" standalone="no"?>
<!-- Created with Inkscape (http://www.inkscape.org/) -->
<svg
   xmlns:svg="http://www.w3.org/2000/svg"
   xmlns="http://www.w3.org/2000/svg"
   version="1.0"
   width="176.64371"
   height="105.77761"
   id="svg2">
  <defs
     id="defs4" />
  <g
     transform="translate(0.625,-947.20959)"
     id="layer1">
    <path
       d="M 4.7794477,1032.8821 C 2.1014376,1033.1546 9.9962305e-006,1035.4456 0,1038.1977 L 0,1047.0466 C 0,1049.9821 2.3777434,1052.3622 5.3104975,1052.3622 L 31.894227,1052.3622 C 34.826981,1052.3622 37.204724,1049.9821 37.204724,1047.0466 L 37.204724,1038.1977 C 37.204724,1035.2621 34.826981,1032.8821 31.894227,1032.8821 L 5.3104975,1032.8821 C 5.1271966,1032.8821 4.9579804,1032.8639 4.7794477,1032.8821 z "
       style="fill:none;fill-opacity:1;fill-rule:nonzero;stroke:#000000;stroke-width:1.25;stroke-miterlimit:4;stroke-dasharray:none;stroke-dashoffset:0;stroke-opacity:1"
       id="rect3397" />
    <path
       d="M 50.842439,1032.8821 C 48.164429,1033.1546 46.063001,1035.4456 46.062991,1038.1977 L 46.062991,1047.0466 C 46.062991,1049.9821 48.440734,1052.3622 51.373488,1052.3622 L 77.957218,1052.3622 C 80.889972,1052.3622 83.267715,1049.9821 83.267715,1047.0466 L 83.267715,1038.1977 C 83.267715,1035.2621 80.889972,1032.8821 77.957218,1032.8821 L 51.373488,1032.8821 C 51.190188,1032.8821 51.020971,1032.8639 50.842439,1032.8821 z "
       style="fill:none;fill-opacity:1;fill-rule:nonzero;stroke:#000000;stroke-width:1.25;stroke-miterlimit:4;stroke-dasharray:none;stroke-dashoffset:0;stroke-opacity:1"
       id="path3416" />
    <path
       d="M 96.90543,1032.8821 C 94.22742,1033.1546 92.125992,1035.4456 92.125982,1038.1977 L 92.125982,1047.0466 C 92.125982,1049.9821 94.503725,1052.3622 97.436479,1052.3622 L 124.02021,1052.3622 C 126.95296,1052.3622 129.33071,1049.9821 129.33071,1047.0466 L 129.33071,1038.1977 C 129.33071,1035.2621 126.95296,1032.8821 124.02021,1032.8821 L 97.436479,1032.8821 C 97.253179,1032.8821 97.083962,1032.8639 96.90543,1032.8821 z "
       style="fill:none;fill-opacity:1;fill-rule:nonzero;stroke:#000000;stroke-width:1.25;stroke-miterlimit:4;stroke-dasharray:none;stroke-dashoffset:0;stroke-opacity:1"
       id="path3418" />
    <path
       d="M 142.96842,1032.8821 C 140.29041,1033.1546 138.18898,1035.4456 138.18897,1038.1977 L 138.18897,1047.0466 C 138.18897,1049.9821 140.56672,1052.3622 143.49947,1052.3622 L 170.0832,1052.3622 C 173.01595,1052.3622 175.3937,1049.9821 175.3937,1047.0466 L 175.3937,1038.1977 C 175.3937,1035.2621 173.01595,1032.8821 170.0832,1032.8821 L 143.49947,1032.8821 C 143.31617,1032.8821 143.14695,1032.8639 142.96842,1032.8821 z "
       style="fill:none;fill-opacity:1;fill-rule:nonzero;stroke:#000000;stroke-width:1.25;stroke-miterlimit:4;stroke-dasharray:none;stroke-dashoffset:0;stroke-opacity:1"
       id="path3420" />
    <path
       d="M 4.7794477,1004.5356 C 2.1014376,1004.8081 9.9962305e-006,1007.0991 0,1009.8512 L 0,1018.7001 C 0,1021.6356 2.3777434,1024.0157 5.3104975,1024.0157 L 31.894227,1024.0157 C 34.826981,1024.0157 37.204724,1021.6356 37.204724,1018.7001 L 37.204724,1009.8512 C 37.204724,1006.9156 34.826981,1004.5356 31.894227,1004.5356 L 5.3104975,1004.5356 C 5.1271966,1004.5356 4.9579804,1004.5174 4.7794477,1004.5356 z "
       style="fill:none;fill-opacity:1;fill-rule:nonzero;stroke:#000000;stroke-width:1.25;stroke-miterlimit:4;stroke-dasharray:none;stroke-dashoffset:0;stroke-opacity:1"
       id="path3422" />
    <path
       d="M 50.842439,1004.5356 C 48.164429,1004.8081 46.063001,1007.0991 46.062991,1009.8512 L 46.062991,1018.7001 C 46.062991,1021.6356 48.440734,1024.0157 51.373488,1024.0157 L 77.957218,1024.0157 C 80.889972,1024.0157 83.267715,1021.6356 83.267715,1018.7001 L 83.267715,1009.8512 C 83.267715,1006.9156 80.889972,1004.5356 77.957218,1004.5356 L 51.373488,1004.5356 C 51.190188,1004.5356 51.020971,1004.5174 50.842439,1004.5356 z "
       style="fill:none;fill-opacity:1;fill-rule:nonzero;stroke:#000000;stroke-width:1.25;stroke-miterlimit:4;stroke-dasharray:none;stroke-dashoffset:0;stroke-opacity:1"
       id="path3424" />
    <path
       d="M 96.90543,1004.5356 C 94.22742,1004.8081 92.125992,1007.0991 92.125982,1009.8512 L 92.125982,1018.7001 C 92.125982,1021.6356 94.503725,1024.0157 97.436479,1024.0157 L 124.02021,1024.0157 C 126.95296,1024.0157 129.33071,1021.6356 129.33071,1018.7001 L 129.33071,1009.8512 C 129.33071,1006.9156 126.95296,1004.5356 124.02021,1004.5356 L 97.436479,1004.5356 C 97.253179,1004.5356 97.083962,1004.5174 96.90543,1004.5356 z "
       style="fill:none;fill-opacity:1;fill-rule:nonzero;stroke:#000000;stroke-width:1.25;stroke-miterlimit:4;stroke-dasharray:none;stroke-dashoffset:0;stroke-opacity:1"
       id="path3426" />
    <path
       d="M 142.96842,1004.5356 C 140.29041,1004.8081 138.18898,1007.0991 138.18897,1009.8512 L 138.18897,1018.7001 C 138.18897,1021.6356 140.56672,1024.0157 143.49947,1024.0157 L 170.0832,1024.0157 C 173.01595,1024.0157 175.3937,1021.6356 175.3937,1018.7001 L 175.3937,1009.8512 C 175.3937,1006.9156 173.01595,1004.5356 170.0832,1004.5356 L 143.49947,1004.5356 C 143.31617,1004.5356 143.14695,1004.5174 142.96842,1004.5356 z "
       style="fill:none;fill-opacity:1;fill-rule:nonzero;stroke:#000000;stroke-width:1.25;stroke-miterlimit:4;stroke-dasharray:none;stroke-dashoffset:0;stroke-opacity:1"
       id="path3428" />
    <path
       d="M 4.7794477,976.18914 C 2.1014376,976.46164 9.9962305e-006,978.75264 0,981.50474 L 0,990.35364 C 0,993.28914 2.3777434,995.66924 5.3104975,995.66924 L 31.894227,995.66924 C 34.826981,995.66924 37.204724,993.28914 37.204724,990.35364 L 37.204724,981.50474 C 37.204724,978.56914 34.826981,976.18914 31.894227,976.18914 L 5.3104975,976.18914 C 5.1271966,976.18914 4.9579804,976.17094 4.7794477,976.18914 z "
       style="fill:none;fill-opacity:1;fill-rule:nonzero;stroke:#000000;stroke-width:1.25;stroke-miterlimit:4;stroke-dasharray:none;stroke-dashoffset:0;stroke-opacity:1"
       id="path3430" />
    <path
       d="M 50.842439,976.18914 C 48.164429,976.46164 46.063001,978.75264 46.062991,981.50474 L 46.062991,990.35364 C 46.062991,993.28914 48.440734,995.66924 51.373488,995.66924 L 77.957218,995.66924 C 80.889972,995.66924 83.267715,993.28914 83.267715,990.35364 L 83.267715,981.50474 C 83.267715,978.56914 80.889972,976.18914 77.957218,976.18914 L 51.373488,976.18914 C 51.190188,976.18914 51.020971,976.17094 50.842439,976.18914 z "
       style="fill:none;fill-opacity:1;fill-rule:nonzero;stroke:#000000;stroke-width:1.25;stroke-miterlimit:4;stroke-dasharray:none;stroke-dashoffset:0;stroke-opacity:1"
       id="path3432" />
    <path
       d="M 96.90543,976.18914 C 94.22742,976.46164 92.125992,978.75264 92.125982,981.50474 L 92.125982,990.35364 C 92.125982,993.28914 94.503725,995.66924 97.436479,995.66924 L 124.02021,995.66924 C 126.95296,995.66924 129.33071,993.28914 129.33071,990.35364 L 129.33071,981.50474 C 129.33071,978.56914 126.95296,976.18914 124.02021,976.18914 L 97.436479,976.18914 C 97.253179,976.18914 97.083962,976.17094 96.90543,976.18914 z "
       style="fill:none;fill-opacity:1;fill-rule:nonzero;stroke:#000000;stroke-width:1.25;stroke-miterlimit:4;stroke-dasharray:none;stroke-dashoffset:0;stroke-opacity:1"
       id="path3434" />
    <path
       d="M 142.96842,976.18914 C 140.29041,976.46164 138.18898,978.75264 138.18897,981.50474 L 138.18897,990.35364 C 138.18897,993.28914 140.56672,995.66924 143.49947,995.66924 L 170.0832,995.66924 C 173.01595,995.66924 175.3937,993.28914 175.3937,990.35364 L 175.3937,981.50474 C 175.3937,978.56914 173.01595,976.18914 170.0832,976.18914 L 143.49947,976.18914 C 143.31617,976.18914 143.14695,976.17094 142.96842,976.18914 z "
       style="fill:none;fill-opacity:1;fill-rule:nonzero;stroke:#000000;stroke-width:1.25;stroke-miterlimit:4;stroke-dasharray:none;stroke-dashoffset:0;stroke-opacity:1"
       id="path3436" />
    <path
       d="M 4.7794477,947.84268 C 2.1014376,948.11518 9.9962305e-006,950.40618 0,953.15828 L 0,962.00718 C 0,964.94268 2.3777434,967.32278 5.3104975,967.32278 L 31.894227,967.32278 C 34.826981,967.32278 37.204724,964.94268 37.204724,962.00718 L 37.204724,953.15828 C 37.204724,950.22268 34.826981,947.84268 31.894227,947.84268 L 5.3104975,947.84268 C 5.1271966,947.84268 4.9579804,947.82448 4.7794477,947.84268 z "
       style="fill:none;fill-opacity:1;fill-rule:nonzero;stroke:#000000;stroke-width:1.25;stroke-miterlimit:4;stroke-dasharray:none;stroke-dashoffset:0;stroke-opacity:1"
       id="path3438" />
    <path
       d="M 50.842439,947.84268 C 48.164429,948.11518 46.063001,950.40618 46.062991,953.15828 L 46.062991,962.00718 C 46.062991,964.94268 48.440734,967.32278 51.373488,967.32278 L 77.957218,967.32278 C 80.889972,967.32278 83.267715,964.94268 83.267715,962.00718 L 83.267715,953.15828 C 83.267715,950.22268 80.889972,947.84268 77.957218,947.84268 L 51.373488,947.84268 C 51.190188,947.84268 51.020971,947.82448 50.842439,947.84268 z "
       style="fill:none;fill-opacity:1;fill-rule:nonzero;stroke:#000000;stroke-width:1.25;stroke-miterlimit:4;stroke-dasharray:none;stroke-dashoffset:0;stroke-opacity:1"
       id="path3440" />
    <path
       d="M 96.90543,947.84268 C 94.22742,948.11518 92.125992,950.40618 92.125982,953.15828 L 92.125982,962.00718 C 92.125982,964.94268 94.503725,967.32278 97.436479,967.32278 L 124.02021,967.32278 C 126.95296,967.32278 129.33071,964.94268 129.33071,962.00718 L 129.33071,953.15828 C 129.33071,950.22268 126.95296,947.84268 124.02021,947.84268 L 97.436479,947.84268 C 97.253179,947.84268 97.083962,947.82448 96.90543,947.84268 z "
       style="fill:none;fill-opacity:1;fill-rule:nonzero;stroke:#000000;stroke-width:1.25;stroke-miterlimit:4;stroke-dasharray:none;stroke-dashoffset:0;stroke-opacity:1"
       id="path3442" />
    <path
       d="M 142.96842,947.84268 C 140.29041,948.11518 138.18898,950.40618 138.18897,953.15828 L 138.18897,962.00718 C 138.18897,964.94268 140.56672,967.32278 143.49947,967.32278 L 170.0832,967.32278 C 173.01595,967.32278 175.3937,964.94268 175.3937,962.00718 L 175.3937,953.15828 C 175.3937,950.22268 173.01595,947.84268 170.0832,947.84268 L 143.49947,947.84268 C 143.31617,947.84268 143.14695,947.82448 142.96842,947.84268 z "
       style="fill:none;fill-opacity:1;fill-rule:nonzero;stroke:#000000;stroke-width:1.25;stroke-miterlimit:4;stroke-dasharray:none;stroke-dashoffset:0;stroke-opacity:1"
       id="path3444" />
    <text
       x="7.499999"
       y="1048.4336"
       style="font-size:16px;font-style:normal;font-weight:bold;text-align:center;text-anchor:middle;fill:#000000;fill-opacity:1;stroke:none;stroke-width:1px;stroke-linecap:butt;stroke-linejoin:miter;stroke-opacity:1;font-family:Arial"
       id="text3446"
       xml:space="preserve"><tspan
         x="7.499999"
         y="1048.4336"
         id="tspan3448">7</tspan></text>
    <text
       x="7.499999"
       y="1020.0872"
       style="font-size:16px;font-style:normal;font-weight:bold;text-align:center;text-anchor:middle;fill:#000000;fill-opacity:1;stroke:none;stroke-width:1px;stroke-linecap:butt;stroke-linejoin:miter;stroke-opacity:1;font-family:Arial"
       id="text3450"
       xml:space="preserve"><tspan
         x="7.499999"
         y="1020.0872"
         id="tspan3452">4</tspan></text>
    <text
       x="7.499999"
       y="991.74072"
       style="font-size:16px;font-style:normal;font-weight:bold;text-align:center;text-anchor:middle;fill:#000000;fill-opacity:1;stroke:none;stroke-width:1px;stroke-linecap:butt;stroke-linejoin:miter;stroke-opacity:1;font-family:Arial"
       id="text3454"
       xml:space="preserve"><tspan
         x="7.499999"
         y="991.74072"
         id="tspan3456">1</tspan></text>
    <text
       x="53.562988"
       y="1048.4336"
       style="font-size:16px;font-style:normal;font-weight:bold;text-align:center;text-anchor:middle;fill:#000000;fill-opacity:1;stroke:none;stroke-width:1px;stroke-linecap:butt;stroke-linejoin:miter;stroke-opacity:1;font-family:Arial"
       id="text3462"
       xml:space="preserve"><tspan
         x="53.562988"
         y="1048.4336"
         id="tspan3464">8</tspan></text>
    <text
       x="53.562988"
       y="1020.0872"
       style="font-size:16px;font-style:normal;font-weight:bold;text-align:center;text-anchor:middle;fill:#000000;fill-opacity:1;stroke:none;stroke-width:1px;stroke-linecap:butt;stroke-linejoin:miter;stroke-opacity:1;font-family:Arial"
       id="text3466"
       xml:space="preserve"><tspan
         x="53.562988"
         y="1020.0872"
         id="tspan3468">5</tspan></text>
    <text
       x="53.562988"
       y="991.74072"
       style="font-size:16px;font-style:normal;font-weight:bold;text-align:center;text-anchor:middle;fill:#000000;fill-opacity:1;stroke:none;stroke-width:1px;stroke-linecap:butt;stroke-linejoin:miter;stroke-opacity:1;font-family:Arial"
       id="text3470"
       xml:space="preserve"><tspan
         x="53.562988"
         y="991.74072"
         id="tspan3472">2</tspan></text>
    <text
       x="99.625977"
       y="1048.4336"
       style="font-size:16px;font-style:normal;font-weight:bold;text-align:center;text-anchor:middle;fill:#000000;fill-opacity:1;stroke:none;stroke-width:1px;stroke-linecap:butt;stroke-linejoin:miter;stroke-opacity:1;font-family:Arial"
       id="text3478"
       xml:space="preserve"><tspan
         x="99.625977"
         y="1048.4336"
         id="tspan3480">9</tspan></text>
    <text
       x="99.625977"
       y="1020.0872"
       style="font-size:16px;font-style:normal;font-weight:bold;text-align:center;text-anchor:middle;fill:#000000;fill-opacity:1;stroke:none;stroke-width:1px;stroke-linecap:butt;stroke-linejoin:miter;stroke-opacity:1;font-family:Arial"
       id="text3482"
       xml:space="preserve"><tspan
         x="99.625977"
         y="1020.0872"
         id="tspan3484">6</tspan></text>
    <text
       x="99.625977"
       y="991.74072"
       style="font-size:16px;font-style:normal;font-weight:bold;text-align:center;text-anchor:middle;fill:#000000;fill-opacity:1;stroke:none;stroke-width:1px;stroke-linecap:butt;stroke-linejoin:miter;stroke-opacity:1;font-family:Arial"
       id="text3486"
       xml:space="preserve"><tspan
         x="99.625977"
         y="991.74072"
         id="tspan3488">3</tspan></text>
    <text
       x="145.68896"
       y="1048.4336"
       style="font-size:16px;font-style:normal;font-weight:bold;text-align:center;text-anchor:middle;fill:#000000;fill-opacity:1;stroke:none;stroke-width:1px;stroke-linecap:butt;stroke-linejoin:miter;stroke-opacity:1;font-family:Arial"
       id="text3494"
       xml:space="preserve"><tspan
         x="145.68896"
         y="1048.4336"
         id="tspan3496">#</tspan></text>
    <text
       x="145.68896"
       y="1020.0872"
       style="font-size:16px;font-style:normal;font-weight:bold;text-align:center;text-anchor:middle;fill:#000000;fill-opacity:1;stroke:none;stroke-width:1px;stroke-linecap:butt;stroke-linejoin:miter;stroke-opacity:1;font-family:Arial"
       id="text3498"
       xml:space="preserve"><tspan
         x="145.68896"
         y="1020.0872"
         id="tspan3500">0</tspan></text>
    <text
       x="144.66397"
       y="1000.2195"
       style="font-size:26.01399231px;font-style:normal;font-weight:bold;text-align:center;text-anchor:middle;fill:#000000;fill-opacity:1;stroke:none;stroke-width:1px;stroke-linecap:butt;stroke-linejoin:miter;stroke-opacity:1;font-family:Arial"
       id="text3502"
       xml:space="preserve"><tspan
         x="144.66397"
         y="1000.2195"
         id="tspan3504">*</tspan></text>
    <text
       x="22.499998"
       y="1046.9124"
       style="font-size:11px;font-style:normal;font-weight:bold;text-align:center;text-anchor:middle;fill:#000000;fill-opacity:1;stroke:none;stroke-width:1px;stroke-linecap:butt;stroke-linejoin:miter;stroke-opacity:1;font-family:Arial Narrow"
       id="text3510"
       xml:space="preserve"><tspan
         x="22.499998"
         y="1046.9124"
         id="tspan3512">TDR</tspan></text>
    <text
       x="69.626984"
       y="1046.9124"
       style="font-size:11px;font-style:normal;font-weight:bold;text-align:center;text-anchor:middle;fill:#000000;fill-opacity:1;stroke:none;stroke-width:1px;stroke-linecap:butt;stroke-linejoin:miter;stroke-opacity:1;font-family:Arial Narrow"
       id="text3514"
       xml:space="preserve"><tspan
         x="69.626984"
         y="1046.9124"
         id="tspan3516">BEEP</tspan></text>
    <text
       x="114.62598"
       y="1046.9124"
       style="font-size:11px;font-style:normal;font-weight:bold;text-align:center;text-anchor:middle;fill:#000000;fill-opacity:1;stroke:none;stroke-width:1px;stroke-linecap:butt;stroke-linejoin:miter;stroke-opacity:1;font-family:Arial Narrow"
       id="text3518"
       xml:space="preserve"><tspan
         x="114.62598"
         y="1046.9124"
         id="tspan3520">TOT</tspan></text>
    <text
       x="22.499998"
       y="1018.5659"
       style="font-size:11px;font-style:normal;font-weight:bold;text-align:center;text-anchor:middle;fill:#000000;fill-opacity:1;stroke:none;stroke-width:1px;stroke-linecap:butt;stroke-linejoin:miter;stroke-opacity:1;font-family:Arial Narrow"
       id="text3530"
       xml:space="preserve"><tspan
         x="22.499998"
         y="1018.5659"
         id="tspan3532">VOX</tspan></text>
    <text
       x="68.562988"
       y="1018.5659"
       style="font-size:11px;font-style:normal;font-weight:bold;text-align:center;text-anchor:middle;fill:#000000;fill-opacity:1;stroke:none;stroke-width:1px;stroke-linecap:butt;stroke-linejoin:miter;stroke-opacity:1;font-family:Arial Narrow"
       id="text3534"
       xml:space="preserve"><tspan
         x="68.562988"
         y="1018.5659"
         id="tspan3536">WN</tspan></text>
    <text
       x="114.62598"
       y="1018.5659"
       style="font-size:11px;font-style:normal;font-weight:bold;text-align:center;text-anchor:middle;fill:#000000;fill-opacity:1;stroke:none;stroke-width:1px;stroke-linecap:butt;stroke-linejoin:miter;stroke-opacity:1;font-family:Arial Narrow"
       id="text3538"
       xml:space="preserve"><tspan
         x="114.62598"
         y="1018.5659"
         id="tspan3540">ABR</tspan></text>
    <text
       x="160.68896"
       y="1018.5659"
       style="font-size:11px;font-style:normal;font-weight:bold;text-align:center;text-anchor:middle;fill:#000000;fill-opacity:1;stroke:none;stroke-width:1px;stroke-linecap:butt;stroke-linejoin:miter;stroke-opacity:1;font-family:Arial Narrow"
       id="text3542"
       xml:space="preserve"><tspan
         x="160.68896"
         y="1018.5659"
         id="tspan3544">SQL</tspan></text>
    <text
       x="22.499998"
       y="990.21948"
       style="font-size:11px;font-style:normal;font-weight:bold;text-align:center;text-anchor:middle;fill:#000000;fill-opacity:1;stroke:none;stroke-width:1px;stroke-linecap:butt;stroke-linejoin:miter;stroke-opacity:1;font-family:Arial Narrow"
       id="text3546"
       xml:space="preserve"><tspan
         x="22.499998"
         y="990.21948"
         id="tspan3548">STEP</tspan></text>
    <text
       x="68.562988"
       y="990.21948"
       style="font-size:11px;font-style:normal;font-weight:bold;text-align:center;text-anchor:middle;fill:#000000;fill-opacity:1;stroke:none;stroke-width:1px;stroke-linecap:butt;stroke-linejoin:miter;stroke-opacity:1;font-family:Arial Narrow"
       id="text3550"
       xml:space="preserve"><tspan
         x="68.562988"
         y="990.21948"
         id="tspan3552">TXP</tspan></text>
    <text
       x="115.68997"
       y="990.21948"
       style="font-size:11px;font-style:normal;font-weight:bold;text-align:center;text-anchor:middle;fill:#000000;fill-opacity:1;stroke:none;stroke-width:1px;stroke-linecap:butt;stroke-linejoin:miter;stroke-opacity:1;font-family:Arial Narrow"
       id="text3554"
       xml:space="preserve"><tspan
         x="115.68997"
         y="990.21948"
         id="tspan3556">SAVE</tspan></text>
    <text
       x="161.75298"
       y="990.21948"
       style="font-size:11px;font-style:normal;font-weight:bold;text-align:center;text-anchor:middle;fill:#000000;fill-opacity:1;stroke:none;stroke-width:1px;stroke-linecap:butt;stroke-linejoin:miter;stroke-opacity:1;font-family:Arial Narrow"
       id="text3558"
       xml:space="preserve"><tspan
         x="161.75298"
         y="990.21948"
         id="tspan3560">SCAN</tspan></text>
    <text
       x="18.603735"
       y="961.51709"
       style="font-size:11px;font-style:normal;font-weight:bold;text-align:center;text-anchor:middle;fill:#000000;fill-opacity:1;stroke:none;stroke-width:1px;stroke-linecap:butt;stroke-linejoin:miter;stroke-opacity:1;font-family:Arial Narrow"
       id="text3562"
       xml:space="preserve"><tspan
         x="18.603735"
         y="961.51709"
         id="tspan3564">MENU</tspan></text>
    <text
       x="157.14481"
       y="961.52026"
       style="font-size:11px;font-style:normal;font-weight:bold;text-align:center;text-anchor:middle;fill:#000000;fill-opacity:1;stroke:none;stroke-width:1px;stroke-linecap:butt;stroke-linejoin:miter;stroke-opacity:1;font-family:Arial Narrow"
       id="text3574"
       xml:space="preserve"><tspan
         x="157.14481"
         y="961.52026"
         id="tspan3576">EXIT</tspan></text>
    <path
       d="M 166.47913,1038.8085 C 166.81209,1038.8181 167.13523,1038.9721 167.78534,1039.2868 C 169.29239,1040.0164 169.91942,1040.9831 169.91943,1042.5891 C 169.91943,1044.962 167.43614,1046.6283 165.18211,1045.7719 C 164.5197,1045.5202 163.79553,1044.9542 163.45276,1044.4105 L 162.86405,1043.4722 L 160.14124,1043.463 L 157.41843,1043.4538 L 157.41843,1045.0728 C 157.41843,1046.6034 157.37829,1046.6917 156.68253,1046.6917 C 155.98678,1046.6917 155.94664,1046.6034 155.94664,1045.0728 L 155.94664,1043.4538 L 154.91639,1043.4538 L 153.88613,1043.4538 L 153.88613,1045.6615 C 153.88613,1047.8201 153.86978,1047.8692 153.15024,1047.8692 C 152.43829,1047.8692 152.41748,1047.8045 152.41435,1045.8823 C 152.41256,1044.7895 152.32153,1043.3986 152.22117,1042.7915 L 152.0464,1041.6877 L 157.45522,1041.6785 L 162.86405,1041.6693 L 163.33318,1040.7218 C 163.65656,1040.0652 164.20966,1039.5979 165.13612,1039.2132 C 165.80244,1038.9365 166.14616,1038.7989 166.47913,1038.8085 z "
       style="fill:#000000;fill-opacity:1"
       id="path3578" />
    <path
       d="M 141.67389,-18.958481 L 127.66144,-43.228761 L 155.68634,-43.228762 L 141.67389,-18.958481 z "
       transform="matrix(0.5317641,0,0,0.5317641,35.412079,974.0667)"
       style="fill:#000000;fill-opacity:1;fill-rule:nonzero;stroke:none;stroke-width:1.25;stroke-miterlimit:4;stroke-dasharray:none;stroke-dashoffset:0;stroke-opacity:1"
       id="path4581" />
    <path
       d="M 141.67389,-18.958481 L 127.66144,-43.228761 L 155.68634,-43.228762 L 141.67389,-18.958481 z "
       transform="matrix(0.5317641,0,0,-0.5317641,-10.423592,940.61895)"
       style="fill:#000000;fill-opacity:1;fill-rule:nonzero;stroke:none;stroke-width:1.25;stroke-miterlimit:4;stroke-dasharray:none;stroke-dashoffset:0;stroke-opacity:1"
       id="path4585" />
  </g>
</svg>
