<?xml version="1.0" encoding="UTF-8" standalone="no"?>
<!-- Created with Inkscape (http://www.inkscape.org/) -->
<svg
   xmlns:dc="http://purl.org/dc/elements/1.1/"
   xmlns:cc="http://web.resource.org/cc/"
   xmlns:rdf="http://www.w3.org/1999/02/22-rdf-syntax-ns#"
   xmlns:svg="http://www.w3.org/2000/svg"
   xmlns="http://www.w3.org/2000/svg"
   xmlns:sodipodi="http://sodipodi.sourceforge.net/DTD/sodipodi-0.dtd"
   xmlns:inkscape="http://www.inkscape.org/namespaces/inkscape"
   version="1.0"
   width="176.64371"
   height="105.77761"
   id="svg2"
   sodipodi:version="0.32"
   inkscape:version="0.45pre1"
   sodipodi:docname="keypad.svg"
   inkscape:output_extension="org.inkscape.output.svg.inkscape"
   sodipodi:docbase="E:\lenny\workspace\radiodoc\uv-5r\assets\images"
   sodipodi:modified="true">
  <metadata
     id="metadata75">
    <rdf:RDF>
      <cc:Work
         rdf:about="">
        <dc:format>image/svg+xml</dc:format>
        <dc:type
           rdf:resource="http://purl.org/dc/dcmitype/StillImage" />
      </cc:Work>
    </rdf:RDF>
  </metadata>
  <sodipodi:namedview
     inkscape:window-height="1180"
     inkscape:window-width="1600"
     inkscape:pageshadow="2"
     inkscape:pageopacity="0.0"
     guidetolerance="10.0"
     gridtolerance="10.0"
     objecttolerance="10.0"
     borderopacity="1.0"
     bordercolor="#666666"
     pagecolor="#ffffff"
     id="base"
     inkscape:zoom="1.2734627"
     inkscape:cx="257.97664"
     inkscape:cy="-183.64029"
     inkscape:window-x="-4"
     inkscape:window-y="-4"
     inkscape:current-layer="svg2" />
  <defs
     id="defs4" />
  <path
     id="rect3397"
     style="fill:none;fill-opacity:1;fill-rule:nonzero;stroke:#000000;stroke-width:1.25;stroke-miterlimit:4;stroke-dasharray:none;stroke-dashoffset:0;stroke-opacity:1"
     d="M 5.4044477,85.67251 C 2.7264376,85.94501 0.62501,88.23601 0.625,90.98811 L 0.625,99.83701 C 0.625,102.77251 3.0027434,105.15261 5.9354975,105.15261 L 32.519227,105.15261 C 35.451981,105.15261 37.829724,102.77251 37.829724,99.83701 L 37.829724,90.98811 C 37.829724,88.05251 35.451981,85.67251 32.519227,85.67251 L 5.9354975,85.67251 C 5.7521966,85.67251 5.5829804,85.65431 5.4044477,85.67251 z " />
  <path
     id="path3416"
     style="fill:none;fill-opacity:1;fill-rule:nonzero;stroke:#000000;stroke-width:1.25;stroke-miterlimit:4;stroke-dasharray:none;stroke-dashoffset:0;stroke-opacity:1"
     d="M 51.467439,85.67251 C 48.789429,85.94501 46.688001,88.23601 46.687991,90.98811 L 46.687991,99.83701 C 46.687991,102.77251 49.065734,105.15261 51.998488,105.15261 L 78.582218,105.15261 C 81.514972,105.15261 83.892715,102.77251 83.892715,99.83701 L 83.892715,90.98811 C 83.892715,88.05251 81.514972,85.67251 78.582218,85.67251 L 51.998488,85.67251 C 51.815188,85.67251 51.645971,85.65431 51.467439,85.67251 z " />
  <path
     id="path3418"
     style="fill:none;fill-opacity:1;fill-rule:nonzero;stroke:#000000;stroke-width:1.25;stroke-miterlimit:4;stroke-dasharray:none;stroke-dashoffset:0;stroke-opacity:1"
     d="M 97.53043,85.67251 C 94.85242,85.94501 92.750992,88.23601 92.750982,90.98811 L 92.750982,99.83701 C 92.750982,102.77251 95.128725,105.15261 98.061479,105.15261 L 124.64521,105.15261 C 127.57796,105.15261 129.95571,102.77251 129.95571,99.83701 L 129.95571,90.98811 C 129.95571,88.05251 127.57796,85.67251 124.64521,85.67251 L 98.061479,85.67251 C 97.878179,85.67251 97.708962,85.65431 97.53043,85.67251 z " />
  <path
     id="path3420"
     style="fill:none;fill-opacity:1;fill-rule:nonzero;stroke:#000000;stroke-width:1.25;stroke-miterlimit:4;stroke-dasharray:none;stroke-dashoffset:0;stroke-opacity:1"
     d="M 143.59342,85.67251 C 140.91541,85.94501 138.81398,88.23601 138.81397,90.98811 L 138.81397,99.83701 C 138.81397,102.77251 141.19172,105.15261 144.12447,105.15261 L 170.7082,105.15261 C 173.64095,105.15261 176.0187,102.77251 176.0187,99.83701 L 176.0187,90.98811 C 176.0187,88.05251 173.64095,85.67251 170.7082,85.67251 L 144.12447,85.67251 C 143.94117,85.67251 143.77195,85.65431 143.59342,85.67251 z " />
  <path
     id="path3422"
     style="fill:none;fill-opacity:1;fill-rule:nonzero;stroke:#000000;stroke-width:1.25;stroke-miterlimit:4;stroke-dasharray:none;stroke-dashoffset:0;stroke-opacity:1"
     d="M 5.4044477,57.32601 C 2.7264376,57.59851 0.62501,59.88951 0.625,62.64161 L 0.625,71.49051 C 0.625,74.42601 3.0027434,76.80611 5.9354975,76.80611 L 32.519227,76.80611 C 35.451981,76.80611 37.829724,74.42601 37.829724,71.49051 L 37.829724,62.64161 C 37.829724,59.70601 35.451981,57.32601 32.519227,57.32601 L 5.9354975,57.32601 C 5.7521966,57.32601 5.5829804,57.30781 5.4044477,57.32601 z " />
  <path
     id="path3424"
     style="fill:none;fill-opacity:1;fill-rule:nonzero;stroke:#000000;stroke-width:1.25;stroke-miterlimit:4;stroke-dasharray:none;stroke-dashoffset:0;stroke-opacity:1"
     d="M 51.467439,57.32601 C 48.789429,57.59851 46.688001,59.88951 46.687991,62.64161 L 46.687991,71.49051 C 46.687991,74.42601 49.065734,76.80611 51.998488,76.80611 L 78.582218,76.80611 C 81.514972,76.80611 83.892715,74.42601 83.892715,71.49051 L 83.892715,62.64161 C 83.892715,59.70601 81.514972,57.32601 78.582218,57.32601 L 51.998488,57.32601 C 51.815188,57.32601 51.645971,57.30781 51.467439,57.32601 z " />
  <path
     id="path3426"
     style="fill:none;fill-opacity:1;fill-rule:nonzero;stroke:#000000;stroke-width:1.25;stroke-miterlimit:4;stroke-dasharray:none;stroke-dashoffset:0;stroke-opacity:1"
     d="M 97.53043,57.32601 C 94.85242,57.59851 92.750992,59.88951 92.750982,62.64161 L 92.750982,71.49051 C 92.750982,74.42601 95.128725,76.80611 98.061479,76.80611 L 124.64521,76.80611 C 127.57796,76.80611 129.95571,74.42601 129.95571,71.49051 L 129.95571,62.64161 C 129.95571,59.70601 127.57796,57.32601 124.64521,57.32601 L 98.061479,57.32601 C 97.878179,57.32601 97.708962,57.30781 97.53043,57.32601 z " />
  <path
     id="path3428"
     style="fill:none;fill-opacity:1;fill-rule:nonzero;stroke:#000000;stroke-width:1.25;stroke-miterlimit:4;stroke-dasharray:none;stroke-dashoffset:0;stroke-opacity:1"
     d="M 143.59342,57.32601 C 140.91541,57.59851 138.81398,59.88951 138.81397,62.64161 L 138.81397,71.49051 C 138.81397,74.42601 141.19172,76.80611 144.12447,76.80611 L 170.7082,76.80611 C 173.64095,76.80611 176.0187,74.42601 176.0187,71.49051 L 176.0187,62.64161 C 176.0187,59.70601 173.64095,57.32601 170.7082,57.32601 L 144.12447,57.32601 C 143.94117,57.32601 143.77195,57.30781 143.59342,57.32601 z " />
  <path
     id="path3430"
     style="fill:none;fill-opacity:1;fill-rule:nonzero;stroke:#000000;stroke-width:1.25;stroke-miterlimit:4;stroke-dasharray:none;stroke-dashoffset:0;stroke-opacity:1"
     d="M 5.4044477,28.97955 C 2.7264376,29.25205 0.62501,31.54305 0.625,34.29515 L 0.625,43.14405 C 0.625,46.07955 3.0027434,48.45965 5.9354975,48.45965 L 32.519227,48.45965 C 35.451981,48.45965 37.829724,46.07955 37.829724,43.14405 L 37.829724,34.29515 C 37.829724,31.35955 35.451981,28.97955 32.519227,28.97955 L 5.9354975,28.97955 C 5.7521966,28.97955 5.5829804,28.96135 5.4044477,28.97955 z " />
  <path
     id="path3432"
     style="fill:none;fill-opacity:1;fill-rule:nonzero;stroke:#000000;stroke-width:1.25;stroke-miterlimit:4;stroke-dasharray:none;stroke-dashoffset:0;stroke-opacity:1"
     d="M 51.467439,28.97955 C 48.789429,29.25205 46.688001,31.54305 46.687991,34.29515 L 46.687991,43.14405 C 46.687991,46.07955 49.065734,48.45965 51.998488,48.45965 L 78.582218,48.45965 C 81.514972,48.45965 83.892715,46.07955 83.892715,43.14405 L 83.892715,34.29515 C 83.892715,31.35955 81.514972,28.97955 78.582218,28.97955 L 51.998488,28.97955 C 51.815188,28.97955 51.645971,28.96135 51.467439,28.97955 z " />
  <path
     id="path3434"
     style="fill:none;fill-opacity:1;fill-rule:nonzero;stroke:#000000;stroke-width:1.25;stroke-miterlimit:4;stroke-dasharray:none;stroke-dashoffset:0;stroke-opacity:1"
     d="M 97.53043,28.97955 C 94.85242,29.25205 92.750992,31.54305 92.750982,34.29515 L 92.750982,43.14405 C 92.750982,46.07955 95.128725,48.45965 98.061479,48.45965 L 124.64521,48.45965 C 127.57796,48.45965 129.95571,46.07955 129.95571,43.14405 L 129.95571,34.29515 C 129.95571,31.35955 127.57796,28.97955 124.64521,28.97955 L 98.061479,28.97955 C 97.878179,28.97955 97.708962,28.96135 97.53043,28.97955 z " />
  <path
     id="path3436"
     style="fill:none;fill-opacity:1;fill-rule:nonzero;stroke:#000000;stroke-width:1.25;stroke-miterlimit:4;stroke-dasharray:none;stroke-dashoffset:0;stroke-opacity:1"
     d="M 143.59342,28.97955 C 140.91541,29.25205 138.81398,31.54305 138.81397,34.29515 L 138.81397,43.14405 C 138.81397,46.07955 141.19172,48.45965 144.12447,48.45965 L 170.7082,48.45965 C 173.64095,48.45965 176.0187,46.07955 176.0187,43.14405 L 176.0187,34.29515 C 176.0187,31.35955 173.64095,28.97955 170.7082,28.97955 L 144.12447,28.97955 C 143.94117,28.97955 143.77195,28.96135 143.59342,28.97955 z " />
  <path
     id="path3438"
     style="fill:none;fill-opacity:1;fill-rule:nonzero;stroke:#000000;stroke-width:1.25;stroke-miterlimit:4;stroke-dasharray:none;stroke-dashoffset:0;stroke-opacity:1"
     d="M 5.4044477,0.63309 C 2.7264376,0.90559 0.62501,3.19659 0.625,5.94869 L 0.625,14.79759 C 0.625,17.73309 3.0027434,20.11319 5.9354975,20.11319 L 32.519227,20.11319 C 35.451981,20.11319 37.829724,17.73309 37.829724,14.79759 L 37.829724,5.94869 C 37.829724,3.01309 35.451981,0.63309 32.519227,0.63309 L 5.9354975,0.63309 C 5.7521966,0.63309 5.5829804,0.61489 5.4044477,0.63309 z " />
  <path
     id="path3440"
     style="fill:none;fill-opacity:1;fill-rule:nonzero;stroke:#000000;stroke-width:1.25;stroke-miterlimit:4;stroke-dasharray:none;stroke-dashoffset:0;stroke-opacity:1"
     d="M 51.467439,0.63309 C 48.789429,0.90559 46.688001,3.19659 46.687991,5.94869 L 46.687991,14.79759 C 46.687991,17.73309 49.065734,20.11319 51.998488,20.11319 L 78.582218,20.11319 C 81.514972,20.11319 83.892715,17.73309 83.892715,14.79759 L 83.892715,5.94869 C 83.892715,3.01309 81.514972,0.63309 78.582218,0.63309 L 51.998488,0.63309 C 51.815188,0.63309 51.645971,0.61489 51.467439,0.63309 z " />
  <path
     id="path3442"
     style="fill:none;fill-opacity:1;fill-rule:nonzero;stroke:#000000;stroke-width:1.25;stroke-miterlimit:4;stroke-dasharray:none;stroke-dashoffset:0;stroke-opacity:1"
     d="M 97.53043,0.63309 C 94.85242,0.90559 92.750992,3.19659 92.750982,5.94869 L 92.750982,14.79759 C 92.750982,17.73309 95.128725,20.11319 98.061479,20.11319 L 124.64521,20.11319 C 127.57796,20.11319 129.95571,17.73309 129.95571,14.79759 L 129.95571,5.94869 C 129.95571,3.01309 127.57796,0.63309 124.64521,0.63309 L 98.061479,0.63309 C 97.878179,0.63309 97.708962,0.61489 97.53043,0.63309 z " />
  <path
     id="path3444"
     style="fill:none;fill-opacity:1;fill-rule:nonzero;stroke:#000000;stroke-width:1.25;stroke-miterlimit:4;stroke-dasharray:none;stroke-dashoffset:0;stroke-opacity:1"
     d="M 143.59342,0.63309 C 140.91541,0.90559 138.81398,3.19659 138.81397,5.94869 L 138.81397,14.79759 C 138.81397,17.73309 141.19172,20.11319 144.12447,20.11319 L 170.7082,20.11319 C 173.64095,20.11319 176.0187,17.73309 176.0187,14.79759 L 176.0187,5.94869 C 176.0187,3.01309 173.64095,0.63309 170.7082,0.63309 L 144.12447,0.63309 C 143.94117,0.63309 143.77195,0.61489 143.59342,0.63309 z " />
  <text
     xml:space="preserve"
     id="text3446"
     style="font-size:20.01361847px;font-style:normal;font-weight:bold;text-align:center;text-anchor:middle;fill:#000000;fill-opacity:1;stroke:none;stroke-width:1px;stroke-linecap:butt;stroke-linejoin:miter;stroke-opacity:1;font-family:Arial"
     y="102.88979"
     x="6.8505168"><tspan
       id="tspan3448"
       y="102.88979"
       x="6.8505168">7</tspan></text>
  <text
     xml:space="preserve"
     id="text3450"
     style="font-size:19.94604492px;font-style:normal;font-weight:bold;text-align:center;text-anchor:middle;fill:#000000;fill-opacity:1;stroke:none;stroke-width:1px;stroke-linecap:butt;stroke-linejoin:miter;stroke-opacity:1;font-family:Arial"
     y="74.265793"
     x="7.2066236"><tspan
       id="tspan3452"
       y="74.265793"
       x="7.2066236">4</tspan></text>
  <text
     xml:space="preserve"
     id="text3454"
     style="font-size:19.94604492px;font-style:normal;font-weight:bold;text-align:center;text-anchor:middle;fill:#000000;fill-opacity:1;stroke:none;stroke-width:1px;stroke-linecap:butt;stroke-linejoin:miter;stroke-opacity:1;font-family:Arial"
     y="45.502842"
     x="5.8571792"><tspan
       id="tspan3456"
       y="45.502842"
       x="5.8571792">1</tspan></text>
  <text
     xml:space="preserve"
     id="text3462"
     style="font-size:19.39155006px;font-style:normal;font-weight:bold;text-align:center;text-anchor:middle;fill:#000000;fill-opacity:1;stroke:none;stroke-width:1px;stroke-linecap:butt;stroke-linejoin:miter;stroke-opacity:1;font-family:Arial"
     y="102.43029"
     x="52.079342"><tspan
       id="tspan3464"
       y="102.43029"
       x="52.079342">8</tspan></text>
  <text
     xml:space="preserve"
     id="text3466"
     style="font-size:19.94480515px;font-style:normal;font-weight:bold;text-align:center;text-anchor:middle;fill:#000000;fill-opacity:1;stroke:none;stroke-width:1px;stroke-linecap:butt;stroke-linejoin:miter;stroke-opacity:1;font-family:Arial"
     y="74.356461"
     x="53.028381"><tspan
       id="tspan3468"
       y="74.356461"
       x="53.028381">5</tspan></text>
  <text
     xml:space="preserve"
     id="text3470"
     style="font-size:19.94604492px;font-style:normal;font-weight:bold;text-align:center;text-anchor:middle;fill:#000000;fill-opacity:1;stroke:none;stroke-width:1px;stroke-linecap:butt;stroke-linejoin:miter;stroke-opacity:1;font-family:Arial"
     y="45.780472"
     x="53.522202"><tspan
       id="tspan3472"
       y="45.780472"
       x="53.522202">2</tspan></text>
  <text
     xml:space="preserve"
     id="text3478"
     style="font-size:19.39155006px;font-style:normal;font-weight:bold;text-align:center;text-anchor:middle;fill:#000000;fill-opacity:1;stroke:none;stroke-width:1px;stroke-linecap:butt;stroke-linejoin:miter;stroke-opacity:1;font-family:Arial"
     y="102.43029"
     x="99.282677"><tspan
       id="tspan3480"
       y="102.43029"
       x="99.282677">9</tspan></text>
  <text
     xml:space="preserve"
     id="text3482"
     style="font-size:19.39480782px;font-style:normal;font-weight:bold;text-align:center;text-anchor:middle;fill:#000000;fill-opacity:1;stroke:none;stroke-width:1px;stroke-linecap:butt;stroke-linejoin:miter;stroke-opacity:1;font-family:Arial"
     y="74.085518"
     x="98.691772"><tspan
       id="tspan3484"
       y="74.085518"
       x="98.691772">6</tspan></text>
  <text
     xml:space="preserve"
     id="text3486"
     style="font-size:19.39480782px;font-style:normal;font-weight:bold;text-align:center;text-anchor:middle;fill:#000000;fill-opacity:1;stroke:none;stroke-width:1px;stroke-linecap:butt;stroke-linejoin:miter;stroke-opacity:1;font-family:Arial"
     y="45.73904"
     x="98.430695"><tspan
       id="tspan3488"
       y="45.73904"
       x="98.430695">3</tspan></text>
  <text
     xml:space="preserve"
     id="text3494"
     style="font-size:19.35277748px;font-style:normal;font-weight:bold;text-align:center;text-anchor:middle;fill:#000000;fill-opacity:1;stroke:none;stroke-width:1px;stroke-linecap:butt;stroke-linejoin:miter;stroke-opacity:1;font-family:Arial"
     y="102.01596"
     x="145.69064"><tspan
       id="tspan3496"
       y="102.01596"
       x="145.69064">#</tspan></text>
  <text
     xml:space="preserve"
     id="text3498"
     style="font-size:19.39480782px;font-style:normal;font-weight:bold;text-align:center;text-anchor:middle;fill:#000000;fill-opacity:1;stroke:none;stroke-width:1px;stroke-linecap:butt;stroke-linejoin:miter;stroke-opacity:1;font-family:Arial"
     y="73.807884"
     x="145.03404"><tspan
       id="tspan3500"
       y="73.807884"
       x="145.03404">0</tspan></text>
  <text
     xml:space="preserve"
     id="text3502"
     style="font-size:29.05822754px;font-style:normal;font-weight:bold;text-align:center;text-anchor:middle;fill:#000000;fill-opacity:1;stroke:none;stroke-width:1px;stroke-linecap:butt;stroke-linejoin:miter;stroke-opacity:1;font-family:Arial"
     y="54.996674"
     x="145.14487"><tspan
       id="tspan3504"
       y="54.996674"
       x="145.14487">*</tspan></text>
  <text
     xml:space="preserve"
     id="text3510"
     style="font-size:13.75936222px;font-style:normal;font-weight:bold;text-align:center;text-anchor:middle;fill:#000000;fill-opacity:1;stroke:none;stroke-width:1px;stroke-linecap:butt;stroke-linejoin:miter;stroke-opacity:1;font-family:Arial Narrow"
     y="100.98695"
     x="25.613281"><tspan
       id="tspan3512"
       y="100.98695"
       x="25.613281">TDR</tspan></text>
  <text
     xml:space="preserve"
     id="text3514"
     style="font-size:12.56183243px;font-style:normal;font-weight:bold;text-align:center;text-anchor:middle;fill:#000000;fill-opacity:1;stroke:none;stroke-width:1px;stroke-linecap:butt;stroke-linejoin:miter;stroke-opacity:1;font-family:Arial Narrow"
     y="94.778069"
     x="74.256554"
     transform="scale(0.9422535,1.0612856)"><tspan
       id="tspan3516"
       y="94.778069"
       x="74.256554">BEEP</tspan></text>
  <text
     xml:space="preserve"
     id="text3518"
     style="font-size:13.33169174px;font-style:normal;font-weight:bold;text-align:center;text-anchor:middle;fill:#000000;fill-opacity:1;stroke:none;stroke-width:1px;stroke-linecap:butt;stroke-linejoin:miter;stroke-opacity:1;font-family:Arial Narrow"
     y="100.58659"
     x="117.46226"><tspan
       id="tspan3520"
       y="100.58659"
       x="117.46226">TOT</tspan></text>
  <text
     xml:space="preserve"
     id="text3530"
     style="font-size:13.71290588px;font-style:normal;font-weight:bold;text-align:center;text-anchor:middle;fill:#000000;fill-opacity:1;stroke:none;stroke-width:1px;stroke-linecap:butt;stroke-linejoin:miter;stroke-opacity:1;font-family:Arial Narrow"
     y="72.369286"
     x="24.101435"><tspan
       id="tspan3532"
       y="72.369286"
       x="24.101435">VOX</tspan></text>
  <text
     xml:space="preserve"
     id="text3534"
     style="font-size:13.71205521px;font-style:normal;font-weight:bold;text-align:center;text-anchor:middle;fill:#000000;fill-opacity:1;stroke:none;stroke-width:1px;stroke-linecap:butt;stroke-linejoin:miter;stroke-opacity:1;font-family:Arial Narrow"
     y="72.460075"
     x="70.477303"><tspan
       id="tspan3536"
       y="72.460075"
       x="70.477303">WN</tspan></text>
  <text
     xml:space="preserve"
     id="text3538"
     style="font-size:13.33393002px;font-style:normal;font-weight:bold;text-align:center;text-anchor:middle;fill:#000000;fill-opacity:1;stroke:none;stroke-width:1px;stroke-linecap:butt;stroke-linejoin:miter;stroke-opacity:1;font-family:Arial Narrow"
     y="72.241447"
     x="116.87441"><tspan
       id="tspan3540"
       y="72.241447"
       x="116.87441">ABR</tspan></text>
  <text
     xml:space="preserve"
     id="text3542"
     style="font-size:13.33393002px;font-style:normal;font-weight:bold;text-align:center;text-anchor:middle;fill:#000000;fill-opacity:1;stroke:none;stroke-width:1px;stroke-linecap:butt;stroke-linejoin:miter;stroke-opacity:1;font-family:Arial Narrow"
     y="71.963814"
     x="163.21667"><tspan
       id="tspan3544"
       y="71.963814"
       x="163.21667">SQL</tspan></text>
  <text
     xml:space="preserve"
     id="text3546"
     style="font-size:13.51073742px;font-style:normal;font-weight:bold;text-align:center;text-anchor:middle;fill:#000000;fill-opacity:1;stroke:none;stroke-width:1px;stroke-linecap:butt;stroke-linejoin:miter;stroke-opacity:1;font-family:Arial Narrow"
     y="42.963535"
     x="23.231741"
     transform="scale(0.985257,1.0149636)"><tspan
       id="tspan3548"
       y="42.963535"
       x="23.231741">STEP</tspan></text>
  <text
     xml:space="preserve"
     id="text3550"
     style="font-size:13.71290588px;font-style:normal;font-weight:bold;text-align:center;text-anchor:middle;fill:#000000;fill-opacity:1;stroke:none;stroke-width:1px;stroke-linecap:butt;stroke-linejoin:miter;stroke-opacity:1;font-family:Arial Narrow"
     y="43.884052"
     x="72.221611"><tspan
       id="tspan3552"
       y="43.884052"
       x="72.221611">TXP</tspan></text>
  <text
     xml:space="preserve"
     id="text3554"
     style="font-size:12.43701172px;font-style:normal;font-weight:bold;text-align:center;text-anchor:middle;fill:#000000;fill-opacity:1;stroke:none;stroke-width:1px;stroke-linecap:butt;stroke-linejoin:miter;stroke-opacity:1;font-family:Arial Narrow"
     y="40.94239"
     x="124.38674"
     transform="scale(0.9327342,1.0721168)"><tspan
       id="tspan3556"
       y="40.94239"
       x="124.38674">SAVE</tspan></text>
  <text
     xml:space="preserve"
     id="text3558"
     style="font-size:11.58148575px;font-style:normal;font-weight:bold;text-align:center;text-anchor:middle;fill:#000000;fill-opacity:1;stroke:none;stroke-width:1px;stroke-linecap:butt;stroke-linejoin:miter;stroke-opacity:1;font-family:Arial Narrow"
     y="41.309097"
     x="172.59637"
     transform="scale(0.942561,1.0609393)"><tspan
       id="tspan3560"
       y="41.309097"
       x="172.59637">SCAN</tspan></text>
  <text
     xml:space="preserve"
     id="text3562"
     style="font-size:16.24769592px;font-style:normal;font-weight:bold;text-align:center;text-anchor:middle;fill:#000000;fill-opacity:1;stroke:none;stroke-width:1px;stroke-linecap:butt;stroke-linejoin:miter;stroke-opacity:1;font-family:Arial Narrow"
     y="15.584162"
     x="21.011265"
     transform="scale(0.916623,1.0909611)"><tspan
       id="tspan3564"
       y="15.584162"
       x="21.011265">MENU</tspan></text>
  <text
     xml:space="preserve"
     id="text3574"
     style="font-size:18.46800995px;font-style:normal;font-weight:bold;text-align:center;text-anchor:middle;fill:#000000;fill-opacity:1;stroke:none;stroke-width:1px;stroke-linecap:butt;stroke-linejoin:miter;stroke-opacity:1;font-family:Arial Narrow"
     y="17.36194"
     x="153.55002"
     transform="scale(1.0244137,0.9761681)"><tspan
       id="tspan3576"
       y="17.36194"
       x="153.55002">EXIT</tspan></text>
  <path
     id="path3578"
     style="fill:#000000;fill-opacity:1"
     d="M 170.83739,90.373949 C 171.24013,90.38556 171.63099,90.571832 172.41733,90.952477 C 174.24017,91.834964 174.99858,93.004234 174.99859,94.946768 C 174.99859,97.816907 171.99495,99.832376 169.26861,98.796519 C 168.46737,98.492076 167.59143,97.807471 167.17685,97.14984 L 166.4648,96.014921 L 163.17142,96.003795 L 159.87804,95.992665 L 159.87804,97.950924 C 159.87804,99.802259 159.82949,99.909061 158.98791,99.909061 C 158.14639,99.909061 158.09785,99.802259 158.09785,97.950924 L 158.09785,95.992665 L 156.85172,95.992665 L 155.60553,95.992665 L 155.60553,98.662986 C 155.60553,101.2739 155.58575,101.33329 154.71547,101.33329 C 153.85432,101.33329 153.82917,101.25506 153.82535,98.930052 C 153.8232,97.60826 153.71312,95.925897 153.59169,95.191582 L 153.38028,93.856482 L 159.92254,93.845353 L 166.4648,93.834227 L 167.03221,92.688178 C 167.42338,91.89399 168.09234,91.328769 169.21296,90.863454 C 170.01893,90.528773 170.43466,90.362339 170.83739,90.373949 z " />
  <path
     id="path4581"
     style="fill:#000000;fill-opacity:1;fill-rule:nonzero;stroke:none;stroke-width:1.25;stroke-miterlimit:4;stroke-dasharray:none;stroke-dashoffset:0;stroke-opacity:1"
     d="M 111.37417,16.77567 L 103.92285,3.8696068 L 118.82549,3.8696063 L 111.37417,16.77567 z " />
  <path
     id="path4585"
     style="fill:#000000;fill-opacity:1;fill-rule:nonzero;stroke:none;stroke-width:1.25;stroke-miterlimit:4;stroke-dasharray:none;stroke-dashoffset:0;stroke-opacity:1"
     d="M 65.538497,3.4907996 L 58.087179,16.396863 L 72.989814,16.396864 L 65.538497,3.4907996 z " />
</svg>
