<?xml version="1.0" encoding="UTF-8" standalone="no"?>
<!-- Created with Inkscape (http://www.inkscape.org/) -->
<svg
   xmlns:svg="http://www.w3.org/2000/svg"
   xmlns="http://www.w3.org/2000/svg"
   version="1.0"
   width="205.51181"
   height="386.90424"
   id="svg2">
  <defs
     id="defs4" />
  <g
     transform="translate(-150.56248,-499.44718)"
     id="layer1">
    <g
       id="g3503">
      <path
         d="M 205.21546,499.44731 C 204.3435,499.44566 203.36527,499.46033 202.24397,499.46329 L 193.24964,499.47926 L 188.28118,501.39635 C 183.55224,503.21971 183.21875,503.44896 181.18796,506.28492 C 180.01445,507.92372 178.60243,510.45058 178.05672,511.89241 C 177.511,513.33423 176.68814,514.93637 176.21951,515.45499 C 175.61052,516.12896 175.21714,518.06959 174.8456,522.26065 L 174.3184,528.12375 L 175.78816,530.37632 C 176.59252,531.61286 177.65858,532.75461 178.16855,532.91646 C 179.97416,533.48954 179.73459,534.62364 177.52952,535.84002 C 174.80641,537.34217 174.0978,538.76599 174.07876,542.88532 C 174.07031,544.71294 173.90191,546.43832 173.69534,546.71949 C 173.48877,547.00067 172.02335,548.09061 170.45227,549.1478 C 168.88119,550.205 166.8379,552.15412 165.89919,553.46125 C 163.97442,556.14145 161.84365,560.96313 161.82538,562.69522 C 161.81435,563.7401 161.56354,563.84288 159.12548,563.84547 C 155.00923,563.84984 152.7172,564.67818 151.56896,566.56135 C 150.64535,568.07609 150.56426,569.23172 150.56249,582.92049 C 150.5613,592.05025 150.76347,598.03106 151.08969,598.64061 C 151.94242,600.23396 154.37133,601.16478 157.65571,601.16477 L 160.70708,601.16477 L 161.02659,604.87114 C 161.64441,612.19984 161.8884,625.19227 161.41001,625.19227 C 161.14816,625.19227 160.28831,626.11248 159.5089,627.23716 C 158.72949,628.36185 157.70929,629.28206 157.24034,629.28206 C 156.28093,629.28206 153.58209,631.9422 152.57543,633.88307 C 150.49973,637.8851 150.7027,710.96983 152.79909,715.02379 C 153.74987,716.86239 156.95013,719.76857 158.02316,719.76858 C 158.44639,719.76858 159.70402,720.73733 160.81891,721.90933 L 162.84783,724.0341 L 163.15136,729.70548 C 163.35302,733.32537 163.26585,736.13144 162.89575,737.48566 C 162.44875,739.12126 162.60243,747.75719 163.58271,775.31619 C 166.38448,854.08349 166.94956,866.63722 167.75237,869.04578 C 168.17411,870.31106 168.81108,872.38151 169.17421,873.64679 C 170.65251,878.79764 172.46384,880.78959 176.84256,882.09795 C 180.4269,883.16894 187.67644,884.26838 193.50525,884.62212 C 196.17639,884.78423 199.91423,885.04739 201.79665,885.19724 C 204.88483,885.44306 205.33436,885.34992 206.39766,884.28663 C 207.56014,883.12415 207.69883,883.11446 217.53274,883.28016 C 227.39102,883.44626 227.51728,883.46186 228.44416,884.68602 C 229.35034,885.88284 229.6039,885.91614 235.95276,885.91615 C 241.2409,885.91615 242.67064,885.76431 243.31757,885.11737 C 243.75941,884.67553 244.11635,884.10041 244.11635,883.83931 C 244.11635,883.56309 248.37792,883.36003 254.29289,883.36004 L 264.45346,883.36004 L 265.28419,884.63809 C 266.10883,885.89664 266.23614,885.91614 273.01645,885.91615 C 279.34819,885.91615 279.95384,885.83393 280.54101,884.89371 C 281.14514,883.92635 281.73106,883.87125 291.45244,883.87126 L 301.72483,883.87126 L 302.29996,885.14932 C 302.99412,886.67284 301.90692,886.63814 318.38751,885.66054 C 332.29634,884.8355 332.78375,884.76332 336.20045,883.0565 C 339.13257,881.59177 341.04861,879.37158 341.79196,876.57035 C 342.10566,875.38815 342.81365,873.93088 343.35758,873.34325 C 344.55274,872.05207 345.33858,869.47288 345.33857,866.87308 L 345.33857,858.67754 C 345.33857,854.49597 345.52121,853.16542 346.23321,852.15944 C 347.04098,851.01816 347.15555,848.86223 347.35151,829.9372 C 347.47088,818.40912 347.53599,806.61902 347.49529,803.73701 C 347.45458,800.85499 347.41276,797.23168 347.41541,795.68524 C 347.41806,794.13879 347.42082,789.59528 347.41541,785.58858 C 347.40999,781.58187 347.4276,776.80831 347.44736,774.9807 C 347.57042,763.61009 347.40001,745.82556 347.12785,741.35179 L 346.80833,736.09577 L 348.38993,733.93905 C 349.25945,732.75153 350.82772,731.20324 351.87264,730.48829 C 354.66823,728.57554 355.04328,727.43961 355.05181,720.8709 L 355.05181,715.07172 L 353.13472,713.29841 C 348.6681,709.18557 346.90987,707.21236 347.14382,706.57263 C 347.28078,706.19817 347.38348,705.01056 347.38346,703.93663 C 347.38346,702.24766 347.62774,701.84477 349.17274,700.9332 C 350.53838,700.12745 351.10184,699.34135 351.5691,697.59427 C 351.93921,696.21048 352.61554,695.07344 353.2785,694.71864 C 353.8806,694.39641 354.75819,693.48429 355.22754,692.68972 C 355.99373,691.39268 356.07427,688.6527 356.07426,665.86647 C 356.07426,638.37726 356.11859,638.76905 353.2785,636.53504 C 352.56995,635.97769 351.98449,635.11774 351.98447,634.61795 C 351.98447,634.11817 350.94926,632.71503 349.68397,631.50268 C 347.50043,629.41049 347.38348,629.15407 347.38346,626.47033 C 347.38346,623.17676 348.84033,620.4669 351.10581,619.52089 C 351.88472,619.19562 353.0925,618.25669 353.78973,617.42807 C 354.98868,616.00319 355.05183,615.57332 355.05181,609.63191 C 355.05181,602.65576 354.59272,601.44381 351.48922,600.1583 C 350.63618,599.80496 349.93959,599.22997 349.93958,598.88024 C 349.93958,598.53052 349.47949,597.64611 348.91713,596.93121 C 347.9499,595.70157 347.90426,594.85396 347.89468,581.14719 C 347.88256,563.80507 347.53833,560.86318 344.89125,555.53809 L 342.91026,551.57611 L 342.1594,550.55367 L 339.42755,548.06145 C 337.92433,546.6876 335.42681,545.03312 333.86799,544.38704 L 331.02432,543.20483 L 331.02432,540.7925 C 331.02432,537.48192 330.78804,537.03485 328.0049,535.24892 C 324.04272,532.70639 318.69023,531.57707 309.18549,531.27096 C 292.41063,530.73071 278.76766,533.03775 275.04536,537.05418 L 273.76731,538.44407 L 252.43971,538.85943 L 231.09614,539.29078 L 229.96186,537.88491 C 228.39688,535.97397 228.47685,535.56503 230.82455,533.55549 L 232.86944,531.79816 L 232.86944,525.96702 C 232.86966,522.69072 232.51212,518.33467 232.05468,516.03012 C 231.30303,512.2434 230.98034,511.61133 227.83709,507.65884 L 224.43426,503.37734 L 217.83628,501.41233 C 212.06032,499.68993 211.31914,499.45886 205.21546,499.44731 z M 196.31698,501.01293 L 201.42921,501.01293 L 206.54144,501.01293 L 204.75216,501.9555 C 201.77902,503.509 201.0451,503.53822 198.61748,502.24307 L 196.31698,501.01293 z M 210.26379,501.49221 C 210.62258,501.48433 212.78695,502.72583 215.07248,504.25601 C 218.75616,506.72225 219.08578,507.07948 217.99604,507.32335 C 217.31992,507.47465 214.99728,507.90767 212.83588,508.29787 L 208.90585,509.01677 L 206.12607,507.16359 C 204.5942,506.14631 203.25715,505.12321 203.15459,504.89504 C 202.96083,504.46399 209.11718,501.51737 210.26379,501.49221 z M 193.69696,501.55611 L 196.71637,503.08978 C 198.38016,503.92966 199.67478,504.67826 199.57602,504.76723 C 199.47728,504.8562 198.02826,505.87788 196.3649,507.03578 C 194.70155,508.19368 193.20622,509.13755 193.04195,509.1286 C 192.87768,509.11966 192.27831,508.76188 191.71597,508.32982 C 191.15362,507.89775 190.37097,507.35956 189.97461,507.13164 C 189.41093,506.80749 189.73946,506.16056 191.47633,504.14418 L 193.69696,501.55611 z M 191.12486,501.93953 L 189.83083,503.63295 C 188.32074,505.59349 187.49894,505.84893 186.12446,504.79918 C 185.57867,504.38234 185.28554,504.03235 185.46946,504.03235 C 185.65337,504.03235 186.99342,503.57078 188.45692,502.99392 L 191.12486,501.93953 z M 215.9831,502.57856 C 216.29855,502.54071 217.2433,502.79376 218.85873,503.31344 C 220.24439,503.7592 221.69119,504.22754 222.08582,504.35186 C 222.64447,504.52785 222.58787,504.73697 221.83021,505.31041 C 220.57462,506.26071 220.76383,506.30261 217.80433,504.25601 C 216.20831,503.1523 215.57751,502.62722 215.9831,502.57856 z M 200.98189,505.6459 L 203.44215,507.24347 C 205.52874,508.60078 205.75551,508.88949 204.94387,509.20848 C 203.65961,509.71323 195.94479,509.75523 196.25307,509.25641 C 196.38712,509.03951 197.50891,508.14735 198.74529,507.25944 L 200.98189,505.6459 z M 185.38958,506.06126 C 185.63769,506.07458 185.8638,506.21607 186.04458,506.50858 C 186.19176,506.74673 185.632,507.59515 184.79848,508.39372 C 183.1065,510.01474 183.04328,509.97605 183.83993,507.69079 C 184.2067,506.63868 184.84373,506.03197 185.38958,506.06126 z M 223.25205,506.3648 C 223.73462,506.32432 224.04069,506.83668 224.72182,508.42567 C 225.28655,509.74314 225.67785,510.87263 225.60049,510.93386 C 225.52313,510.9951 224.85869,511.18706 224.11474,511.36521 C 222.91402,511.65274 222.67072,511.48218 221.98997,509.78361 C 221.14582,507.6773 221.22017,507.36067 222.6929,506.57249 C 222.91457,506.45386 223.0912,506.37829 223.25205,506.3648 z M 188.1374,507.72274 L 189.63912,508.79311 L 191.12486,509.84751 L 188.36106,510.50252 C 184.18031,511.47842 183.86552,511.33193 186.09251,509.44812 L 188.1374,507.72274 z M 219.73739,508.71324 C 219.79258,508.71462 219.82455,508.73466 219.83325,508.74519 C 219.90285,508.82944 220.22301,509.40658 220.55216,510.03922 C 221.09105,511.075 221.029,511.19172 219.97703,511.14155 C 219.3345,511.1109 217.4305,510.80455 215.74346,510.47057 L 212.67612,509.86349 L 216.19078,509.22446 C 217.88025,508.91622 219.35109,508.70358 219.73739,508.71324 z M 181.60333,508.79311 C 181.69457,508.81081 181.74926,508.87109 181.74711,508.98482 C 181.74281,509.2123 181.50845,509.74527 181.23589,510.16703 C 180.80881,510.82788 180.74739,510.81616 180.74064,510.07117 C 180.73634,509.59571 180.95472,509.06274 181.23589,508.88897 C 181.37647,508.80208 181.51209,508.77542 181.60333,508.79311 z M 226.92647,509.32031 C 227.09338,509.28694 227.44599,509.52046 227.75721,509.89544 C 228.16044,510.3813 228.19205,510.67825 227.85306,510.67825 C 227.23522,510.67825 226.52402,509.7068 226.87854,509.35226 C 226.89463,509.33618 226.90263,509.32508 226.92647,509.32031 z M 207.8195,510.53447 L 207.8195,515.72658 L 207.8195,520.90272 L 200.72628,520.90272 L 193.63305,520.90272 L 193.88866,516.1739 C 194.03042,513.57305 194.23061,511.37179 194.32001,511.26935 C 194.40941,511.16692 197.48766,510.95491 201.15762,510.80606 L 207.8195,510.53447 z M 192.35499,511.18947 C 192.44864,511.18947 192.45145,513.43247 192.37097,516.1739 L 192.22719,521.15833 L 187.88179,522.03699 C 180.62689,523.48975 181.05094,523.71747 181.47552,518.47441 C 181.67475,516.01414 181.99297,513.84412 182.17846,513.64974 C 182.43592,513.37992 191.49591,511.18947 192.35499,511.18947 z M 209.97622,511.18947 C 210.33787,511.18667 213.10427,511.57311 216.12688,512.05216 L 221.62253,512.93083 L 221.62253,517.67562 L 221.62253,522.43639 L 219.96105,522.37248 C 219.04724,522.33445 216.34415,522.04689 213.95418,521.73345 L 209.60878,521.15833 L 209.465,516.1739 C 209.35358,512.37849 209.47554,511.19335 209.97622,511.18947 z M 179.9099,511.87643 C 180.09322,511.84101 180.21344,511.93714 180.21344,512.14802 C 180.21344,512.42919 179.98339,512.80498 179.70222,512.97875 C 179.42105,513.15253 179.19099,513.06822 179.19099,512.78705 C 179.19099,512.50587 179.42105,512.13008 179.70222,511.95631 C 179.77251,511.91286 179.8488,511.88823 179.9099,511.87643 z M 228.97136,512.72314 C 229.39077,512.72314 229.88848,513.20998 230.07369,513.79352 C 230.68631,515.72372 229.76999,515.45744 228.57197,513.36217 C 228.3496,512.97325 228.50727,512.72314 228.97136,512.72314 z M 225.26499,512.73912 C 225.72262,512.73287 226.39507,513.0774 226.75074,513.50595 C 227.73678,514.69406 227.13787,514.82493 225.71232,513.72961 C 224.76528,513.00197 224.64474,512.74759 225.26499,512.73912 z M 223.12425,513.74559 L 227.23001,516.66915 L 231.33577,519.59271 L 231.33577,522.80383 C 231.33577,525.06022 231.14562,526.0031 230.69674,525.96702 C 230.34528,525.93876 228.56239,525.26034 226.73476,524.4653 L 223.41181,523.02749 L 223.26803,518.39453 L 223.12425,513.74559 z M 180.06966,515.02365 C 180.10338,515.01705 180.12119,515.01127 180.13356,515.02365 C 180.23256,515.12264 180.15343,517.13269 179.95783,519.48088 C 179.60982,523.65867 179.56249,523.7795 177.78513,524.94458 L 175.97987,526.12678 L 176.31536,521.86126 C 176.63894,517.85632 176.76912,517.50247 178.31233,516.22183 C 179.10481,515.56418 179.83362,515.0698 180.06966,515.02365 z M 201.97238,522.43639 C 211.19715,522.46398 220.77104,523.62727 225.71232,525.63153 C 227.82111,526.4869 229.81371,527.39432 230.13759,527.64447 C 231.24056,528.49638 231.44835,530.67761 230.52101,531.70231 C 229.48813,532.84362 228.49753,532.88724 226.63891,531.87804 C 223.96539,530.42637 216.15727,528.09936 211.38209,527.32496 C 201.83398,525.77651 192.27983,526.56217 183.04115,529.65741 L 178.44014,531.19108 L 177.27391,529.75327 L 176.12366,528.31545 L 177.78513,526.92557 C 180.05081,525.03902 181.09617,524.68038 187.86582,523.47481 C 191.419,522.84204 195.69575,522.5126 200.13517,522.45236 C 200.7456,522.44408 201.3574,522.43455 201.97238,522.43639 z M 201.2375,528.09179 C 201.67617,528.08683 202.10908,528.08731 202.54751,528.09179 C 208.00353,528.14762 213.43196,528.931 218.29958,530.4562 C 221.75775,531.53977 227.06013,533.53678 227.67733,533.98684 C 227.7734,534.05689 227.65838,534.45794 227.42172,534.8655 C 227.04944,535.50665 226.68032,535.51218 224.68987,534.89745 C 215.83091,532.16147 199.36378,531.26442 188.24923,532.91646 C 185.21509,533.36745 182.40736,533.85366 182.0187,534.00281 C 181.63004,534.15195 181.08254,533.8332 180.78857,533.28391 C 180.31772,532.40412 180.50221,532.18586 182.40212,531.46267 C 188.07508,529.3033 194.65749,528.16626 201.2375,528.09179 z M 306.45365,532.75671 C 315.40075,532.72663 320.81703,533.4846 324.84171,535.2649 C 328.42774,536.85117 329.49065,538.08659 329.49065,540.68067 C 329.49065,542.14736 329.27545,542.86916 328.85162,542.82141 C 328.50015,542.78183 326.94731,542.56006 325.40086,542.34214 C 323.85441,542.12423 312.84474,541.94893 300.92604,541.94275 L 279.24698,541.92677 L 277.40977,540.42506 C 275.58237,538.9385 275.5766,538.91776 276.53111,537.85296 C 279.14444,534.93767 288.21294,533.1603 302.39581,532.80463 C 303.82416,532.76882 305.17549,532.761 306.45365,532.75671 z M 200.61445,533.36378 C 201.36063,533.35356 202.10411,533.35643 202.83507,533.36378 C 204.78432,533.38339 206.66817,533.46846 208.4106,533.6194 C 218.67079,534.50819 229.29088,537.35641 229.29088,539.22688 C 229.29088,539.47457 228.26062,540.48981 226.99037,541.47945 L 224.67389,543.28471 L 209.48098,543.60423 C 201.12106,543.77797 191.25832,544.15318 187.56228,544.45094 C 183.86623,544.7487 179.68282,545.3069 178.2644,545.68107 C 176.84598,546.05524 175.54937,546.22508 175.38877,546.06449 C 175.10658,545.78229 175.41461,541.84282 175.91597,539.40261 C 176.21115,537.96593 180.95044,535.67188 185.4375,534.8016 C 189.89257,533.93754 195.39114,533.43533 200.61445,533.36378 z M 268.41544,539.99371 C 273.90074,539.97864 274.8431,540.17803 275.38085,540.66469 C 275.89745,541.13221 276.32342,541.67682 276.32342,541.87885 C 276.32342,542.08088 267.75404,542.40011 257.28035,542.58178 C 246.80667,542.76346 235.87927,543.05216 232.99725,543.22081 C 229.99018,543.39678 227.75721,543.32622 227.75721,543.06105 C 227.75721,542.80691 228.49806,542.15763 229.40271,541.62324 C 230.91578,540.72945 232.78233,540.62028 252.74325,540.23335 C 260.19715,540.08885 265.12425,540.00275 268.41544,539.99371 z M 306.98084,543.12495 C 318.5179,543.17407 326.97152,543.81306 330.7687,544.97814 C 334.21276,546.03488 336.14592,547.60956 337.98973,548.74841 C 340.53034,550.31765 341.298,551.67328 340.5139,552.69441 C 339.71188,554.55015 336.79914,558.59798 334.39519,561.04972 C 330.45339,565.06989 328.63637,565.89952 323.75536,565.89037 C 318.11391,565.87978 317.99158,565.81064 317.31714,562.184 C 316.53813,557.9951 314.4895,554.78692 311.59783,553.23759 C 309.56491,552.14837 308.79145,552.02624 304.91998,552.19917 C 301.28812,552.36139 300.13445,552.64095 298.16224,553.79674 C 295.79241,555.18556 293.19379,558.65993 293.19379,560.45862 C 293.19379,561.25895 292.59335,561.31034 285.90886,560.93789 C 272.32795,560.18117 236.19693,560.49021 224.43426,561.46509 C 218.52963,561.95446 213.12098,562.45869 212.40453,562.59937 C 211.32053,562.81222 210.96799,562.57126 210.29574,561.16155 C 209.0695,558.5901 206.89891,556.25019 204.72021,555.1387 C 202.12525,553.81485 196.62383,553.79016 193.76086,555.09077 C 190.11878,556.74534 187.23013,560.87213 186.428,565.57085 C 186.15138,567.19123 185.8056,567.72312 184.81445,567.99916 C 182.18658,568.73107 176.94473,568.43937 175.08523,567.45599 C 173.02405,566.36594 169.43599,562.66913 167.03347,559.16458 L 165.38797,556.76823 L 167.06542,554.56358 C 170.3999,550.19178 175.16044,547.59008 181.85894,546.46388 C 185.79003,545.80296 204.502,544.97234 216.12688,544.94619 L 224.68987,544.93021 L 224.68987,552.59856 C 224.68987,557.36998 224.883,560.26691 225.20109,560.26691 C 225.51919,560.26691 225.71232,557.36998 225.71232,552.59856 C 225.71232,548.38097 225.76983,544.89905 225.84012,544.86631 C 225.98864,544.79712 278.09005,543.55668 278.17661,543.6202 C 278.20846,543.64357 278.38914,545.20499 278.576,547.10291 L 278.91149,550.55367 L 278.87954,551.57611 L 278.87954,555.6659 C 278.87954,559.11854 279.01722,559.75569 279.72625,559.75569 C 280.45866,559.75569 280.52984,559.2323 280.2854,555.6659 C 280.21652,554.69697 280.19355,554.33991 280.12565,552.19917 C 280.05775,550.05842 280.01382,547.10291 280.01382,547.10291 L 280.1576,543.65215 L 294.47185,543.26874 C 298.94441,543.15015 303.13516,543.10858 306.98084,543.12495 z M 305.44717,553.39735 C 311.52647,553.24925 316.19884,558.04718 316.19884,564.8839 L 316.19884,566.76903 L 321.18327,567.08855 C 326.87004,567.44654 329.74613,567.02461 331.85505,565.52292 C 334.09518,563.92782 338.2577,559.30545 340.16243,556.30493 C 341.09949,554.82877 341.95702,553.62101 342.06354,553.62101 C 342.17008,553.62101 342.83962,554.77665 343.54929,556.17712 C 346.11017,561.23079 346.35285,563.60148 346.36101,583.97489 L 346.36101,602.82625 L 345.21076,602.50674 C 340.64794,601.26988 328.45167,599.98171 318.5313,599.69501 L 307.33231,599.37549 L 309.42513,597.9856 C 310.94313,596.98259 311.9364,595.71319 313.05162,593.38459 L 314.60127,590.17347 L 313.99419,578.84668 C 313.6589,572.54748 313.58522,566.72925 313.81846,565.74658 C 314.72263,561.93712 311.89825,556.85614 308.195,555.63395 C 305.82436,554.85157 302.13451,555.29885 300.4308,556.56054 C 297.90653,558.42988 296.77235,560.66752 296.77235,563.84547 C 296.77235,568.85137 299.79638,572.07042 304.82412,572.42444 C 307.36433,572.6033 308.04018,572.43796 309.74465,571.27419 C 310.83201,570.53176 311.79853,570.00512 311.88539,570.09198 C 311.97226,570.17886 312.28594,574.63846 312.58832,580.01291 C 313.06405,588.46816 313.03898,590.04537 312.36466,591.65922 C 311.1108,594.66014 308.30929,597.3896 305.84657,598.01756 C 302.62498,598.83899 200.93038,600.39339 198.21809,599.66306 C 196.9609,599.32453 195.54141,598.41461 194.57562,597.31462 L 192.99402,595.50937 L 192.99402,584.02282 C 192.99402,577.70621 193.11514,572.53627 193.26561,572.53627 C 193.41609,572.53627 194.04873,572.86102 194.67148,573.25518 C 197.44405,575.01004 201.68271,574.66975 204.49655,572.45639 C 206.12303,571.177 207.80318,567.80731 207.8195,565.77854 C 207.83963,563.27627 206.24698,560.24263 204.09716,558.68531 C 200.11599,555.80137 193.88552,557.08806 191.52426,561.28936 C 190.11673,563.79372 190.08686,567.56128 191.46035,570.12393 C 192.02325,571.17417 192.2533,572.02505 191.97158,572.02505 C 191.6442,572.02505 191.47096,576.22202 191.47633,583.65538 C 191.48435,594.74306 191.53801,595.38521 192.62658,597.29865 C 193.35579,598.58041 194.56517,599.70253 195.98149,600.41391 L 198.20211,601.53222 L 186.52385,601.83575 C 178.19617,602.05663 173.23316,602.4456 169.22214,603.17772 C 161.27412,604.62844 161.63614,604.68501 162.04904,601.93161 L 162.38453,599.6311 L 158.26279,599.6311 C 153.58976,599.6311 152.39579,598.95072 151.84055,595.95669 C 151.66817,595.02719 151.59439,588.46457 151.68079,581.37085 L 151.84055,568.47843 L 153.26239,567.05659 C 154.52302,565.79677 155.11067,565.62176 158.69414,565.45902 L 162.72002,565.28329 L 163.59868,562.00826 C 164.08576,560.20887 164.63318,558.74165 164.81284,558.74922 C 164.99249,558.75678 165.70626,559.67855 166.39444,560.79411 C 168.15128,563.64204 172.42247,567.83361 174.82962,569.06954 C 176.57245,569.96437 177.47816,570.08219 181.21991,569.83637 C 186.06406,569.51814 187.37057,569.16491 187.37057,568.19087 C 187.37057,567.82881 187.85131,566.02228 188.42497,564.16499 C 189.82785,559.62298 192.21341,557.09109 196.2371,555.92151 C 201.61688,554.35775 205.93134,556.30739 208.63426,561.52899 C 210.02339,564.21257 210.22146,564.39712 211.65367,564.14901 C 212.49719,564.00288 217.90338,563.47838 223.66742,562.98278 C 231.75134,562.28772 239.58268,562.07922 257.91938,562.07217 C 270.99392,562.06713 284.4756,562.23939 287.87387,562.45558 L 294.05648,562.839 L 294.66356,560.81008 C 295.85704,556.82658 298.69916,554.52119 303.53009,553.60503 C 304.18554,553.48073 304.81828,553.41267 305.44717,553.39735 z M 306.05425,556.75225 C 307.20554,556.76863 307.94831,557.06968 309.04171,557.80665 C 313.68365,560.93538 313.61646,567.13504 308.89793,570.0121 C 307.87653,570.63489 306.39021,570.99469 304.95193,570.97065 C 302.59535,570.93126 302.62007,570.81442 305.09571,570.26772 C 306.12734,570.0399 306.82225,569.33739 307.61987,567.69562 L 308.70622,565.44305 L 307.33231,563.3662 C 306.03364,561.40379 305.82017,561.28936 303.41826,561.28936 C 300.90413,561.28936 300.87637,561.31321 299.64798,563.71767 C 298.43762,566.08684 298.38888,566.11534 298.05041,564.78804 C 297.59034,562.98385 299.32189,559.10069 301.10178,557.93445 C 301.84699,557.44617 303.53649,556.93898 304.85607,556.81615 C 305.09544,556.79387 305.31788,556.77798 305.52705,556.76823 C 305.71008,556.75969 305.88978,556.74991 306.05425,556.75225 z M 198.55358,558.55751 C 200.55345,558.47411 202.61853,559.25871 204.17703,561.03374 C 207.51131,564.83127 206.48668,570.08974 202.00433,572.21675 C 200.10294,573.11903 198.42626,573.22299 196.8282,572.53627 C 196.0071,572.18343 196.1891,572.08585 197.72284,572.057 C 199.37209,572.02597 199.81236,571.73962 200.99786,569.9482 L 202.37178,567.87136 L 201.26945,565.6028 C 200.28247,563.5713 199.97898,563.33425 198.4098,563.33425 C 197.44504,563.33425 196.31133,563.21004 195.88563,563.04669 C 195.36683,562.8476 194.64752,563.43968 193.71293,564.85194 C 192.04079,567.37872 191.13267,566.95867 191.92365,564.02121 C 192.83128,560.65053 195.63068,558.6794 198.55358,558.55751 z M 303.45021,562.82303 C 304.94457,562.82303 305.53509,563.12043 306.22998,564.18096 C 307.05022,565.43281 307.06797,565.65854 306.30986,567.2483 C 305.61418,568.70717 305.2253,568.95771 303.7218,568.95771 C 302.47375,568.95771 301.71131,568.62524 301.1497,567.82343 C 300.19789,566.46453 300.15885,565.85191 300.94202,564.13304 C 301.42319,563.07697 301.90596,562.82303 303.45021,562.82303 z M 197.40332,564.3567 C 198.88732,564.3567 199.27116,564.62121 199.97542,566.09805 C 200.76852,567.76121 200.76664,567.90598 199.68785,569.421 C 199.06749,570.29222 198.27881,570.97699 197.9465,570.9387 C 195.90304,570.70324 195.13884,570.28853 194.39989,569.03758 C 193.62023,567.71773 193.64734,567.54402 194.62355,566.0022 C 195.46168,564.67845 195.99319,564.3567 197.40332,564.3567 z M 348.37396,599.29561 C 348.4035,599.28969 348.42536,599.33464 348.45383,599.40744 C 348.66897,599.95747 348.86542,604.43922 348.88518,609.3763 C 348.91377,616.51943 348.76356,618.55548 348.16627,619.34515 C 347.48996,620.23932 347.41199,619.82983 347.39944,615.22341 C 347.37976,608.00228 347.9308,599.3844 348.37396,599.29561 z M 310.9588,601.00502 C 324.69429,600.9397 329.68654,601.49018 339.58731,603.04991 C 344.95991,603.89629 345.65415,604.35289 343.9327,605.90957 C 343.13464,606.63125 342.70695,606.63332 339.97072,605.98944 C 336.14925,605.09018 308.39633,605.0337 244.88319,605.78176 C 190.97841,606.41665 178.17522,606.8713 171.52265,608.35385 C 168.8515,608.94913 166.20592,609.53774 165.64358,609.66386 C 164.98147,609.81235 164.21575,609.4108 163.47088,608.54556 C 161.51823,606.27738 161.6539,606.16085 166.93761,605.07883 C 174.25823,603.57969 181.69387,603.21909 217.27713,602.68247 C 236.95923,602.38564 267.67097,601.82675 285.52544,601.43636 C 296.6586,601.19294 304.71539,601.0347 310.9588,601.00502 z M 351.13776,601.676 C 352.80198,601.676 353.42205,603.44539 353.78973,609.20057 L 354.15717,614.91988 L 352.60752,616.4855 C 350.92947,618.16355 349.64038,618.55722 350.14726,617.23636 C 350.31793,616.7916 350.45082,613.1108 350.4508,609.05678 C 350.4508,603.22316 350.59357,601.676 351.13776,601.676 z M 345.94565,606.34091 C 346.02504,606.33415 346.09558,606.34706 346.13735,606.38884 C 346.30447,606.55595 346.37126,607.43406 346.28114,608.33788 L 346.1054,609.98338 L 345.11491,608.88105 C 344.19426,607.85741 344.19687,607.72226 344.9871,606.93201 C 345.33702,606.58208 345.70746,606.36119 345.94565,606.34091 z M 300.60653,606.82018 C 337.98954,606.86284 341.58602,607.0331 342.12745,608.65739 C 342.40632,609.49401 339.13759,609.95453 335.72118,609.56801 C 332.32231,609.18347 262.76455,610.04954 208.84195,611.1496 C 166.13892,612.02078 168.39533,612.00633 167.49676,611.43717 C 165.99211,610.48411 175.93822,608.78783 185.80495,608.30592 C 201.34532,607.5469 260.61971,606.77454 300.60653,606.82018 z M 343.4055,610.22301 C 343.76818,610.20653 344.2835,610.55968 344.97113,611.27741 L 346.34504,612.69925 L 345.78589,625.8952 C 345.36683,635.6603 345.35897,639.40025 345.78589,640.33726 C 346.59926,642.12242 346.49787,646.14502 345.59418,647.8778 C 344.511,649.9547 344.51027,659.56711 345.59418,660.46668 C 346.67792,661.3661 346.67794,667.54342 345.59418,667.95929 C 344.3387,668.44107 344.53211,676.11423 345.84979,678.10388 C 347.06193,679.93415 347.25477,685.03282 346.18528,687.08224 C 345.64478,688.11799 345.53807,691.31401 345.70601,702.16333 C 345.82322,709.73508 346.03887,718.13694 346.18528,720.82298 C 346.39526,724.67518 346.29773,725.82483 345.72198,726.30265 C 345.124,726.79894 345.0424,728.60686 345.21076,736.25553 C 345.32579,741.48096 345.65114,746.08646 345.96162,746.71963 C 346.3421,747.49558 346.43674,752.67391 346.24918,763.20658 C 346.04852,774.47494 346.12663,778.57758 346.55272,778.60719 C 346.88475,778.63026 346.90897,778.74036 346.61663,778.8628 C 346.30386,778.99381 346.16699,781.38646 346.26516,785.0454 C 346.36895,788.91393 346.21868,791.41949 345.83381,792.13863 C 345.45161,792.85278 345.36368,794.32982 345.5782,796.26037 C 345.92624,799.39257 346.01246,820.42467 345.75394,839.50666 C 345.64526,847.528 345.41722,850.77079 344.95515,851.23285 C 344.55085,851.63714 344.31969,853.38989 344.31612,855.99361 C 344.31303,858.25705 344.1709,860.96205 343.99661,862.01646 L 343.8049,863.16672 L 343.8049,867.28845 C 343.8049,869.8201 342.76401,872.32285 341.52037,872.80008 C 341.08821,872.96592 340.74372,873.62837 340.73756,874.26985 C 340.71889,876.20862 338.911,879.56075 337.25485,880.74002 C 334.20635,882.91074 331.62221,883.42176 319.7774,884.15882 C 313.45101,884.5525 307.18214,884.86985 305.84657,884.87773 L 303.41826,884.89371 L 303.41826,874.92485 L 303.41826,863.93355 L 303.41826,862.49573 L 303.41826,856.00959 L 303.41826,848.08563 L 291.40451,848.08563 L 279.39076,848.08563 L 279.39076,866.23406 L 279.39076,884.38248 L 273.06437,884.38248 C 267.75873,884.38248 266.67833,884.26087 266.41847,883.5837 C 266.2478,883.13894 266.09896,874.97214 266.09896,865.43527 L 266.09896,848.08563 L 254.34082,848.08563 L 242.56671,848.08563 L 242.59866,865.73881 C 242.61895,875.44382 242.49803,883.6106 242.32707,883.88723 C 241.98211,884.44539 230.1891,884.59375 229.64234,884.04699 C 229.45489,883.85955 229.29088,875.69275 229.29088,865.89856 L 229.29088,848.08563 L 217.53274,848.08563 L 205.77461,848.08563 L 205.77461,865.33941 C 205.7703,874.829 205.55603,882.90981 205.31131,883.29613 C 204.93912,883.88371 203.54857,883.90758 196.7643,883.42394 C 182.37675,882.39828 174.99975,880.76838 172.78473,878.13597 C 172.09426,877.31541 171.17008,875.3407 170.72386,873.74265 C 170.27764,872.1446 169.59749,870.12178 169.20616,869.25347 C 168.67038,868.06458 168.17405,859.47977 167.2092,834.49028 C 164.58895,766.62528 163.78686,741.00772 164.18979,738.71579 C 164.41499,737.43481 164.64507,732.58749 164.70101,727.94815 C 164.75695,723.3088 164.94931,717.02274 165.13235,713.96939 C 165.4459,708.73929 165.39275,708.37208 164.39747,707.67495 C 163.51466,707.05661 163.34307,706.38311 163.34307,703.61712 C 163.34307,701.14649 163.53753,700.24221 164.10991,700.02258 C 165.2647,699.57944 165.2371,688.69667 164.07796,687.84907 C 162.9174,687.00046 162.89179,681.488 164.046,680.64402 C 164.72098,680.15047 164.87674,679.06424 164.87674,674.97264 C 164.87674,670.46559 164.76488,669.85395 163.8543,669.28528 C 162.98211,668.7406 162.83185,668.08957 162.83185,664.87598 C 162.83185,662.15098 163.044,660.92703 163.59868,660.46668 C 164.17494,659.98843 164.36552,658.70102 164.36552,655.29054 C 164.36552,651.43375 164.21196,650.59988 163.34307,649.73099 C 162.08406,648.47198 161.98811,645.46518 163.11941,642.63776 C 163.74743,641.06818 163.86791,639.44945 163.64661,635.09722 C 163.49141,632.04499 163.37111,626.08692 163.391,621.86932 C 163.42191,615.31455 163.55903,614.07399 164.31759,613.29035 C 165.02777,612.55669 165.47816,612.46588 166.55419,612.87498 C 167.45755,613.21844 178.18672,613.16492 199.24053,612.71523 C 216.47609,612.34708 230.74147,612.15216 230.95235,612.26791 C 231.16323,612.38365 231.33577,654.92254 231.33577,706.79629 C 231.33577,810.99237 231.08294,803.03701 234.56287,805.15885 C 236.09892,806.09543 237.24435,806.16354 253.12666,806.16532 C 269.87059,806.16721 270.06758,806.16326 271.78632,805.01506 C 272.7417,804.37682 273.91472,803.05403 274.40633,802.07553 C 275.24765,800.40099 275.30022,794.73769 275.30098,705.91762 L 275.30098,611.56497 L 293.03403,611.21351 C 302.78044,611.02739 317.90818,610.87802 326.66294,610.87802 C 336.66265,610.87802 342.77869,610.69006 343.10197,610.36679 C 343.18829,610.28047 343.28461,610.22851 343.4055,610.22301 z M 232.35822,612.41169 L 233.89189,612.41169 L 235.42556,612.41169 L 235.42556,704.04846 C 235.42631,790.27046 235.47916,795.80056 236.3202,797.47452 C 236.81182,798.45302 238.0008,799.77581 238.95619,800.41406 C 240.63848,801.53789 241.06995,801.5643 252.64739,801.56431 C 265.5898,801.56431 266.78061,801.37003 269.1663,798.78453 L 270.44435,797.39464 L 270.58814,704.91115 L 270.71594,612.41169 L 272.24961,612.41169 L 273.76731,612.41169 L 273.76731,706.25311 C 273.76731,808.02588 273.93497,801.84672 271.09936,803.83286 C 270.12242,804.51713 267.59562,804.63121 253.33435,804.61567 C 235.64097,804.5964 235.27174,804.55065 233.50847,802.05956 C 232.67126,800.87675 232.61125,795.18733 232.48602,706.60458 L 232.35822,612.41169 z M 236.95923,612.41169 L 253.06276,612.41169 L 269.1663,612.41169 L 269.1663,704.47981 L 269.1663,796.5639 L 267.42494,798.28928 L 265.69956,800.03064 L 253.49411,800.01466 C 240.12026,799.99221 239.20748,799.81312 237.74204,796.97927 C 237.06029,795.66091 236.95923,784.65471 236.95923,703.95261 L 236.95923,612.41169 z M 160.94671,627.65253 L 161.66562,629.79328 C 162.38498,631.92133 162.38712,633.15531 161.53782,645.67315 C 161.29301,649.28131 161.3728,650.17351 162.03306,650.72148 C 163.09133,651.59976 163.11301,658.12218 162.06501,659.95545 C 161.61019,660.75109 161.32544,662.72904 161.31416,665.19549 C 161.29908,668.49097 161.47018,669.32948 162.32063,670.17992 C 163.17002,671.02931 163.34307,671.88269 163.34307,675.22825 C 163.34307,678.18431 163.13911,679.42602 162.57624,679.89316 C 162.02413,680.35137 161.8094,681.56417 161.8094,684.22258 C 161.8094,687.26568 161.98918,688.07697 162.83185,688.83957 C 164.3267,690.19239 164.3267,697.27548 162.83185,699.17587 C 161.33802,701.07496 161.3731,707.04695 162.87978,708.55362 C 163.82672,709.50056 163.90714,710.07661 163.71051,714.04927 C 163.58971,716.49007 163.27627,719.25948 163.02356,720.19992 C 162.57564,721.8668 162.54911,721.8934 161.6816,720.93481 C 161.19215,720.39397 160.78696,719.68453 160.78696,719.36919 C 160.78696,719.05383 160.45357,718.61233 160.0361,718.37869 C 158.79147,717.68216 158.3322,710.12774 157.95925,683.72734 C 157.52016,652.64465 158.2548,632.23319 159.89232,629.45779 L 160.94671,627.65253 z M 157.2723,630.56011 L 156.85693,640.78458 C 156.3369,653.90649 156.59172,702.67175 157.22437,711.30144 C 157.49083,714.93619 157.64772,717.97132 157.55986,718.05918 C 157.29711,718.32193 154.83708,715.52052 154.12508,714.14512 C 153.04532,712.0593 152.50578,692.25124 152.76714,663.78963 C 152.931,645.94563 153.20383,637.09891 153.61385,635.7682 C 153.94336,634.69881 154.89699,633.08846 155.73863,632.18964 L 157.2723,630.56011 z M 347.28761,631.32695 C 347.57581,631.32695 348.39689,632.04345 349.12481,632.90855 L 350.4508,634.47417 L 350.4508,665.80257 C 350.4508,696.72628 350.44216,697.15947 349.3964,698.48891 C 348.81365,699.22976 348.14092,699.83086 347.91066,699.83087 C 346.61261,699.83087 346.41054,690.08148 347.65505,687.65737 C 348.81872,685.39069 348.56367,678.91018 347.25565,677.46485 C 346.58883,676.72802 346.36103,675.59729 346.36101,672.86384 C 346.36101,670.86407 346.59108,669.07564 346.87224,668.90186 C 347.15341,668.72809 347.38348,666.55672 347.38346,664.07719 C 347.38346,660.69353 347.19219,659.41067 346.61663,658.93301 C 345.52733,658.02897 345.57431,651.2631 346.68053,649.12391 C 347.38355,647.76442 347.44317,646.35852 347.12785,639.42664 C 346.88083,633.99641 346.93627,631.32695 347.28761,631.32695 z M 351.98447,637.71724 C 352.31516,637.92162 352.49571,647.8636 352.49569,665.86647 C 352.49569,684.07999 352.31904,693.6962 351.98447,693.69619 C 351.64984,693.69619 351.47326,683.97111 351.47325,665.54696 C 351.47325,646.91217 351.64604,637.50807 351.98447,637.71724 z M 354.34888,650.16233 C 354.36955,650.02245 354.38772,650.98894 354.41278,653.2137 C 354.49299,660.33289 354.49307,671.83541 354.41278,678.77486 C 354.3917,680.59646 354.36701,681.53797 354.34888,681.68244 C 354.3034,681.27284 354.26893,675.49984 354.269,665.83452 C 354.26906,656.16921 354.30339,650.47008 354.34888,650.16233 z M 347.46334,710.19912 C 347.48947,710.19094 347.51468,710.18965 347.54322,710.19912 C 347.97755,710.34327 348.22387,713.39306 348.40591,720.82298 C 348.65863,731.13705 348.64743,731.2795 347.49529,732.54916 L 346.32906,733.82722 L 346.66455,730.24866 C 346.84866,728.28045 346.98724,722.91791 346.96809,718.33076 C 346.94363,712.47677 347.07135,710.3218 347.46334,710.19912 z M 350.48275,713.12268 C 350.77671,713.12268 351.58189,713.69461 352.27203,714.38476 C 353.45346,715.56618 353.51816,715.96394 353.51814,721.30225 C 353.51814,726.64055 353.45347,727.0543 352.27203,728.23572 C 351.58188,728.92587 350.77671,729.48181 350.48275,729.48182 C 350.13322,729.48182 349.93959,726.65156 349.93958,721.30225 C 349.93958,715.95293 350.13323,713.12267 350.48275,713.12268 z M 207.30828,849.6193 L 217.53274,849.6193 L 227.75721,849.6193 L 227.75721,860.86621 L 227.75721,872.11312 L 217.53274,872.11312 L 207.30828,872.11312 L 207.30828,860.86621 L 207.30828,849.6193 z M 244.11635,849.6193 L 254.61241,849.6193 L 265.10846,849.6193 L 264.96468,860.7384 L 264.8209,871.85751 L 254.46863,872.00129 L 244.11635,872.1291 L 244.11635,860.88219 L 244.11635,849.6193 z M 280.92443,849.6193 L 291.40451,849.6193 L 301.88459,849.6193 L 301.88459,856.77642 L 301.88459,863.93355 L 301.88459,864.956 L 301.88459,868.53456 L 301.88459,872.11312 L 291.40451,872.11312 L 280.92443,872.11312 L 280.92443,860.86621 L 280.92443,849.6193 z M 207.30828,873.64679 L 217.53274,873.64679 L 227.75721,873.64679 L 227.75721,877.73658 L 227.75721,881.82637 L 217.53274,881.82637 L 207.30828,881.82637 L 207.30828,877.73658 L 207.30828,873.64679 z M 244.11635,873.64679 L 254.62838,873.64679 L 265.12444,873.64679 L 264.98065,877.86439 L 264.8209,882.08198 L 254.46863,882.22576 L 244.11635,882.35356 L 244.11635,878.00817 L 244.11635,873.64679 z M 280.92443,873.64679 L 291.40451,873.64679 L 301.88459,873.64679 L 301.88459,877.99219 L 301.88459,882.33759 L 291.40451,882.33759 L 280.92443,882.33759 L 280.92443,877.99219 L 280.92443,873.64679 z "
         style="fill:#000000;fill-opacity:1"
         id="path2362" />
      <path
         d="M 207.8195,829.68159 L 207.8195,835.56066 L 207.8195,841.43973 L 217.53274,841.43973 L 227.24599,841.43973 L 227.24599,835.56066 L 227.24599,829.68159 L 217.53274,829.68159 L 207.8195,829.68159 z M 209.35317,830.70404 L 217.53274,830.70404 L 225.71232,830.70404 L 225.71232,835.56066 L 225.71232,840.41728 L 217.53274,840.41728 L 209.35317,840.41728 L 209.35317,835.56066 L 209.35317,830.70404 z "
         style="fill:#000000;fill-opacity:1"
         id="path2350" />
      <path
         d="M 253.12666,622.09298 C 251.97004,622.08363 250.78668,622.57027 249.67591,623.56274 C 248.33392,624.76181 248.07833,625.37791 248.07833,627.23716 C 248.07833,629.11457 248.33052,629.71627 249.73981,630.97548 C 251.18587,632.26753 251.71459,632.43261 253.52606,632.18964 C 257.84496,631.61035 259.51116,626.70417 256.43364,623.62665 C 255.42404,622.61704 254.28329,622.10232 253.12666,622.09298 z M 252.98288,623.6586 C 256.16499,623.6586 257.65582,627.50073 255.36327,629.79328 C 253.4054,631.75115 250.15889,630.57318 249.46822,627.65253 C 249.06573,625.95051 251.07549,623.6586 252.98288,623.6586 z "
         style="fill:#000000;fill-opacity:1"
         id="path2322" />
      <path
         d="M 159.55683,569.46893 C 155.06987,569.46893 155.1635,569.13535 155.1635,583.46367 C 155.1635,592.41575 155.34317,596.02453 155.78655,596.46791 C 156.12396,596.80532 157.73431,597.07499 159.36512,597.07499 L 162.32063,597.07499 L 162.32063,583.27196 L 162.32063,569.46893 L 159.55683,569.46893 z M 159.1095,571.0026 L 160.80293,571.0026 L 160.67513,583.39976 L 160.53134,595.79693 L 159.18938,595.95669 C 156.36813,596.28382 156.18595,595.51116 156.18595,583.33586 C 156.18595,575.37782 156.3695,572.06515 156.809,571.62565 C 157.14641,571.28825 158.17663,571.0026 159.1095,571.0026 z "
         style="fill:#000000;fill-opacity:1"
         id="path2292" />
      <path
         d="M 203.23447,581.01938 C 200.52552,581.12741 198.10626,583.22786 198.10626,586.45113 C 198.10626,587.99691 198.46177,588.81958 199.60798,589.96579 C 200.80204,591.15986 201.55155,591.45154 203.33032,591.45153 C 204.55466,591.45153 206.03516,591.11123 206.62132,590.70067 C 208.98326,589.0463 209.44917,584.43877 207.43608,582.61695 C 206.1538,581.4565 204.65344,580.96279 203.23447,581.01938 z M 204.5285,582.76074 C 205.3492,582.76074 206.79705,583.9117 206.79705,584.56599 C 206.79705,585.31889 205.2282,585.61715 204.5924,584.98136 C 204.17819,584.56715 204.12393,582.76074 204.5285,582.76074 z M 202.11616,582.80866 C 202.49659,582.83694 202.72388,583.18164 202.62739,583.86306 C 202.50101,584.75553 202.08293,585.1097 200.96591,585.23697 C 199.50454,585.40348 199.47479,585.37943 200.247,584.21453 C 200.87635,583.26516 201.62705,582.7723 202.11616,582.80866 z M 201.15762,587.36174 C 202.4719,587.36174 202.70727,587.55727 202.70727,588.6398 C 202.70727,589.34274 202.53473,589.90811 202.32385,589.88591 C 201.37478,589.78601 200.61838,589.23914 200.13517,588.33626 C 199.6732,587.47306 199.78795,587.36175 201.15762,587.36174 z M 205.51899,587.36174 C 207.03398,587.36174 207.1526,587.91082 205.87046,589.07115 C 204.59237,590.22781 204.24094,590.13703 204.24094,588.6398 C 204.24094,587.61736 204.49655,587.36175 205.51899,587.36174 z "
         style="fill:#000000;fill-opacity:1"
         id="path2288" />
      <path
         d="M 302.29996,578.36741 C 301.62631,578.38945 300.92949,578.55416 300.19116,578.86266 C 296.32153,580.47949 295.69396,585.29954 299.00896,587.9848 C 299.65943,588.51171 300.99638,588.87266 302.31593,588.87944 C 306.91367,588.90307 309.20653,583.8409 306.21401,580.2845 C 305.09889,578.95925 303.78199,578.31893 302.29996,578.36741 z M 303.8496,580.20462 C 304.34448,580.20462 305.97437,581.90967 305.97437,582.42524 C 305.97437,582.61398 305.39925,582.76074 304.69632,582.76074 C 303.67387,582.76074 303.41826,582.50513 303.41826,581.48268 C 303.41826,580.77974 303.61202,580.20462 303.8496,580.20462 z M 300.81421,580.25255 C 301.18535,580.24993 301.37336,580.65761 301.37336,581.48268 C 301.37336,582.50512 301.11775,582.76074 300.09531,582.76074 C 298.62851,582.76074 298.47781,582.1576 299.63201,581.00341 C 300.13697,580.49844 300.52555,580.25458 300.81421,580.25255 z M 300.09531,584.80563 C 301.11775,584.80563 301.37336,585.06125 301.37336,586.08369 C 301.37336,587.59868 300.82428,587.7173 299.66396,586.43515 C 298.5073,585.15706 298.59809,584.80563 300.09531,584.80563 z M 304.71229,584.80563 C 305.82292,584.80563 305.93643,584.93955 305.4951,585.76417 C 304.64514,587.35234 303.41826,587.53324 303.41826,586.06771 C 303.41826,585.05771 303.67505,584.80563 304.71229,584.80563 z "
         style="fill:#000000;fill-opacity:1"
         id="path2278" />
      <path
         d="M 233.38524,547.2333 C 233.38524,546.56548 235.82775,546.46646 252.3005,546.46646 C 268.77325,546.46646 271.21576,546.56548 271.21576,547.2333 C 271.21576,547.90111 268.77325,548.00013 252.3005,548.00013 C 235.82775,548.00013 233.38524,547.90111 233.38524,547.2333 z "
         style="fill:#000000;fill-opacity:1"
         id="path2248" />
      <path
         d="M 235.82495,550.17382 L 239.96017,550.17382 C 240.86079,550.17383 241.53535,550.38801 241.98384,550.81634 C 242.43232,551.2447 242.65657,551.85428 242.65657,552.64507 C 242.65657,553.45784 242.41219,554.09304 241.92344,554.55067 C 241.43467,555.00831 240.68872,555.23713 239.68559,555.23713 L 238.32366,555.23713 L 238.32366,558.22459 L 235.82495,558.22459 L 235.82495,550.17382 z M 238.32366,553.60611 L 238.93323,553.60611 C 239.41283,553.60611 239.74965,553.52282 239.94369,553.35624 C 240.13773,553.18966 240.23475,552.97641 240.23475,552.71646 C 240.23475,552.46385 240.15054,552.24968 239.98214,552.07394 C 239.81372,551.89821 239.49703,551.81034 239.03208,551.81034 L 238.32366,551.81034 L 238.32366,553.60611 z M 249.20263,550.17382 L 251.68486,550.17382 L 251.68486,554.97353 C 251.68485,555.44948 251.61071,555.89888 251.46244,556.32173 C 251.31416,556.74459 251.08168,557.11436 250.765,557.43105 C 250.44831,557.74773 250.11607,557.97014 249.76826,558.09829 C 249.285,558.27768 248.70471,558.36737 248.02741,558.36737 C 247.63567,558.36737 247.20824,558.33992 246.74511,558.285 C 246.28198,558.23008 245.89482,558.12116 245.58363,557.95825 C 245.27243,557.79533 244.98778,557.56376 244.72967,557.26355 C 244.47156,556.96334 244.29491,556.65398 244.19973,556.33546 C 244.04596,555.82291 243.96908,555.36893 243.96908,554.97353 L 243.96908,550.17382 L 246.45131,550.17382 L 246.45131,555.08886 C 246.45131,555.52819 246.57303,555.87142 246.8165,556.11854 C 247.05996,556.36567 247.3977,556.48923 247.82971,556.48923 C 248.25806,556.48923 248.59396,556.3675 248.83743,556.12403 C 249.08089,555.88057 249.20262,555.53551 249.20263,555.08886 L 249.20263,550.17382 z M 252.9095,555.56114 L 255.2764,555.41287 C 255.32765,555.79728 255.43199,556.09017 255.58942,556.29153 C 255.8457,556.61737 256.21181,556.78029 256.68775,556.78029 C 257.04288,556.78029 257.31654,556.697 257.50876,556.53041 C 257.70096,556.36384 257.79706,556.17071 257.79707,555.95105 C 257.79706,555.74236 257.70554,555.55565 257.52248,555.3909 C 257.33943,555.22615 256.91474,555.07056 256.24842,554.92411 C 255.15741,554.67882 254.37943,554.35298 253.91447,553.94659 C 253.44585,553.54021 253.21153,553.02217 253.21154,552.39245 C 253.21153,551.97875 253.33144,551.58793 253.57124,551.21999 C 253.81104,550.85205 254.17166,550.56282 254.6531,550.3523 C 255.13453,550.1418 255.79444,550.03654 256.63284,550.03653 C 257.6616,550.03654 258.44599,550.22783 258.98601,550.61041 C 259.52602,550.993 259.84728,551.60166 259.9498,552.43639 L 257.60486,552.57367 C 257.54262,552.21123 257.41173,551.94764 257.21221,551.78288 C 257.01267,551.61814 256.73717,551.53576 256.38571,551.53575 C 256.09648,551.53576 255.87865,551.59708 255.73221,551.71972 C 255.58576,551.84238 255.51254,551.99156 255.51254,552.16729 C 255.51254,552.29544 255.57294,552.41076 255.69376,552.51327 C 255.81091,552.61944 256.08916,552.71829 256.5285,552.80982 C 257.61584,553.04413 258.39474,553.28119 258.8652,553.52099 C 259.33564,553.7608 259.67796,554.05826 259.89214,554.41338 C 260.1063,554.76851 260.21339,555.16574 260.2134,555.60507 C 260.21339,556.12129 260.07061,556.59723 259.78505,557.0329 C 259.49948,557.46858 259.10042,557.79899 258.58787,558.02415 C 258.07531,558.24931 257.42913,558.36188 256.64932,558.36188 C 255.28005,558.36188 254.33183,558.09829 253.80463,557.57109 C 253.27743,557.04389 252.97905,556.3739 252.9095,555.56114 L 252.9095,555.56114 z M 261.48197,550.17382 L 263.96969,550.17382 L 263.96969,552.99104 L 266.68806,552.99104 L 266.68806,550.17382 L 269.18677,550.17382 L 269.18677,558.22459 L 266.68806,558.22459 L 266.68806,554.96804 L 263.96969,554.96804 L 263.96969,558.22459 L 261.48197,558.22459 L 261.48197,550.17382 z "
         style="font-size:22px;font-style:normal;font-weight:normal;text-align:center;text-anchor:middle;fill:#000000;fill-opacity:1;stroke:none;stroke-width:1px;stroke-linecap:butt;stroke-linejoin:miter;stroke-opacity:1;font-family:Arial Black"
         id="text3408" />
      <path
         d="M 65.28125,332.34375 L 65.28125,334.3125 L 60.8125,334.3125 L 60.8125,337.90625 L 65.28125,337.90625 L 65.28125,340 L 68.625,340 L 68.625,337.90625 L 73.125,337.90625 L 73.125,334.3125 L 68.625,334.3125 L 68.625,332.34375 L 65.28125,332.34375 z "
         transform="translate(150.56248,499.44718)"
         style="fill:#000000;fill-opacity:1;fill-rule:nonzero;stroke:none;stroke-width:40;stroke-miterlimit:4;stroke-dasharray:none;stroke-dashoffset:0;stroke-opacity:1"
         id="rect3446" />
      <path
         d="M 97.65625,332.28125 L 97.65625,335.90625 L 102.34375,335.90625 L 102.34375,340.0625 L 105.6875,340.0625 L 105.6875,335.90625 L 109.96875,335.90625 L 109.96875,332.28125 L 97.65625,332.28125 z "
         transform="translate(150.56248,499.44718)"
         style="fill:#000000;fill-opacity:1;fill-rule:nonzero;stroke:none;stroke-width:40;stroke-miterlimit:4;stroke-dasharray:none;stroke-dashoffset:0;stroke-opacity:1"
         id="rect3450" />
      <rect
         width="12.311234"
         height="3.5986686"
         x="285.14236"
         y="833.76038"
         style="fill:#000000;fill-opacity:1;fill-rule:nonzero;stroke:none;stroke-width:40;stroke-miterlimit:4;stroke-dasharray:none;stroke-dashoffset:0;stroke-opacity:1"
         id="rect3452" />
      <path
         d="M 244.73915,829.68159 L 244.73915,835.56066 L 244.73915,841.43973 L 254.45239,841.43973 L 264.16564,841.43973 L 264.16564,835.56066 L 264.16564,829.68159 L 254.45239,829.68159 L 244.73915,829.68159 z M 246.27282,830.70404 L 254.45239,830.70404 L 262.63197,830.70404 L 262.63197,835.56066 L 262.63197,840.41728 L 254.45239,840.41728 L 246.27282,840.41728 L 246.27282,835.56066 L 246.27282,830.70404 z "
         style="fill:#000000;fill-opacity:1"
         id="path3499" />
      <path
         d="M 281.61415,829.68159 L 281.61415,835.56066 L 281.61415,841.43973 L 291.32739,841.43973 L 301.04064,841.43973 L 301.04064,835.56066 L 301.04064,829.68159 L 291.32739,829.68159 L 281.61415,829.68159 z M 283.14782,830.70404 L 291.32739,830.70404 L 299.50697,830.70404 L 299.50697,835.56066 L 299.50697,840.41728 L 291.32739,840.41728 L 283.14782,840.41728 L 283.14782,835.56066 L 283.14782,830.70404 z "
         style="fill:#000000;fill-opacity:1"
         id="path3501" />
    </g>
  </g>
</svg>
